
<svg xmlns="http://www.w3.org/2000/svg" viewBox="0 0 55 55">
	<style type="text/css">
		.st0{fill:url(#SVGID_1_);}
		.st1{fill:url(#SVGID_2_);}
		.st2{fill:#F3CFBB;stroke:#E1B7A4;stroke-width:2.500000e-02;stroke-miterlimit:10;}
		.st3{fill:none;stroke:#E1B7A4;stroke-width:0.1;stroke-miterlimit:10;}
		.st4{fill:#F5DECF;}
		.st5{fill:#D0B8A9;}
		.st6{fill:url(#SVGID_3_);stroke:#6B5000;stroke-width:5.000000e-02;stroke-miterlimit:10;}
		.st7{fill:url(#SVGID_4_);stroke:#6B5000;stroke-width:5.000000e-02;stroke-miterlimit:10;}
		.st8{fill:#312D3C;}
		.st9{fill:#FFFFFF;}
		.st10{opacity:0.54;fill:none;stroke:#42353F;stroke-width:0.3;stroke-linecap:round;stroke-miterlimit:10;enable-background:new    ;}
		.st11{opacity:0.44;fill:#AC8167;enable-background:new    ;}
		.st12{opacity:0.44;fill:#987261;enable-background:new    ;}
		.st13{opacity:0.55;fill:url(#SVGID_5_);enable-background:new    ;}
		.st14{fill:url(#SVGID_6_);}
		.st15{fill:#513732;}
		.st16{fill:#DD9E45;}
		.st17{fill:#A75A33;}
		.st18{fill:#FCEEE4;}
	</style>
	<linearGradient id="SVGID_1_" gradientUnits="userSpaceOnUse" x1="27.5" y1="53.9614" x2="27.5" y2="3.0386" gradientTransform="matrix(1 0 0 -1 0 56)">
		<stop  offset="0" style="stop-color:#B2C5E5"/>
		<stop  offset="1" style="stop-color:#A7BBE3"/>
	</linearGradient>
	<radialGradient id="SVGID_2_" cx="27.5776" cy="14.0839" r="23.989" gradientTransform="matrix(1 0 0 -1 0 56)" gradientUnits="userSpaceOnUse">
		<stop  offset="0" style="stop-color:#FFFDF8"/>
		<stop  offset="0.3657" style="stop-color:#F6DFD1"/>
		<stop  offset="0.5612" style="stop-color:#CFB094"/>
		<stop  offset="0.592" style="stop-color:#CFAF92"/>
		<stop  offset="0.7915" style="stop-color:#CCA383"/>
		<stop  offset="1" style="stop-color:#B18266"/>
	</radialGradient>
	<linearGradient id="SVGID_3_" gradientUnits="userSpaceOnUse" x1="19.8886" y1="27.1454" x2="19.7194" y2="21.1778" gradientTransform="matrix(1 0 0 -1 0 56)">
		<stop  offset="1.023941e-02" style="stop-color:#675277"/>
		<stop  offset="0.2377" style="stop-color:#6B567B"/>
		<stop  offset="0.6425" style="stop-color:#A792AF"/>
		<stop  offset="1" style="stop-color:#BBA9D2"/>
	</linearGradient>
	<linearGradient id="SVGID_4_" gradientUnits="userSpaceOnUse" x1="34.8252" y1="27.7424" x2="34.8252" y2="20.8855" gradientTransform="matrix(1 0 0 -1 0 56)">
		<stop  offset="1.023941e-02" style="stop-color:#675277"/>
		<stop  offset="0.2377" style="stop-color:#6B567B"/>
		<stop  offset="0.6425" style="stop-color:#A792AF"/>
		<stop  offset="1" style="stop-color:#BBA9D2"/>
	</linearGradient>
	<radialGradient id="SVGID_5_" cx="27.3036" cy="-29.0826" r="7.1504" gradientTransform="matrix(1 0 0 -1.4128 0 -22.1941)" gradientUnits="userSpaceOnUse">
		<stop  offset="0" style="stop-color:#FFFDF8"/>
		<stop  offset="0.3657" style="stop-color:#F6DFD1"/>
		<stop  offset="0.8398" style="stop-color:#CFB094;stop-opacity:0.38"/>
		<stop  offset="1" style="stop-color:#CFB094;stop-opacity:0"/>
	</radialGradient>
	<radialGradient id="SVGID_6_" cx="27.8833" cy="61.9632" r="58.5688" gradientTransform="matrix(1 0 0 -1 0 56)" gradientUnits="userSpaceOnUse">
		<stop  offset="0" style="stop-color:#573432"/>
		<stop  offset="0.2077" style="stop-color:#6F483E"/>
		<stop  offset="0.3862" style="stop-color:#746058"/>
		<stop  offset="0.6897" style="stop-color:#50332F"/>
		<stop  offset="0.8854" style="stop-color:#773C2F"/>
		<stop  offset="1" style="stop-color:#763C31"/>
	</radialGradient>
	<path class="st0" d="M46.1,53H8.9C5.1,53,2,49.9,2,46.1V8.9C2,5.1,5.1,2,8.9,2h37.1C49.9,2,53,5.1,53,8.9V46 C53,49.9,49.9,53,46.1,53z"/>
	<g id="Face">
		<path class="st1" d="M18,45.6c-2-1.6-4.6-6.3-5-8.8c-0.3-2.5-0.4-6.4,0-8s1.2-9.6,5-10.1s18.1-0.6,20.1,0.3 c1.9,0.9,3.7,8.1,3.9,10.2c0.3,2.1,0.6,6.3-0.5,9.9c-1.1,3.6-2.7,5.8-4.3,7.3c-1.1,0.9-5.2,3.4-9.1,3.4 C23.7,49.6,19.5,46.9,18,45.6z"/>
		<g id="Mouth">
			<path class="st2" d="M23.4,43.8c0.7,0.3,0.9,0.4,1.4,0.4c0.7,0,1.1-0.5,1.8-0.5s0.6,0.5,1.3,0.5c0.8,0,0.8-0.4,1.4-0.4 c0.6,0,1.3,0.4,2.1,0.4c0.8,0,1.1-0.3,1.3-0.4c-1,0-2.1-0.6-2.5-1c-0.4-0.4-1-0.3-1.4-0.1c-0.4,0.3-0.9,0.4-1.3,0.1 c-0.5-0.4-1.1-0.4-1.6,0C25.5,43.2,24.3,44,23.4,43.8z"/>
			<path class="st3" d="M23.4,43.8c0.7,0.3,0.9,0.4,1.4,0.4c0.7,0,1.1-0.5,1.8-0.5s0.6,0.5,1.3,0.5c0.8,0,0.8-0.4,1.4-0.4 c0.6,0,1.3,0.4,2.1,0.4c0.8,0,1.1-0.3,1.3-0.4"/>
		</g>
		<g id="Nose">
			<path class="st4" d="M25,37.5c-0.9,0.8-0.9,2.5,0.5,2.7c1.4,0,1.4,0.4,2.2,0.4c0.7,0,1-0.5,1.8-0.4c0.7,0.1,1.5-0.4,1.4-1.1 c-0.1-0.7-0.4-1.2-0.6-1.4c-0.1,1-1.3,1.3-2.6,1.3C26.7,39,24.9,38.8,25,37.5z"/>
			<path class="st5" d="M26.3,40.1c0.3,0,0.5-0.2,0-0.4c-0.5-0.2-0.7,0.1-0.6,0.2C25.9,40,26,40.1,26.3,40.1z"/>
			<path class="st5" d="M29.1,40.1c-0.2,0-0.4-0.2-0.1-0.3c0.2-0.1,0.7-0.1,0.8,0C29.8,40,29.5,40.1,29.1,40.1z"/>
		</g>
		<g id="Eyes">
			<path class="st6" d="M15.5,31.5c0.8-1.8,2.5-2.8,4.2-2.8c1.5,0,2.6,0.4,3.4,1.2c0.5,0.5,0.9,2,0.9,3.1c-0.7,1.6-2.7,2.5-4.3,2.4 C17.7,35.2,15.8,33.7,15.5,31.5z"/>
			<path class="st7" d="M39,31c-0.7-1.5-2-2.5-3.7-2.7c-1.5-0.2-2.9,0.2-3.9,1.6c-0.7,1-0.9,2.4-0.8,3.5c0.8,1.3,2.3,1.8,3.8,1.7 C36.9,35,38.7,33.2,39,31z"/>
			<path class="st8" d="M23.3,31.7c0,1.7-1.4,3.1-3.1,3.1c-1.7,0-3.1-1.4-3.1-3.1c0-1.7,1.4-3,3.1-3C21.9,28.7,23.3,30,23.3,31.7z"/>
			<circle class="st8" cx="34.4" cy="31.5" r="3.1"/>
			<ellipse transform="matrix(0.3669 -0.9303 0.9303 0.3669 -13.9919 38.8477)" class="st9" cx="21.5" cy="29.7" rx="0.3" ry="0.6"/>
			<ellipse transform="matrix(0.3669 -0.9303 0.9303 0.3669 -5.0855 51.3453)" class="st9" cx="35.2" cy="29.4" rx="0.3" ry="0.6"/>
		</g>
		<path class="st10" d="M15.5,31.5c0.8-1.8,2.5-2.8,4.2-2.8c1.5,0,2.6,0.4,3.4,1.2c0.5,0.5,0.9,2,0.9,3.1"/>
		<path class="st10" d="M39,31c-0.7-1.5-2-2.5-3.7-2.7c-1.5-0.2-2.9,0.2-3.9,1.6c-0.7,1-0.9,2.4-0.8,3.5"/>
		<path class="st11" d="M30.1,27.7c0.6,0.2,1.7-1.4,3.5-1.6c1.8-0.2,5,0.2,6.3,1c-2.9-1.7-5-1.8-6.6-1.7c-1.6,0.1-2.6,0.7-3.1,1.2 C29.5,27,29.5,27.6,30.1,27.7z"/>
		<path class="st11" d="M23.9,27.8c-0.6,0.2-1.7-1.4-3.5-1.6c-1.8-0.2-5,0.2-6.3,1c2.9-1.7,5-1.8,6.6-1.7c1.6,0.1,2.6,0.7,3.1,1.2 C24.4,27,24.5,27.6,23.9,27.8z"/>
		<path class="st12" d="M24.3,30.5c-0.5-2.4-2.3-3.8-5.1-3.7s-4.6,2.3-5,3.4c1.3-1.5,3.2-2.7,5-2.7C21.1,27.5,23.5,28.4,24.3,30.5z" />
		<path class="st12" d="M30.1,30.5c0.5-2.4,2.3-3.8,5.1-3.7c2.8,0.1,4.6,2.3,5,3.4c-1.3-1.5-3.2-2.7-5-2.7 C33.3,27.6,30.9,28.4,30.1,30.5z"/>
	</g>
	<ellipse class="st13" cx="27.3" cy="18.9" rx="8.9" ry="6.5"/>
	<g>
		<path class="st14" d="M47.7,28.3c0-0.5,0-1.2-0.1-2.1c0.1-4.1-0.6-8.3-3.1-12.3c-1.1-1.7-2.6-3.5-4.5-4.9c1.2,0.6,2.5,1.6,4.2,3.2 c-1.3-2.4-4.5-4-6.8-4.8c-2.4-1.2-5.2-1.7-8.3-1c0.7-0.5,2.1-0.7,3.6-0.6c-1.5-0.6-3.6,0-4.7,0.9c0,0-0.1,0-0.2,0.1 c0.4-0.6,1.6-1.4,3-1.9C29.3,5,28,5.7,27.4,6.7c-0.6-1-1.7-1.7-3-2c1.1,0.5,2,1.3,2.5,1.9c-0.1,0-0.3-0.1-0.3-0.1 c-0.9-1.1-2.6-1.5-4.2-1.1c1.3,0,2,0.2,2.7,0.7c-3-0.5-6.5,0.8-8.6,2.1c-0.5,0.3-1.1,0.7-1.7,1.2l0,0c-1.6,0.9-4.2,3.2-4.5,3.8 c1.2-1.3,1.3-1.1,1.8-1.4C10.9,13,9.4,14.5,9,15.2c0.8-0.9,1.6-1.5,2.3-2c-1,1.5-1.9,3.3-2.5,5.5c-0.4,0.8-0.8,1.7-0.9,2.7 c-0.1,1.4-0.1,2.6-0.5,3.4c-0.4,0.8-0.7,1.4-1,1.8c0.7-0.9,1.1-1.3,1.2-1.6c0,1.4-0.3,4.8-0.5,5.6c-0.2,0.8-0.3,2.4-0.3,3.2 c0.1-2,0.7-3,0.8-4c0.1-0.6,0.2-1.6,0.3-2.4c0,1.9,0.1,3,0.3,4.7C8.4,32.9,8,33.8,8,34.4c0,0.5,0.1,2.1,0.2,2.6 c-0.1-1.2,0.1-2.3,0.2-2.8c0-0.1,0.1-0.2,0.1-0.4c0,0.2,0.1,0.4,0.1,0.4c-0.2,0.6-0.2,2.5-0.1,3.2c0-0.8,0.1-1.8,0.2-2.5 c0.4,1.5,0.8,2.8,1.3,3.8c1.8,3.7,5.6,10.1,5.6,10.1s3.3-0.6,4.3-0.6c-3.1-3-6.3-8.2-7-11.8c-0.6-2.7,0-8.3,0.7-10.1 c0.4-1,1.2-2.2,2.4-3.3c0.1,0,0.1-0.1,0.2-0.2c-0.2,0.8-0.5,1.5-1.1,2.5c0.6-0.4,1.2-1,1.5-2c0.3-0.8,0.6-1.1,1-1.4 c0.4-0.2,0.7-0.4,1.1-0.6c0,0.1,0,0.2,0,0.3c0,0.6-0.7,1.5-1.7,2.9c1-0.5,2.3-1.5,2.6-2.3c0.2-0.5,0.7-1.1,1.4-1.9 c0.2-0.1,0.5-0.2,0.7-0.3c-0.2,0.5-0.3,1-0.4,1.4c-0.1,0.4-0.3,0.9-1.3,2.1c0.8-0.3,1.4-0.7,2.4-1.5c0.8-0.6,1.1-1.9,1.9-2.7 c0.3-0.1,0.7-0.2,1-0.3c-0.1,1.1-1.2,1.8-1.6,3.3c0.1-0.3,0.5-0.6,1.3-1.1c0.7-0.5,1.4-1.1,2.1-2.8c0.2-0.1,0.3-0.2,0.4-0.3 c0,0.1,0.2,0.2,0.4,0.3c0.5,1.2,1,2.2,1.7,2.7c0.7,0.5,1.1,0.9,1.3,1.2c-0.5-1.5-1.4-1.8-1.1-3.2c0.3,0.1,0.6,0.2,0.9,0.3 c0.9,0.6,1.5,1.5,2,2.4c0.6,1.1,1.6,1.7,2.4,2c-1-1.1-1.2-1.7-1.3-2.1c-0.1-0.4-0.2-1-0.4-1.5c0.3,0.1,0.5,0.2,0.8,0.3 c0.6,0.4,0.9,0.9,1.1,1.3c0.3,0.9,1.2,2.7,2.8,3.2c-1.2-0.9-1.6-2.2-1.7-2.9c0-0.2,0-0.6-0.1-0.9c0.3,0.1,0.6,0.2,0.9,0.4 c0.6,0.3,1,0.5,1.3,1.5c0.3,1,1.2,1.5,1.8,1.9c-0.7-1.2-1.1-1.7-1.3-2.5c0.5,0.3,0.8,0.6,1,0.8c1.7,2.4,2.4,7.5,2.3,9.6 c-0.1,2.1-1.7,8.3-2.5,10.2c-0.8,1.9-2.5,4.2-3.2,5.2c1.2,0,4.3,0.3,4.3,0.3c1.9-3.3,3.7-8.4,5-13c0.2,0.7-0.1,1.8,0,2.5 c0.2-0.5,0.5-1.3,0.5-2.3c0,0.5,0.1,1.1,0.2,2.1c0-0.2,0-0.5,0.1-1c0.1-0.7,0.1-2.7,0-4.3c0.2-1,0.4-2,0.5-2.9 c0.3,0.6,0.7,1.1,0.7,1.4c0.1,0.5,0.1,0.9-0.1,2.6c0.2-0.4,0.3-0.9,0.5-1.9C48.5,31.3,47.6,29.3,47.7,28.3z M46.4,35.3 c0,0,0,0.1,0,0.1c0,0,0,0,0,0C46.4,35.4,46.4,35.3,46.4,35.3z"/>
		<path class="st15" d="M23.9,22.5C23.8,22.5,23.8,22.5,23.9,22.5C23.8,22.5,23.8,22.5,23.9,22.5z"/>
		<path class="st15" d="M31,22.5C31,22.5,31.1,22.5,31,22.5C31.1,22.5,31,22.5,31,22.5z"/>
	</g>
	<g id="Bar">
		<path class="st16" d="M2,45.2v0.9c0,0.4,0,0.9,0.1,1.3h50.7c0.1-0.4,0.1-0.8,0.1-1.3v-0.9H2z"/>
		<path class="st17" d="M2.1,47.1C2.6,50.4,5.5,53,9,53h37.1c3.5,0,6.3-2.5,6.8-5.9H2.1z"/>
	</g>
	<g id="Fingers">
		<path class="st18" d="M14,43c-0.3-1.4-0.7-1.8-1.2-1.8c-0.5,0-1,0.5-1,1.7c0,1.1,0.1,3.1,0.1,4.5c0,1.3,1,1.6,1.4,1.5 c0.6-0.1,0.9-0.8,0.8-1.7C14.2,46.3,14.1,43.6,14,43z"/>
		<path class="st18" d="M9.2,42.8C9.2,41.7,9.7,41,10.3,41c0.9,0,1.2,0.8,1.2,1.5c0,0.7,0.1,4.3,0,5c-0.1,0.7-0.3,1.5-1.1,1.6 c-1,0-1.2-0.8-1.2-1.9C9.3,46.2,9.3,43.7,9.2,42.8z"/>
		<path class="st18" d="M6.6,43.6c0.1-1.2,0.6-2,1.2-2C8.4,41.6,9,42,9,43.4c0,1.3,0,2.4,0,3.2c0,0.8-0.4,1.3-1,1.2s-1.4-0.7-1.4-2.3 C6.6,44.4,6.5,44,6.6,43.6z"/>
		<path class="st18" d="M4.4,45.7c-0.1-0.7-0.2-1.9-0.1-2.3c0.1-0.6,1.2-1.4,1.8-0.2c0.4,0.8,0.3,2.6,0,3.2C5.9,46.9,4.7,47,4.4,45.7 z"/>
		<path class="st18" d="M37,45.3c-0.3-0.6-0.5-1.5-0.3-1.9s1.3-1.1,2-0.7c0.7,0.3,0.8,0.5,0.8,0.7c0,0.2-0.3,1.5-0.3,1.9 C38.7,45.3,37,45.3,37,45.3z"/>
		<path class="st18" d="M39.6,42.4c0-0.8,0.7-1.5,1.3-1.4s1.3,0.5,1.2,1.6c-0.1,1.1-0.2,3-0.3,3.8c0,0.7-0.5,1.7-1.3,1.6 c-0.9,0-1.3-0.8-1.2-2.2C39.4,44.4,39.5,43,39.6,42.4z"/>
		<path class="st18" d="M42.2,41.5c0-0.8,0.7-1.5,1.3-1.4s1.1,0.5,1.2,1.6c0.1,1.1,0,4.4,0,5.2c0,0.7-0.4,1.7-1.3,1.6 c-0.9,0-1.2-0.8-1.2-2.2C42.2,44.8,42.1,42.2,42.2,41.5z"/>
		<path class="st18" d="M44.7,41.6c0-0.8,0.4-1.5,1-1.4c0.6,0,1,0.6,1,1.7c0,1.2,0.1,2.9,0,3.7c0,0.7-0.3,1.7-1.2,1.6 c-0.7-0.1-0.8-0.8-0.9-2.3C44.7,43.4,44.7,42.2,44.7,41.6z"/>
		<path class="st18" d="M46.8,44.4c0,0.5,0.2,1.2,0.8,1.2c0.7,0,1.2-0.9,1.1-1.5c0-0.7-0.4-1.9-1.2-2.2c-0.8-0.3-0.8,0.1-0.8,0.4 C46.9,42.5,46.8,43.9,46.8,44.4z"/>
		<path class="st18" d="M13.9,42.7c-0.1-0.5,1.3-1,2-0.1c0.6,0.9,0.5,2,0.4,2.7c-1,0.3-1.8,0.1-2.1,0C14.1,43.8,14.1,43.2,13.9,42.7z "/>
	</g>
</svg>
