
<svg xmlns="http://www.w3.org/2000/svg" viewBox="0 0 500 500">
<style type="text/css">
	.st0{fill:url(#SVGID_1_);}
	.st1{fill:url(#SVGID_2_);}
	.st2{fill:#F3CFBB;stroke:#E1B7A4;stroke-width:0.25;stroke-miterlimit:10;}
	.st3{fill:none;stroke:#E1B7A4;stroke-miterlimit:10;}
	.st4{fill:#F5DECF;}
	.st5{fill:#D0B8A9;}
	.st6{fill:url(#SVGID_3_);stroke:#6B5000;stroke-width:0.5;stroke-miterlimit:10;}
	.st7{fill:url(#SVGID_4_);stroke:#6B5000;stroke-width:0.5;stroke-miterlimit:10;}
	.st8{fill:#312D3C;}
	.st9{fill:#FFFFFF;}
	.st10{opacity:0.54;fill:none;stroke:#42353F;stroke-width:3;stroke-linecap:round;stroke-miterlimit:10;}
	.st11{opacity:0.44;fill:#AC8167;}
	.st12{opacity:0.44;fill:#987261;}
	.st13{opacity:0.55;fill:url(#SVGID_5_);}
	.st14{fill:url(#SVGID_6_);}
	.st15{fill:#513732;}
	.st16{fill:#DD9E45;}
	.st17{fill:#A75A33;}
	.st18{fill:#FCEEE4;}
</style>
<linearGradient id="SVGID_1_" gradientUnits="userSpaceOnUse" x1="250" y1="36.1124" x2="250" y2="463.8876">
	<stop  offset="0" style="stop-color:#B2C5E5"/>
	<stop  offset="1" style="stop-color:#A7BBE3"/>
</linearGradient>
<path class="st0" d="M405.9,463.9H94.1c-32,0-58-26-58-58V94.1c0-32,26-58,58-58h311.7c32,0,58,26,58,58v311.7
	C463.9,437.9,437.9,463.9,405.9,463.9z"/>
<g id="Face">
	<radialGradient id="SVGID_2_" cx="250.6018" cy="371.1092" r="201.5305" gradientUnits="userSpaceOnUse">
		<stop  offset="0" style="stop-color:#FFFDF8"/>
		<stop  offset="0.3657" style="stop-color:#F6DFD1"/>
		<stop  offset="0.5612" style="stop-color:#CFB094"/>
		<stop  offset="0.592" style="stop-color:#CFAF92"/>
		<stop  offset="0.7915" style="stop-color:#CCA383"/>
		<stop  offset="1" style="stop-color:#B18266"/>
	</radialGradient>
	<path class="st1" d="M169.9,402.1c-16.5-13.8-38.9-52.6-41.6-74c-2.7-21.4-3.2-53.5,0-67.6c3.2-14.1,10.5-80.6,42.2-85.2
		s152.4-5.3,168.7,2.6c16.3,7.9,30.7,67.8,33.1,85.6c2.3,17.8,5,53.1-4.3,83c-9.2,29.9-22.3,49-36.5,61.1
		c-9.4,7.9-44,28.9-76.7,28.5C217.9,435.6,182.7,412.7,169.9,402.1z"/>
	<g id="Mouth">
		<path class="st2" d="M215.8,386.9c5.7,2.9,7.8,3.6,11.5,3.7c5.8,0,9.5-4,15.5-4c6,0,5.2,4,11,4c6.6,0,6.6-3.3,11.6-3.3
			c5,0,10.9,3.6,17.3,3.3c6.4-0.4,8.9-2.7,10.9-3.7c-8.4,0.2-17.5-4.9-21-8.2c-3.5-3.3-8.7-2.8-11.5-0.6c-3.7,2.9-7.6,3.4-11.1,0.8
			c-4.1-3-9.2-3.6-13.5,0.2C233.1,381.9,223.1,388.2,215.8,386.9z"/>
		<path class="st3" d="M215.8,386.9c5.7,2.9,7.8,3.6,11.5,3.7c5.8,0,9.5-4,15.5-4c6,0,5.2,4,11,4c6.6,0,6.6-3.3,11.6-3.3
			c5,0,10.9,3.6,17.3,3.3c6.4-0.4,8.9-2.7,10.9-3.7"/>
	</g>
	<g id="Nose">
		<path class="st4" d="M229,333.8c-7.9,6.9-7.2,21.4,4,22.5c11.4-0.3,11.5,3.1,18.5,3.1c6.1,0,8.2-4.3,14.9-3.2
			c5.5,0.9,12.8-3.6,12.1-9.6s-3.3-9.9-5.1-11.5c-0.9,8.7-10.9,10.9-22,11C243.3,346.2,228.3,344.8,229,333.8z"/>
		<path class="st5" d="M239.9,356.2c2.9,0.3,4.4-1.8,0-3.5c-4.4-1.8-5.9,1.1-4.7,1.8C236.4,355.1,237.6,356,239.9,356.2z"/>
		<path class="st5" d="M263.1,356c-2.1,0.1-3.1-1.9-1-2.8s6.1-1,6.5,0.3S266.7,355.8,263.1,356z"/>
	</g>
	<g id="Eyes">
		<linearGradient id="SVGID_3_" gradientUnits="userSpaceOnUse" x1="185.9279" y1="261.3773" x2="184.5059" y2="311.5111">
			<stop  offset="1.023941e-02" style="stop-color:#675277"/>
			<stop  offset="0.2377" style="stop-color:#6B567B"/>
			<stop  offset="0.6425" style="stop-color:#A792AF"/>
			<stop  offset="1" style="stop-color:#BBA9D2"/>
		</linearGradient>
		<path class="st6" d="M149.2,283.6c6.4-15.1,21.4-23.2,35.6-23.2c12.3,0,21.7,3,28.5,10c4.1,4.2,7.9,16.6,7.9,25.7
			c-5.6,13.5-22.5,21.1-35.9,20.1C167.9,314.9,151.6,301.9,149.2,283.6z"/>
		<linearGradient id="SVGID_4_" gradientUnits="userSpaceOnUse" x1="311.4511" y1="256.3899" x2="311.4511" y2="314.0094">
			<stop  offset="1.023941e-02" style="stop-color:#675277"/>
			<stop  offset="0.2377" style="stop-color:#6B567B"/>
			<stop  offset="0.6425" style="stop-color:#A792AF"/>
			<stop  offset="1" style="stop-color:#BBA9D2"/>
		</linearGradient>
		<path class="st7" d="M346.6,279.7c-6.3-12.7-17-21.3-31-23c-12.2-1.4-24.1,1.3-32.4,13.4c-5.8,8.4-7.3,20.2-6.7,29.1
			c6.6,10.8,19.4,15.4,31.9,14.7C328.9,312.8,344.1,298,346.6,279.7z"/>
		<path class="st8" d="M214.9,285.7c0,14.3-11.6,26-26,26s-26-11.6-26-26c0-14.3,11.6-25.2,26-25.2S214.9,271.3,214.9,285.7z"/>
		<circle class="st8" cx="307.9" cy="283.2" r="26.1"/>
		
			<ellipse transform="matrix(0.3669 -0.9302 0.9302 0.3669 -123.1743 355.9482)" class="st9" cx="199.9" cy="268.5" rx="2.9" ry="4.8"/>
		
			<ellipse transform="matrix(0.3669 -0.9302 0.9302 0.3669 -48.4395 460.9533)" class="st9" cx="314.5" cy="266.1" rx="2.9" ry="4.8"/>
	</g>
	<path class="st10" d="M149.2,283.6c6.4-15.1,21.4-23.2,35.6-23.2c12.3,0,21.7,3,28.5,10c4.1,4.2,7.9,16.6,7.9,25.7"/>
	<path class="st10" d="M346.6,279.7c-6.3-12.7-17-21.3-31-23c-12.2-1.4-24.1,1.3-32.4,13.4c-5.8,8.4-7.3,20.2-6.7,29.1"/>
	<path class="st11" d="M271.6,251.8c4.9,1.3,14-11.9,29.1-13.5c14.9-1.6,41.6,1.6,53.2,8.2c-24.1-14.2-42.4-15-55.8-14.5
		c-13.3,0.5-21.8,5.8-26.4,9.7C267,245.5,266.5,250.5,271.6,251.8z"/>
	<path class="st11" d="M219.4,252.3c-4.9,1.3-14-11.9-29.1-13.5c-14.9-1.6-41.6,1.6-53.2,8.2c24.1-14.2,42.4-15,55.8-14.5
		c13.3,0.5,21.8,5.8,26.4,9.7S224.4,251,219.4,252.3z"/>
	<path class="st12" d="M223,275.2c-3.9-20.5-19-31.7-42.9-30.8c-23.9,0.9-39,19.2-41.9,28.2c11.1-12.2,26.6-22.9,42.4-22.6
		S216.1,257.2,223,275.2z"/>
	<path class="st12" d="M272,275.6c3.9-20.5,19-31.7,42.9-30.8c23.9,0.9,39,19.2,41.9,28.2c-11.1-12.2-26.6-22.9-42.4-22.6
		C298.6,250.7,278.9,257.5,272,275.6z"/>
</g>
<radialGradient id="SVGID_5_" cx="248.3437" cy="193.7051" r="60.0473" gradientTransform="matrix(1 0 0 1.4128 0 -95.9445)" gradientUnits="userSpaceOnUse">
	<stop  offset="0" style="stop-color:#FFFDF8"/>
	<stop  offset="0.3657" style="stop-color:#F6DFD1"/>
	<stop  offset="0.8398" style="stop-color:#CFB094;stop-opacity:0.38"/>
	<stop  offset="1" style="stop-color:#CFB094;stop-opacity:0"/>
</radialGradient>
<ellipse class="st13" cx="248.3" cy="177.7" rx="75.1" ry="54.7"/>
<g>
	<radialGradient id="SVGID_6_" cx="253.1702" cy="-31.1224" r="492.0333" gradientUnits="userSpaceOnUse">
		<stop  offset="0" style="stop-color:#573432"/>
		<stop  offset="0.2077" style="stop-color:#6F483E"/>
		<stop  offset="0.3862" style="stop-color:#746058"/>
		<stop  offset="0.6897" style="stop-color:#50332F"/>
		<stop  offset="0.8854" style="stop-color:#773C2F"/>
		<stop  offset="1" style="stop-color:#763C31"/>
	</radialGradient>
	<path class="st14" d="M419.5,257.1c0.1-3.9-0.4-10.3-1.1-17.4c1.1-34.4-4.8-70.1-25.8-103.5c-9.2-14.6-21.9-29.3-37.4-41.1
		c9.7,5.1,21.1,13.1,35.4,26.7c-11.1-20.2-37.5-33.8-57.4-40.3c-20.3-9.8-43.9-14.1-69.5-8.3c5.5-4.1,18-6.3,30.1-5.3
		c-12.6-5.1-30.4-0.3-39.2,7.8c0,0-1.1,0.4-1.7,0.6c3-5.3,13.4-12.1,24.9-16.1c-12.4,0.9-23.4,6.7-28.7,15
		c-4.7-8-14.3-14.4-25.6-16.6c8.9,4.4,16.9,10.6,20.8,15.8c-0.9-0.3-2.8-1-2.8-1c-7.8-9.1-21.7-12.6-34.9-9.1
		c10.9,0.4,16.7,1.9,22.4,5.9c-24.9-3.8-54.8,6.6-72.2,17.5c-4.2,2.7-9,6-13.9,10.1c0,0,0,0,0,0c-13.7,7.3-35.1,26.5-38.1,31.8
		c10.4-11,10.6-9.6,15.2-11.9c-9.5,10.8-21.8,22.7-25.8,29.3c7-7.3,13.6-13,19-16.9c-8.7,12.8-16.3,28.1-20.9,46.1
		c-3.7,6.6-7,14.2-7.4,22.3c-0.6,12.1-0.8,21.8-4.4,28.4c-3.5,6.6-6.2,11.7-8.4,15.1c6.2-7.6,9.2-10.9,10.1-13.5
		c0.4,11.9-2.6,40.7-4.2,47.2c-1.5,6.5-2.9,20.4-2.6,26.5c1.1-16.9,5.7-25.4,6.8-33.6c0.7-5.3,1.5-13.3,2.6-19.8
		c0.2,16,0.7,25.4,2.9,39.2c1.4,7.1-1.7,15-1.9,20c-0.1,4.6,0.9,17.4,1.7,21.8c-1.1-9.9,0.6-19.2,1.7-23.2c0.2-0.9,0.7-2,1.2-3.1
		c0.4,2,0.7,3.4,0.7,3.4c-2.1,5.3-1.9,20.8-0.7,27.1c0-6.4,0.9-14.9,2.1-20.9c3,12.5,6.8,23.3,10.9,31.7c15.1,31.4,47.4,85,47.4,85
		s27.9-5.3,36.4-5.4c-26.4-24.8-52.7-69.2-59.2-99.4c-4.9-22.8-0.2-70,5.7-84.5c3.4-8.2,10.3-18.5,20.2-27.7
		c0.5-0.4,1.1-0.8,1.7-1.3c-1.3,6.6-4,12.6-9.2,21.1c5-3.2,10-8.5,12.8-16.6c2.2-6.4,5.3-9.3,8.8-12c3-1.6,6.3-3.2,9.6-4.7
		c-0.1,1-0.1,1.9-0.2,2.7c-0.3,5.4-5.6,13-14.2,24.3c8.6-4,19.5-12.3,22.1-19.6c1.5-4.1,5.8-9.6,12-15.6c2.1-0.8,4.2-1.5,6.1-2.2
		c-1.3,4.2-2.4,8.8-3.3,12c-0.9,3.3-2.3,7.9-11,17.5c6.5-2.3,12-6.3,19.9-12.6c6.4-5.1,9.5-16.1,15.6-22.9c2.9-0.8,5.8-1.6,8.4-2.3
		c-1.1,9-9.8,15.3-13.6,27.5c1-2.7,4.3-5,10.7-9.5c6.2-4.4,11.6-9.4,17.8-23.5c1.7-1,2.9-2,3.3-2.9c0.3,0.8,1.4,1.7,3.2,2.7
		c4.2,10.1,8.2,18.2,14.6,22.7c6.3,4.5,9.6,7.6,10.6,10.4c-4-12.8-11.6-15.3-9.4-26.8c2.3,0.8,4.7,1.5,7.2,2.4
		c7.7,5.1,12.4,12.3,16.7,20.4c4.8,8.9,13.7,14.5,20.2,16.8c-8.7-9.6-10.1-14.2-11-17.5c-0.9-3.4-2.1-8.2-3.5-12.6
		c2.2,0.7,4.5,1.4,6.7,2.2c4.9,3.7,7.9,7.2,9.3,11c2.6,7.3,10.3,23.1,23.2,27.1c-9.8-7.9-13.8-18.8-14.2-24.3
		c-0.1-2-0.3-4.9-0.9-7.7c2.7,1,5.3,2,7.8,3.1c4.7,2.7,8,4.2,11,12.8c2.8,8.1,10.2,12.9,15.3,16.1c-6.2-10.2-9.5-13.9-10.7-21.3
		c3.8,2.3,6.8,4.7,8.5,7.1c14.2,19.8,19.8,63.1,19.2,80.9c-0.7,17.8-14.5,69.9-21.1,86c-6.6,16.2-21.2,35.1-26.8,43.6
		c9.9,0,36.3,2.6,36.3,2.6c15.6-27.4,31.2-70.7,41.6-109.2c2,6.1-0.8,15.4-0.4,20.9c1.3-3.9,4.2-11.2,4.1-19.3
		c0.2,3.8,0.6,9.2,1.8,17.7c0-2.1,0.1-4.6,0.5-8.3c0.6-6.1,0.8-22.5,0.2-35.9c1.9-8.7,3.4-16.8,4.5-24.1c2.5,4.9,5.6,9.2,6.1,11.8
		c0.9,4.4,1.1,7.9-1.1,21.8c1.7-3.7,2.9-7.5,4.2-15.6S419.2,265.5,419.5,257.1z M408.4,315.4c0,0.3,0,0.6,0,0.9c0,0.1,0,0.3,0,0.4
		C408.4,316.3,408.4,315.8,408.4,315.4z"/>
	<path class="st15" d="M219.3,207.8c-0.1,0.2-0.2,0.5-0.2,0.7C219.2,208.3,219.2,208,219.3,207.8z"/>
	<path class="st15" d="M279.6,207.7c0.1,0.3,0.2,0.5,0.2,0.8C279.8,208.3,279.7,208,279.6,207.7z"/>
</g>
<g id="Bar">
	<path class="st16" d="M36.1,398.6v7.3c0,3.7,0.4,7.3,1,10.8h425.7c0.7-3.5,1-7.1,1-10.8v-7.3H36.1z"/>
	<path class="st17" d="M36.8,414.7c4.3,27.9,28.3,49.2,57.4,49.2h311.7c29,0,53.1-21.3,57.4-49.2H36.8z"/>
</g>
<g id="Fingers">
	<path class="st18" d="M136.5,380.2c-2.7-12-6-15.2-10-15.2c-3.9,0-8.1,4.4-8.1,14.2c-0.1,9.4,1.1,26.2,0.8,37.5
		c-0.3,10.8,8.4,13.6,11.9,12.8c4.8-1.1,7.2-6.5,7-14C137.9,408,137.6,385.2,136.5,380.2z"/>
	<path class="st18" d="M96.4,378.4c-0.5-9.3,4.1-14.9,9.1-14.9c7.2,0,10.2,6.8,10.2,12.7c0,5.9,0.5,35.8,0,42.1s-2.8,13-9.6,13.1
		c-8.3,0-10.1-7-9.8-16.1C96.7,407,96.8,386.5,96.4,378.4z"/>
	<path class="st18" d="M74.2,385c0.6-9.8,4.7-16.8,10-16.8c5.4,0,10.6,3.9,10.4,15.2c-0.2,11.3,0.4,20.4,0,27.2S91,421.2,85.8,421
		c-5.2-0.2-11.9-5.7-11.6-19.2C74.4,391.8,73.9,388.9,74.2,385z"/>
	<path class="st18" d="M56.3,403.1c-1-5.7-1.5-15.7-0.9-19.7c0.7-4.8,10.3-11.6,15.2-1.8c3.5,7.1,2.4,22.2,0,27.2
		C68.8,412.6,58.1,413.5,56.3,403.1z"/>
	<path class="st18" d="M330.1,399.4c-2.9-5.3-4-12.4-2.2-16c1.8-3.6,11-9.1,16.5-6.2c5.5,2.9,6.8,4.5,6.8,6.2c0,1.7-2.4,12.7-2.4,16
		C343.7,399.4,330.1,399.4,330.1,399.4z"/>
	<path class="st18" d="M351.2,374.8c0.3-7.1,6.2-12.3,11-12.1s10.6,4.4,9.9,13.7s-2.1,25.4-2.4,32.1c-0.3,6.2-3.9,14.2-11.1,13.8
		c-7.3-0.4-11.3-6.5-10-18.4C349.8,391.6,350.9,380.2,351.2,374.8z"/>
	<path class="st18" d="M373.2,367.9c0.3-7.1,6.2-12.3,11-12.1s9.4,4.3,9.9,13.7c0.5,9.5,0.2,37.1-0.1,43.7
		c-0.3,6.2-3.3,14.2-10.6,13.8s-9.8-6.4-10-18.4C373.2,395.7,372.9,373.3,373.2,367.9z"/>
	<path class="st18" d="M394.5,368.4c0.3-7.1,3.2-12.3,8-12.1s8.4,5.3,8.8,14.7c0.4,9.7,0.6,24.3,0.3,30.9
		c-0.3,6.2-2.6,14.2-9.9,13.5c-5.9-0.5-7-7-7.2-19C394.3,383.6,394.2,373.8,394.5,368.4z"/>
	<path class="st18" d="M412.3,391.8c0,4.2,1.4,10.1,6.9,10.2c5.5,0.1,10-7.3,9.6-12.8c-0.4-5.5-3.2-16.2-10-18.9s-6.8,0.7-6.5,3.1
		C412.6,375.9,412.3,387.4,412.3,391.8z"/>
	<path class="st18" d="M136,377.3c-0.9-4.6,11.1-8.7,16.4-1.1c5.3,7.6,4.3,17.2,3.3,23.1c-8.6,2.3-14.8,1-17.5,0.4
		C137.2,386.6,137,382.3,136,377.3z"/>
</g>
</svg>
