<svg xmlns="http://www.w3.org/2000/svg" width="0" height="0">
	<svg id="tool-move" viewBox="0 0 500 500">
		<polygon points="13.649,397.297 108.41,270.95 264.234,270.95 13.649,20.366 	"/>
		<polygon points="486.351,348.227 430.929,307.107 430.929,334.511 368.658,334.511 368.658,272.243 396.065,272.243 
			354.944,216.821 313.823,272.243 341.23,272.243 341.23,334.511 278.962,334.511 278.962,307.107 223.539,348.227 278.962,389.349 
			278.962,361.943 341.23,361.943 341.23,424.211 313.823,424.211 354.944,479.634 396.065,424.211 368.658,424.211 368.658,361.943 
			430.929,361.943 430.929,389.349"/>
	</svg>

	<svg id="tool-crop" viewBox="0 0 500 500">
		<polyline fill="none" stroke="#000000" stroke-width="58" points="30.068,144.614 352.63,144.614 352.63,478.178 "/>
		<polyline fill="none" stroke="#000000" stroke-width="58" points="464.43,355.385 141.868,355.385 141.868,21.823 "/>
		<line fill="none" stroke="#000000" stroke-width="20" x1="141.868" y1="355.385" x2="469.932" y2="27.325"/>
	</svg>

	<svg id="tool-wand" viewBox="0 0 500 500">
		<path d="M341.176,187.143l77.546-77.545l-28.319-28.318l-77.545,77.545L341.176,187.143z M459.479,109.598
			c0,4.499-1.588,8.733-4.765,11.91L114.361,461.861c-3.176,3.176-7.41,4.764-11.91,4.764c-4.499,0-8.733-1.588-11.909-4.764
			l-52.403-52.403c-3.176-3.176-4.764-7.41-4.764-11.909c0-4.5,1.588-8.734,4.764-11.91L378.493,45.285
			c3.176-3.176,7.41-4.764,11.909-4.764c4.5,0,8.734,1.588,11.91,4.764l52.402,52.402
			C457.892,100.863,459.479,105.098,459.479,109.598z M101.922,59.312l25.938,7.939l-25.938,7.939l-7.939,25.938l-7.939-25.938
			l-25.938-7.939l25.938-7.939l7.939-25.938L101.922,59.312z M194.554,102.188l51.873,15.879l-51.873,15.88l-15.88,51.874
			l-15.879-51.874l-51.874-15.88l51.874-15.879l15.879-51.874L194.554,102.188z M440.688,228.695l25.937,7.939l-25.937,7.939
			l-7.94,25.938l-7.939-25.938l-25.937-7.939l25.937-7.939l7.939-25.938L440.688,228.695z M271.306,59.312l25.937,7.939l-25.937,7.939
			l-7.94,25.938l-7.939-25.938l-25.938-7.939l25.938-7.939l7.939-25.938L271.306,59.312z"/>
	</svg>

	<svg id="tool-pencil" viewBox="0 0 500 500">
		<path d="M137.834,428.981l25.874-25.873l-66.816-66.816l-25.873,25.874v30.422h36.394v36.394H137.834z M286.535,165.129
		c0-3.695-2.559-6.254-6.255-6.254c-1.706,0-3.412,0.568-4.833,1.99L121.344,314.968c-1.422,1.422-1.99,3.128-1.99,4.834
		c0,3.696,2.559,6.255,6.255,6.255c1.706,0,3.412-0.568,4.833-1.99l154.104-154.104C285.967,168.541,286.535,166.836,286.535,165.129
		z M271.182,110.539l118.279,118.279L152.903,465.375H34.625V347.097L271.182,110.539z M465.375,137.834
		c0,9.668-3.98,19.051-10.52,25.59l-47.198,47.197L289.379,92.343l47.197-46.913c6.54-6.824,15.923-10.805,25.59-10.805
		s19.049,3.98,25.873,10.805l66.816,66.531C461.395,118.785,465.375,128.168,465.375,137.834z"/>
	</svg>

	<svg id="tool-droplet" viewBox="0 0 500 500">
		<path d="M387.248,250.104C359.419,180.107,293.914,96.378,250,35.5c-43.914,60.878-109.419,144.607-137.249,214.604
			c-15.828,44.15-17.391,92.074,4.897,134.437C143.278,433.247,194.961,464.5,250,464.5s106.722-31.253,132.351-79.96
			C404.64,342.178,403.076,294.254,387.248,250.104z"/>
	</svg>

	<svg id="tool-eraser" viewBox="0 0 500 500">
		<polygon stroke="#000000" stroke-width="3.2707" stroke-linejoin="round" points="254.282,421.101 20.424,421.101 58.855,283.912 288.624,283.912 "/>
		<polygon stroke="#000000" stroke-width="3.2707" stroke-linejoin="round" points="65.988,273.509 267.574,78.899 477.691,78.899 292.896,273.509 "/>
		<polygon stroke="#000000" stroke-width="3.2707" stroke-linejoin="round" points="267.574,413.877 458.667,191.5 479.576,91.537 300.663,280.05 "/>
	</svg>

	<svg id="tool-shape-rect" viewBox="0 0 500 500">
		<rect x="43.5" y="94.293" width="413.001" height="311.413"/>
	</svg>
	
	<svg id="tool-pointer" viewBox="0 0 500 500">
		<polygon points="388.471,299.693 111.53,22.752 111.53,439.318 194.455,328.752 269.02,477.249 326.061,448.61 251.285,299.693 "/>
	</svg>
	
	<svg id="tool-other-tools" viewBox="0 0 500 500">
		<circle cx="250" cy="250" r="46.5"/>
		<circle cx="409" cy="250" r="46.5"/>
		<circle cx="91" cy="250" r="46.5"/>
	</svg>

	<svg id="tool-pipette" viewBox="0 0 500 500">
		<path d="M456.208,43.792c-21.724-21.723-56.942-21.723-78.666,0l-74.798,74.798L250,65.845l-58.999,58.999l46.25,46.25
			L32.082,376.262c-3.497,3.497-4.983,8.238-4.477,12.801H27.5v69.531c0,7.681,6.227,13.906,13.906,13.906h69.531c0,0,1.158,0,1.738,0
			c4.004,0,8.008-1.527,11.062-4.582L328.907,262.75l46.249,46.249L434.155,250l-52.744-52.744l74.797-74.798
			C477.931,100.734,477.931,65.516,456.208,43.792z M102.72,444.688H55.312V397.28l204.063-204.062l47.406,47.406L102.72,444.688z"/>
	</svg>

	<svg id="tool-brush" viewBox="0 0 500 500">
		<path d="M432.544,130.251c-21.405,26.019-80.093,97.864-126.711,154.972l-59.191-60.093
			c53.537-47.646,119.806-106.537,143.755-127.626c42.604-37.551,79.966-59.888,88.086-50.758
			C483.568,51.802,470.062,84.598,432.544,130.251L432.544,130.251z M295.485,297.86c-18.056,22.101-33.6,41.136-43.109,52.811
			l-70.077-68.292c11.358-10.11,30.268-26.934,52.194-46.429L295.485,297.86z M241.934,363.467v-0.189
			c-40.678,156.077-221.446,66.349-221.446,66.349s75.843,9.558,75.843-61.183c0-68.576,69.697-74.769,73.979-75.085l71.767,69.935
			C242.075,363.309,241.934,363.467,241.934,363.467L241.934,363.467z"/>
	</svg>

	<svg id="tool-pen" viewBox="0 0 500 500">
		<path d="M475.898,151.768L348.233,24.103c-4.166-4.165-9.659-3.229-12.209,2.083l-17.116,35.66l119.247,119.247l35.66-17.116
			C479.127,161.427,480.063,155.933,475.898,151.768z"/>
		<path d="M178.594,91.717c-7.811,0.967-14.316,2.632-16.553,12.831c-0.002,0.011-0.006,0.019-0.008,0.03
			C130.158,257.687,21.5,407.094,21.5,407.094l25.605,25.605L168.49,311.312c-2.676-5.592-4.178-11.854-4.178-18.469
			c0-23.662,19.182-42.844,42.844-42.844S250,269.182,250,292.844s-19.182,42.844-42.844,42.844c-6.614,0-12.876-1.501-18.469-4.177
			L67.302,452.896L92.906,478.5c0,0,149.408-108.657,302.516-140.532c0.011-0.004,0.02-0.006,0.03-0.009
			c10.199-2.235,11.865-8.743,12.831-16.553l9.796-117.545L296.14,81.92L178.594,91.717z"/>
	</svg>

	<svg id="tool-marquee-rect" viewBox="0 0 500 500">
		<rect x="188.114" y="42.5" width="121.354" height="43.685"/>
		<rect x="24.299" y="205.107" width="43.685" height="92.203"/>
		<rect x="188.114" y="413.816" width="121.354" height="43.684"/>
		<rect x="432.019" y="205.107" width="43.684" height="92.203"/>
		<polygon points="360.435,86.185 432.019,86.185 432.019,154.143 475.702,154.143 475.702,42.5 360.435,42.5"/>
		<polygon points="67.983,154.143 67.983,86.185 137.149,86.185 137.149,42.5 24.299,42.5 24.299,154.143"/>
		<polygon points="137.149,413.816 67.983,413.816 67.983,348.275 24.299,348.275 24.299,457.5 137.149,457.5"/>
		<polygon points="432.019,348.275 432.019,413.816 360.435,413.816 360.435,457.5 475.702,457.5 475.702,348.275"/>
	</svg>

	<svg id="tool-character" viewBox="0 0 500 500">
		<path d="M415.711,47.198l4.486,95.12h-11.366c-2.197-16.751-5.188-28.716-8.975-35.895c-6.183-11.562-14.408-20.087-24.678-25.575
			c-10.271-5.482-23.777-8.226-40.529-8.226h-57.13v309.885c0,24.931,2.691,40.483,8.075,46.663
			c7.576,8.375,19.24,12.563,34.996,12.563h14.059v11.066H162.657v-11.066h14.358c17.147,0,29.313-5.185,36.492-15.555
			c4.384-6.38,6.582-20.938,6.582-43.672V72.623h-48.758c-18.946,0-32.407,1.397-40.38,4.188
			c-10.372,3.791-19.247,11.068-26.622,21.835c-7.38,10.769-11.769,25.328-13.161,43.672H79.802l4.785-95.12H415.711z"/>
	</svg>

	<svg id="tool-pressure" viewBox="0 0 500 500">
		<path d="M415.711,47.198l4.486,95.12h-11.366c-2.197-16.751-5.188-28.716-8.975-35.895c-6.183-11.562-14.408-20.087-24.678-25.575
			c-10.271-5.482-23.777-8.226-40.529-8.226h-57.13v309.885c0,24.931,2.691,40.483,8.075,46.663
			c7.576,8.375,19.24,12.563,34.996,12.563h14.059v11.066H162.657v-11.066h14.358c17.147,0,29.313-5.185,36.492-15.555
			c4.384-6.38,6.582-20.938,6.582-43.672V72.623h-48.758c-18.946,0-32.407,1.397-40.38,4.188
			c-10.372,3.791-19.247,11.068-26.622,21.835c-7.38,10.769-11.769,25.328-13.161,43.672H79.802l4.785-95.12H415.711z"/>
	</svg>

	<svg id="icon-arrow" viewBox="0 0 500 500">
		<path fill="#abb" d="M241.494,401.686L38.997,107.301c-4.664-8.506-0.549-15.365,9.055-15.365h403.896c9.604,0,13.721,6.859,9.056,15.365
	L258.506,401.686C253.842,410.191,246.159,410.191,241.494,401.686z"/>
	</svg>
</svg>