
<svg xmlns="http://www.w3.org/2000/svg" width="0" height="0">

	<svg id="tool-move" viewBox="0 0 17 17">
		<polygon fill="#333" points="1,12.9 4,8.9 9,8.9 1,1"/>
		<polygon fill="#333" points="16.7,11.5 14.9,10.2 14.9,11.1 12.9,11.1 12.9,9.1 13.8,9.1 12.5,7.3 11.2,9.1 12.1,9.1 12.1,11.1 
			10.1,11.1 10.1,10.2 8.4,11.5 10.1,12.8 10.1,11.9 12.1,11.9 12.1,13.9 11.2,13.9 12.5,15.7 13.8,13.9 12.9,13.9 12.9,11.9 
			14.9,11.9 14.9,12.8"/>
	</svg>

	<svg id="tool-crop" viewBox="0 0 17 17">
		<path fill="#333" d="M13,6V4.7l3.4-3.4l-0.7-0.7L12.3,4H11H6V1H4v3H1v2h3v5v2h2h5v3h2v-3h3v-2h-3V6z M10.3,6L6,10.3
			V6H10.3z M6.7,11L11,6.7V11H6.7z"/>
	</svg>

	<svg id="tool-perspective" viewBox="0 0 17 17">
		<path fill="#333" d="M15.5,5.4V2.6h-2.8v0.7L4.3,2.1V1H1.5v2.8h0.9v9.3H1.5V16h2.8v-1.3l8.4-1.9v0.5h2.8v-2.8
			h-0.9V5.4H15.5z M4.3,3.8V3.1L8,3.6V8L3.4,8.4V3.8H4.3z M3.4,13.2V9.3L8,8.9v4l-3.7,0.8v-0.6H3.4z M12.7,10.5v1.4L9,12.8V8.9
			l4.7-0.4v2H12.7z M13.6,7.6L9,7.9V3.7l3.7,0.5v1.2h0.9V7.6z"/>
	</svg>
	
	<svg id="tool-slice" viewBox="0 0 17 17">
		<polygon fill="#333" points="15.3,4.1 15.3,4.1 14.2,3 14.2,3 13.4,2.3 7.8,8 10.3,10.5 16,4.8"/>
		<polygon fill="#333" points="1,14.7 8.6,13.3 9.8,11 7.3,8.5"/>
	</svg>
	
	<svg id="tool-slice-select" viewBox="0 0 17 17">
		<polygon fill="#333" points="15.3,4.3 15.3,4.3 14.2,3.2 14.2,3.2 13.4,2.5 7.8,8.2 10.3,10.7 16,5"/>
		<polygon fill="#333" points="1,14.9 8.6,13.5 9.8,11.2 7.3,8.6"/>
		<polygon fill="#333" points="6.2,7.3 1,2.1 1,9.9 3,7.3"/>
	</svg>
	
	<svg id="tool-wand" viewBox="0 0 17 17">
		<path fill="#333" d="M11.6,6.3l2.7-2.7l-1-1l-2.7,2.7L11.6,6.3z M15.7,3.6c0,0.2-0.1,0.3-0.2,0.4L3.8,15.8C3.7,15.9,3.6,16,3.4,16
			c-0.2,0-0.3-0.1-0.4-0.2L1.2,14C1.1,13.9,1,13.8,1,13.6c0-0.2,0.1-0.3,0.2-0.4L12.9,1.4c0.1-0.1,0.3-0.2,0.4-0.2
			c0.2,0,0.3,0.1,0.4,0.2l1.8,1.8C15.7,3.3,15.7,3.5,15.7,3.6z M3.4,1.9l0.9,0.3L3.4,2.5L3.1,3.4L2.8,2.5L1.9,2.2l0.9-0.3L3.1,1
			L3.4,1.9z M6.6,3.4l1.8,0.5L6.6,4.5L6,6.3L5.5,4.5L3.7,3.9l1.8-0.5L6,1.6L6.6,3.4z M15.1,7.8L16,8l-0.9,0.3l-0.3,0.9l-0.3-0.9
			L13.6,8l0.9-0.3l0.3-0.9L15.1,7.8z M9.2,1.9l0.9,0.3L9.2,2.5L9,3.4L8.7,2.5L7.8,2.2l0.9-0.3L9,1L9.2,1.9z"/>
	</svg>
	
	<svg id="tool-pencil" viewBox="0 0 17 17">
		<rect x="13" y="1.2" transform="matrix(0.7071 -0.7071 0.7071 0.7071 1.9354 10.76)" fill="#333" width="1.9" height="3.7"/>
		<rect x="2.2" y="7.1" transform="matrix(0.7071 -0.7071 0.7071 0.7071 -3.7014 8.4252)" fill="#474747" width="12.3" height="3.1"/>
		<path fill="#333" d="M5.1,14.6l-2.6-2.6l9.2-9.2l2.6,2.6L5.1,14.6z M3.3,11.9l1.7,1.7l8.2-8.2l-1.7-1.7L3.3,11.9z"/>
		<polygon fill="#333" points="2.1,12.3 4.7,14.9 1.1,15.9"/>
	</svg>
	
	<svg id="tool-feather" viewBox="0 0 17 17">
		<path fill="#333" d="M4.3,8.6c-1.4,1.6-1.4,3.3-1.1,4.6c2.2-1.8,7.7-6.6,7.7-6.6l-9,9.4c4.5-2.1,5.2-1.3,7.5-2.9
			c2.2-1.5,3.3-5.7,5.9-12.1C9.7,6.5,6.4,6.1,4.3,8.6z"/>
	</svg>

	<svg id="tool-blur" viewBox="0 0 17 17">
		<path fill="#333" d="M13.3,8.5C12.3,6,10,3.1,8.5,1C7,3.1,4.7,6,3.7,8.5c-0.6,1.5-0.6,3.2,0.2,4.7C4.8,14.9,6.6,16,8.5,16
			s3.7-1.1,4.6-2.8C13.9,11.7,13.9,10.1,13.3,8.5z"/>
	</svg>
	
	<svg id="tool-sharpen" viewBox="0 0 17 17">
		<polygon fill="#333" points="13.2,16 3.8,16 8.5,1"/>
	</svg>

	<svg id="tool-smudge" viewBox="0 0 17 17">
		<path fill="#333" d="M14.9,4.5c0-0.2,0-0.3,0-0.3c0-0.3-0.2-1.1-0.6-1.4c-0.1-0.1-0.3-0.3-0.5-0.5
			c-0.4-0.5-0.7-0.8-0.9-0.9C12.6,1,12.3,1,12,1H7C6.7,1,6.4,1.2,5.9,1.6C5.5,1.9,5.1,2.3,4.6,2.8c-0.9,0.9-1.7,1.8-2,2
			C2.2,5.2,2,5.9,2.2,6.5c0.1,0.4,0.3,0.7,0.7,1C2.8,7.7,2.7,7.9,2.8,8.2c0.1,0.8,0.6,1.1,1,1.3c-0.1,0.3-0.1,0.6,0,0.9
			c0.1,0.5,0.4,0.8,0.7,1.1c-0.8,1.1-1.5,2-1.6,2.2c-0.3,0.4-0.4,1.1-0.2,1.6c0.2,0.4,0.7,0.6,1,0.7c0.1,0,0.1,0,0.2,0H12
			c0.2,0,0.4-0.2,0.4-0.4s-0.2-0.4-0.4-0.4H5.6c0.1-0.1,0.1-0.2,0.2-0.2c0,0,0.1-0.1,0.1-0.1c0.2-0.2,1-1.3,2-2.6
			c1,0.4,1.7,0.6,2.1,0.6h0c0,0,0,0,0,0c0.6,0,1.2-0.1,2.9-1.9c0.3-0.3,0.6-0.6,0.9-0.8c1-1,1.1-1.1,1.1-2.2
			C14.9,6.8,14.9,5.3,14.9,4.5z M10.6,9c-0.3,0.3-0.5,0.5-0.8,0.4c0.3-0.4,0.5-0.7,0.7-0.9C10.7,8.7,10.7,8.9,10.6,9z"/>
	</svg>
	
	<svg id="tool-dodge" viewBox="0 0 17 17">
		<path fill="#333" d="M11,1.1C8.3,1.1,6.1,3.3,6.1,6c0,1,0.3,1.8,0.7,2.6l-5.8,5.8l1.6,1.6l5.8-5.8c0.8,0.5,1.6,0.7,2.6,0.7
			c2.7,0,4.9-2.2,4.9-4.9C15.9,3.3,13.7,1.1,11,1.1z"/>
	</svg>

	<svg id="tool-burn" viewBox="0 0 17 17">
		<path fill="#333" d="M15.9,8.3c-0.2-0.1-4-3.2-4.8-3.8c-1-0.7-2.5-1-3.5-1c0,0,0,0,0,0C7.3,3.4,7.2,3.3,6.9,3.2
			C6.3,3,5.2,3,4.3,3.6l-0.1,0C3.6,4,2.9,4.4,2.5,4.9c-0.5,0.5-0.6,1-0.5,1.5C2,6.4,2,6.5,1.9,6.6C1.6,6.9,1.1,7.7,1,8.4
			C1,8.8,1,9.1,1.2,9.3c0.3,0.4,0.7,0.6,1,0.6c0,0,0,0,0,0c0.4,0,0.7-0.2,1.1-0.6C3.4,9.2,3.5,9.1,3.6,9c0.3-0.3,0.7-0.6,0.7-1.2
			C4.7,7.6,5.1,7.3,5.4,7c0.1,0.1,0.2,0.2,0.4,0.2c0.3,0.1,0.5,0,0.7,0c0.2-0.1,0.3-0.1,0.4,0c0.5,0.5,0.7,1.2,0.7,1.5
			c0,0.1-0.1,0.2-0.2,0.3C6.7,9.4,6.6,9.8,6.5,10c0,0.1-0.1,0.2-0.1,0.2c0,0-0.1,0-0.3,0C5.6,10.2,5.3,10,4.9,9.7
			C4.6,9.5,4.3,9.3,3.8,9.3c-0.6,0-1.2,0.6-1.4,1.2c-0.1,0.4,0,0.7,0.3,1c0.2,0.2,0.4,0.4,0.6,0.6c0.4,0.5,0.8,1.1,1.9,1.1
			c0.1,0,0.3,0,0.4,0c0.6-0.1,1,0,1.5,0c0.4,0,0.8,0.1,1.4,0c0.6-0.1,0.8-0.4,1.1-0.7c0.2-0.3,0.4-0.5,0.9-0.5l0,0
			c0.7,0,1.1,0,1.3,0.3c0.4,0.5,1.2,1.3,1.2,1.4c0.1,0.1,0.2,0.1,0.2,0.1c0,0,0,0,0.1,0c0.1,0,0.2-0.1,0.3-0.2l2.4-4.9
			C16,8.6,16,8.4,15.9,8.3z"/>
	</svg>
	
	<svg id="tool-sponge" viewBox="0 0 17 17">
		<path fill="#333" d="M13.2,2.3C11.5,2.3,10.8,3,8.6,3C6.3,3,5.3,2.3,3.8,2.3C2.4,2.3,1,3.7,1,5.6v2.2C1,9.6,2.4,11,3.8,11
			c0.9,0,3.1-0.7,4.7-0.7s3.6,0.7,4.6,0.7c1.6,0,2.8-1.5,2.8-3.3V5.6C16,3.7,15.2,2.3,13.2,2.3z M2.4,5.7C2.1,5.7,1.9,5.4,1.9,5
			c0-0.4,0.2-0.6,0.5-0.6C2.7,4.4,3,4.7,3,5C3,5.4,2.7,5.7,2.4,5.7z M3.5,10C3.2,10,3,9.8,3,9.4C3,9,3.2,8.8,3.5,8.8
			c0.3,0,0.5,0.3,0.5,0.6C4.1,9.8,3.8,10,3.5,10z M4.4,7.7c-0.3,0-0.5-0.3-0.5-0.6c0-0.4,0.2-0.6,0.5-0.6C4.7,6.4,5,6.7,5,7.1
			C5,7.4,4.7,7.7,4.4,7.7z M5.3,5C5,5,4.8,4.7,4.8,4.4S5,3.7,5.3,3.7c0.3,0,0.5,0.3,0.5,0.6S5.6,5,5.3,5z M7,8.8
			c-0.3,0-0.5-0.3-0.5-0.6c0-0.4,0.2-0.6,0.5-0.6c0.3,0,0.5,0.3,0.5,0.6C7.5,8.5,7.3,8.8,7,8.8z M8.5,6.1c-0.3,0-0.5-0.3-0.5-0.6
			c0-0.4,0.2-0.6,0.5-0.6C8.8,4.8,9,5.1,9,5.4C9,5.8,8.8,6.1,8.5,6.1z M10.2,8.8c-0.3,0-0.5-0.3-0.5-0.6c0-0.4,0.2-0.6,0.5-0.6
			c0.3,0,0.5,0.3,0.5,0.6C10.8,8.5,10.5,8.8,10.2,8.8z M11.3,4.6c-0.3,0-0.5-0.3-0.5-0.6c0-0.4,0.2-0.6,0.5-0.6
			c0.3,0,0.5,0.3,0.5,0.6C11.9,4.3,11.6,4.6,11.3,4.6z M12.5,7.4c-0.3,0-0.5-0.3-0.5-0.6c0-0.4,0.2-0.6,0.5-0.6
			c0.3,0,0.5,0.3,0.5,0.6C13,7.1,12.8,7.4,12.5,7.4z M13.6,10c-0.3,0-0.5-0.3-0.5-0.6c0-0.4,0.2-0.6,0.5-0.6c0.3,0,0.5,0.3,0.5,0.6
			C14.2,9.8,14,10,13.6,10z M13.9,5.3c-0.3,0-0.5-0.3-0.5-0.6c0-0.4,0.2-0.6,0.5-0.6c0.3,0,0.5,0.3,0.5,0.6C14.5,5,14.2,5.3,13.9,5.3
			z"/>
		<path fill="#333" d="M16,9.6c-0.1,1.7-1.3,2.3-2.8,2.3c-1,0-3-0.7-4.6-0.7s-3.8,0.7-4.7,0.7c-1.4,0-2.7-0.8-2.8-2.5
			c0,0.1,0,0.2,0,0.3v1.7c0,1.8,1.3,3.3,2.8,3.3c0.9,0,3.1-0.7,4.7-0.7c1.6,0,3.6,0.7,4.6,0.7c1.6,0,2.8-1.5,2.8-3.3V10
			C16,9.9,16,9.7,16,9.6z M3.3,14.3c-0.3,0-0.5-0.3-0.5-0.6C2.8,13.3,3,13,3.3,13c0.3,0,0.5,0.3,0.5,0.6C3.9,14,3.6,14.3,3.3,14.3z
			 M7,13c-0.3,0-0.5-0.3-0.5-0.6c0-0.4,0.2-0.6,0.5-0.6c0.3,0,0.5,0.3,0.5,0.6C7.5,12.7,7.3,13,7,13z M10.8,14
			c-0.3,0-0.5-0.3-0.5-0.6c0-0.4,0.2-0.6,0.5-0.6c0.3,0,0.5,0.3,0.5,0.6C11.3,13.7,11.1,14,10.8,14z M14.2,13.5
			c-0.3,0-0.5-0.3-0.5-0.6c0-0.4,0.2-0.6,0.5-0.6c0.3,0,0.5,0.3,0.5,0.6C14.7,13.2,14.5,13.5,14.2,13.5z"/>
	</svg>


	<svg id="tool-zoom" viewBox="0 0 17 17">
		<path fill="#333" d="M15.5,13.8l-3.5-3c-0.4-0.3-0.8-0.5-1.1-0.5c0.8-1,1.3-2.3,1.3-3.6C12.2,3.5,9.7,1,6.6,1C3.5,1,1,3.5,1,6.6
			s2.5,5.6,5.6,5.6c1.4,0,2.7-0.5,3.6-1.3c0,0.3,0.1,0.7,0.5,1.1l3,3.5c0.5,0.6,1.4,0.6,1.9,0.1C16.1,15.1,16.1,14.3,15.5,13.8
			L15.5,13.8z M6.6,10.4c-2.1,0-3.7-1.7-3.7-3.7s1.7-3.7,3.7-3.7c2.1,0,3.7,1.7,3.7,3.7S8.7,10.4,6.6,10.4z"/>
	</svg>

	<svg id="icon-zoom-plus" viewBox="0 0 17 17">
		<path fill="#333" d="M15.5,13.8l-3.5-3c-0.4-0.3-0.8-0.5-1.1-0.5c0.8-1,1.3-2.3,1.3-3.6C12.2,3.5,9.7,1,6.6,1C3.5,1,1,3.5,1,6.6
			s2.5,5.6,5.6,5.6c1.4,0,2.7-0.5,3.6-1.3c0,0.3,0.1,0.7,0.5,1.1l3,3.5c0.5,0.6,1.4,0.6,1.9,0.1C16.1,15.1,16.1,14.3,15.5,13.8z
			 M6.6,10.4c-2.1,0-3.7-1.7-3.7-3.7s1.7-3.7,3.7-3.7c2.1,0,3.7,1.7,3.7,3.7S8.7,10.4,6.6,10.4z"/>
		<polygon fill="#333" points="7.2,4.1 5.9,4.1 5.9,6.1 4,6.1 4,7.4 5.9,7.4 5.9,9.3 7.2,9.3 7.2,7.4 9.2,7.4 9.2,6.1 7.2,6.1"/>
	</svg>

	<svg id="icon-zoom-minus" viewBox="0 0 17 17">
		<path fill="#333" d="M15.5,13.7l-3.5-3c-0.4-0.3-0.8-0.5-1.1-0.5c0.8-1,1.3-2.2,1.3-3.6c0-3.1-2.5-5.6-5.6-5.6
			c-3.1,0-5.6,2.5-5.6,5.6s2.5,5.6,5.6,5.6c1.4,0,2.6-0.5,3.6-1.3c0,0.3,0.1,0.7,0.5,1.1l3,3.5c0.5,0.6,1.4,0.6,1.9,0.1
			C16.1,15.1,16.1,14.2,15.5,13.7L15.5,13.7z M6.6,10.4c-2.1,0-3.7-1.7-3.7-3.7s1.7-3.7,3.7-3.7c2.1,0,3.7,1.7,3.7,3.7
			S8.7,10.4,6.6,10.4z"/>
		<rect x="4" y="6.1" fill="#333" width="5.2" height="1.3"/>
	</svg>

	<svg id="tool-eraser" viewBox="0 0 17 17">
		<polygon fill="#333" points="8.6,14.1 1,14.1 2.3,9.6 9.8,9.6"/>
		<polygon fill="#333" points="2.5,9.3 9.1,2.9 15.9,2.9 9.9,9.3"/>
		<polygon fill="#333" points="9.1,13.8 15.3,6.6 16,3.3 10.2,9.5"/>
	</svg>

	<svg id="tool-eraser-bg" viewBox="0 0 17 17">
		<style type="text/css">
			.st0{fill-rule:evenodd;clip-rule:evenodd;fill:#333333;}
		</style>
		<polygon fill="#333" points="8.7,15.5 1.2,15.5 2.4,11.1 9.8,11.1"/>
		<polygon fill="#333" points="9.1,15.3 15.3,8.1 16,4.9 10.2,10.9"/>
		<path fill="#333" d="M9.1,4.5L8.3,5.3c1.6,0.8,3.4,1.7,3.4,1.7l0.8,0.4l-0.8,0.4c-0.1,0.1-0.9,0.5-1.5,0.5c0,0,0,0,0,0
			c0,0-0.1,0-0.1,0c-0.1,0-0.4,0-2.6-1C7.2,7.1,7,7,6.7,6.9l-4,3.9H10l6-6.3C15.9,4.5,9.1,4.5,9.1,4.5z"/>
		<path class="st0" d="M11.5,2.8c0,0-0.9-0.5-1.3-0.5c-0.4,0-4.4,1.8-4.9,2c-0.1,0-0.1,0-0.1-0.1C5,4.2,4.5,4.1,4.2,4.2
			c0-0.1,0-0.1,0.1-0.2C4.5,3.1,4,2.1,3.1,1.7c-0.8-0.4-1.9-0.1-2,0.7C0.9,3.3,1.7,4.3,2.5,4.7C3,4.9,3.4,5,3.7,4.8
			C4,4.6,4.4,4.7,4.6,5C4.4,5.2,4,5.4,3.7,5.2C3.4,5,2.9,5.1,2.5,5.3C1.7,5.7,0.9,6.6,1,7.5c0.2,0.9,1.2,1.2,2,0.8
			C3.9,7.9,4.4,6.9,4.3,6c0-0.1,0-0.1-0.1-0.2c0.2,0.1,0.8,0,0.9-0.1c0,0,0.1,0,0.1-0.1c0.4,0.2,4.4,2.1,4.9,2.1
			c0.5,0,1.3-0.4,1.3-0.4S8.5,5.9,6.7,5C8.5,4.2,11.5,2.8,11.5,2.8z M3.9,3.8C3.8,4.5,3.2,4.5,2.6,4.2C2,3.9,1.3,3.2,1.4,2.6
			c0.1-0.6,1-0.8,1.6-0.5C3.7,2.4,4.1,3.2,3.9,3.8z M3,7.9C2.4,8.2,1.5,8,1.4,7.3C1.2,6.7,2,6,2.6,5.7c0.6-0.3,1.2-0.2,1.3,0.4
			C4,6.8,3.6,7.6,3,7.9z"/>
	</svg>

	<svg id="tool-eraser-magic" viewBox="0 0 17 17">
		<polygon fill="#333" points="8.9,15.4 1.5,15.4 2.7,11.1 9.9,11.1"/>
		<polygon fill="#333" points="9.3,15.2 15.3,8.1 16,5 10.3,10.9"/>
		<path fill="#333" d="M9.3,4.6L8.7,5.1c0,0.1-0.1,0.2-0.2,0.2L8.4,5.5L7,6.7l0.5,1.6c0.1,0.3,0,0.5-0.2,0.7C7.2,9.2,7.1,9.2,6.9,9.2
			c-0.1,0-0.3,0-0.4-0.1L5.5,8.3l-2.5,2.5h7.2l5.8-6.2L9.3,4.6L9.3,4.6z"/>
		<polygon fill="#333" points="4.6,1.6 5.5,4.2 8.3,4.2 6,5.9 6.9,8.5 4.6,6.9 2.4,8.5 3.3,5.9 1,4.2 3.8,4.2"/>
	</svg>

	<svg id="tool-shape-rect" viewBox="0 0 17 17">
		<rect x="1.5" y="3.5" fill="#333" opacity="0.5" width="14" height="10"/>
		<path fill="#333" d="M16,14H1V3h15V14z M2,13h13v-9H2V13z"/>
	</svg>

	<svg id="tool-shape-rounded" viewBox="0 0 17 17">
		<path fill="#333" opacity="0.5" d="M15.5,11.8c0,0.9-0.7,1.7-1.7,1.7H3.1c-0.9,0-1.7-0.7-1.7-1.7V5.2c0-0.9,0.7-1.7,1.7-1.7h10.7
			c0.9,0,1.7,0.7,1.7,1.7V11.8z"/>
		<path fill="#333" d="M13.9,14H3.1C2,14,1,13,1,11.8V5.2C1,4,2,3,3.1,3h10.7C15,3,16,4,16,5.2v6.7C16,13,15,14,13.9,14z M3.1,4
			C2.5,4,2,4.5,2,5.2v6.7C2,12.5,2.5,13,3.1,13h10.7c0.6,0,1.2-0.5,1.2-1.2V5.2C15,4.5,14.5,4,13.9,4H3.1z"/>
	</svg>

	<svg id="tool-shape-elliptical" viewBox="0 0 17 17">
		<ellipse fill="#333" opacity="0.5" cx="8.5" cy="8.5" rx="7" ry="5"/>
		<path fill="#333" d="M8.5,14c-2,0-3.8-0.6-5.3-1.6C1.8,11.4,1,10,1,8.5C1,7,1.8,5.6,3.2,4.6C4.7,3.5,6.5,3,8.5,3s3.8,0.6,5.3,1.6
			C15.2,5.6,16,7,16,8.5c0,1.5-0.8,2.9-2.3,3.9C12.3,13.4,10.5,14,8.5,14z M8.5,3.9c-1.8,0-3.4,0.5-4.7,1.4C2.6,6.2,2,7.3,2,8.5
			c0,1.2,0.7,2.3,1.9,3.2C5.1,12.6,6.7,13,8.5,13c1.8,0,3.4-0.5,4.7-1.4c1.2-0.9,1.9-2,1.9-3.2c0-1.2-0.7-2.3-1.9-3.2
			C11.9,4.4,10.3,3.9,8.5,3.9z"/>
	</svg>

	<svg id="tool-shape-polygon" viewBox="0 0 17 17">
		<polygon fill="#333" opacity="0.5" points="5,14.5 1.5,8.5 5,2.5 12,2.5 15.5,8.5 12,14.5"/>
		<path fill="#333" d="M12.3,15H4.7L1,8.5L4.7,2h7.5L16,8.5L12.3,15z M5.3,14h6.4l3.2-5.5L11.7,3H5.3L2.1,8.5L5.3,14z"/>
	</svg>

	<svg id="tool-shape-star" viewBox="0 0 17 17">
		<polygon fill="#333" opacity="0.5" points="8.5,1.8 10.2,6.9 15.5,6.9 11.2,10.1 12.8,15.2 8.5,12 4.2,15.2 5.8,10.1 1.5,6.9 6.8,6.9"/>
		<path fill="#333" d="M12.8,15.6c-0.1,0-0.2,0-0.3-0.1l-4-2.9l-4,2.9c-0.2,0.1-0.4,0.1-0.6,0c-0.2-0.1-0.2-0.3-0.2-0.5l1.5-4.7
			l-4-2.9C1,7.2,1,7,1,6.8c0.1-0.2,0.3-0.3,0.5-0.3h5L8,1.7c0.1-0.2,0.3-0.3,0.5-0.3c0.2,0,0.4,0.1,0.5,0.3l1.5,4.7h5
			c0.2,0,0.4,0.1,0.5,0.3C16,7,16,7.2,15.8,7.3l-4,2.9l1.5,4.7c0.1,0.2,0,0.4-0.2,0.5C13,15.6,12.9,15.6,12.8,15.6z M3,7.4l3.1,2.3
			c0.2,0.1,0.2,0.3,0.2,0.5l-1.2,3.7l3.1-2.3c0.2-0.1,0.4-0.1,0.6,0l3.1,2.3l-1.2-3.7c-0.1-0.2,0-0.4,0.2-0.5L14,7.4h-3.9
			c-0.2,0-0.4-0.1-0.5-0.3L8.5,3.4L7.3,7.1C7.2,7.3,7.1,7.4,6.8,7.4H3z"/>
	</svg>

	<svg id="tool-shape-line" viewBox="0 0 17 17">
		<rect x="-1.3" y="7.7" transform="matrix(0.7071 -0.7071 0.7071 0.7071 -3.5208 8.4998)" fill="#333" width="19.6" height="1.5"/>
	</svg>

	<svg id="tool-pointer" viewBox="0 0 17 17">
		<polygon fill="#333" points="13.5,10.5 4,1 4,15.4 6.8,11.7 9,16 11.2,14.9 9,10.5 "/>
	</svg>

	<svg id="tool-pointer-object" viewBox="0 0 17 17">
		<polygon fill="#fff" points="12.8,10.2 4.3,1.7 4.3,14.4 6.9,11.1 9.1,15.6 10.9,14.7 8.6,10.2"/>
		<path fill="#fff" d="M9,16l-2.2-4.4L4,15.3V1l9.5,9.5H9.1l2.2,4.4L9,16z M6.9,10.5l2.4,4.7l1.2-0.6L8.1,9.9H12L4.6,2.5v11L6.9,10.5
			z"/>
	</svg>

	<svg id="tool-hand" viewBox="0 0 17 17">
		<path fill="#333" d="M9,2.1C8.5,2.1,8.1,2.5,8.1,3v5.5H7.8V4.1c0-0.5-0.4-0.9-0.9-0.9S6,3.6,6,4.1v6.6L4.7,8.9
			C4.5,8.7,4.2,8.5,3.8,8.5C3.2,8.5,2.7,9,2.7,9.6c0,0.2,0.1,0.5,0.2,0.6l3.2,4.3c0.2,0.3,0.5,0.4,0.9,0.4h5.8c0.4,0,0.7-0.3,0.8-0.7
			l0.6-3.4c0-0.2,0-0.3,0-0.5V6.2c0-0.5-0.4-0.9-0.9-0.9c-0.5,0-0.9,0.4-0.9,0.9v2.3h-0.3V4.1c0-0.5-0.4-0.9-0.9-0.9
			c-0.5,0-0.9,0.4-0.9,0.9v4.4H10V3C10,2.5,9.6,2.1,9,2.1z M9,1c0.8,0,1.4,0.4,1.8,1.1c0.1,0,0.2,0,0.4,0c1.1,0,2,0.9,2,2v0.1
			c1.2-0.1,2.1,0.8,2.1,2v4.2c0,0.2,0,0.5-0.1,0.7l-0.6,3.4c-0.2,0.9-0.9,1.5-1.8,1.5H7c-0.7,0-1.3-0.3-1.7-0.9l-3.2-4.3
			C1.8,10.5,1.7,10,1.7,9.6c0-1.2,1-2.1,2.1-2.1c0.4,0,0.8,0.1,1.1,0.3V4.1c0-1.1,0.9-2,2-2c0.1,0,0.2,0,0.4,0C7.6,1.4,8.3,1,9,1z"/>
	</svg>

	<svg id="tool-other-tools" viewBox="0 0 17 17">
		<circle fill="#333" cx="8.5" cy="8.5" r="1.7"/>
		<circle fill="#333" cx="14.3" cy="8.5" r="1.7"/>
		<circle fill="#333" cx="2.7" cy="8.5" r="1.7"/>
	</svg>

	<svg id="tool-pipette" viewBox="0 0 15 15">
		<path fill="#333" d="M13.6,1.4c-0.6-0.6-1.6-0.6-2.2,0L9.3,3.5L7.8,2.1L6.2,3.7L7.5,5l-5.7,5.7c-0.1,0.1-0.1,0.2-0.1,0.4h0L1,13.6
			C1,13.8,1.2,14,1.4,14l2.6-0.6c0,0,0,0,0,0c0.1,0,0.2,0,0.3-0.1L10,7.5l1.3,1.3l1.6-1.6l-1.5-1.5l2.1-2.1C14.2,3,14.2,2,13.6,1.4z
			 M4.3,12l-0.7-0.6L3,10.7l5.1-5.1l1.3,1.3L4.3,12z"/>
	</svg>

	<svg id="tool-ruler" viewBox="0 0 17 17">
		<path fill="#333" d="M2,5H1v1v5v1h1h1h1h4h1h4h1h1h1v-1V6V5H2z M15,11h-1V8h-1v3h-1.5V9.5h-1V11H9V8H8v3H6.5V9.5h-1
			V11H4V8H3v3H2V6h13V11z"/>
	</svg>

	<svg id="tool-stamp-clone" viewBox="0 0 17 17">
		<path fill="#333" d="M14.3,15.5c0,0.5-1,0.5-1.5,0.5H4.2c-0.5,0-1.5,0-1.5-0.5v-0.7h11.6L14.3,15.5L14.3,15.5z"/>
		<path fill="#333" d="M14.2,10.7h-3c-0.6-0.3-1.5-0.2-1.5-2.6c0-2,0.9-2.9,0.9-2.9h0c0.3-0.4,0.5-1,0.5-1.6C11.1,2.2,9.9,1,8.5,1
			C7,1,5.8,2.2,5.8,3.6c0,0.6,0.2,1.1,0.5,1.6h0c0,0,0.8,0.8,0.8,3c0,2.2-0.9,2.1-1.4,2.5h-3c-0.5,0-0.9,0.4-0.9,0.9v2.3
			c0,0.5,0.4,0.4,0.9,0.4h11.4c0.5,0,0.9,0.1,0.9-0.4v-2.3C15.1,11.1,14.7,10.7,14.2,10.7z"/>
	</svg>

	<svg id="tool-stamp-pattern" viewBox="0 0 17 17">
		<path fill="#333" d="M14.8,15.6c0,0.5-0.9,0.4-1.4,0.4h-8c-0.5,0-1.4,0-1.4-0.4v-0.6h10.7L14.8,15.6L14.8,15.6z"/>
		<path fill="#333" d="M14.7,11.1h-2.8c-0.6-0.2-1.4-0.2-1.4-2.4c0-1.8,0.8-2.7,0.8-2.7h0c0.3-0.4,0.5-0.9,0.5-1.5
			c0-1.3-1.1-2.4-2.4-2.4C8.1,2,7,3.1,7,4.5C7,5,7.2,5.5,7.5,6h0c0,0,0.7,0.8,0.7,2.8c0,2-0.8,2-1.3,2.3H4.1c-0.5,0-0.8,0.4-0.8,0.8
			V14c0,0.5,0.4,0.4,0.8,0.4h10.6c0.5,0,0.8,0.1,0.8-0.4v-2.1C15.6,11.4,15.2,11.1,14.7,11.1z"/>
		<rect x="1.4" y="1" fill="#333" width="5.2" height="5.2" opacity="0.3"/>
		<rect x="1.4" y="1" fill="#333" width="1.7" height="1.7"/>
		<rect x="3.2" y="2.7" fill="#333" width="1.7" height="1.7"/>
		<rect x="4.9" y="4.4" fill="#333" width="1.7" height="1.7"/>
		<rect x="4.9" y="1" fill="#333" width="1.7" height="1.7"/>
		<rect x="1.4" y="4.4" fill="#333" width="1.7" height="1.7"/>
	</svg>

	<svg id="tool-healing-brush" viewBox="0 0 17 17">
		<path fill="#333" opacity="0.4" d="M5.4,15.2c-0.6,0.6-1.7,0.6-2.3,0L1.8,14c-0.6-0.6-0.6-1.7,0-2.3l9.8-9.8c0.6-0.6,1.7-0.6,2.3,0L15.2,3
			c0.6,0.6,0.6,1.7,0,2.3L5.4,15.2z"/>
		<path fill="#333" d="M4.2,16c-0.5,0-1-0.2-1.4-0.6l-1.2-1.2c-0.8-0.8-0.8-2,0-2.8l9.8-9.8C11.8,1.2,12.3,1,12.8,1
			c0.5,0,1,0.2,1.4,0.6l1.2,1.2C15.8,3.2,16,3.7,16,4.2c0,0.5-0.2,1-0.6,1.4l-9.8,9.8C5.2,15.8,4.7,16,4.2,16z M12.8,1.6
			c-0.4,0-0.7,0.1-1,0.4L2,11.8c-0.5,0.5-0.5,1.4,0,1.9L3.3,15c0.3,0.3,0.6,0.4,1,0.4c0.4,0,0.7-0.1,1-0.4L15,5.2
			c0.3-0.3,0.4-0.6,0.4-1c0-0.4-0.1-0.7-0.4-1L13.7,2C13.5,1.8,13.1,1.6,12.8,1.6z"/>
		<path fill="#333" d="M11.2,7.2L9.8,5.8c-0.4-0.4-1.1-0.4-1.5,0L5.8,8.3c-0.4,0.4-0.4,1.1,0,1.5l1.4,1.4c0.4,0.4,1.1,0.4,1.5,0
			l2.5-2.5C11.6,8.3,11.6,7.6,11.2,7.2z M7.3,8.9c-0.2,0.2-0.4,0.2-0.6,0s-0.2-0.4,0-0.6c0.2-0.2,0.4-0.2,0.6,0
			C7.4,8.5,7.4,8.8,7.3,8.9z M8.6,10.3c-0.2,0.2-0.4,0.2-0.6,0c-0.2-0.2-0.2-0.4,0-0.6c0.2-0.2,0.4-0.2,0.6,0
			C8.8,9.9,8.8,10.2,8.6,10.3z M8.9,7.3c-0.2,0.2-0.4,0.2-0.6,0c-0.2-0.2-0.2-0.4,0-0.6c0.2-0.2,0.4-0.2,0.6,0
			C9.1,6.8,9.1,7.1,8.9,7.3z M10.3,8.6c-0.2,0.2-0.4,0.2-0.6,0c-0.2-0.2-0.2-0.4,0-0.6c0.2-0.2,0.4-0.2,0.6,0
			C10.5,8.2,10.5,8.5,10.3,8.6z"/>
		<circle fill="#333" cx="4.6" cy="11" r="0.3"/>
		<circle fill="#333" cx="6" cy="12.4" r="0.3"/>
		<circle fill="#333" cx="3.2" cy="12.4" r="0.3"/>
		<circle fill="#333" cx="4.6" cy="13.8" r="0.3"/>
		<circle fill="#333" cx="12.4" cy="3.2" r="0.3"/>
		<circle fill="#333" cx="13.8" cy="4.6" r="0.3"/>
		<circle fill="#333" cx="11" cy="4.6" r="0.3"/>
		<circle fill="#333" cx="12.4" cy="6" r="0.3"/>
	</svg>

	<svg id="tool-spot-healing-brush" viewBox="0 0 17 17">
		<path fill="#333" opacity="0.4" d="M5.4,15.2c-0.6,0.6-1.7,0.6-2.3,0L1.8,14c-0.6-0.6-0.6-1.7,0-2.3l9.8-9.8c0.6-0.6,1.7-0.6,2.3,0L15.2,3
			c0.6,0.6,0.6,1.7,0,2.3L5.4,15.2z"/>
		<path fill="#333" d="M4.2,16c-0.5,0-1-0.2-1.4-0.6l-1.2-1.2c-0.8-0.8-0.8-2,0-2.8l9.8-9.8C11.8,1.2,12.3,1,12.8,1
			c0.5,0,1,0.2,1.4,0.6l1.2,1.2C15.8,3.2,16,3.7,16,4.2c0,0.5-0.2,1-0.6,1.4l-9.8,9.8C5.2,15.8,4.7,16,4.2,16z M12.8,1.6
			c-0.4,0-0.7,0.1-1,0.4L2,11.8c-0.5,0.5-0.5,1.4,0,1.9L3.3,15c0.3,0.3,0.6,0.4,1,0.4c0.4,0,0.7-0.1,1-0.4L15,5.2
			c0.3-0.3,0.4-0.6,0.4-1c0-0.4-0.1-0.7-0.4-1L13.7,2C13.5,1.8,13.1,1.6,12.8,1.6z"/>
		<path fill="#333" d="M11.2,7.2L9.8,5.8c-0.4-0.4-1.1-0.4-1.5,0L5.8,8.3c-0.4,0.4-0.4,1.1,0,1.5l1.4,1.4c0.4,0.4,1.1,0.4,1.5,0
			l2.5-2.5C11.6,8.3,11.6,7.6,11.2,7.2z M7.3,8.9c-0.2,0.2-0.4,0.2-0.6,0s-0.2-0.4,0-0.6c0.2-0.2,0.4-0.2,0.6,0
			C7.4,8.5,7.4,8.8,7.3,8.9z M8.6,10.3c-0.2,0.2-0.4,0.2-0.6,0c-0.2-0.2-0.2-0.4,0-0.6c0.2-0.2,0.4-0.2,0.6,0
			C8.8,9.9,8.8,10.2,8.6,10.3z M8.9,7.3c-0.2,0.2-0.4,0.2-0.6,0c-0.2-0.2-0.2-0.4,0-0.6c0.2-0.2,0.4-0.2,0.6,0
			C9.1,6.8,9.1,7.1,8.9,7.3z M10.3,8.6c-0.2,0.2-0.4,0.2-0.6,0c-0.2-0.2-0.2-0.4,0-0.6c0.2-0.2,0.4-0.2,0.6,0
			C10.5,8.2,10.5,8.5,10.3,8.6z"/>
		<circle fill="#333" cx="4.6" cy="11" r="0.3"/>
		<circle fill="#333" cx="6" cy="12.4" r="0.3"/>
		<circle fill="#333" cx="3.2" cy="12.4" r="0.3"/>
		<circle fill="#333" cx="4.6" cy="13.8" r="0.3"/>
		<circle fill="#333" cx="12.4" cy="3.2" r="0.3"/>
		<circle fill="#333" cx="13.8" cy="4.6" r="0.3"/>
		<circle fill="#333" cx="11" cy="4.6" r="0.3"/>
		<circle fill="#333" cx="12.4" cy="6" r="0.3"/>
		<path fill="#333" d="M2.6,10.9c-0.3-0.2-0.6-0.4-0.8-0.7l0.5-0.4c0.2,0.2,0.4,0.4,0.6,0.5L2.6,10.9z M1.4,9.3
			c0-0.2-0.1-0.3-0.1-0.5V8.3H2v0.5C2,8.9,2,9,2,9.2L1.4,9.3z M2,7.4H1.4V6.5H2V7.4z M7,6.3H6.4V5.4H7V6.3z M2,5.6H1.4V4.7H2V5.6z
			 M7,4.4H6.4V3.8c0-0.1,0-0.1,0-0.2L7,3.5c0,0.1,0,0.2,0,0.2V4.4z M2,3.8H1.4v0c0-0.3,0.1-0.7,0.2-1L2.1,3C2,3.3,2,3.5,2,3.8L2,3.8z
			 M6.2,2.8C6,2.6,5.9,2.4,5.6,2.3L6,1.8C6.3,2,6.5,2.2,6.7,2.5L6.2,2.8z M2.6,2.4L2.2,1.9c0.3-0.2,0.6-0.4,0.9-0.5L3.3,2
			C3,2.1,2.8,2.2,2.6,2.4z M4.9,2C4.8,2,4.7,2,4.6,2H4.1V1.3h0.5c0.1,0,0.3,0,0.4,0L4.9,2z"/>
	</svg>

	<svg id="tool-content-move" viewBox="0 0 17 17">
		<path fill="#333" d="M12.3,6H13v2.1l3-3l-3-3v1.8h-0.7C9.5,3.9,8,6,6.6,7.8c-1.2,1.6-2.3,3-4,3H1v2.1h1.6c2.8,0,4.3-2,5.7-3.9
			C9.5,7.4,10.6,6,12.3,6L12.3,6z M5.1,7.3C5.2,7.2,5.3,7,5.4,6.9C5.7,6.5,6,6.1,6.4,5.7c-1-0.9-2.2-1.6-3.8-1.6H1v2.1h1.6
			C3.6,6.2,4.4,6.6,5.1,7.3z M13,11h-0.7c-1.1,0-1.9-0.5-2.6-1.3C9.6,9.8,9.5,9.9,9.5,10c-0.3,0.4-0.7,0.9-1.1,1.4
			c1,1,2.2,1.7,3.9,1.7H13v1.8l3-3l-3-3V11L13,11z"/>
	</svg>

	<svg id="tool-patch" viewBox="0 0 17 17">
		<path fill="#333" opacity="0.4" d="M14.8,13c0,1-0.8,1.8-1.8,1.8H4c-1,0-1.8-0.8-1.8-1.8V4C2.2,3,3,2.2,4,2.2h9c1,0,1.8,0.8,1.8,1.8V13z"/>
		<path fill="#333" d="M16,6V5h-1V4c0-1.1-0.9-2-2-2h-1V1h-1v1H9V1H8v1H6V1H5v1H4C2.9,2,2,2.9,2,4v1H1v1h1v2H1v1h1v2H1v1h1v1
			c0,1.1,0.9,2,2,2h1v1h1v-1h2v1h1v-1h2v1h1v-1h1c1.1,0,2-0.9,2-2v-1h1v-1h-1V9h1V8h-1V6H16z M14.5,8H13v1h1.5v2H13v1h1.5v1
			c0,0.8-0.7,1.5-1.5,1.5h-1V13h-1v1.5H9V13H8v1.5H6V13H5v1.5H4c-0.8,0-1.5-0.7-1.5-1.5v-1H4v-1H2.5V9H4V8H2.5V6H4V5H2.5V4
			c0-0.8,0.7-1.5,1.5-1.5h1V4h1V2.5h2V4h1V2.5h2V4h1V2.5h1c0.8,0,1.5,0.7,1.5,1.5v1H13v1h1.5V8z"/>
	</svg>

	<svg id="tool-red-eye" viewBox="0 0 17 17">
		<path fill="#333" d="M8.5,5.2c-2.3,0-4.3,1.3-5.2,3.3c1,1.9,3,3.3,5.2,3.3c2.3,0,4.3-1.3,5.2-3.3C12.8,6.6,10.8,5.2,8.5,5.2z
			 M11.1,7c0.6,0.4,1.1,0.9,1.5,1.5c-0.4,0.6-0.9,1.1-1.5,1.5c-0.8,0.5-1.7,0.8-2.6,0.8c-0.9,0-1.8-0.3-2.6-0.8
			C5.3,9.6,4.8,9.1,4.4,8.5C4.8,7.9,5.3,7.4,5.9,7C6,6.9,6,6.9,6,6.9C5.9,7.2,5.9,7.5,5.9,7.8c0,1.4,1.2,2.6,2.6,2.6s2.6-1.2,2.6-2.6
			c0-0.3-0.1-0.6-0.2-0.9C11,6.9,11,6.9,11.1,7L11.1,7L11.1,7z M8.5,7.5c0,0.5-0.4,1-1,1c-0.5,0-1-0.4-1-1c0-0.5,0.4-1,1-1
			C8.1,6.5,8.5,7,8.5,7.5z"/>
		<polygon fill="#333" points="6,3 4,3 4,1 3,1 3,3 1,3 1,4 3,4 3,6 4,6 4,4 6,4"/>
	</svg>

	<svg id="tool-gradient" viewBox="0 0 17 17">
		<linearGradient id="SVGID_1_" gradientUnits="userSpaceOnUse" x1="1.3069" y1="9.5" x2="15.7004" y2="9.5" gradientTransform="matrix(1 0 0 -1 0 18)">
			<stop  offset="0" style="stop-color:#000000;stop-opacity:0"/>
			<stop  offset="1" style="stop-color:#000000"/>
		</linearGradient>
		<rect x="1.3" y="3.3" fill="url(#SVGID_1_)" width="14.4" height="10.4"/>
		<path fill="#333" d="M16,14L1,14V3l15,0V14z M1.6,13.4l13.8,0V3.6l-13.8,0V13.4z"/>
	</svg>

	<svg id="tool-fill" viewBox="0 0 17 17">
		<path fill="#333" d="M15.8,12.5c-0.4-1-1.6-2-1.9-3.5c-0.3,1.4-1.6,2.5-1.9,3.5c-0.2,0.6-0.2,1.3,0.1,1.9c0.4,0.7,1.1,1.1,1.8,1.1
			c0.8,0,1.5-0.4,1.8-1.1C16.1,13.8,16.1,13.1,15.8,12.5z"/>
		<path fill="#333" d="M14.4,7.7L14.4,7.7c0.1-0.2,0.2-0.4,0.1-0.5c0-0.1-0.1-0.3-0.2-0.4L6.8,1.6l0,0C6.6,1.5,6.2,1.5,6,1.8L1.1,8.9
			l0,0C0.9,9.2,1,9.6,1.2,9.7l6.4,4.3c0.1,0.1,0.2,0.1,0.3,0.1c0,0,0.1,0,0.1,0c0.1,0,0.3-0.1,0.4-0.2l3.7-5.5L14.4,7.7z M6.5,2.2
			L13.5,7H3.2L6.5,2.2z"/>
	</svg>

	<svg id="tool-brush" viewBox="0 0 17 17">
		<path fill="#333" d="M14.5,4.6c-0.7,0.9-2.6,3.2-4.1,5.1l-1.9-2c1.7-1.6,3.9-3.5,4.7-4.2c1.4-1.2,2.6-2,2.9-1.7
			C16.1,2,15.7,3.1,14.5,4.6L14.5,4.6z M10,10.1c-0.6,0.7-1.1,1.3-1.4,1.7L6.3,9.6C6.7,9.2,7.3,8.7,8,8L10,10.1z M8.2,12.2L8.2,12.2
			C6.9,17.3,1,14.4,1,14.4s2.5,0.3,2.5-2c0-2.2,2.3-2.4,2.4-2.5L8.2,12.2C8.2,12.2,8.2,12.2,8.2,12.2L8.2,12.2z"/>
	</svg>

	<svg id="tool-pen" viewBox="0 0 17 17">
		<path fill="#333" d="M15.9,5.5l-4.3-4.3C11.4,1,11.2,1,11.1,1.2l-0.6,1.2l4.1,4.1l1.2-0.6C16,5.8,16.1,5.6,15.9,5.5L15.9,5.5z"/>
		<path fill="#333" d="M9.8,3.1l-3.7,1c-0.3,0-0.5,0.1-0.6,0.4c0,0,0,0,0,0C4.5,9.7,1,14.7,1,14.7L1.3,15l4.1-4.1
			c-0.1-0.2-0.1-0.4-0.1-0.6c0-0.8,0.7-1.5,1.5-1.5s1.5,0.7,1.5,1.5c0,0.8-0.7,1.5-1.5,1.5c-0.2,0-0.4-0.1-0.6-0.1L2,15.7L2.3,16
			c0,0,5-3.4,10.2-4.5c0,0,0,0,0,0c0.3-0.1,0.4-0.3,0.4-0.6l1-3.7L9.8,3.1L9.8,3.1z"/>
	</svg>

	<svg id="tool-pen-plus-anchor" viewBox="0 0 17 17">
		<path fill="#333" d="M15.8,6.2l-4-4c-0.1-0.1-0.3-0.1-0.4,0.1l-0.5,1.1l3.8,3.8l1.1-0.5C15.9,6.5,15.9,6.3,15.8,6.2z"/>
		<path fill="#333" d="M6.7,4.9C6.4,5,6.2,5,6.2,5.3c0,0,0,0,0,0c-1,4.8-4.2,9.5-4.2,9.5l0.3,0.3L6,11.3c-0.1-0.2-0.1-0.4-0.1-0.6
			c0-0.7,0.6-1.4,1.4-1.4c0.7,0,1.4,0.6,1.4,1.4S8,12,7.3,12c-0.2,0-0.4,0-0.6-0.1l-3.8,3.8L3.1,16c0,0,4.7-3.2,9.5-4.2c0,0,0,0,0,0
			c0.3-0.1,0.4-0.3,0.4-0.5l0.9-3.4L10.1,4L6.7,4.9z"/>
		<polygon fill="#333" points="6,3 4,3 4,1 3,1 3,3 1,3 1,4 3,4 3,6 4,6 4,4 6,4"/>
	</svg>

	<svg id="tool-pen-minus-anchor" viewBox="0 0 17 17">
		<path fill="#333" d="M15.8,6.2l-4-4c-0.1-0.1-0.3-0.1-0.4,0.1l-0.5,1.1l3.8,3.8l1.1-0.5C15.9,6.5,15.9,6.3,15.8,6.2z"/>
		<path fill="#333" d="M6.7,4.9C6.4,5,6.2,5,6.2,5.3c0,0,0,0,0,0c-1,4.8-4.2,9.5-4.2,9.5l0.3,0.3L6,11.3c-0.1-0.2-0.1-0.4-0.1-0.6
			c0-0.7,0.6-1.4,1.4-1.4c0.7,0,1.4,0.6,1.4,1.4S8,12,7.3,12c-0.2,0-0.4,0-0.6-0.1l-3.8,3.8L3.1,16c0,0,4.7-3.2,9.5-4.2c0,0,0,0,0,0
			c0.3-0.1,0.4-0.3,0.4-0.5l0.9-3.4L10.1,4L6.7,4.9z"/>
		<rect x="1" y="3" fill="#333" width="5" height="1"/>
	</svg>

	<svg id="tool-pen-free" viewBox="0 0 17 17">
		<path fill="#333" d="M15.8,6.2l-4-4c-0.1-0.1-0.3-0.1-0.4,0.1l-0.5,1.1l3.8,3.8l1.1-0.5C15.9,6.5,15.9,6.3,15.8,6.2z"/>
		<path fill="#333" d="M6.7,4.9C6.4,5,6.2,5,6.2,5.3c0,0,0,0,0,0c-1,4.8-4.2,9.5-4.2,9.5l0.3,0.3L6,11.3c-0.1-0.2-0.1-0.4-0.1-0.6
			c0-0.7,0.6-1.4,1.4-1.4c0.7,0,1.4,0.6,1.4,1.4S8,12,7.3,12c-0.2,0-0.4,0-0.6-0.1l-3.8,3.8L3.1,16c0,0,4.7-3.2,9.5-4.2c0,0,0,0,0,0
			c0.3-0.1,0.4-0.3,0.4-0.5l0.9-3.4L10.1,4L6.7,4.9z"/>
		<path fill="#333" d="M1.4,13c-0.1-0.4-0.2-0.9-0.2-1.3l1.3-0.2c0,0.4,0.1,0.8,0.2,1.2L1.4,13z M2.4,10.3l-1.3,0
			c0-0.5,0-0.9,0.1-1.4l1.3,0.2C2.4,9.5,2.4,9.9,2.4,10.3z M2.8,8L1.5,7.6c0.2-0.5,0.4-0.9,0.6-1.3l1.1,0.7C3.1,7.4,2.9,7.7,2.8,8z
			 M4,6.2l-0.9-1c0,0,0.1-0.1,0.1-0.1c0.3-0.2,0.5-0.4,0.6-0.7L5,5.2c-0.2,0.3-0.5,0.7-0.9,1C4,6.2,4,6.2,4,6.2z M4.1,3.7
			C4.1,3.4,4,3.2,3.8,3l1-0.9c0.4,0.4,0.6,1,0.7,1.6L4.1,3.7z M3,2.5C2.7,2.4,2.3,2.3,2,2.3V1c0.5,0,1,0.1,1.5,0.2L3,2.5z"/>
	</svg>

	<svg id="tool-pen-convert" viewBox="0 0 17 17">
		<polygon fill="#333" points="5.3,16 4,16 4,1 14.1,12 13.1,13 5.3,4.4"/>
	</svg>


	<svg id="tool-marquee-rect" viewBox="0 0 17 17">
		<rect fill="none" stroke="#333" stroke-dasharray="2.8,1.5" x="1.5" y="1.5" width="15" height="15"/>
	</svg>

	<svg id="tool-marquee-circle" viewBox="0 0 17 17">
		<circle fill="none" stroke="#333" stroke-dasharray="2.85,1.65" cx="8.5" cy="8.5" r="8"/>
	</svg>

	<svg id="tool-type-horizontal" viewBox="0 0 17 17">
		<path fill="#333" d="M13.7,2.1l0.1,3h-0.4c-0.1-0.5-0.2-0.9-0.3-1.1c-0.2-0.4-0.5-0.6-0.8-0.8c-0.3-0.2-0.8-0.3-1.3-0.3H9.4v9.8
			c0,0.8,0.1,1.3,0.3,1.5c0.2,0.3,0.6,0.4,1.1,0.4h0.4v0.4H5.7v-0.4h0.5c0.5,0,0.9-0.2,1.2-0.5c0.1-0.2,0.2-0.7,0.2-1.4V2.9H6
			c-0.6,0-1,0-1.3,0.1C4.4,3.1,4.1,3.4,3.9,3.7C3.7,4,3.5,4.5,3.5,5.1H3.1l0.2-3L13.7,2.1L13.7,2.1z"/>
	</svg>

	<svg id="tool-type-vertical" viewBox="0 0 17 17">
		<path fill="#333" d="M15.7,2l0.1,3h-0.4c-0.1-0.5-0.2-0.9-0.3-1.1c-0.2-0.4-0.5-0.6-0.8-0.8c-0.3-0.2-0.8-0.3-1.3-0.3h-1.8v9.9
			c0,0.8,0.1,1.3,0.3,1.5c0.2,0.3,0.6,0.4,1.1,0.4h0.4V15H7.7v-0.4h0.5c0.5,0,0.9-0.2,1.2-0.5c0.1-0.2,0.2-0.7,0.2-1.4V2.8H7.9
			c-0.6,0-1,0-1.3,0.1C6.3,3.1,6,3.3,5.8,3.7C5.6,4,5.4,4.5,5.4,5.1H5l0.2-3L15.7,2L15.7,2z"/>
		<polygon fill="#333" points="3.4,11.8 3.4,2 2.4,2 2.4,11.8 1.1,11.8 2.9,15 4.7,11.8"/>
	</svg>

	<svg id="tool-type-horizontal-mask" viewBox="0 0 17 17">
		<path fill="#333" d="M14.3,4.9l0-1l-0.3,0l0-1l0.3,0l0-1l-0.3,0h-0.9V1.7h-1V2h-1V1.7h-1V2H9V1.7H8V2H7V1.7H6V2h-1V1.7h-1V2H3.2
			l0,0.1l-0.3,0l0,1l0.3,0l0,1l-0.3,0L2.7,5.4h0.4V5.1l0.3,0l0,0h0c0-0.2,0.1-0.4,0.1-0.6l0.3,0.1C3.9,4.2,4,4,4.1,3.8
			c0,0,0.1-0.1,0.1-0.1L3.9,3.5C4.2,3.3,4.4,3.1,4.7,3c0,0,0,0,0,0l0.1,0.3c0.1,0,0.4-0.1,0.9-0.1l0-0.3c0.1,0,0.2,0,0.3,0h0.7v0.3
			h0.9V2.9h0v1H7.2v1h0.3v1H7.2v1h0.3v1H7.2v1h0.3v1H7.2v1h0.3v1H7.2v1h0.3c0,0.4,0,0.7-0.1,1l-0.3-0.1c0,0.2-0.1,0.3-0.1,0.3
			c-0.1,0.1-0.2,0.2-0.3,0.2l0.1,0.3c-0.2,0.1-0.5,0.1-0.8,0.1H6v-0.3H5.4v1h0.7V15h1v0.3h1V15h1v0.3h1V15h0.9v0H11v0.3h0.5v-1h-0.7
			v0.3h0c-0.4,0-0.7-0.1-0.9-0.2l0.2-0.3c-0.1,0-0.1-0.1-0.1-0.1c0,0-0.1-0.1-0.1-0.5l-0.3,0c0-0.2,0-0.5,0-0.8v-0.2h0.3v-1H9.4v-1
			h0.3v-1H9.4v-1h0.3v-1H9.4v-1h0.3v-1H9.4v-1h0.3v-1H9.4V2.8h0.1v0.3h1V2.8h0.8c0.1,0,0.1,0,0.2,0l0,0.3c0.3,0,0.6,0.1,0.8,0.2
			L12.4,3c0,0,0.1,0,0.1,0.1c0.2,0.1,0.5,0.3,0.6,0.6l-0.3,0.2C12.9,3.9,13,4,13,4.1c0,0.1,0.1,0.2,0.2,0.5l0.3-0.1
			c0,0.2,0.1,0.3,0.1,0.5H14l0-0.1L14.3,4.9z"/>
	</svg>

	<svg id="tool-type-vertical-mask" viewBox="0 0 17 17">
		<path fill="#333" d="M16.1,4.9l0-1l-0.3,0l0-1L16,3l0-1l-0.3,0h-0.9V1.7h-1V2h-1V1.7h-1V2h-1V1.7h-1V2h-1V1.7h-1V2h-1V1.7h-1V2H5
			l0,0.1l-0.3,0l0,1l0.3,0l0,1l-0.3,0L4.5,5.4h0.4V5.1l0.3,0l0,0h0c0-0.2,0.1-0.4,0.1-0.6l0.3,0.1C5.7,4.2,5.8,4,5.9,3.8
			c0,0,0.1-0.1,0.1-0.1L5.7,3.5C5.9,3.3,6.2,3.1,6.5,3c0,0,0,0,0,0l0.1,0.3c0.1,0,0.4-0.1,0.9-0.1l0-0.3c0.1,0,0.2,0,0.3,0h0.7v0.3
			h0.9V2.9h0v1H9v1h0.3v1H9v1h0.3v1H9v1h0.3v1H9v1h0.3v1H9v1h0.3c0,0.4,0,0.7-0.1,1l-0.3-0.1c0,0.2-0.1,0.3-0.1,0.3
			c-0.1,0.1-0.2,0.2-0.3,0.2l0.1,0.3c-0.2,0.1-0.5,0.1-0.8,0.1H7.7v-0.3H7.2v1h0.7V15h1v0.3h1V15h1v0.3h1V15h0.9v0h0.1v0.3h0.5v-1
			h-0.7v0.3h0c-0.4,0-0.7-0.1-0.9-0.2l0.2-0.3c-0.1,0-0.1-0.1-0.1-0.1c0,0-0.1-0.1-0.1-0.5l-0.3,0c0-0.2,0-0.5,0-0.8v-0.2h0.3v-1
			h-0.3v-1h0.3v-1h-0.3v-1h0.3v-1h-0.3v-1h0.3v-1h-0.3v-1h0.3v-1h-0.3V2.8h0.1v0.3h1V2.8H13c0.1,0,0.1,0,0.2,0l0,0.3
			c0.3,0,0.6,0.1,0.8,0.2L14.2,3c0,0,0.1,0,0.1,0.1c0.2,0.1,0.5,0.3,0.6,0.6l-0.3,0.2c0.1,0.1,0.1,0.1,0.1,0.2c0,0.1,0.1,0.2,0.2,0.5
			l0.3-0.1c0,0.2,0.1,0.3,0.1,0.5h0.4l0-0.1L16.1,4.9z"/>
		<polygon fill="#333" points="3.2,2 2.3,2 2.3,11.9 0.9,11.9 2.7,15 4.6,11.9 3.2,11.9"/>
	</svg>

	<svg id="tool-pressure" viewBox="0 0 17 17">
		<path fill="#333" d="M4,8.5C4,11,6,13,8.5,13C11,13,13,11,13,8.5c0-0.7-0.2-1.4-0.5-2c0,0.1-0.1,0.1-0.1,0.2c0,0-0.1,0.1-0.1,0.1
			c0,0,0,0.1-0.1,0.1C12.2,7,12.1,7,12.1,7.1c0.2,0.4,0.3,0.9,0.3,1.4c0,2.1-1.7,3.8-3.8,3.8s-3.8-1.7-3.8-3.8s1.7-3.8,3.8-3.8
			c0.7,0,1.4,0.2,1.9,0.5c0,0,0,0,0,0c0,0,0.1-0.1,0.1-0.1c0,0,0.1-0.1,0.1-0.1c0.1-0.1,0.2-0.2,0.3-0.2C10.3,4.2,9.4,4,8.5,4
			C6,4,4,6,4,8.5z"/>
		<path fill="#333" d="M14.6,4c-0.1,0.2-0.3,0.3-0.5,0.6c0.8,1.1,1.2,2.4,1.2,3.9c0,3.8-3.1,6.8-6.8,6.8s-6.8-3.1-6.8-6.8
			s3.1-6.8,6.8-6.8c1.6,0,3.1,0.5,4.2,1.5c0.2-0.2,0.4-0.3,0.5-0.5C11.9,1.6,10.2,1,8.5,1c-2,0-3.9,0.8-5.3,2.2C1.8,4.6,1,6.5,1,8.5
			c0,2,0.8,3.9,2.2,5.3C4.6,15.2,6.5,16,8.5,16s3.9-0.8,5.3-2.2S16,10.5,16,8.5C16,6.9,15.5,5.3,14.6,4z"/>
		<path fill="#333" d="M14.4,3.5C14,4,12.9,5.3,12.1,6.4L11,5.2c1-0.9,2.2-2,2.7-2.4c0.8-0.7,1.5-1.1,1.6-0.9
			C15.4,2,15.1,2.6,14.4,3.5L14.4,3.5z M11.9,6.6c-0.3,0.4-0.6,0.8-0.8,1L9.8,6.3c0.2-0.2,0.6-0.5,1-0.9L11.9,6.6z M10.9,7.8
			L10.9,7.8c-0.8,2.9-4.1,1.2-4.1,1.2s1.4,0.2,1.4-1.1c0-1.3,1.3-1.4,1.4-1.4L10.9,7.8C10.9,7.8,10.9,7.8,10.9,7.8L10.9,7.8z"/>
	</svg>

	<svg id="tool-lasso" viewBox="0 0 17 17">
		<path fill="#333" d="M13.7,1.9C12.3,1,10.5,0.5,8.5,0.5c-2,0-3.8,0.5-5.2,1.3C1.8,2.8,1,4,1,5.4
			C1,6.6,1.7,7.7,3,8.6C2.8,8.7,2.7,8.7,2.6,8.8c-0.6,0.4-0.9,1-0.9,1.6s0.3,1.2,0.9,1.6c0.5,0.4,1.2,0.6,1.9,0.6
			c0.4,0,0.7-0.1,1.1-0.2c0.6,0,1.2,0.3,1.5,0.8c0.4,0.7,0.1,1.6-0.7,2.7l0.9,0.6c0.5-0.7,0.9-1.4,1-2.1c0.1-0.6,0-1.2-0.2-1.7
			c-0.2-0.5-0.7-0.8-1.1-1.1c0.3-0.3,0.5-0.7,0.5-1.2c0-0.1,0-0.2,0-0.2c0.4,0,0.8,0.1,1.2,0.1c2,0,3.8-0.5,5.2-1.3
			C15.2,7.9,16,6.7,16,5.4S15.2,2.8,13.7,1.9z M6.3,10.4c0,0.6-0.8,1-1.8,1c-0.9,0-1.8-0.5-1.8-1c0-0.4,0.5-0.8,1.1-1
			c0.3,0.2,0.6,0.3,1,0.3c0.1,0,0.2,0,0.3,0c0.3,0.1,0.6,0.2,0.9,0.2C6.2,10.1,6.3,10.2,6.3,10.4z M13.1,7.9c-1.2,0.8-2.9,1.2-4.6,1.2
			C7.9,9.1,7.2,9.1,6.7,9C6.6,8.9,6.5,8.9,6.5,8.8c0,0-0.1-0.1-0.1-0.1c0-0.1,0-0.1,0-0.2c0-0.7-0.6-1.2-1.5-1.2
			C4.4,7.3,4,7.5,3.7,7.8C2.7,7.1,2.1,6.3,2.1,5.4c0-1,0.6-1.9,1.8-2.6C5.1,2,6.7,1.6,8.5,1.6c1.8,0,3.4,0.4,4.6,1.2
			c1.1,0.7,1.8,1.6,1.8,2.6S14.3,7.2,13.1,7.9z"/>
	</svg>

	<svg id="tool-lasso-polygon" viewBox="0 0 17 17">
		<path fill="#333" d="M7.3,11.2l8.7,1.2L12.9,1L7.2,4.1L3.3,1.3L1,8.8l1.3,0.9c-0.2,0.3-0.2,0.6-0.2,0.8
			c0,0.6,0.3,1.1,0.8,1.5c0.5,0.3,1.1,0.5,1.8,0.5c0.3,0,0.7,0,1-0.1c0.6,0.9,0.9,2.1,0.6,3.4l1,0.2c0.3-1.5-0.1-3-0.7-4.1
			C7,11.7,7.2,11.5,7.3,11.2z M4.8,10.1L4.2,9.7c0.2-0.1,0.4-0.1,0.6-0.1c0.9,0,1.6,0.5,1.6,1c0,0.2-0.1,0.4-0.3,0.6
			C5.7,10.7,5.3,10.3,4.8,10.1z M3.9,3l3.3,2.4l5.1-2.8l2.3,8.6l-7.2-1C7.3,9.8,7,9.4,6.6,9.1C6.1,8.8,5.5,8.6,4.8,8.6
			C4.2,8.6,3.6,8.7,3.2,9L2.3,8.4L3.9,3z M3.1,10.6c0-0.1,0-0.2,0.1-0.3L4.3,11l0,0c0.2,0.1,0.5,0.3,0.7,0.5c-0.1,0-0.2,0-0.3,0
			C3.9,11.5,3.1,11.1,3.1,10.6z"/>
	</svg>

	<svg id="tool-lasso-magnetic" viewBox="0 0 17 17">
		<path fill="#333" d="M6.4,10.7l9.8-5.4L8.8,1L7.1,4.7L1.6,1.5L0.8,8.8L2,9.6c-0.1,0.2-0.2,0.5-0.2,0.8c0,1,1,1.8,2.4,1.8
			c0.3,0,0.6,0,0.9-0.1c0.5,0.8,0.8,1.9,0.6,3.1l0.9,0.2c0.2-1.4-0.1-2.7-0.7-3.6C6.1,11.4,6.3,11.1,6.4,10.7z M4.1,10L3.5,9.5
			c0.2,0,0.4-0.1,0.6-0.1c0.8,0,1.5,0.4,1.5,0.9c0,0.2-0.1,0.4-0.3,0.5C5,10.5,4.6,10.2,4.1,10z M2.4,3l5.2,3l1.7-3.7l5.1,3l-8,4.4
			C6,9,5.1,8.6,4.1,8.6C3.6,8.6,3,8.7,2.6,8.9L1.8,8.4L2.4,3z M2.6,10.4c0-0.1,0-0.2,0.1-0.3l1,0.7l0,0c0.2,0.1,0.4,0.3,0.6,0.5
			c-0.1,0-0.2,0-0.3,0C3.3,11.2,2.6,10.8,2.6,10.4z"/>
		<path fill="#333" d="M14,10H10v2l4,0c0,0,0.1,0,0.1,0.1v1.9c0,0,0,0.1-0.1,0.1l-4,0v2H14c1.2,0,2.2-0.9,2.2-2.1V12
			C16.2,10.9,15.2,10,14,10z M10.4,10.5h1.1v1.1h-1.1V10.5z M10.4,14.4h1.1v1.2h-1.1V14.4z"/>
	</svg>

	<svg id="icon-selection-ring" viewBox="0 0 17 17">
		<circle fill="none" stroke="#333" stroke-dasharray="2.25" cx="8.5" cy="8.5" r="6"/>
	</svg>

	<svg id="icon-layer-path-fill" viewBox="0 0 17 17">
		<circle fill="#00000060" stroke="#333" cx="8.5" cy="8.5" r="6"/>
	</svg>

	<svg id="icon-layer-path-brush" viewBox="0 0 17 17">
		<circle fill="none" stroke="#333" cx="8.5" cy="8.5" r="6"/>
	</svg>

	<svg id="icon-layer-path-from-selection" viewBox="0 0 17 17">
		<circle fill="#33333360" stroke="#333" cx="8.5" cy="8.5" r="6"/>
		<rect fill="#333" x="7" y="1" width="3" height="3"/>
		<rect fill="#333" x="13" y="7" width="3" height="3"/>
		<rect fill="#333" x="7" y="13" width="3" height="3"/>
		<rect fill="#333" x="1" y="7" width="3" height="3"/>
	</svg>


	<svg id="icon-line-solid" viewBox="0 0 45 15">
		<line fill="none" stroke="#000" stroke-width="2" x1="0" y1="8" x2="45" y2="8"/>
	</svg>

	<svg id="icon-line-dashed" viewBox="0 0 45 15">
		<line fill="none" stroke="#000" stroke-width="2" stroke-dasharray="6,3" x1="0" y1="8" x2="45" y2="8"/>
	</svg>

	<svg id="icon-line-dotted" viewBox="0 0 45 15">
		<line fill="none" stroke="#000" stroke-width="2" stroke-dasharray="2.5,2.5" x1="0" y1="8" x2="45" y2="8"/>
	</svg>

	<svg id="icon-marquee-new" viewBox="0 0 17 17">
		<rect x="1.5" y="1.5" fill="#333" opacity="0.4" width="14" height="14"/>
		<path fill="#333" d="M16,16H1V1h15V16z M2,15h13V2H2V15z"/>
	</svg>

	<svg id="icon-marquee-union" viewBox="0 0 17 17">
		<polygon fill="#333" opacity="0.4" points="12.3,6 12.3,1.5 1.5,1.5 1.5,11.7 5,11.7 5,15.5 15.5,15.5 15.5,6"/>
		<path fill="#333" d="M16,16H4.5v-3.8H1V1h11.9v4.5H16V16z M5.5,14.9h9.4V6.6h-3.1V2.1H2.1v9.1h3.5V14.9z"/>
	</svg>

	<svg id="icon-marquee-subtract" viewBox="0 0 17 17">
		<polygon fill="#333" opacity="0.4" points="5,6 12.4,6 12.4,1.5 1.4,1.5 1.4,11.7 5,11.7"/>
		<path fill="#333" d="M12.8,5.6V1H1v11.1h3.5V16H16V5.6H12.8z M1.9,11.3V1.9h10.1v3.7H4.5v5.7H1.9z M11.9,6.5v4.8H5.4V6.5H11.9z
			 M15.1,15.1H5.4v-3h7.4V6.5h2.3V15.1z"/>
	</svg>

	<svg id="icon-marquee-intersection" viewBox="0 0 17 17">
		<rect x="5" y="6" fill="#333" opacity="0.4" width="7.4" height="5.7"/>
		<path fill="#333" d="M12.8,5.6V1H1v11.1h3.5V16H16V5.6H12.8z M1.9,11.3V1.9h10.1v3.7H4.5v5.7H1.9z M11.9,6.5v4.8H5.4V6.5H11.9z
			 M15.1,15.1H5.4v-3h7.4V6.5h2.3V15.1z"/>
	</svg>

	<svg id="icon-align-top" viewBox="0 0 17 17">
		<rect x="1" y="2" fill="#333" width="15" height="1"/>
		<rect x="2" y="4" fill="#333" width="6" height="11"/>
		<rect x="10" y="4" fill="#333" width="5" height="8"/>
		<rect x="3" y="5" fill="#777" width="4" height="9"/>
	</svg>

	<svg id="icon-align-middle" viewBox="0 0 17 17">
		<rect x="1" y="8" fill="#333" width="15" height="1"/>
		<rect x="9" y="3" fill="#333" width="6" height="11"/>
		<rect x="2" y="5" fill="#333" width="5" height="7"/>
		<rect x="10" y="4" fill="#777" width="4" height="9"/>
	</svg>

	<svg id="icon-align-bottom" viewBox="0 0 17 17">
		<rect x="1" y="15" fill="#333" width="15" height="1"/>
		<rect x="2" y="3" fill="#333" width="6" height="11"/>
		<rect x="10" y="6" fill="#333" width="5" height="8"/>
		<rect x="3" y="4" fill="#777" width="4" height="9"/>
	</svg>

	<svg id="icon-vertical-centers" viewBox="0 0 17 17">
		<polygon fill="#333" points="15,3 13,3 13,1 12,1 12,3 10,3 10,14 12,14 12,16 13,16 13,14 15,14"/>
		<polygon fill="#333" points="5,1 4,1 4,5 2,5 2,13 4,13 4,16 5,16 5,13 7,13 7,5 5,5"/>
		<rect x="11" y="4" fill="#777" width="3" height="9"/>
	</svg>

	<svg id="icon-align-left" viewBox="0 0 17 17">
		<rect x="1" y="1" fill="#333" width="1" height="15"/>
		<rect x="3" y="10" fill="#333" width="8" height="5"/>
		<rect x="3" y="2" fill="#333" width="11" height="6"/>
		<rect x="4" y="3" fill="#777" width="9" height="4"/>
	</svg>

	<svg id="icon-align-center" viewBox="0 0 17 17">
		<polygon fill="#333" points="15,8 15,2 9,2 9,1 8,1 8,2 2,2 2,8 8,8 8,10 5,10 5,15 8,15 8,16 9,16 9,15 12,15 12,10 9,10 9,8"/>
		<rect x="3" y="3" fill="#777" width="11" height="4"/>
	</svg>

	<svg id="icon-align-right" viewBox="0 0 17 17">
		<rect x="15" y="1" fill="#333" width="1" height="15"/>
		<rect x="6" y="10" fill="#333" width="8" height="5"/>
		<rect x="3" y="2" fill="#333" width="11" height="6"/>
		<rect x="4" y="3" fill="#777" width="9" height="4"/>
	</svg>

	<svg id="icon-horizontal-centers" viewBox="0 0 17 17">
		<polygon fill="#333" points="15,4 15,2 2,2 2,4 1,4 1,5 2,5 2,7 15,7 15,5 16,5 16,4"/>
		<polygon fill="#333" points="13,10 4,10 4,12 1,12 1,13 4,13 4,15 13,15 13,13 16,13 16,12 13,12"/>
		<rect x="3" y="3" fill="#777" width="11" height="3"/>
	</svg>

	<svg id="icon-rectangle" viewBox="0 0 17 17">
		<rect x="1.6" y="1.6" fill="#333" opacity="0.4" width="13.8" height="13.8"/>
		<path fill="#333" d="M16,16H1V1h15V16z M2.1,14.9h12.7V2.1H2.1V14.9z"/>
	</svg>

	<svg id="icon-triangle" viewBox="0 0 17 17">
		<polygon fill="#333" opacity="0.4" points="1.8,14.5 6.8,2.9 15,13.3"/>
		<path fill="#333" d="M1,15.1L6.6,1.9L16,13.7L1,15.1z M6.9,3.9l-4.3,10L14,12.8L6.9,3.9z"/>
	</svg>

	<svg id="icon-quick-mask" viewBox="0 0 17 17">
		<path fill="#333" opacity="0.4" d="M1.3,2.2v12.5h14.5V2.2H1.3z"/>
		<path fill="#333" d="M16,15H1V2h15V15z M1.5,14.5h14v-12h-14V14.5z"/>
		<path fill="#333" d="M8.5,13.5c-0.2,0-0.4,0-0.6,0L8,12.9c0.3,0,0.7,0,1.1,0l0.1,0.6C8.9,13.5,8.7,13.5,8.5,13.5z M6.8,13.2
			c-0.4-0.1-0.7-0.3-1.1-0.5l0.4-0.5c0.3,0.2,0.6,0.4,0.9,0.5L6.8,13.2z M10.3,13.2l-0.2-0.6c0.3-0.1,0.6-0.3,0.9-0.5l0.4,0.5
			C11.1,12.8,10.7,13,10.3,13.2z M4.8,11.9c-0.3-0.3-0.5-0.6-0.7-1l0.6-0.3c0.2,0.3,0.4,0.6,0.6,0.9L4.8,11.9z M12.3,11.8l-0.5-0.4
			c0.2-0.3,0.4-0.6,0.6-0.9l0.6,0.3C12.8,11.2,12.5,11.5,12.3,11.8z M3.6,9.8C3.5,9.4,3.5,9,3.5,8.6l0.6,0c0,0.4,0.1,0.7,0.1,1
			L3.6,9.8z M13.4,9.7l-0.6-0.1c0.1-0.3,0.1-0.7,0.1-1c0-0.1,0-0.1,0-0.2l0.6,0c0,0.1,0,0.1,0,0.2C13.5,8.9,13.5,9.3,13.4,9.7z
			 M4.2,7.5L3.6,7.4C3.7,7,3.8,6.6,4,6.3l0.6,0.3C4.4,6.9,4.3,7.2,4.2,7.5z M12.7,7.3c-0.1-0.3-0.2-0.7-0.4-1L12.9,6
			c0.2,0.3,0.4,0.7,0.5,1.1L12.7,7.3z M5.1,5.7L4.7,5.3c0.3-0.3,0.6-0.6,0.9-0.8l0.4,0.5C5.6,5.2,5.4,5.4,5.1,5.7z M11.7,5.5
			c-0.2-0.3-0.5-0.5-0.8-0.7l0.3-0.5c0.3,0.2,0.7,0.5,0.9,0.8L11.7,5.5z M6.8,4.4L6.6,3.8C7,3.7,7.4,3.6,7.8,3.5l0.1,0.6
			C7.5,4.2,7.2,4.3,6.8,4.4z M9.9,4.3c-0.3-0.1-0.7-0.2-1-0.2L9,3.5c0.4,0,0.8,0.1,1.2,0.3L9.9,4.3z"/>
	</svg>

	<svg id="icon-arrow" viewBox="0 0 17 17">
		<path fill="#abb" d="M8.2,13.9L1.1,3.5C0.9,3.2,1,2.9,1.4,2.9h14.2c0.3,0,0.5,0.2,0.3,0.5L8.8,13.9C8.6,14.2,8.4,14.2,8.2,13.9z"/>
	</svg>

	<svg id="icon-cancel" viewBox="0 0 17 17">
		<polygon fill="#333" points="16,13.9 10.6,8.5 16,3.1 13.9,1 8.5,6.4 3.1,1 1,3.1 6.4,8.5 1,13.9 3.1,16 8.5,10.6 13.9,16"/>
	</svg>

	<svg id="icon-red-cancel" viewBox="0 0 17 17">
		<polygon fill="#441010" points="16,13.9 10.6,8.5 16,3.1 13.9,1 8.5,6.4 3.1,1 1,3.1 6.4,8.5 1,13.9 3.1,16 8.5,10.6 13.9,16"/>
	</svg>

	<svg id="icon-green-check" viewBox="0 0 17 17">
		<polygon fill="#030" points="17.1,4 15,1.9 6,10.9 2,6.9 -0.1,9 6,15.1"/>
	</svg>

	<svg id="icon-cursor-pos" viewBox="0 0 15 15">
		<polygon fill="#333" points="14,7 8,7 8,1 7,1 7,7 1,7 1,8 7,8 7,14 8,14 8,8 14,8 "/>
	</svg>

	<svg id="icon-selection-dim" viewBox="0 0 15 15">
		<rect fill="#333" x="2" y="2" width="1" height="8"/>
		<rect fill="#333" x="2" y="2" width="9" height="1"/>
		<polygon fill="#333" points="0,10 5,10 2.5,14 "/>
		<polygon fill="#333" points="10,5 10,0 14,2.5 "/>
		<rect fill="#333" x="12" y="12" width="1" height="1"/>
		<rect fill="#333" x="12" y="11" width="1" height="1"/>
		<rect fill="#333" x="12" y="8" width="1" height="2"/>
		<rect fill="#333" x="11" y="12" width="1" height="1"/>
		<rect fill="#333" x="8" y="12" width="2" height="1"/>
		<rect fill="#333" x="12" y="5" width="1" height="2"/>
		<rect fill="#333" x="5" y="12" width="2" height="1"/>
	</svg>

	<svg id="icon-mountain" viewBox="0 0 17 17">
		<polygon fill="#333" points="10.5,4.4 7.7,7.2 5.6,5.5 0,11 0.4,12 16.6,12 17,10.9 "/>
	</svg>

	<svg id="icon-mountain-mini" viewBox="0 0 17 17">
		<polygon fill="#333" points="9.8,6 8,7.9 6.6,6.7 2.9,10.3 3.2,11 13.8,11 14.1,10.2 "/>
	</svg>

	<svg id="icon-font-size" viewBox="0 0 17 17">
		<path fill="#333" d="M7,10l-2,0v5H3v-5l-2,0V8h6V10z M6,3h10v2h-4v10h-2V5H6V3z"/>
	</svg>

	<svg id="icon-line-height" viewBox="0 0 17 17">
		<rect x="3.9" y="1" fill="#333" width="9.3" height="2"/>
		<rect x="3.9" y="14" fill="#333" width="9.3" height="2"/>
		<polygon fill="#333" points="9.2,6 10.1,6 8.5,3.3 6.9,6 7.8,6 7.8,11 6.9,11 8.5,13.7 10.1,11 9.2,11"/>
	</svg>

	<svg id="icon-scale-vert" viewBox="0 0 17 17">
		<path fill="#333" d="M14.1,12.2H16L13.6,15l-2.3-2.8h1.9V4.8h-1.9L13.6,2L16,4.8h-1.9V12.2z M10.4,2v3.7L9.4,3.8H6.6v10.3h1.9V15
			H2.9v-0.9h1.9V3.8H2L1,5.7V2H10.4z"/>
	</svg>

	<svg id="icon-scale-hori" viewBox="0 0 17 17">
		<path fill="#333" d="M4.5,14v2l-3-2.5l3-2.5v2h8v-2l3,2.5l-3,2.5v-2H4.5z M13.5,1v4l-1-2h-3v7h2v1h-6v-1h2V3h-3l-1,2V1H13.5z"/>
	</svg>

	<svg id="icon-justify-left" viewBox="0 0 17 17">
		<rect x="2" y="2" fill="#333" width="13" height="1"/>
		<rect x="2" y="5" fill="#333" width="8" height="1"/>
		<rect x="2" y="8" fill="#333" width="13" height="1"/>
		<rect x="2" y="11" fill="#333" width="8" height="1"/>
		<rect x="2" y="14" fill="#333" width="13" height="1"/>
	</svg>

	<svg id="icon-justify-center" viewBox="0 0 17 17">
		<rect x="2" y="2" fill="#333" width="13" height="1"/>
		<rect x="4" y="5" fill="#333" width="9" height="1"/>
		<rect x="2" y="8" fill="#333" width="13" height="1"/>
		<rect x="4" y="11" fill="#333" width="9" height="1"/>
		<rect x="2" y="14" fill="#333" width="13" height="1"/>
	</svg>

	<svg id="icon-justify-right" viewBox="0 0 17 17">
		<rect x="2" y="2" fill="#333" width="13" height="1"/>
		<rect x="7" y="5" fill="#333" width="8" height="1"/>
		<rect x="2" y="8" fill="#333" width="13" height="1"/>
		<rect x="7" y="11" fill="#333" width="8" height="1"/>
		<rect x="2" y="14" fill="#333" width="13" height="1"/>
	</svg>

	<svg id="icon-justify-full-left" viewBox="0 0 17 17">
		<rect x="2" y="2" fill="#333" width="13" height="1"/>
		<rect x="2" y="5" fill="#333" width="13" height="1"/>
		<rect x="2" y="8" fill="#333" width="13" height="1"/>
		<rect x="2" y="11" fill="#333" width="13" height="1"/>
		<rect x="2" y="14" fill="#333" width="9" height="1"/>
	</svg>

	<svg id="icon-justify-full-right" viewBox="0 0 17 17">
		<rect x="2" y="2" fill="#333" width="13" height="1"/>
		<rect x="2" y="5" fill="#333" width="13" height="1"/>
		<rect x="2" y="8" fill="#333" width="13" height="1"/>
		<rect x="2" y="11" fill="#333" width="13" height="1"/>
		<rect x="6" y="14" fill="#333" width="9" height="1"/>
	</svg>

	<svg id="icon-justify-full-center" viewBox="0 0 17 17">
		<rect x="2" y="2" fill="#333" width="13" height="1"/>
		<rect x="2" y="5" fill="#333" width="13" height="1"/>
		<rect x="2" y="8" fill="#333" width="13" height="1"/>
		<rect x="2" y="11" fill="#333" width="13" height="1"/>
		<rect x="5" y="14" fill="#333" width="7" height="1"/>
	</svg>

	<svg id="icon-justify-full" viewBox="0 0 17 17">
		<rect x="2" y="2" fill="#333" width="13" height="1"/>
		<rect x="2" y="5" fill="#333" width="13" height="1"/>
		<rect x="2" y="8" fill="#333" width="13" height="1"/>
		<rect x="2" y="11" fill="#333" width="13" height="1"/>
		<rect x="2" y="14" fill="#333" width="13" height="1"/>
	</svg>

	<svg id="icon-indent-left" viewBox="0 0 17 17">
		<rect x="9" y="2" transform="matrix(-1 -4.482515e-11 4.482515e-11 -1 24.9876 5)" fill="#333" width="7" height="1"/>
		<rect x="9" y="5" transform="matrix(-1 -4.492907e-11 4.492907e-11 -1 22.9876 11)" fill="#333" width="5" height="1"/>
		<rect x="9" y="8" transform="matrix(-1 -4.495527e-11 4.495527e-11 -1 24.9876 17)" fill="#333" width="7" height="1"/>
		<rect x="9" y="11" transform="matrix(-1 -4.511115e-11 4.511115e-11 -1 22.9876 23)" fill="#333" width="5" height="1"/>
		<rect x="9" y="14" transform="matrix(-1 -4.495527e-11 4.495527e-11 -1 24.9876 29)" fill="#333" width="7" height="1"/>
		<rect x="7" y="2" transform="matrix(-1 -4.456536e-11 4.456536e-11 -1 14.9876 17)" fill="#333" width="1" height="13"/>
		<polygon fill="#333" points="3.2,10.2 3.2,9 1,9 1,8 3.2,8 3.2,6.9 6,8.5"/>
	</svg>

	<svg id="icon-indent-right" viewBox="0 0 17 17">
		<rect x="1" y="2" fill="#333" width="7" height="1"/>
		<rect x="3" y="5" fill="#333" width="5" height="1"/>
		<rect x="1" y="8" fill="#333" width="7" height="1"/>
		<rect x="3" y="11" fill="#333" width="5" height="1"/>
		<rect x="1" y="14" fill="#333" width="7" height="1"/>
		<rect x="9" y="2" fill="#333" width="1" height="13"/>
		<polygon fill="#333" points="11,8.5 13.8,6.9 13.8,8 16,8 16,9 13.8,9 13.8,10.2"/>
	</svg>

	<svg id="icon-indent-first-line" viewBox="0 0 17 17">
		<rect x="6" y="12" fill="#333" width="10" height="1"/>
		<rect x="6" y="9" fill="#333" width="7" height="1"/>
		<rect x="8" y="3" fill="#333" width="8" height="1"/>
		<rect x="6" y="6" fill="#333" width="9" height="1"/>
		<polygon fill="#333" points="6.6,3.5 4,2 4,3 1,3 1,4 4,4 4,5"/>
	</svg>

	<svg id="icon-padding-top" viewBox="0 0 17 17">
		<path fill="#333" d="M16,6.5H7V2h9V6.5z"/>
		<rect x="6" y="14" fill="#333" width="10" height="1"/>
		<rect x="6" y="12" fill="#333" width="7" height="1"/>
		<rect x="6" y="10" fill="#333" width="8" height="1"/>
		<rect x="6" y="8" fill="#333" width="10" height="1"/>
		<polygon fill="#333" points="6,4.5 3.3,3 3.3,4 1,4 1,5 3.3,5 3.3,6"/>
	</svg>

	<svg id="icon-padding-bottom" viewBox="0 0 17 17">
		<path fill="#333" d="M16,15H7v-4.5h9V15z"/>
		<rect x="6" y="8" fill="#333" width="10" height="1"/>
		<rect x="6" y="6" fill="#333" width="7" height="1"/>
		<rect x="6" y="4" fill="#333" width="8" height="1"/>
		<rect x="6" y="2" fill="#333" width="10" height="1"/>
		<polygon fill="#333" points="6,12.5 3.3,11 3.3,12 1,12 1,13 3.3,13 3.3,14"/>
	</svg>

	<svg id="icon-font-bold" viewBox="0 0 17 17">
		<path fill="#333" d="M11.5,8.1c0.5-0.6,0.9-1.5,0.9-2.4c0-2.1-1.7-3.7-3.7-3.7H4v13h5.6c2.1,0,3.7-1.7,3.7-3.7
			C13.3,9.9,12.6,8.8,11.5,8.1L11.5,8.1z M6.8,3.8h1.5c0.8,0,1.5,0.8,1.5,1.9S9.1,7.6,8.3,7.6H6.8V3.8z M9.1,13.2H6.8V9.4h2.3
			c0.8,0,1.5,0.8,1.5,1.9C10.7,12.3,10,13.2,9.1,13.2z"/>
	</svg>

	<svg id="icon-font-italic" viewBox="0 0 17 17">
		<path fill="#333" d="M14,2v1h-1.8L7.6,14H9v1H3v-1h1.8L9.4,3H8V2H14z"/>
	</svg>

	<svg id="icon-font-underlined" viewBox="0 0 17 17">
		<path fill="#333" d="M11,2h2v5.9c0,2.3-2,4.2-4.5,4.2S4,10.2,4,7.9V2h2v5.7c0,0.6,0.3,1.3,0.7,1.7c0.5,0.5,1,0.6,1.7,0.6
			s1.2-0.2,1.8-0.6C10.8,8.9,11,8.3,11,7.7L11,2L11,2z M4,13h9v2H4V13z"/>
	</svg>

	<svg id="icon-font-strike-through" viewBox="0 0 17 17">
		<path fill="#333" d="M16,8h-5.1c-0.7-0.3-1.4-0.4-2.1-0.4C7.3,7.6,6,6.7,6,5.7c0-1,1.3-1.9,2.8-1.9c1.5,0,2.8,0.8,2.8,1.9h1.9
			c0-1-0.5-2-1.5-2.7c-0.9-0.6-2-1-3.2-1S6.5,2.4,5.6,3C4.7,3.7,4.2,4.7,4.2,5.7c0,0.8,0.4,1.7,0.9,2.3H1v1h5.7
			c0.5,0.2,1.1,0.4,2.1,0.4c1.6,0.1,2.8,0.8,2.8,1.9c0,1-1.3,1.9-2.8,1.9c-1.5,0-2.8-0.8-2.8-1.9H4.2c0,1,0.5,2,1.5,2.7
			c0.9,0.6,2,1,3.2,1s2.3-0.4,3.2-1c0.9-0.7,1.5-1.7,1.5-2.7c0-1.1-0.5-1.8-1-2.3H16V8z"/>
	</svg>

	<svg id="icon-font-super" viewBox="0 0 17 17">
		<path fill="#333" d="M3.4,15l0.9-3h4.1l0.9,3h1.8l-3-10H4.7l-3,10H3.4z M5.8,7h1.1l0.9,3H4.9L5.8,7z"/>
		<path fill="#333" d="M13.8,4h-1c-0.3,0-0.5-0.2-0.5-0.5S12.6,3,12.8,3h2c0.3,0,0.5-0.2,0.5-0.5S15.1,2,14.8,2h-2
			c-0.8,0-1.5,0.7-1.5,1.5c0,0.4,0.1,0.7,0.4,1C12,4.8,12.4,5,12.8,5h1c0.3,0,0.5,0.2,0.5,0.5c0,0.3-0.2,0.5-0.5,0.5h-2
			c-0.3,0-0.5,0.2-0.5,0.5S11.6,7,11.9,7h2c0.8,0,1.5-0.7,1.5-1.5c0-0.4-0.1-0.7-0.4-1C14.7,4.2,14.3,4,13.8,4z"/>
	</svg>

	<svg id="icon-font-sub" viewBox="0 0 17 17">
		<path fill="#333" d="M3.4,12l0.9-3.1h4.1L9.3,12h1.8l-3-10H4.7l-3,10H3.4z M5.8,4h1.1l0.9,3H4.9L5.8,4z"/>
		<path fill="#333" d="M13.8,12h-1c-0.3,0-0.5-0.2-0.5-0.5c0-0.3,0.2-0.5,0.5-0.5h2c0.3,0,0.5-0.2,0.5-0.5c0-0.3-0.2-0.5-0.5-0.5h-2
			c-0.8,0-1.5,0.7-1.5,1.5c0,0.4,0.1,0.7,0.4,1c0.3,0.3,0.7,0.5,1.1,0.5h1c0.3,0,0.5,0.2,0.5,0.5c0,0.3-0.2,0.5-0.5,0.5h-2
			c-0.3,0-0.5,0.2-0.5,0.5c0,0.3,0.2,0.5,0.5,0.5h2c0.8,0,1.5-0.7,1.5-1.5c0-0.4-0.1-0.7-0.4-1C14.7,12.2,14.3,12,13.8,12z"/>
	</svg>

	<svg id="icon-font-kerning" viewBox="0 0 17 17">
		<path fill="#333" d="M9.8,12.7l0.7-2.4h3.3l0.7,2.4H16l-2.4-8h-2.8l-2.4,8H9.8z M11.7,6.2h0.9l0.7,2.4H11L11.7,6.2z"/>
		<path fill="#333" d="M2.4,4.6H1l2.4,8h1.9l2.4-8H6.3l-1.9,6.4h0L2.4,4.6z"/>
		<rect x="1.5" y="8" transform="matrix(0.2965 -0.955 0.955 0.2965 -2.3842 13.7632)" fill="#333" width="13.3" height="0.9"/>
	</svg>

	<svg id="icon-font-tracking" viewBox="0 0 17 17">
		<path fill="#333" d="M9.2,3H1v11h5.1L9.2,3z M1.3,4.6h1.4l1.9,6.2h0l1.9-6.2h1.4l-2.3,7.7H3.6L1.3,4.6z"/>
		<polygon fill="#333" points="11.6,6.2 10.9,8.5 13.1,8.5 12.5,6.2"/>
		<path fill="#333" d="M10.1,3L7.1,14H16V3H10.1z M14.3,12.4L13.6,10h-3.2l-0.7,2.3H8.4l2.3-7.7h2.7l2.3,7.7H14.3z"/>
	</svg>

	<svg id="icon-font-small-caps" viewBox="0 0 17 17">
		<path fill="#333" d="M10,8h6v2l-2,0v5h-2v-5l-2,0V8z M11,5H7v10H5V5H1V3h10V5z"/>
	</svg>

	<svg id="icon-font-all-caps" viewBox="0 0 17 17">
		<path fill="#333" d="M1,3h6l0,2H5l0,9H3l0-9H1L1,3z"/>
		<path fill="#333" d="M10,3h6l0,2h-2l0,9h-2l0-9h-2L10,3z"/>
	</svg>

	<svg id="icon-baseline-shift" viewBox="0 0 17 17">
		<path fill="#333" d="M2.9,16l1-3.2h4.4l1,3.2h1.9L7.9,5.3H4.2L1,16H2.9z M5.5,7.4h1.2l1,3.2H4.5L5.5,7.4z"/>
		<path fill="#333" d="M14.1,3H13c-0.3,0-0.5-0.2-0.5-0.5C12.5,2.2,12.7,2,13,2h2.1c0.3,0,0.5-0.2,0.5-0.5c0-0.3-0.2-0.5-0.5-0.5H13
			c-0.9,0-1.6,0.7-1.6,1.5c0,0.4,0.2,0.7,0.4,1C12.1,3.8,12.5,4,13,4h1.1c0.3,0,0.5,0.2,0.5,0.5c0,0.3-0.2,0.5-0.5,0.5h-2.1
			c-0.3,0-0.5,0.2-0.5,0.5c0,0.3,0.2,0.5,0.5,0.5h2.1c0.9,0,1.6-0.7,1.6-1.5c0-0.4-0.2-0.7-0.4-1C15,3.2,14.5,3,14.1,3z"/>
		<path fill="#333" d="M13,16v-4.8h-2l2.5-3l2.5,3h-2V16"/>
	</svg>

	<svg id="icon-color-preset" viewBox="0 0 17 17">
		<style type="text/css">
			.st0{fill:#fff;}
			.st1{fill:url(#SVGID_1_);}
			.st2{fill:url(#SVGID_2_);}
			.st3{fill:url(#SVGID_3_);}
			.st4{fill:url(#SVGID_4_);}
			.st5{fill:url(#SVGID_5_);}
			.st6{fill:url(#SVGID_6_);stroke:#000;stroke-width:0.25;}
		</style>
		<linearGradient id="SVGID_1_" gradientUnits="userSpaceOnUse" x1="182.5296" y1="177.924" x2="185.6278" y2="183.2903" gradientTransform="matrix(1.2821 0 0 -1.2821 -225.4985 236.577)">
			<stop offset="0" style="stop-color:#fff;stop-opacity:0"/>
			<stop offset="1" style="stop-color:#FF0000;stop-opacity:0.7"/>
		</linearGradient>
		<linearGradient id="SVGID_2_" gradientUnits="userSpaceOnUse" x1="182.5475" y1="177.8933" x2="188.743" y2="177.8933" gradientTransform="matrix(1.2821 0 0 -1.2821 -225.4985 236.577)">
			<stop offset="0" style="stop-color:#fff;stop-opacity:0"/>
			<stop offset="1" style="stop-color:#0000FF;stop-opacity:0.7"/>
		</linearGradient>
		<linearGradient id="SVGID_3_" gradientUnits="userSpaceOnUse" x1="182.5296" y1="177.8627" x2="185.6278" y2="172.4964" gradientTransform="matrix(1.2821 0 0 -1.2821 -225.4985 236.577)">
			<stop offset="0" style="stop-color:#fff;stop-opacity:0"/>
			<stop offset="1" style="stop-color:#00AEEF;stop-opacity:0.7"/>
		</linearGradient>
		<linearGradient id="SVGID_4_" gradientUnits="userSpaceOnUse" x1="182.4945" y1="177.8632" x2="179.3963" y2="172.4969" gradientTransform="matrix(1.2821 0 0 -1.2821 -225.4985 236.577)">
			<stop offset="0" style="stop-color:#fff;stop-opacity:0"/>
			<stop offset="1" style="stop-color:#00FF00;stop-opacity:0.7"/>
		</linearGradient>
		<linearGradient id="SVGID_5_" gradientUnits="userSpaceOnUse" x1="182.4773" y1="177.8933" x2="176.2818" y2="177.8933" gradientTransform="matrix(1.2821 0 0 -1.2821 -225.4985 236.577)">
			<stop offset="0" style="stop-color:#fff;stop-opacity:0"/>
			<stop offset="1" style="stop-color:#FFFF00;stop-opacity:0.7"/>
		</linearGradient>
		<linearGradient id="SVGID_6_" gradientUnits="userSpaceOnUse" x1="182.4945" y1="177.9234" x2="179.3963" y2="183.2897" gradientTransform="matrix(1.2821 0 0 -1.2821 -225.4985 236.577)">
			<stop offset="0" style="stop-color:#fff;stop-opacity:0"/>
			<stop offset="1" style="stop-color:#FF00FF;stop-opacity:0.7"/>
		</linearGradient>
		<circle class="st0" cx="8.5" cy="8.5" r="7.9"/>
		<circle class="st1" cx="8.5" cy="8.5" r="7.9"/>
		<circle class="st2" cx="8.5" cy="8.5" r="7.9"/>
		<circle class="st3" cx="8.5" cy="8.5" r="7.9"/>
		<circle class="st4" cx="8.5" cy="8.5" r="7.9"/>
		<circle class="st5" cx="8.5" cy="8.5" r="7.9"/>
		<circle class="st6" cx="8.5" cy="8.5" r="7.9"/>
	</svg>

	<svg id="icon-trashcan" viewBox="0 0 17 17">
		<polygon fill="#333" points="4.1,4.3 12.9,4.3 12.9,3 9.5,3 9.5,2 7.6,2 7.6,3 4.1,3 "/>
		<path fill="#333" d="M3.6,5v1l1,0l0.3,9h7.2l0.3-9l1,0V5L3.6,5L3.6,5z M6.8,13H6.1L6,7h0.9L6.8,13L6.8,13z M8.9,13H8.2l0-6h0.7L8.9,13z M10.9,13
			h-0.7l0-6h0.9L10.9,13z"/>
	</svg>

	<svg id="icon-new" viewBox="0 0 17 17">
		<polygon fill="#333" points="3,2 3,15 14,15 14,7 8.9,7 8.9,2 "/>
		<polygon fill="#333" points="9.7,6.3 13.9,6.3 9.7,2.1 "/>
	</svg>

	<svg id="icon-folder" viewBox="0 0 17 17">
		<path fill="#333" d="M15,6.5v6.1c0,1-0.5,1.5-1.4,1.5h-10c-1,0-1.6-0.5-1.6-1.5V4.4C2,3.4,2.3,3,3.3,3h3.4C7.6,3,8,3.4,8,4.3V5h5.5
			C14.5,5,15,5.5,15,6.5z"/>
	</svg>

	<svg id="icon-folder-open" viewBox="0 0 17 17">
		<path fill="#333" d="M16,9.5c0,0.2-0.1,0.4-0.2,0.5L13.1,13c-0.5,0.5-1.4,1-2.1,1H2.3c-0.3,0-0.7-0.1-0.7-0.4c0-0.2,0.1-0.4,0.2-0.5L4.5,10
			C5,9.4,5.9,9,6.6,9h8.7C15.6,9,16,9.1,16,9.5z M13.2,6.4V8H6.6c-1,0-2.2,0.6-2.9,1.3L1,12.4c0-0.1,0-0.1,0-0.2l0-7.7
			C1,3.5,1.3,3,2.3,3h3.5c1,0,1.4,0.3,1.4,1.3V5h4.7C12.8,5,13.2,5.4,13.2,6.4z"/>
	</svg>

	<svg id="icon-file-image" viewBox="0 0 30 30">
		<path fill="#333" d="M10.4,10.5c0,1.5-1.2,2.8-2.8,2.8S4.9,12,4.9,10.5s1.2-2.8,2.8-2.8S10.4,9,10.4,10.5z
			M25.1,16v6.3H4.9v-2.6l4.6-4.6 l2.3,2.3l7.4-7.4L25.1,16z M26.7,5.9H3.3c-0.2,0-0.5,0.2-0.5,0.5v17.3c0,0.2,0.2,0.5,0.5,0.5h23.4c0.2,0,0.5-0.2,0.5-0.5V6.3 C27.2,6.1,26.9,5.9,26.7,5.9z M29,6.3v17.3c0,1.3-1,2.3-2.3,2.3H3.3c-1.3,0-2.3-1-2.3-2.3V6.3C1,5.1,2.1,4,3.3,4h23.4 C28,4,29,5.1,29,6.3z"/>
	</svg>

	<svg id="icon-clipboard" viewBox="0 0 17 17">
		<path fill="#333" d="M14.6,2.9h-4.2c0-1-0.8-1.9-1.9-1.9S6.6,1.8,6.6,2.9H2.4c-0.3,0-0.5,0.2-0.5,0.5v12.2c0,0.3,0.2,0.5,0.5,0.5h12.2
			c0.3,0,0.5-0.2,0.5-0.5V3.3C15.1,3.1,14.9,2.9,14.6,2.9z M8.5,1.9c0.5,0,0.9,0.4,0.9,0.9S9,3.8,8.5,3.8S7.6,3.4,7.6,2.9
			S8,1.9,8.5,1.9z M14,15H3V4h1.7v1.5C4.7,5.8,5,6,5.2,6h6.6c0.3,0,0.5-0.2,0.5-0.5V4H14V15z"/>
		<path fill="#333" d="M7.6,13.6l-3-3.5l0.9-0.9l2.2,1.7l4-3.6l0.9,0.9L7.6,13.6z"/>
	</svg>

	<svg id="icon-text" viewBox="0 0 17 17">
		<path fill="#333" d="M14.6,1l0.2,3.5h-0.4c-0.1-0.6-0.2-1.1-0.3-1.3c-0.2-0.4-0.5-0.7-0.9-0.9C12.7,2.1,12.2,2,11.6,2H9.5v11.4
			c0,0.9,0.1,1.5,0.3,1.7c0.3,0.3,0.7,0.5,1.3,0.5h0.5V16H5.3v-0.4h0.5c0.6,0,1.1-0.2,1.3-0.6c0.2-0.2,0.2-0.8,0.2-1.6V2H5.6
			C4.9,2,4.4,2,4.1,2.1c-0.4,0.1-0.7,0.4-1,0.8S2.7,3.9,2.7,4.5H2.2L2.4,1L14.6,1L14.6,1z"/>
	</svg>

	<svg id="icon-eye-on" viewBox="0 0 15 15">
		<path fill="#333" d="M14,7.3c-1.1-2.3-4.4-4.1-6.7-4.1c-2.4,0-4.8,1.5-6.2,4C1,7.3,1,7.5,1.1,7.7c1,2,3.6,4.1,6.4,4.1c2.5,0,4.9-1.5,6.4-4
			C14,7.6,14,7.4,14,7.3z M7.4,4.8c0.2,0,0.4,0.2,0.4,0.4c0,0.2-0.2,0.4-0.4,0.4c-0.6,0-1.2,0.5-1.2,1.2c0,0.2-0.2,0.4-0.4,0.4
			c-0.2,0-0.4-0.2-0.4-0.4C5.3,5.7,6.2,4.8,7.4,4.8z M7.5,10.7c-2.3,0-4.5-1.6-5.4-3.3C2.9,6.3,3.9,5.3,5,4.8
			C4.5,5.3,4.2,6.1,4.2,6.9c0,1.8,1.4,3.2,3.2,3.2c1.8,0,3.2-1.4,3.2-3.2c0-0.8-0.3-1.5-0.7-2c1.2,0.6,2.4,1.5,3,2.6
			C11.5,9.5,9.5,10.7,7.5,10.7z"/>
	</svg>

	<svg id="icon-eye-off" viewBox="0 0 15 15">
		<path fill="#333" d="M10.6,7c0-0.2,0-0.4-0.1-0.6l-2,3.6C9.7,9.5,10.6,8.3,10.6,7z"/>
		<path fill="#333" d="M13.9,7.3c-0.5-1-1.4-1.9-2.5-2.6L11,5.6c0.8,0.5,1.5,1.2,1.9,1.9c-1.2,1.9-3,3-4.8,3.2l-0.6,1.1c2.5,0,4.8-1.5,6.4-4
			C14,7.7,14,7.5,13.9,7.3z"/>
		<path fill="#333" d="M9.9,4.9C9.9,4.9,9.9,4.9,9.9,4.9l1-1.9c0,0,0-0.1,0-0.1c0,0,0-0.1-0.1-0.1L9.7,2.2c-0.1,0-0.1,0-0.2,0L8.8,3.5
			C8.3,3.3,7.8,3.3,7.3,3.3c-2.4,0-4.8,1.5-6.2,4C1,7.4,1,7.6,1,7.7C1.7,9,3,10.3,4.6,11.1l-0.5,0.8c0,0,0,0.1,0,0.1
			c0,0,0,0.1,0.1,0.1l1.2,0.7c0,0,0,0,0.1,0c0,0,0.1,0,0.1-0.1L9.9,4.9C9.9,4.9,9.9,4.9,9.9,4.9z M5.1,10.2c-1.3-0.6-2.4-1.7-3-2.7
			C2.9,6.3,3.9,5.4,5,4.8C4.5,5.4,4.2,6.1,4.2,7c0,1,0.5,2,1.3,2.5L5.1,10.2z M7.4,5.8c-0.6,0-1.2,0.5-1.2,1.2c0,0.2-0.2,0.4-0.4,0.4
			c-0.2,0-0.4-0.2-0.4-0.4c0-1.1,0.9-2,2-2c0.2,0,0.4,0.2,0.4,0.4C7.8,5.6,7.6,5.8,7.4,5.8z"/>
	</svg>

	<svg id="icon-layer-adjustment" viewBox="0 0 17 17">
		<path fill="#333" d="M8.5,2C4.9,2,2,4.9,2,8.5C2,12.1,4.9,15,8.5,15c3.6,0,6.5-2.9,6.5-6.5
			C15,4.9,12.1,2,8.5,2z M8.5,13.8c-1.5,0-2.8-0.6-3.7-1.5l7.5-7.5c1,1,1.5,2.3,1.5,3.7C13.8,11.4,11.4,13.8,8.5,13.8z"/>
	</svg>

	<svg id="icon-layer-mask" viewBox="0 0 17 17">
		<path fill="#333" d="M1,3v11h15V3H1z M8.5,13C6,13,4,11,4,8.5C4,6,6,4,8.5,4S13,6,13,8.5S11,13,8.5,13z"/>
	</svg>

	<svg id="icon-layer-fx" viewBox="0 0 17 17">
		<path fill="#333" d="M3.2,15.4c-0.3,0-0.7-0.2-1-0.4C2.1,14.9,2,14.7,2,14.5c0-0.3,0.2-0.6,0.5-0.8l0,0c0.2-0.2,0.5-0.2,0.7,0
			C3.3,13.9,3.6,14,3.8,14c0.2,0,0.3-0.1,0.4-0.2c0.2-0.2,0.6-1,1-3.4c0.3-1.7,0.5-2.7,0.7-3.9h-1L4.6,5.9l0.6-0.6H6
			c0.2-1.2,0.6-2,1.1-2.6C7.8,2,8.6,1.6,9.3,1.6c0.4,0,0.7,0.2,0.9,0.4c0.1,0.2,0.2,0.3,0.2,0.5c0,0.3-0.2,0.6-0.4,0.8
			c-0.2,0.2-0.5,0.2-0.7,0C9,3,8.8,2.9,8.6,2.9c-0.4,0-0.7,0.8-1,2.5h1.7l-0.6,1L7.4,6.5C7.2,7.6,7.1,8.2,6.9,9.1
			c-0.1,0.3-0.1,0.6-0.2,1l0,0c-0.5,2.2-1,3.5-1.8,4.4C4.4,15.1,3.8,15.4,3.2,15.4z M2.6,14.5L2.6,14.5L2.6,14.5z M2.9,14.2
			C2.9,14.2,2.9,14.2,2.9,14.2S2.9,14.2,2.9,14.2z M2.8,14.2L2.8,14.2L2.8,14.2z M9.6,2.7L9.6,2.7L9.6,2.7z"/>
		<path fill="#333" d="M12.6,12.1c-0.5,0-0.9-0.5-1.2-1.5l-0.3-0.8c-1.1,1.7-1.8,2.2-2.5,2.2c-0.3,0-0.5-0.1-0.7-0.3
			c-0.2-0.2-0.3-0.4-0.3-0.7c0-0.5,0.4-0.9,0.9-0.9c0.2,0,0.4,0.2,0.5,0.3l0,0c0,0,0,0,0.1,0c0,0,0.2,0,0.6-0.5
			c0.3-0.3,0.6-0.8,1.1-1.4l-0.4-1.3c-0.1-0.3-0.2-0.5-0.2-0.6C10,6.7,9.8,6.9,9.4,7.3L9.2,7.6L8.6,6.8l0.1-0.2
			c0.7-1,1.3-1.5,1.8-1.5c0.6,0,0.8,0.7,1.2,1.7l0.1,0.2c0.9-1.3,1.6-2,2.3-2C14.6,5.1,15,5.5,15,6c0,0.2-0.1,0.4-0.3,0.6
			c-0.1,0.1-0.3,0.3-0.6,0.3c-0.2,0-0.3-0.1-0.4-0.2c-0.1,0-0.1,0-0.1,0c0,0-0.2,0-0.6,0.6c-0.1,0.1-0.2,0.2-0.3,0.3
			c-0.2,0.2-0.4,0.5-0.6,0.7l0.4,1.1c0.2,0.8,0.4,1,0.5,1.1c0.1,0,0.3-0.1,0.7-0.7L14,9.6l0.7,0.7l-0.1,0.2
			C14,11.2,13.3,12.1,12.6,12.1z"/>
	</svg>

	<svg id="icon-layer-link" viewBox="0 0 17 17">
		<path fill="#333" d="M7.6,10.2c-0.2,0-0.4-0.1-0.5-0.2C5.8,8.7,5.8,6.7,7,5.4l2.5-2.5C10.1,2.3,10.9,2,11.8,2s1.7,0.3,2.3,0.9
			c1.3,1.3,1.3,3.3,0,4.6l-1.1,1.1c-0.3,0.3-0.8,0.3-1.1,0c-0.1-0.1-0.2-0.3-0.2-0.5c0-0.2,0.1-0.4,0.2-0.5L13,6.4
			c0.7-0.7,0.7-1.8,0-2.4c-0.3-0.3-0.8-0.5-1.2-0.5c-0.5,0-0.9,0.2-1.2,0.5L8.1,6.5C7.8,6.8,7.6,7.2,7.6,7.7c0,0.5,0.2,0.9,0.5,1.2
			c0.3,0.3,0.3,0.8,0,1.1C8,10.1,7.8,10.2,7.6,10.2z"/>
		<path fill="#333" d="M5.2,15c-0.9,0-1.7-0.3-2.3-0.9c-1.3-1.3-1.3-3.3,0-4.6l1.1-1.1c0.1-0.1,0.3-0.2,0.5-0.2S5,8.2,5.1,8.4
			c0.1,0.1,0.2,0.3,0.2,0.5S5.3,9.3,5.1,9.4L4,10.6c-0.3,0.3-0.5,0.8-0.5,1.2S3.7,12.7,4,13c0.3,0.3,0.8,0.5,1.2,0.5
			c0.5,0,0.9-0.2,1.2-0.5l2.5-2.5c0.7-0.7,0.7-1.8,0-2.4C8.8,8,8.7,7.8,8.7,7.6c0-0.2,0.1-0.4,0.2-0.5C9,6.9,9.2,6.8,9.4,6.8
			S9.8,6.9,10,7c1.3,1.3,1.3,3.3,0,4.6l-2.5,2.5C6.9,14.7,6.1,15,5.2,15z"/>
	</svg>

	<svg id="icon-switch" viewBox="0 0 17 17">
		<path fill="#333" d="M13.7,11.5V6.8c0-1.2-0.3-2.1-0.9-2.8c-0.6-0.7-1.6-1-2.9-1H5.8V1.5L1.8,4l4,2.5V4.9h4.1
			c0.7,0,1.2,0.1,1.5,0.4c0.3,0.3,0.4,0.8,0.4,1.5v4.7h-1.5l2.5,4l2.5-4L13.7,11.5L13.7,11.5z"/>
	</svg>

	<svg id="icon-black-white" viewBox="0 0 17 17">
		<style type="text/css">
			.st0{fill:#333333;}
			.st1{fill:#FFFFFF;}
		</style>
		<path class="st1" d="M16,16h-9V7h9V16z"/>
		<rect x="7.9" y="8" class="st0" width="7" height="7"/>
		<path class="st0" d="M10,10H1V1h9V10z"/>
		<rect x="2" y="2" class="st1" width="7" height="7"/>
	</svg>

	<svg id="knob" viewBox="0 0 34 1734">
		<filter id="DS_1" x="-40%" y="-40%" width="180%" height="180%">
			<feDropShadow dx="0" dy="0" stdDeviation="1.5" flood-color="#7af" flood-opacity="1" />
		</filter>
		<style type="text/css">
			.st0{fill:none;stroke:#7af;stroke-width:2.5;stroke-linecap:round;filter:url(#DS_1);}
			.st1{fill:none;stroke:#344;stroke-width:2.5;stroke-linecap:round;}
		</style>
		<path class="st0" d="M7.1,60.9c0.4,0.4,0.7,0.7,1.1,1"/>
		<path class="st0" d="M6.2,94c0.6,0.7,1.2,1.4,2,1.9"/>
		<path class="st0" d="M5.4,126.9c0.8,1.2,1.7,2.2,2.8,3"/>
		<path class="st0" d="M4.7,159.7c0.9,1.6,2.1,3.1,3.5,4.2"/>
		<path class="st0" d="M4.1,192.5c0.9,2.2,2.3,4,4.1,5.5"/>
		<path class="st0" d="M3.6,225.1c0.8,2.7,2.5,5.1,4.6,6.8"/>
		<path class="st0" d="M3.3,257.8c0.7,3.3,2.5,6.1,4.9,8.1"/>
		<path class="st0" d="M3.1,290.5c0.4,3.8,2.4,7.2,5.1,9.4"/>
		<path class="st0" d="M3,323c0,4.4,2.1,8.4,5.2,10.9"/>
		<path class="st0" d="M3.1,355.7c0,0.4-0.1,0.9-0.1,1.3c0,4.4,2.1,8.4,5.2,10.9"/>
		<path class="st0" d="M3.3,388.3C3.1,389.2,3,390.1,3,391c0,4.4,2.1,8.4,5.2,10.9"/>
		<path class="st0" d="M3.6,421c-0.4,1.3-0.6,2.6-0.6,4c0,4.4,2.1,8.4,5.2,10.9"/>
		<path class="st0" d="M4,453.7c-0.7,1.6-1,3.4-1,5.3c0,4.4,2.1,8.4,5.2,10.9"/>
		<path class="st0" d="M4.6,486.5c-1,2-1.6,4.2-1.6,6.5c0,4.4,2.1,8.4,5.2,10.9"/>
		<path class="st0" d="M5.3,519.3C3.9,521.5,3,524.2,3,527c0,4.4,2.1,8.4,5.2,10.9"/>
		<path class="st0" d="M6.3,552.2c-2,2.4-3.2,5.5-3.2,8.8c0,4.4,2.1,8.4,5.2,10.9"/>
		<path class="st0" d="M7.2,585.2c-2.5,2.5-4.1,6-4.1,9.9c0,4.4,2.1,8.4,5.2,10.9"/>
		<path class="st0" d="M8.3,618.2c-3.1,2.6-5.1,6.5-5.1,10.8c0,4.4,2.1,8.4,5.2,10.9"/>
		<path class="st0" d="M9.4,651.4c-3.7,2.5-6.2,6.8-6.2,11.6c0,4.4,2.1,8.4,5.2,10.9"/>
		<path class="st0" d="M10.5,684.7c-4.4,2.4-7.4,7-7.4,12.3c0,4.4,2.1,8.4,5.2,10.9"/>
		<path class="st0" d="M11.8,718.1c-5,2.1-8.6,7.1-8.6,12.9c0,4.4,2.1,8.4,5.2,10.9"/>
		<path class="st0" d="M13.1,751.6c-5.7,1.8-9.9,7.1-9.9,13.4c0,4.4,2.1,8.4,5.2,10.9"/>
		<path class="st0" d="M14.4,785.3c-6.4,1.3-11.2,7-11.2,13.7c0,4.4,2.1,8.4,5.2,10.9"/>
		<path class="st0" d="M15.8,819.1c-7.1,0.7-12.6,6.7-12.6,13.9c0,4.4,2.1,8.4,5.2,10.9"/>
		<path class="st0" d="M17.2,853C17.1,853,17.1,853,17.2,853c-7.7,0-14,6.3-14,14c0,4.4,2.1,8.4,5.2,10.9"/>
		<path class="st0" d="M18.5,887.1c-0.4,0-0.9-0.1-1.4-0.1c-7.7,0-14,6.3-14,14c0,4.4,2.1,8.4,5.2,10.9"/>
		<path class="st0" d="M19.9,921.3c-0.9-0.2-1.8-0.3-2.7-0.3c-7.7,0-14,6.3-14,14c0,4.4,2.1,8.4,5.2,10.9"/>
		<path class="st0" d="M21.2,955.6c-1.3-0.4-2.6-0.6-4.1-0.6c-7.7,0-14,6.3-14,14c0,4.4,2.1,8.4,5.2,10.9"/>
		<path class="st0" d="M22.5,990.1c-1.7-0.7-3.5-1.1-5.3-1.1c-7.7,0-14,6.3-14,14c0,4.4,2.1,8.4,5.2,10.9"/>
		<path class="st0" d="M23.8,1024.7c-2-1.1-4.3-1.7-6.7-1.7c-7.7,0-14,6.3-14,14c0,4.4,2.1,8.4,5.2,10.9"/>
		<path class="st0" d="M24.9,1059.4c-2.2-1.5-4.9-2.4-7.8-2.4c-7.7,0-14,6.3-14,14c0,4.4,2.1,8.4,5.2,10.9"/>
		<path class="st0" d="M25.9,1094.2c-2.4-2-5.5-3.2-8.9-3.2c-7.7,0-14,6.3-14,14c0,4.4,2.1,8.4,5.2,10.9"/>
		<path class="st0" d="M26.9,1129.1c-2.5-2.5-6-4.1-9.9-4.1c-7.7,0-14,6.3-14,14c0,4.4,2.1,8.4,5.2,10.9"/>
		<path class="st0" d="M27.8,1164.2c-2.6-3.1-6.5-5.1-10.8-5.1c-7.7,0-14,6.3-14,14c0,4.4,2.1,8.4,5.2,10.9"/>
		<path class="st0" d="M28.6,1199.2c-2.5-3.8-6.8-6.2-11.6-6.2c-7.7,0-14,6.3-14,14c0,4.4,2.1,8.4,5.2,10.9"/>
		<path class="st0" d="M29.3,1234.4c-2.4-4.4-7-7.4-12.3-7.4c-7.7,0-14,6.3-14,14c0,4.4,2.1,8.4,5.2,10.9"/>
		<path class="st0" d="M30.1,1269.7c-2.1-5.1-7.1-8.7-12.9-8.7c-7.7,0-14,6.3-14,14c0,4.4,2.1,8.4,5.2,10.9"/>
		<path class="st0" d="M30.6,1305c-1.7-5.7-7.1-10-13.4-10c-7.7,0-14,6.3-14,14c0,4.4,2.1,8.4,5.2,10.9"/>
		<path class="st0" d="M30.9,1340.3c-1.3-6.4-7-11.3-13.7-11.3c-7.7,0-14,6.3-14,14c0,4.4,2.1,8.4,5.2,10.9"/>
		<path class="st0" d="M31.1,1375.7c-0.7-7.1-6.7-12.7-13.9-12.7c-7.7,0-14,6.3-14,14c0,4.4,2.1,8.4,5.2,10.9"/>
		<path class="st0" d="M31.2,1411c0-7.7-6.3-14-14-14s-14,6.3-14,14c0,4.4,2.1,8.4,5.2,10.9"/>
		<path class="st0" d="M31.1,1446.4c0-0.5,0.1-0.9,0.1-1.4c0-7.7-6.3-14-14-14s-14,6.3-14,14c0,4.4,2.1,8.4,5.2,10.9"/>
		<path class="st0" d="M30.9,1481.8c0.2-0.9,0.3-1.8,0.3-2.8c0-7.7-6.3-14-14-14s-14,6.3-14,14c0,4.4,2.1,8.4,5.2,10.9"/>
		<path class="st0" d="M30.5,1517.1c0.4-1.3,0.6-2.7,0.6-4.1c0-7.7-6.3-14-14-14s-14,6.3-14,14c0,4.4,2.1,8.4,5.2,10.9"/>
		<path class="st0" d="M30.1,1552.4c0.7-1.7,1.1-3.5,1.1-5.4c0-7.7-6.3-14-14-14s-14,6.3-14,14c0,4.4,2.1,8.4,5.2,10.9"/>
		<path class="st0" d="M29.5,1587.7c1.1-2,1.7-4.3,1.7-6.6c0-7.7-6.3-14-14-14s-14,6.3-14,14c0,4.4,2.1,8.4,5.2,10.9"/>
		<path class="st0" d="M28.8,1622.8c1.5-2.2,2.4-4.9,2.4-7.8c0-7.7-6.3-14-14-14s-14,6.3-14,14c0,4.4,2.1,8.4,5.2,10.9"/>
		<path class="st0" d="M27.9,1657.9c2-2.4,3.2-5.6,3.2-8.9c0-7.7-6.3-14-14-14s-14,6.3-14,14c0,4.4,2.1,8.4,5.2,10.9"/>
		<path class="st0" d="M27,1693c2.5-2.5,4.1-6.1,4.1-10c0-7.7-6.3-14-14-14s-14,6.3-14,14c0,4.4,2.1,8.4,5.2,10.9"/>
		<path class="st0" d="M26,1727.9c3.1-2.5,5.2-6.5,5.2-10.9c0-7.7-6.3-14-14-14s-14,6.3-14,14c0,4.4,2.1,8.4,5.2,10.9"/>
		<path class="st1" d="M25.8,27.9C28.9,25.4,31,21.4,31,17c0-7.7-6.3-14-14-14S3,9.3,3,17c0,4.4,2.1,8.4,5.2,10.9L17,17"/>
		<path class="st1" d="M25.8,61.9c2.8-2.2,4.8-5.6,5.1-9.5c0.8-7.7-4.9-14.6-12.6-15.3S3.8,42,3.1,49.7C2.6,54,4.3,58.2,7.2,61L17,51" />
		<path class="st1" d="M25.8,95.9c2.4-2,4.3-4.8,4.9-8.2c1.5-7.6-3.4-15-11-16.5s-15,3.4-16.5,11c-0.9,4.3,0.4,8.6,3,11.7L17,85"/>
		<path class="st1" d="M25.8,129.9c2.1-1.7,3.8-4,4.6-6.8c2.2-7.4-2-15.2-9.3-17.5c-7.4-2.2-15.2,2-17.5,9.3 c-1.3,4.2-0.4,8.6,1.8,11.9L17,119"/>
		<path class="st1" d="M25.8,163.9c1.8-1.4,3.2-3.3,4.1-5.5c3-7.1-0.4-15.3-7.6-18.3S7,140.5,4.1,147.6c-1.7,4.1-1.3,8.6,0.6,12.1 L17,153"/>
		<path class="st1" d="M25.8,197.9c1.4-1.1,2.6-2.6,3.5-4.3c3.6-6.8,1.1-15.3-5.7-19s-15.3-1.1-19,5.7c-2.1,3.9-2.1,8.4-0.6,12.1 l13-5.4"/>
		<path class="st1" d="M25.8,231.9c1.1-0.9,2-1.9,2.8-3.1c4.3-6.4,2.6-15.1-3.8-19.4s-15.1-2.6-19.4,3.8c-2.5,3.7-2.9,8.1-1.8,11.9 L17,221"/>
		<path class="st1" d="M25.8,265.9c0.7-0.6,1.4-1.2,2-2c4.9-5.9,4-14.8-1.9-19.7s-14.8-4-19.7,1.9c-2.8,3.4-3.7,7.8-2.9,11.7L17,255" />
		<path class="st1" d="M25.8,299.9c0.4-0.3,0.7-0.6,1.1-1c5.5-5.4,5.5-14.3,0-19.8c-5.4-5.5-14.3-5.5-19.8,0 c-3.1,3.1-4.5,7.4-4.1,11.4l14-1.5"/>
		<path class="st1" d="M25.8,334l0.1-0.1c6-4.9,6.9-13.7,2-19.7s-13.7-6.9-19.7-2C4.7,315,3,319.1,3,323.1l14-0.1"/>
		<path class="st1" d="M25.7,367.9c5.5-4.5,6.9-12.6,2.9-18.6c-4.3-6.4-13-8.2-19.4-3.9c-3.7,2.4-5.8,6.4-6.2,10.4l14,1.2"/>
		<path class="st1" d="M25.8,401.9c5.1-4.1,6.8-11.5,3.6-17.5c-3.6-6.8-12.1-9.4-18.9-5.8c-3.9,2.1-6.4,5.8-7.2,9.7L17,391"/>
		<path class="st1" d="M25.8,435.9c4.7-3.8,6.6-10.4,4.2-16.2c-2.9-7.1-11.1-10.6-18.3-7.6c-4.1,1.7-7,5.1-8.1,8.9l13.4,4"/>
		<path class="st1" d="M25.8,469.9c4.3-3.5,6.3-9.3,4.6-14.9c-2.2-7.4-10.1-11.6-17.4-9.4c-4.2,1.3-7.4,4.4-8.9,8.1l13,5.3"/>
		<path class="st1" d="M25.8,503.9c3.9-3.2,6-8.3,5-13.6c-1.5-7.6-8.9-12.5-16.4-11.1c-4.3,0.8-7.8,3.7-9.7,7.2L17,493"/>
		<path class="st1" d="M25.8,537.9c3.5-2.9,5.6-7.4,5.2-12.2c-0.7-7.7-7.6-13.3-15.3-12.6c-4.4,0.4-8.2,2.9-10.4,6.2L17,527"/>
		<path class="st1" d="M25.9,571.9c3.2-2.6,5.2-6.5,5.2-10.8c0-7.7-6.2-14-13.9-14.1c-4.4,0-8.4,2.1-10.9,5.2l10.9,8.8"/>
		<path class="st1" d="M25.9,605.9c2.8-2.3,4.7-5.6,5.1-9.4c0.8-7.7-4.8-14.6-12.5-15.4c-4.4-0.5-8.6,1.2-11.4,4.1l9.9,9.9"/>
		<path class="st1" d="M25.9,639.9c2.5-2,4.3-4.8,4.9-8.1c1.5-7.5-3.4-15-10.9-16.5c-4.3-0.9-8.7,0.4-11.7,2.9l8.9,10.8"/>
		<path class="st1" d="M25.9,673.9c2.1-1.7,3.7-4,4.6-6.8c2.3-7.4-1.9-15.2-9.2-17.5c-4.2-1.3-8.6-0.5-11.9,1.8l7.8,11.6"/>
		<path class="st1" d="M25.9,707.9c1.8-1.4,3.2-3.3,4.1-5.5c3-7.1-0.4-15.3-7.5-18.3c-4.1-1.7-8.6-1.3-12.1,0.6L17,697"/>
		<path class="st1" d="M25.9,742c1.4-1.1,2.6-2.6,3.6-4.3c3.7-6.8,1.1-15.3-5.6-19c-3.9-2.1-8.4-2.2-12.1-0.6l5.4,12.9"/>
		<path class="st1" d="M25.9,775.9c1.1-0.9,2-1.9,2.8-3.1c4.3-6.4,2.6-15.1-3.8-19.4c-3.6-2.5-8.1-3-11.9-1.8l4.1,13.4"/>
		<path class="st1" d="M26,809.9c0.7-0.6,1.4-1.2,2-1.9c4.9-5.9,4.1-14.8-1.8-19.7c-3.4-2.8-7.8-3.8-11.7-3l2.8,13.7"/>
		<path class="st1" d="M25.9,843.9c0.4-0.3,0.7-0.6,1.1-1c5.5-5.4,5.5-14.3,0.1-19.8c-3.1-3.1-7.4-4.5-11.4-4.1l1.4,13.9"/>
		<path class="st1" d="M26,877.9c6-4.8,6.9-13.7,2.1-19.7c-2.8-3.4-6.9-5.2-10.9-5.2v14"/>
		<path class="st1" d="M26,911.9c5.5-4.5,6.9-12.5,2.9-18.6c-2.4-3.7-6.4-5.9-10.3-6.2L17.2,901"/>
		<path class="st1" d="M26,945.9c5.1-4.1,6.7-11.4,3.6-17.4c-2-3.9-5.8-6.5-9.7-7.2L17.2,935"/>
		<path class="st1" d="M26,979.9c4.7-3.8,6.5-10.3,4.2-16.2c-1.7-4.1-5.1-7-8.9-8.1L17.2,969"/>
		<path class="st1" d="M26,1013.9c4.3-3.5,6.3-9.3,4.6-14.9c-1.2-4.2-4.4-7.5-8.1-9l-5.4,12.9"/>
		<path class="st1" d="M26,1047.9c3.9-3.1,6-8.3,5-13.5c-0.8-4.3-3.6-7.9-7.2-9.7l-6.6,12.4"/>
		<path class="st1" d="M26,1081.9c3.5-2.8,5.6-7.3,5.2-12.1c-0.4-4.4-2.8-8.2-6.2-10.4l-7.8,11.6"/>
		<path class="st1" d="M25.8,1115.9c3.1-2.5,5.2-6.4,5.2-10.8s-2-8.4-5.1-10.9L17,1105"/>
		<path class="st1" d="M25.8,1149.9c2.8-2.3,4.7-5.6,5.1-9.4c0.5-4.4-1.2-8.6-4-11.4L17,1139"/>
		<path class="st1" d="M25.8,1183.9c2.5-2,4.3-4.8,5-8.1c0.9-4.3-0.3-8.7-2.9-11.7L17,1173"/>
		<path class="st1" d="M25.8,1217.9c2.1-1.7,3.7-4,4.6-6.7c1.3-4.2,0.5-8.6-1.7-12L17,1207"/>
		<path class="st1" d="M25.8,1251.9c1.7-1.4,3.2-3.2,4.1-5.4c1.7-4,1.4-8.6-0.5-12.1L17,1241"/>
		<path class="st1" d="M26,1285.9c1.4-1.1,2.6-2.5,3.5-4.2c2.1-3.9,2.2-8.4,0.7-12.1l-13,5.3"/>
		<path class="st1" d="M26,1319.9c1-0.8,2-1.8,2.8-3c2.5-3.6,3-8.1,1.9-11.9l-13.4,4"/>
		<path class="st1" d="M26,1353.9c0.7-0.6,1.3-1.2,1.9-1.9c2.8-3.4,3.8-7.8,3-11.7l-13.7,2.7"/>
		<path class="st1" d="M26,1387.9c0.3-0.3,0.7-0.6,1-0.9c3.1-3.1,4.5-7.4,4.1-11.3l-13.9,1.3"/>
		<path class="st1" d="M25.9,1421.9c3.4-2.8,5.2-6.9,5.2-10.9h-14"/>
		<path class="st1" d="M26,1455.9c3-2.4,4.8-5.9,5.1-9.5l-13.9-1.4"/>
		<path class="st1" d="M26,1489.9c2.6-2.1,4.3-5,4.9-8.1l-13.7-2.8"/>
		<path class="st1" d="M26,1523.9c2.2-1.8,3.8-4.2,4.6-6.8l-13.4-4.1"/>
		<path class="st1" d="M26,1557.9c1.8-1.5,3.3-3.4,4.1-5.5l-12.9-5.4"/>
		<path class="st1" d="M26,1591.9c1.5-1.2,2.7-2.6,3.5-4.2l-12.3-6.7"/>
		<path class="st1" d="M26,1625.9c1.1-0.9,2.1-1.9,2.8-3.1l-11.6-7.8"/>
		<path class="st1" d="M26,1659.9c0.7-0.6,1.4-1.2,2-2l-10.8-8.9"/>
		<path class="st1" d="M26,1693.9c0.4-0.3,0.7-0.6,1.1-0.9l-9.9-10"/>
		<path class="st1" d="M26,1727.9l-8.8-10.9"/>
	</svg>

	@import "brush-presets.svg"

</svg>
