
<svg xmlns="http://www.w3.org/2000/svg" width="0" height="0">

	<svg id="tool-move" viewBox="0 0 500 500">
		<polygon points="13.649,397.297 108.41,270.95 264.234,270.95 13.649,20.366"/>
		<polygon points="486.351,348.227 430.929,307.107 430.929,334.511 368.658,334.511 368.658,272.243 396.065,272.243 354.944,216.821 313.823,272.243 341.23,272.243 341.23,334.511 278.962,334.511 278.962,307.107 223.539,348.227 278.962,389.349 278.962,361.943 341.23,361.943 341.23,424.211 313.823,424.211 354.944,479.634 396.065,424.211 368.658,424.211 368.658,361.943 430.929,361.943 430.929,389.349"/>
	</svg>

	<svg id="tool-crop" viewBox="0 0 500 500">
		<polyline fill="none" stroke="#000" stroke-width="58" points="30.068,144.614 352.63,144.614 352.63,478.178 "/>
		<polyline fill="none" stroke="#000" stroke-width="58" points="464.43,355.385 141.868,355.385 141.868,21.823 "/>
		<line fill="none" stroke="#000" stroke-width="20" x1="141.868" y1="355.385" x2="469.932" y2="27.325"/>
	</svg>

	<svg id="tool-perspective" viewBox="0 0 500 500">
		<polygon fill="none" stroke="#000" stroke-width="30" points="426.5,360.5 65.5,440.5 65.5,49.5 426.5,99.5 "/>
		<line fill="none" stroke="#000" stroke-width="30" x1="246" y1="400.5" x2="246" y2="74.5"/>
		<line fill="none" stroke="#000" stroke-width="30" x1="66" y1="256.5" x2="426.5" y2="228.5"/>
		<rect x="20.5" y="395" width="91" height="91"/>
		<rect x="20" y="4" width="91" height="91"/>
		<rect x="381" y="55" width="91" height="91"/>
		<rect x="381" y="309.5" width="91" height="91"/>
	</svg>

	<svg id="tool-slice" viewBox="0 0 500 500">
		<polyline fill="#00000050" stroke="#000" stroke-width="32" points="480.156,117.862 312.243,285.775 254.911,228.444 422.824,60.53 "/>
		<polygon points="216.345,242.969 296.794,323.418 258.418,396.933 19.844,439.469 "/>
	</svg>

	<svg id="tool-slice-select" viewBox="0 0 500 500">
		<polyline fill="#00000050" stroke="#000" stroke-width="32" points="480.156,117.862 312.243,285.775 254.911,228.444 422.824,60.53 "/>
		<polygon points="216.345,242.969 296.794,323.418 258.418,396.933 19.844,439.469 "/>
		<polygon points="19.844,282.524 81.082,200.875 181.782,200.875 19.844,38.938 "/>
	</svg>

	<svg id="tool-wand" viewBox="0 0 500 500">
		<path d="M341.176,187.143l77.546-77.545l-28.319-28.318l-77.545,77.545L341.176,187.143z M459.479,109.598 c0,4.499-1.588,8.733-4.765,11.91L114.361,461.861c-3.176,3.176-7.41,4.764-11.91,4.764c-4.499,0-8.733-1.588-11.909-4.764 l-52.403-52.403c-3.176-3.176-4.764-7.41-4.764-11.909c0-4.5,1.588-8.734,4.764-11.91L378.493,45.285 c3.176-3.176,7.41-4.764,11.909-4.764c4.5,0,8.734,1.588,11.91,4.764l52.402,52.402 C457.892,100.863,459.479,105.098,459.479,109.598z M101.922,59.312l25.938,7.939l-25.938,7.939l-7.939,25.938l-7.939-25.938 l-25.938-7.939l25.938-7.939l7.939-25.938L101.922,59.312z M194.554,102.188l51.873,15.879l-51.873,15.88l-15.88,51.874 l-15.879-51.874l-51.874-15.88l51.874-15.879l15.879-51.874L194.554,102.188z M440.688,228.695l25.937,7.939l-25.937,7.939 l-7.94,25.938l-7.939-25.938l-25.937-7.939l25.937-7.939l7.939-25.938L440.688,228.695z M271.306,59.312l25.937,7.939l-25.937,7.939 l-7.94,25.938l-7.939-25.938l-25.938-7.939l25.938-7.939l7.939-25.938L271.306,59.312z"/>
	</svg>

	<svg id="tool-pencil" viewBox="0 0 500 500">
		<rect x="350.313" y="71.461" transform="matrix(0.7071 0.7071 -0.7071 0.7071 187.0552 -255.5077)" width="103.285" height="53.166"/>
		<rect x="201.978" y="83.719" transform="matrix(0.7071 0.7071 -0.7071 0.7071 252.0842 -98.5225)" fill="#474747" stroke="#000" stroke-width="18.0102" width="85.983" height="342.624"/>
		<polygon points="70.959,356.008 143.993,429.042 42.73,457.269 "/>
	</svg>

	<svg id="tool-feather" viewBox="0 0 500 500">
		<path d="M130.4,252.7C92,299.1,92.1,346.5,98,383c62.9-52,217.3-187.5,217.3-187.5l-255,266.9c127.5-59,147.2-36,211.4-81.6 c61.5-43.7,92.8-162.6,168.1-343.3C283.7,194,189.5,181.2,130.4,252.7z"/>
	</svg>

	<svg id="tool-blur" viewBox="0 0 500 500">
		<path d="M387.248,250.104C359.419,180.107,293.914,96.378,250,35.5c-43.914,60.878-109.419,144.607-137.249,214.604 c-15.828,44.15-17.391,92.074,4.897,134.437C143.278,433.247,194.961,464.5,250,464.5s106.722-31.253,132.351-79.96 C404.64,342.178,403.076,294.254,387.248,250.104z"/>
	</svg>

	<svg id="tool-sharpen" viewBox="0 0 500 500">
		<polygon points="398.446,488.5 101.554,488.5 250,11.5 "/>
	</svg>

	<svg id="tool-smudge" viewBox="0 0 500 500">
		<line stroke="#000000ee" stroke-width="27" stroke-linecap="round" x1="357.185" y1="466.385" x2="106.539" y2="466.385"/>
		<path fill="#000000ee" stroke="#ffffff77" stroke-width="27" stroke-linecap="round" d="M222.447,229.2 C205.062,252.173,97.646,398.706,85.849,416.092c-11.797,17.385-12.288,50.293,28.028,50.293c24.748,0,39.057-27.732,43.996-32.908 C170.013,420.755,312.478,229.2,312.478,229.2s29.805,25.458,13.66,45.326c-16.143,19.869-33.79,24.736-56.015,11.459l-46.128,61.52 c28.704,10.804,56.818,20.778,70.477,20.778c13.66,0,26.389,0.311,80.719-54.02c54.329-54.328,56.502-47.188,57.121-85.063 c0.621-37.875,0-103.07,0-111.141c0-8.072-5.587-27.32-13.038-34.15c-7.45-6.829-32.908-37.254-40.979-43.463 c-8.071-6.209-14.281-6.83-21.109-6.83c-25.458,0-133.496,0-152.123,0c-23.283,0-112.842,96.283-126.664,111.763 c-15.522,17.385-17.695,55.571,14.056,67.679"/>
		<path fill="#000000ee" stroke="#ffffff77" stroke-width="27" stroke-linecap="round" d="M138.625,158.107 c-17.488,16.351-55.242,50.914-51.206,79.785c3.759,26.895,25.665,29.183,33.737,32.287"/>
		<path fill="#000000ee" stroke="#ffffff77" stroke-width="27" stroke-linecap="round" d="M174.638,202.811 c-20.097,19.343-66.437,63.333-57.745,100.276c4.631,19.678,21.749,31.667,26.928,32.908l73.349-99.75"/>
	</svg>

	<svg id="tool-dodge" viewBox="0 0 500 500">
		<path d="M320.5,30.5c-80.633,0-146,65.367-146,146c0,28.18,7.992,54.49,21.821,76.803L25.812,423.812l47.376,47.377l170.51-170.51 C266.01,314.508,292.32,322.5,320.5,322.5c80.634,0,146-65.366,146-146C466.5,95.867,401.134,30.5,320.5,30.5z"/>
	</svg>

	<svg id="tool-burn" viewBox="0 0 500 500">
		<path fill="#000000ee" stroke="#ffffff77" stroke-width="23.1096" stroke-linejoin="round" d="M210.242,97.019 c-7.199-16.881-57.029-21.937-92.416-0.272C72.825,124.303,34.054,147.3,49.67,181.355"/>
		<path fill="#000000ee" stroke="#ffffff77" stroke-width="23.1096" stroke-linejoin="round" d="M405.499,417.642 l80.886-163.686c0,0-130.939-104.016-159.827-125.185s-75.853-32.024-110.515-32.024c-34.666,0-99.435,30.829-132.158,51.997 c-32.724,21.169-86.662,95.553-65.47,120.604c21.191,25.05,38.501,15.391,51.997,0c13.495-15.392,32.723-25.029,28.887-50.056 c26.969-7.696,46.218-30.805,44.302-40.443c23.108,40.443,38.521,3.86,57.773,23.11c19.25,19.25,40.441,65.493,11.555,78.966 c-28.888,13.473-7.719,42.338-44.301,38.501S118.57,286.702,95.46,288.62c-23.108,1.919-51.07,35.838-32.521,51.5 c30.062,25.389,31.394,59.443,88.875,53.373c40.396-4.265,61.113,6.319,93.86,2.483c32.747-3.838,23.064-36.854,67.386-38.028 c24.78-0.654,42.361-1.219,53.917,16.114C378.53,391.395,405.499,417.642,405.499,417.642z"/>
	</svg>

	<svg id="tool-sponge" viewBox="0 0 500 500">
		<path fill="#000" d="M379.162,86.823c-49.13,0-67.786,21.149-133.388,21.149c-65.601,0-94.492-21.149-137.603-21.149 c-43.109,0-81.918,42.96-81.918,95.954v63.292c0,52.994,38.965,95.952,81.918,95.952c24.9,0,88.853-21.148,136.399-21.148 s104.723,21.148,134.592,21.148c47.77,0,81.918-42.958,81.918-95.952v-63.292C461.08,129.783,437.163,86.823,379.162,86.823z M67.021,185.871c-8.806,0-15.946-8.365-15.946-18.679c0-10.318,7.141-18.683,15.946-18.683c8.81,0,15.951,8.364,15.951,18.683 C82.972,177.506,75.831,185.871,67.021,185.871z M98.918,312.766c-8.805,0-15.946-8.364-15.946-18.678 c0-10.319,7.141-18.684,15.946-18.684c8.81,0,15.951,8.364,15.951,18.684C114.869,304.401,107.728,312.766,98.918,312.766z M125.402,245.088c-8.807,0-15.948-8.364-15.948-18.68c0-10.318,7.141-18.682,15.948-18.682c8.809,0,15.95,8.364,15.95,18.682 C141.352,236.724,134.211,245.088,125.402,245.088z M151.282,167.19c-8.807,0-15.948-8.364-15.948-18.681 c0-10.317,7.141-18.682,15.948-18.682c8.809,0,15.95,8.365,15.95,18.682C167.232,158.826,160.091,167.19,151.282,167.19z M200.031,275.402c-8.806,0-15.947-8.364-15.947-18.679c0-10.319,7.141-18.684,15.947-18.684c8.809,0,15.95,8.365,15.95,18.684 C215.981,267.038,208.84,275.402,200.031,275.402z M242.762,197.855c-8.805,0-15.946-8.365-15.946-18.679 c0-10.318,7.141-18.683,15.946-18.683c8.81,0,15.951,8.364,15.951,18.683C258.713,189.491,251.571,197.855,242.762,197.855z M293.318,275.402c-8.806,0-15.946-8.364-15.946-18.678c0-10.319,7.141-18.683,15.946-18.683c8.81,0,15.95,8.364,15.95,18.683 C309.269,267.038,302.128,275.402,293.318,275.402z M325.216,155.558c-8.806,0-15.947-8.365-15.947-18.679 c0-10.318,7.142-18.683,15.947-18.683c8.809,0,15.95,8.364,15.95,18.683C341.166,147.192,334.024,155.558,325.216,155.558z M358.92,235.219c-8.806,0-15.947-8.365-15.947-18.679c0-10.318,7.142-18.683,15.947-18.683c8.809,0,15.95,8.364,15.95,18.683 C374.87,226.854,367.729,235.219,358.92,235.219z M393.226,312.766c-8.806,0-15.947-8.364-15.947-18.678 c0-10.319,7.142-18.684,15.947-18.684c8.809,0,15.95,8.364,15.95,18.684C409.176,304.401,402.034,312.766,393.226,312.766z M401.351,174.239c-8.806,0-15.947-8.365-15.947-18.679c0-10.318,7.142-18.683,15.947-18.683c8.809,0,15.95,8.364,15.95,18.683 C417.301,165.874,410.159,174.239,401.351,174.239z"/>
		<path fill="#000000aa" d="M460.773,300.95c-3.382,49.078-36.381,66.45-81.611,66.45c-29.869,0-87.046-21.148-134.592-21.148 S133.072,367.4,108.171,367.4c-40.429,0-77.312-23.257-81.51-71.917c-0.263,3.046-0.408,6.132-0.408,9.255v48.485 c0,52.994,38.965,95.953,81.919,95.953c24.898,0,88.851-21.148,136.398-21.148c47.546,0,104.723,21.148,134.592,21.148 c47.77,0,81.918-42.959,81.918-95.953v-42.141C461.08,307.658,460.977,304.278,460.773,300.95z M93.504,436.838 c-8.806,0-15.947-8.364-15.947-18.679c0-10.318,7.141-18.682,15.947-18.682c8.809,0,15.95,8.363,15.95,18.682 C109.454,428.474,102.313,436.838,93.504,436.838z M200.032,398.066c-8.806,0-15.947-8.365-15.947-18.68 c0-10.318,7.141-18.683,15.947-18.683c8.809,0,15.95,8.364,15.95,18.683C215.982,389.701,208.841,398.066,200.032,398.066z M309.267,427.675c-8.806,0-15.946-8.364-15.946-18.68c0-10.318,7.141-18.682,15.946-18.682c8.81,0,15.95,8.363,15.95,18.682 C325.217,419.311,318.076,427.675,309.267,427.675z M409.174,412.87c-8.806,0-15.946-8.365-15.946-18.679 c0-10.318,7.141-18.684,15.946-18.684c8.81,0,15.95,8.365,15.95,18.684C425.124,404.505,417.983,412.87,409.174,412.87z"/>
	</svg>

	<svg id="tool-zoom" viewBox="0 0 500 500">
		<path d="M445.951,396.636l-98.963-84.169c-10.231-9.207-21.172-13.434-30.011-13.026c23.361-27.363,37.473-62.866,37.473-101.665 c0-86.529-70.146-156.675-156.676-156.675C111.245,41.1,41.1,111.246,41.1,197.775S111.245,354.45,197.774,354.45 c38.8,0,74.303-14.111,101.666-37.474c-0.408,8.838,3.819,19.778,13.026,30.01l84.169,98.964 c14.412,16.013,37.953,17.362,52.315,3.001C463.312,434.589,461.963,411.048,445.951,396.636L445.951,396.636z M197.774,302.226 c-57.686,0-104.45-46.765-104.45-104.45s46.764-104.45,104.45-104.45c57.687,0,104.45,46.764,104.45,104.45 S255.462,302.226,197.774,302.226z"/>
	</svg>

	<svg id="icon-zoom-plus" viewBox="0 0 500 500">
		<path d="M445.951,396.636l-98.963-84.169c-10.231-9.207-21.172-13.434-30.011-13.026c23.361-27.363,37.473-62.866,37.473-101.665 c0-86.529-70.146-156.675-156.676-156.675C111.245,41.1,41.1,111.246,41.1,197.775S111.245,354.45,197.774,354.45 c38.8,0,74.303-14.111,101.666-37.474c-0.408,8.838,3.819,19.778,13.026,30.01l84.169,98.964 c14.412,16.013,37.953,17.362,52.315,3.001C463.312,434.589,461.963,411.048,445.951,396.636L445.951,396.636z M197.774,302.226 c-57.686,0-104.45-46.765-104.45-104.45s46.764-104.45,104.45-104.45c57.687,0,104.45,46.764,104.45,104.45 S255.462,302.226,197.774,302.226z"/>
		<line stroke="#000" stroke-width="37" x1="196.5" y1="273.216" x2="196.5" y2="127.785"/>
		<line stroke="#000" stroke-width="37" x1="123.783" y1="200.5" x2="269.216" y2="200.5"/>
	</svg>

	<svg id="icon-zoom-minus" viewBox="0 0 500 500">
		<path d="M445.951,396.636l-98.963-84.169c-10.231-9.207-21.172-13.434-30.011-13.026c23.361-27.363,37.473-62.866,37.473-101.665 c0-86.529-70.146-156.675-156.676-156.675C111.245,41.1,41.1,111.246,41.1,197.775S111.245,354.45,197.774,354.45 c38.8,0,74.303-14.111,101.666-37.474c-0.408,8.838,3.819,19.778,13.026,30.01l84.169,98.964 c14.412,16.013,37.953,17.362,52.315,3.001C463.312,434.589,461.963,411.048,445.951,396.636L445.951,396.636z M197.774,302.226 c-57.686,0-104.45-46.765-104.45-104.45s46.764-104.45,104.45-104.45c57.687,0,104.45,46.764,104.45,104.45 S255.462,302.226,197.774,302.226z"/>
		<line stroke="#000" stroke-width="37" x1="123.783" y1="200.5" x2="269.216" y2="200.5"/>
	</svg>

	<svg id="tool-eraser" viewBox="0 0 500 500">
		<polygon fill="#000000aa" points="254.282,421.101 20.424,421.101 58.855,283.912 288.624,283.912 "/>
		<polygon fill="#000" points="65.988,273.509 267.574,78.899 477.691,78.899 292.896,273.509 "/>
		<polygon fill="#00000080" points="267.574,413.877 458.667,191.5 479.576,91.537 300.663,280.05 "/>
	</svg>

	<svg id="tool-eraser-bg" viewBox="0 0 500 500">
		<polygon fill="#000000aa" points="254.282,453.101 20.424,453.101 58.855,315.912 288.624,315.912 "/>
		<polygon fill="#00000080" points="267.574,445.877 458.667,223.5 479.576,123.537 300.663,312.05 "/>
		<path fill="#000" d="M267.574,110.898l-26.572,25.652 c51.075,25.187,104.762,51.659,104.762,51.659l26.153,12.896l-25.7,13.778c-4.61,2.472-28.513,14.802-46.309,14.802 c-0.001,0-0.001,0-0.002,0c-1.284,0-2.546-0.062-3.748-0.185c-3.903-0.4-11.148-1.143-79.953-32.297 c-8.067-3.653-16.755-7.624-25.813-11.795l-124.405,120.1h226.909l184.795-194.61H267.574z"/>
		<path fill-rule="evenodd" clip-rule="evenodd" d="M339.445,59.355c0,0-26.691-15.119-41.29-14.011 c-13.737,1.029-136.422,55.251-150.948,61.687c-1.9-0.95-3.07-1.521-3.315-1.638c-3.561-1.753-21.26-5.33-28.313-2.646 c0.662-1.896,1.269-3.847,1.696-5.925c5.646-26.802-10.629-58.812-36.347-71.5c-25.711-12.676-57.745-4.493-63.395,22.32 c-5.647,26.806,18.306,57.019,44.019,69.698c14.072,6.953,26.921,8.901,38.128,3.196c8.9-4.542,19.893-0.618,27.333,6.832 c-7.526,7.591-18.838,11.58-27.906,6.687c-11.136-6.01-24.007-4.39-38.151,2.167c-25.861,11.989-50.157,41.557-44.817,68.514 c5.334,26.948,37.275,36.003,63.134,24.01c25.854-11.992,42.495-43.562,37.153-70.517c-0.411-2.089-0.979-4.052-1.624-5.963 c7.017,2.883,24.757-0.226,28.337-1.882c0.267-0.125,1.609-0.746,3.82-1.768c11.33,5.34,136.789,64.536,150.718,65.963 c14.592,1.485,41.453-12.915,41.453-12.915s-90.813-44.779-148.582-73.269C248.655,101.456,339.445,59.355,339.445,59.355z M105.639,91.084c-4.238,20.108-21.707,21.108-40.996,11.591c-19.287-9.503-41.36-30.011-37.118-50.117 c4.23-20.101,31.564-24.615,50.854-15.102C97.669,46.966,109.873,70.987,105.639,91.084z M76.856,216.546 c-19.393,8.993-46.674,3.743-50.677-16.472c-4-20.208,18.3-40.11,37.693-49.103c19.395-8.998,36.851-7.529,40.855,12.688 C108.732,183.871,96.253,207.56,76.856,216.546z"/>
	</svg>

	<svg id="tool-eraser-magic" viewBox="0 0 500 500">
		<polygon fill="#000000aa" points="254.282,441.101 20.424,441.101 58.855,303.912 288.624,303.912 "/>
		<polygon fill="#00000080" points="267.574,433.877 458.667,211.5 479.576,111.537 300.663,300.05 "/>
		<path stroke="#000" d="M267.574,98.898l-17.285,16.687c-1.402,2.824-3.477,5.339-6.149,7.281l-5.627,4.088l-42.31,40.846l16.668,51.302 c2.678,8.24-0.255,17.268-7.265,22.36c-3.505,2.546-7.631,3.82-11.756,3.82c-4.126,0-8.25-1.273-11.756-3.82l-35.487-25.783 l-80.62,77.83h226.909l184.795-194.61H267.574z"/>
		<polygon points="120.831,5.388 147.874,88.617 235.384,88.617 164.587,140.054 191.629,223.282 120.831,171.844 50.033,223.282 77.075,140.054 6.278,88.617 93.789,88.617 "/>
	</svg>

	<svg id="tool-shape-rect" viewBox="0 0 500 500">
		<rect x="39" y="97.5" fill="#00000050" stroke="#000" stroke-width="30" width="422" height="305"/>
	</svg>

	<svg id="tool-shape-rounded" viewBox="0 0 500 500">
		<path fill="#00000050" stroke="#000" stroke-width="30" d="M461,352.5 c0,27.614-22.386,50-50,50H89c-27.614,0-50-22.386-50-50v-205c0-27.614,22.386-50,50-50h322c27.614,0,50,22.386,50,50V352.5z"/>
	</svg>

	<svg id="tool-shape-elliptical" viewBox="0 0 500 500">
		<ellipse fill="#00000050" stroke="#000" stroke-width="30" cx="250" cy="250" rx="216.5" ry="157.5"/>
	</svg>

	<svg id="tool-shape-polygon" viewBox="0 0 500 500">
		<polygon fill="#00000050" stroke="#000" stroke-width="30" points="139.901,432.902 34.303,250 139.901,67.098 351.099,67.098 456.697,250 351.099,432.902 "/>
	</svg>

	<svg id="tool-shape-star" viewBox="0 0 500 500">
		<polygon fill="#00000050" stroke="#000" stroke-width="30" stroke-linejoin="round" points=" 250,44.029 301.125,201.377 466.57,201.377 332.723,298.623 383.848,455.971 250,358.725 116.152,455.971 167.277,298.623 33.43,201.377 198.875,201.377 "/>
	</svg>

	<svg id="tool-shape-star" viewBox="0 0 500 500">
		<polygon fill="#00000050" stroke="#000" stroke-width="30" stroke-linejoin="round" points=" 250,44.029 301.125,201.377 466.57,201.377 332.723,298.623 383.848,455.971 250,358.725 116.152,455.971 167.277,298.623 33.43,201.377 198.875,201.377 "/>
	</svg>

	<svg id="tool-shape-line" viewBox="0 0 500 500">
		<line fill="none" stroke="#000" stroke-width="40" stroke-linejoin="round" x1="429.5" y1="70.5" x2="70.5" y2="429.5"/>
	</svg>

	<svg id="tool-pointer" viewBox="0 0 500 500">
		<polygon fill="#000000b0" stroke="#00000" stroke-width="20" points="388.471,305.693 111.53,28.752 111.53,445.318 194.455,334.752 269.02,483.249 326.061,454.61 251.285,305.693 "/>
	</svg>

	<svg id="tool-pointer-object" viewBox="0 0 500 500">
		<polygon fill="#ffffffb0" stroke="#000" stroke-width="20" points="388.471,305.693 111.53,28.752 111.53,445.318 194.455,334.752 269.02,483.249 326.061,454.61 251.285,305.693 "/>
	</svg>

	<svg id="tool-hand" viewBox="0 0 500 500">
		<path d="M267.821,36.151c-17.264,0-31.187,13.923-31.187,31.187V250h-8.911V102.979c0-17.264-13.922-31.186-31.186-31.186 s-31.187,13.922-31.187,31.186v218.303l-42.881-57.081C115.788,255.29,105.207,250,94.069,250c-19.77,0-35.642,16.15-35.642,35.642 c0,7.797,2.506,15.314,7.24,21.44l106.924,142.566c6.684,8.91,17.264,14.2,28.402,14.2h191.574c12.808,0,23.946-9.188,26.452-21.72 l21.161-112.771c0.836-5.29,1.394-10.858,1.394-16.428V174.262c0-17.264-13.923-31.187-31.187-31.187S379.2,156.998,379.2,174.262 V250h-8.91V102.979c0-17.264-13.923-31.186-31.187-31.186s-31.187,13.922-31.187,31.186V250h-8.91V67.337 C299.007,50.074,285.085,36.151,267.821,36.151z M267.821,0.51c25.06,0,48.171,14.201,59.587,36.755 c3.898-0.835,7.797-1.114,11.695-1.114c36.755,0,66.828,30.073,66.828,66.828v4.733c38.704-2.228,71.282,27.567,71.282,66.55V312.93 c0,7.797-0.835,15.593-2.227,23.111l-21.163,112.493c-5.29,29.516-31.187,50.956-61.258,50.956H200.993 c-22.276,0-43.716-10.859-57.082-28.401L36.987,328.522c-9.189-12.252-14.201-27.566-14.201-42.881 c0-39.261,31.744-71.283,71.283-71.283c11.695,0,25.896,2.784,35.641,9.467V102.979c0-36.755,30.073-66.828,66.828-66.828 c3.898,0,7.796,0.279,11.695,1.114C219.649,14.71,242.76,0.51,267.821,0.51z"/>
	</svg>
	
	<svg id="tool-other-tools" viewBox="0 0 500 500">
		<circle cx="250" cy="250" r="46.5"/>
		<circle cx="409" cy="250" r="46.5"/>
		<circle cx="91" cy="250" r="46.5"/>
	</svg>

	<svg id="tool-pipette" viewBox="0 0 15 15">
		<path fill="#333" d="M13.6,1.4c-0.6-0.6-1.6-0.6-2.2,0L9.3,3.5L7.8,2.1L6.2,3.7L7.5,5l-5.7,5.7c-0.1,0.1-0.1,0.2-0.1,0.4h0L1,13.6
			C1,13.8,1.2,14,1.4,14l2.6-0.6c0,0,0,0,0,0c0.1,0,0.2,0,0.3-0.1L10,7.5l1.3,1.3l1.6-1.6l-1.5-1.5l2.1-2.1C14.2,3,14.2,2,13.6,1.4z
			 M4.3,12l-0.7-0.6L3,10.7l5.1-5.1l1.3,1.3L4.3,12z"/>
	</svg>

	<svg id="tool-ruler" viewBox="0 0 500 500">
		<rect x="40.333" y="160.144" fill="none" stroke="#000" stroke-width="25.223" width="419.333" height="179.714"/>
		<line fill="none" stroke="#000" stroke-width="25.223" x1="100.237" y1="250.001" x2="100.237" y2="339.857"/>
		<line fill="none" stroke="#000" stroke-width="25.223" x1="172.753" y1="294.93" x2="172.753" y2="339.857"/>
		<line fill="none" stroke="#000" stroke-width="25.223" x1="249.999" y1="250.001" x2="249.999" y2="339.857"/>
		<line fill="none" stroke="#000" stroke-width="25.223" x1="322.516" y1="294.93" x2="322.516" y2="339.857"/>
		<line fill="none" stroke="#000" stroke-width="25.223" x1="401.338" y1="250.001" x2="401.338" y2="339.857"/>
	</svg>

	<svg id="tool-stamp-clone" viewBox="0 0 500 500">
		<path d="M417.42,453.71c0,14.279-28.81,13.788-43.089,13.788H125.67c-14.278,0-43.09,0.491-43.09-13.788v-19.767h334.84V453.71z"/>
		<path d="M415.176,313.441h-87.992c-17.947-7.78-43.051-5.441-43.051-75.663c0-57.052,25.329-83.479,25.329-83.479h-0.012 c9.735-12.754,15.527-28.678,15.527-45.962c0-41.884-33.953-75.837-75.837-75.837c-41.885,0-75.838,33.953-75.838,75.837 c0,17.284,5.793,33.208,15.527,45.962h-0.303c0,0,23.256,23.842,23.256,86.288c0,63.413-25.768,60.835-39.286,72.854H84.824 c-14.277,0-25.854,11.575-25.854,25.854v65.496c0,14.28,11.576,12.064,25.854,12.064h330.352c14.279,0,25.854,2.216,25.854-12.064 v-65.496C441.029,325.017,429.455,313.441,415.176,313.441z"/>
	</svg>

	<svg id="tool-stamp-pattern" viewBox="0 0 500 500">
		<path d="M417.42,453.71c0,14.279-28.81,13.788-43.089,13.788H125.67c-14.278,0-43.09,0.491-43.09-13.788v-19.767h334.84V453.71z"/>
		<path d="M415.176,313.441h-87.992c-17.947-7.78-43.051-5.441-43.051-75.663c0-57.052,25.329-83.479,25.329-83.479h-0.012 c9.735-12.754,15.527-28.678,15.527-45.962c0-41.884-33.953-75.837-75.837-75.837c-41.885,0-75.838,33.953-75.838,75.837 c0,17.284,5.793,33.208,15.527,45.962h-0.303c0,0,23.256,23.842,23.256,86.288c0,63.413-25.768,60.835-39.286,72.854H84.824 c-14.277,0-25.854,11.575-25.854,25.854v65.496c0,14.28,11.576,12.064,25.854,12.064h330.352c14.279,0,25.854,2.216,25.854-12.064 v-65.496C441.029,325.017,429.455,313.441,415.176,313.441z"/>
		<rect fill="#ffffff80" width="161" height="161"/>
		<rect fill="#000" width="53.667" height="53.667"/>
		<rect x="53.667" y="53.667" fill="#000" width="53.667" height="53.667"/>
		<rect x="107.333" y="107.333" fill="#000" width="53.667" height="53.667"/>
		<rect x="107.333" fill="#000" width="53.667" height="53.667"/>
		<rect y="107.333" fill="#000" width="53.667" height="53.667"/>
	</svg>

	<svg id="tool-healing-brush" viewBox="0 0 500 500">
		<path fill="#00000020" stroke="#000" stroke-width="20" d="M147.043,471.36 c-21.324,21.324-55.897,21.324-77.22,0L28.64,430.177c-21.323-21.323-21.323-55.894,0-77.218L352.959,28.64 c21.323-21.323,55.896-21.323,77.219,0l41.184,41.183c21.324,21.323,21.324,55.896,0,77.219L147.043,471.36z"/>
		<path fill="#00000080" d="M337.649,208.089l-45.738-45.739c-13.361-13.36-35.025-13.362-48.386,0l-81.174,81.174 c-13.362,13.362-13.361,35.026,0,48.386l45.739,45.738c13.361,13.362,35.024,13.362,48.385,0l81.175-81.173 C351.012,243.114,351.012,221.452,337.649,208.089z M208.712,264.842c-5.067,5.067-13.282,5.067-18.349,0 c-5.067-5.067-5.067-13.284,0-18.35c5.067-5.067,13.282-5.067,18.349,0C213.779,251.558,213.779,259.774,208.712,264.842z  M253.507,309.638c-5.066,5.067-13.282,5.067-18.349,0s-5.067-13.282,0-18.35s13.283-5.067,18.349,0 C258.574,296.355,258.574,304.57,253.507,309.638z M264.841,208.712c-5.067,5.067-13.282,5.067-18.349,0 c-5.067-5.067-5.067-13.282,0-18.349c5.066-5.067,13.281-5.067,18.349,0C269.908,195.431,269.908,203.646,264.841,208.712z  M309.637,253.508c-5.067,5.067-13.282,5.067-18.35,0c-5.067-5.067-5.067-13.283,0-18.35c5.067-5.066,13.282-5.066,18.35,0 C314.704,240.225,314.704,248.441,309.637,253.508z"/>
		<circle cx="121.281" cy="333.924" r="9"/>
		<circle cx="166.077" cy="378.719" r="9"/>
		<circle cx="75.947" cy="379.258" r="9"/>
		<circle cx="120.741" cy="424.053" r="9"/>
		<circle cx="379.259" cy="75.946" r="9"/>
		<circle cx="424.054" cy="120.741" r="9"/>
		<circle cx="333.923" cy="121.281" r="9"/>
		<circle cx="378.719" cy="166.076" r="9"/>
	</svg>

	<svg id="tool-spot-healing-brush" viewBox="0 0 500 500">
		<path fill="#00000020" stroke="#000" stroke-width="20" d="M147.043,471.36 c-21.324,21.324-55.897,21.324-77.22,0L28.64,430.177c-21.323-21.323-21.323-55.894,0-77.218L352.959,28.64 c21.323-21.323,55.896-21.323,77.219,0l41.184,41.183c21.324,21.323,21.324,55.896,0,77.219L147.043,471.36z"/>
		<path fill="#00000080" d="M337.649,208.089l-45.738-45.739c-13.361-13.36-35.025-13.362-48.386,0l-81.174,81.174 c-13.362,13.362-13.361,35.026,0,48.386l45.739,45.738c13.361,13.362,35.024,13.362,48.385,0l81.175-81.173 C351.012,243.114,351.012,221.452,337.649,208.089z M208.712,264.842c-5.067,5.067-13.282,5.067-18.349,0 c-5.067-5.067-5.067-13.284,0-18.35c5.067-5.067,13.282-5.067,18.349,0C213.779,251.558,213.779,259.774,208.712,264.842z  M253.507,309.638c-5.066,5.067-13.282,5.067-18.349,0s-5.067-13.282,0-18.35s13.283-5.067,18.349,0 C258.574,296.355,258.574,304.57,253.507,309.638z M264.841,208.712c-5.067,5.067-13.282,5.067-18.349,0 c-5.067-5.067-5.067-13.282,0-18.349c5.066-5.067,13.281-5.067,18.349,0C269.908,195.431,269.908,203.646,264.841,208.712z  M309.637,253.508c-5.067,5.067-13.282,5.067-18.35,0c-5.067-5.067-5.067-13.283,0-18.35c5.067-5.066,13.282-5.066,18.35,0 C314.704,240.225,314.704,248.441,309.637,253.508z"/>
		<circle cx="121.281" cy="333.924" r="9"/>
		<circle cx="166.077" cy="378.719" r="9"/>
		<circle cx="75.947" cy="379.258" r="9"/>
		<circle cx="120.741" cy="424.053" r="9"/>
		<circle cx="379.259" cy="75.946" r="9"/>
		<circle cx="424.054" cy="120.741" r="9"/>
		<circle cx="333.923" cy="121.281" r="9"/>
		<circle cx="378.719" cy="166.076" r="9"/>
		<path fill="none" stroke="#000" stroke-width="20" stroke-dasharray="30" d="M60.88,320.729 c-21.536-11.794-36.139-34.669-36.139-60.954V93.097c0-38.355,31.094-69.449,69.449-69.449h27.78 c38.355,0,69.449,31.094,69.449,69.449v97.083"/>
	</svg>

	<svg id="tool-content-move" viewBox="0 0 500 500">
		<path d="M373.76,169.664h22.356v69.547L493,141.427L396.092,43.62v58.003h-22.355c-89.765,0-140.358,66.534-185.021,125.195 c-40.143,52.779-74.843,98.391-130.88,98.391H7v68.015h50.86c89.764,0,140.356-66.486,185.02-125.192 C283.023,215.227,317.725,169.664,373.76,169.664L373.76,169.664z M138.464,212.529c3.838-4.933,7.677-10.011,11.59-15.139 c9.476-12.491,19.537-25.637,30.424-38.783c-32.125-29.986-70.835-52.099-122.619-52.099H7v68.015h50.86 C90.106,174.523,115.256,189.663,138.464,212.529z M396.092,330.045h-22.355c-34.191,0-60.436-17.035-84.832-42.235 c-2.431,3.185-4.885,6.416-7.362,9.647c-10.718,14.093-22.235,29.185-34.968,44.179c32.951,32.173,72.9,56.473,127.138,56.473 h22.355v58.272L493,358.572l-96.908-97.809V330.045L396.092,330.045z"/>
	</svg>

	<svg id="tool-patch" viewBox="0 0 500 500">
		<path fill="#00000030" stroke="#000" stroke-width="15" d="M422,373.32c0,26.885-21.795,48.68-48.68,48.68 H126.679C99.795,422,78,400.205,78,373.32V126.679C78,99.795,99.795,78,126.679,78H373.32C400.205,78,422,99.795,422,126.679V373.32 z"/>
		<line fill="none" stroke="#000" stroke-width="15" stroke-linecap="round" x1="124.75" y1="250" x2="31.25" y2="250"/>
		<line fill="none" stroke="#000" stroke-width="15" stroke-linecap="round" x1="468.75" y1="250" x2="375.25" y2="250"/>
		<line fill="none" stroke="#000" stroke-width="15" stroke-linecap="round" x1="250" y1="124.75" x2="250" y2="31.25"/>
		<line fill="none" stroke="#000" stroke-width="15" stroke-linecap="round" x1="250" y1="468.75" x2="250" y2="375.25"/>
		<line fill="none" stroke="#000" stroke-width="15" stroke-linecap="round" x1="332.5" y1="124.75" x2="332.5" y2="31.25"/>
		<line fill="none" stroke="#000" stroke-width="15" stroke-linecap="round" x1="332.5" y1="468.75" x2="332.5" y2="375.25"/>
		<line fill="none" stroke="#000" stroke-width="15" stroke-linecap="round" x1="163" y1="124.75" x2="163" y2="31.25"/>
		<line fill="none" stroke="#000" stroke-width="15" stroke-linecap="round" x1="163" y1="468.75" x2="163" y2="375.25"/>
		<line fill="none" stroke="#000" stroke-width="15" stroke-linecap="round" x1="375.251" y1="334.75" x2="468.751" y2="334.75"/>
		<line fill="none" stroke="#000" stroke-width="15" stroke-linecap="round" x1="31.25" y1="334.75" x2="124.75" y2="334.75"/>
		<line fill="none" stroke="#000" stroke-width="15" stroke-linecap="round" x1="375.251" y1="165.25" x2="468.751" y2="165.25"/>
		<line fill="none" stroke="#000" stroke-width="15" stroke-linecap="round" x1="31.25" y1="165.25" x2="124.75" y2="165.25"/>
	</svg>

	<svg id="tool-red-eye" viewBox="0 0 500 500">
		<path d="M269.8,212.25c-100.405,0-187.435,58.468-230.199,143.875C82.365,441.531,169.395,500,269.8,500 c100.403,0,187.431-58.469,230.2-143.875C457.235,270.718,370.203,212.25,269.8,212.25z M383.304,288.551 c27.05,17.253,49.971,40.363,67.188,67.574c-17.217,27.211-40.139,50.321-67.188,67.574c-33.989,21.68-73.238,33.138-113.504,33.138 c-40.268,0-79.518-11.458-113.504-33.138c-27.049-17.252-49.97-40.363-67.188-67.574c17.217-27.212,40.139-50.322,67.188-67.574 c1.762-1.124,3.541-2.214,5.332-3.282c-4.479,12.287-6.928,25.548-6.928,39.384c0,63.567,51.532,115.101,115.1,115.101 S384.9,388.22,384.9,324.652c0-13.836-2.451-27.097-6.929-39.385C379.762,286.336,381.542,287.427,383.304,288.551L383.304,288.551 L383.304,288.551z M269.8,312.963c0,23.838-19.324,43.162-43.162,43.162c-23.839,0-43.162-19.324-43.162-43.162 c0-23.839,19.323-43.162,43.162-43.162C250.476,269.801,269.8,289.125,269.8,312.963z"/>
		<line fill="none" stroke="#000" stroke-width="20" stroke-linecap="round" x1="8.5" y1="122.5" x2="234.5" y2="122.5"/>
		<line fill="none" stroke="#000" stroke-width="20" stroke-linecap="round" x1="121.5" y1="9.5" x2="121.5" y2="235.5"/>
	</svg>

	<svg id="tool-gradient" viewBox="0 0 500 500">
		<linearGradient id="SVGID_1_" gradientUnits="userSpaceOnUse" x1="14.5" y1="250" x2="485.5" y2="250">
			<stop offset="0" style="stop-color:transparent"/>
			<stop offset="1" style="stop-color:#000"/>
		</linearGradient>
		<rect x="14.5" y="89.526" fill="url(#SVGID_1_)" stroke="#000" stroke-width="20" stroke-linecap="round" width="471" height="320.947"/>
	</svg>

	<svg id="tool-fill" viewBox="0 0 500 500">
		<path d="M490.177,391.073C478.329,358.021,438.067,325,426.64,274.817c-10.14,46.683-51.689,83.204-63.538,116.256
			c-7.325,20.439-8.053,42.623,2.269,62.235c11.862,22.549,35.789,37.016,61.27,37.016c25.482,0,49.405-14.467,61.271-37.016
			C498.229,433.696,497.504,411.513,490.177,391.073L490.177,391.073z"/>
		<path fill="none" stroke="#000" stroke-width="21.6695" d="M236.548,433.107
			c-2.411,3.564-7.255,4.5-10.818,2.088L12.751,291.124c-3.562-2.412-4.498-7.256-2.086-10.821l164.02-237.518
			c2.41-3.564,7.256-4.499,10.82-2.09l249.136,171.882c3.564,2.411,4.5,7.255,2.087,10.821l-75.1,24.808L236.548,433.107z"/>
		<path fill="#000" d="M434.641,212.577l-3.936-2.662H58.28l-47.615,70.388c-2.412,3.565-1.477,8.409,2.086,10.821l212.979,144.071
			c3.563,2.412,8.407,1.477,10.818-2.088l125.08-184.901l75.1-24.808C439.141,219.832,438.205,214.988,434.641,212.577z"/>
	</svg>

	<svg id="tool-brush" viewBox="0 0 500 500">
		<path d="M432.544,130.251c-21.405,26.019-80.093,97.864-126.711,154.972l-59.191-60.093 c53.537-47.646,119.806-106.537,143.755-127.626c42.604-37.551,79.966-59.888,88.086-50.758 C483.568,51.802,470.062,84.598,432.544,130.251L432.544,130.251z M295.485,297.86c-18.056,22.101-33.6,41.136-43.109,52.811 l-70.077-68.292c11.358-10.11,30.268-26.934,52.194-46.429L295.485,297.86z M241.934,363.467v-0.189 c-40.678,156.077-221.446,66.349-221.446,66.349s75.843,9.558,75.843-61.183c0-68.576,69.697-74.769,73.979-75.085l71.767,69.935 C242.075,363.309,241.934,363.467,241.934,363.467L241.934,363.467z"/>
	</svg>

	<svg id="tool-pen" viewBox="0 0 500 500">
		<path d="M486.37,182.286L357.308,53.225c-4.211-4.211-9.764-3.264-12.342,2.105l-17.304,36.051l120.552,120.552l36.051-17.304 C489.634,192.052,490.581,186.498,486.37,182.286L486.37,182.286z"/>
		<path d="M304.645,111.675l-108.832,29.903c-7.896,0.977-14.474,2.661-16.734,12.972c-0.002,0.011-0.005,0.019-0.008,0.03 C146.847,309.364,43.594,457,43.594,457l9.292,9.292l122.712-122.715c-2.705-5.653-4.223-11.984-4.223-18.671 c0-23.921,19.392-43.312,43.312-43.312S258,300.985,258,324.906s-19.392,43.312-43.312,43.312c-6.687,0-13.017-1.518-18.671-4.223 L73.303,486.709L81.594,495c0,0,148.636-102.253,303.42-134.476c0.01-0.004,0.019-0.007,0.029-0.009 c10.312-2.261,11.995-8.839,12.973-16.734l29.902-108.832L304.645,111.675L304.645,111.675z"/>
	</svg>

	<svg id="tool-pen-plus-anchor" viewBox="0 0 500 500">
		<path d="M486.37,182.286L357.308,53.225c-4.211-4.211-9.764-3.264-12.342,2.105l-17.304,36.051l120.552,120.552l36.051-17.304 C489.634,192.052,490.581,186.498,486.37,182.286L486.37,182.286z"/>
		<path d="M304.645,111.675l-108.832,29.903c-7.896,0.977-14.474,2.661-16.734,12.972c-0.002,0.011-0.005,0.019-0.008,0.03 C146.847,309.364,43.594,457,43.594,457l9.292,9.292l122.712-122.715c-2.705-5.653-4.223-11.984-4.223-18.671 c0-23.921,19.392-43.312,43.312-43.312S258,300.985,258,324.906s-19.392,43.312-43.312,43.312c-6.687,0-13.017-1.518-18.671-4.223 L73.303,486.709L81.594,495c0,0,148.636-102.253,303.42-134.476c0.01-0.004,0.019-0.007,0.029-0.009 c10.312-2.261,11.995-8.839,12.973-16.734l29.902-108.832L304.645,111.675L304.645,111.675z"/>
		<line fill="none" stroke="#000" stroke-width="42" x1="18.783" y1="88.5" x2="164.216" y2="88.5"/>
		<line fill="none" stroke="#000" stroke-width="42" x1="91.5" y1="15.783" x2="91.5" y2="161.217"/>
	</svg>

	<svg id="tool-pen-minus-anchor" viewBox="0 0 500 500">
		<path d="M486.37,182.286L357.308,53.225c-4.211-4.211-9.764-3.264-12.342,2.105l-17.304,36.051l120.552,120.552l36.051-17.304 C489.634,192.052,490.581,186.498,486.37,182.286L486.37,182.286z"/>
		<path d="M304.645,111.675l-108.832,29.903c-7.896,0.977-14.474,2.661-16.734,12.972c-0.002,0.011-0.005,0.019-0.008,0.03 C146.847,309.364,43.594,457,43.594,457l9.292,9.292l122.712-122.715c-2.705-5.653-4.223-11.984-4.223-18.671 c0-23.921,19.392-43.312,43.312-43.312S258,300.985,258,324.906s-19.392,43.312-43.312,43.312c-6.687,0-13.017-1.518-18.671-4.223 L73.303,486.709L81.594,495c0,0,148.636-102.253,303.42-134.476c0.01-0.004,0.019-0.007,0.029-0.009 c10.312-2.261,11.995-8.839,12.973-16.734l29.902-108.832L304.645,111.675L304.645,111.675z"/>
		<line fill="none" stroke="#000" stroke-width="42" x1="18.783" y1="88.5" x2="164.216" y2="88.5"/>
	</svg>

	<svg id="tool-pen-free" viewBox="0 0 500 500">
		<path d="M486.37,182.286L357.308,53.225c-4.211-4.211-9.764-3.264-12.342,2.105l-17.304,36.051l120.552,120.552l36.051-17.304 C489.634,192.052,490.581,186.498,486.37,182.286L486.37,182.286z"/>
		<path d="M304.645,111.675l-108.832,29.903c-7.896,0.977-14.474,2.661-16.734,12.972c-0.002,0.011-0.005,0.019-0.008,0.03 C146.847,309.364,43.594,457,43.594,457l9.292,9.292l122.712-122.715c-2.705-5.653-4.223-11.984-4.223-18.671 c0-23.921,19.392-43.312,43.312-43.312S258,300.985,258,324.906s-19.392,43.312-43.312,43.312c-6.687,0-13.017-1.518-18.671-4.223 L73.303,486.709L81.594,495c0,0,148.636-102.253,303.42-134.476c0.01-0.004,0.019-0.007,0.029-0.009 c10.312-2.261,11.995-8.839,12.973-16.734l29.902-108.832L304.645,111.675L304.645,111.675z"/>
		<path fill="none" stroke="#000" stroke-width="42" stroke-dasharray="40" d="M39.5,32.5 c80,0,123,69,53.422,126.436C8.575,228.563,30.5,359.5,49.5,410.5"/>
	</svg>

	<svg id="tool-pen-convert" viewBox="0 0 500 500">
		<polyline fill="none" stroke="#000" stroke-width="40" points="433.234,368.634 164.68,75.661 164.68,473.096"/>
	</svg>

	<svg id="tool-marquee-rect" viewBox="0 0 500 500">
		<rect x="188.114" y="42.5" width="121.354" height="43.685"/>
		<rect x="24.299" y="205.107" width="43.685" height="92.203"/>
		<rect x="188.114" y="413.816" width="121.354" height="43.684"/>
		<rect x="432.019" y="205.107" width="43.684" height="92.203"/>
		<polygon points="360.435,86.185 432.019,86.185 432.019,154.143 475.702,154.143 475.702,42.5 360.435,42.5"/>
		<polygon points="67.983,154.143 67.983,86.185 137.149,86.185 137.149,42.5 24.299,42.5 24.299,154.143"/>
		<polygon points="137.149,413.816 67.983,413.816 67.983,348.275 24.299,348.275 24.299,457.5 137.149,457.5"/>
		<polygon points="432.019,348.275 432.019,413.816 360.435,413.816 360.435,457.5 475.702,457.5 475.702,348.275"/>
	</svg>

	<svg id="tool-marquee-circle" viewBox="0 0 500 500">
		<circle fill="none" stroke="#000" stroke-width="30" stroke-dasharray="96" cx="250" cy="250" r="213.833"/>
	</svg>

	<svg id="tool-type-horizontal" viewBox="0 0 500 500">
		<path d="M411.816,51.966l4.381,92.885h-11.099c-2.146-16.358-5.067-28.042-8.765-35.052 c-6.038-11.29-14.069-19.615-24.099-24.974c-10.028-5.354-23.218-8.033-39.576-8.033h-55.786v302.602 c0,24.346,2.627,39.533,7.884,45.566c7.398,8.178,18.788,12.27,34.174,12.27h13.729v10.805H164.71v-10.805h14.021 c16.744,0,28.624-5.064,35.634-15.191c4.281-6.229,6.428-20.445,6.428-42.645v-302.6H173.18c-18.501,0-31.646,1.363-39.431,4.088 c-10.129,3.702-18.795,10.809-25.996,21.323c-7.207,10.516-11.492,24.733-12.852,42.646h-11.1l4.673-92.885H411.816z"/>
	</svg>

	<svg id="tool-type-vertical" viewBox="0 0 500 500">
		<path display="inline" d="M451.816,51.966l4.381,92.885h-11.099c-2.146-16.358-5.067-28.042-8.765-35.052 c-6.038-11.29-14.069-19.615-24.099-24.974c-10.028-5.354-23.218-8.033-39.576-8.033h-55.786v302.602 c0,24.346,2.627,39.533,7.884,45.566c7.398,8.178,18.788,12.27,34.174,12.27h13.729v10.805H204.71v-10.805h14.021 c16.744,0,28.624-5.064,35.634-15.191c4.281-6.229,6.428-20.445,6.428-42.645v-302.6H213.18c-18.501,0-31.646,1.363-39.431,4.088 c-10.129,3.702-18.795,10.809-25.996,21.323c-7.207,10.516-11.492,24.733-12.852,42.646h-11.1l4.673-92.885H451.816z"/>
		<polygon points="74.834,352.183 74.834,51.966 44.833,51.966 44.833,352.183 4.485,352.183 59.833,448.034 115.182,352.183"/>
	</svg>

	<svg id="tool-type-horizontal-mask" viewBox="0 0 500 500">
		<path fill="#00000020" stroke="#000" stroke-width="20" stroke-dasharray="30" d=" M411.816,51.966l4.381,92.885h-11.099c-2.146-16.358-5.067-28.042-8.765-35.052c-6.038-11.29-14.069-19.615-24.099-24.974 c-10.028-5.354-23.218-8.033-39.576-8.033h-55.786v302.602c0,24.346,2.627,39.533,7.884,45.566 c7.398,8.178,18.788,12.27,34.174,12.27h13.729v10.805H164.71v-10.805h14.021c16.744,0,28.624-5.064,35.634-15.191 c4.281-6.229,6.428-20.445,6.428-42.645v-302.6H173.18c-18.501,0-31.646,1.363-39.431,4.088 c-10.129,3.702-18.795,10.809-25.996,21.323c-7.207,10.516-11.492,24.733-12.852,42.646h-11.1l4.673-92.885H411.816z"/>
	</svg>

	<svg id="tool-type-vertical-mask" viewBox="0 0 500 500">
		<path fill="#00000020" stroke="#000" stroke-width="20" stroke-dasharray="30" d="M451.816,51.966 l4.381,92.885h-11.099c-2.146-16.358-5.067-28.042-8.765-35.052c-6.038-11.29-14.069-19.615-24.099-24.974 c-10.028-5.354-23.218-8.033-39.576-8.033h-55.786v302.602c0,24.346,2.627,39.533,7.884,45.566 c7.398,8.178,18.788,12.27,34.174,12.27h13.729v10.805H204.71v-10.805h14.021c16.744,0,28.624-5.064,35.634-15.191 c4.281-6.229,6.428-20.445,6.428-42.645v-302.6H213.18c-18.501,0-31.646,1.363-39.431,4.088 c-10.129,3.702-18.795,10.809-25.996,21.323c-7.207,10.516-11.492,24.733-12.852,42.646h-11.1l4.673-92.885H451.816z"/>
		<polygon points="74.834,352.183 74.834,51.966 44.833,51.966 44.833,352.183 4.485,352.183 59.833,448.034 115.182,352.183"/>
	</svg>

	<svg id="tool-pressure" viewBox="0 0 500 500">
		<path d="M113.302,250c0,75.375,61.322,136.698,136.698,136.698c75.375,0,136.698-61.323,136.698-136.698 c0-21.798-5.139-42.416-14.251-60.72c-1.404,1.719-2.795,3.422-4.16,5.095c-1.009,1.235-2.222,2.26-3.571,3.043 c-0.489,1.449-1.242,2.833-2.262,4.08c-1.644,2.012-3.245,3.974-4.808,5.885c5.243,13.196,8.128,27.576,8.128,42.617 c0,63.839-51.936,115.774-115.774,115.774c-63.838,0-115.775-51.936-115.775-115.774c0-63.838,51.937-115.775,115.775-115.775 c21.088,0,40.874,5.67,57.921,15.561c0.452-0.402,0.901-0.802,1.359-1.208c1.201-1.067,2.547-1.875,3.966-2.424 c0.723-1.371,1.691-2.615,2.873-3.667c2.632-2.342,5.347-4.757,8.113-7.219c-21.391-13.887-46.885-21.965-74.232-21.965 C174.625,113.302,113.302,174.625,113.302,250z"/>
		<path d="M432.619,115.661c-3.911,4.771-8.611,10.514-13.809,16.867c23.265,33.331,36.934,73.833,36.934,117.472 c0,113.447-92.297,205.744-205.744,205.744S44.256,363.447,44.256,250S136.553,44.256,250,44.256 c47.924,0,92.071,16.472,127.084,44.049c6.259-5.55,11.739-10.405,15.974-14.147C352.744,41.236,302.75,23.333,250,23.333 c-60.544,0-117.466,23.578-160.278,66.389C46.911,132.534,23.333,189.456,23.333,250c0,60.545,23.578,117.466,66.389,160.278 c42.812,42.812,99.733,66.389,160.278,66.389c60.545,0,117.466-23.577,160.278-66.389c42.812-42.812,66.389-99.733,66.389-160.278 C476.667,200.991,461.213,154.359,432.619,115.661z"/>
		<path d="M429.287,98.46c-12.059,14.656-45.117,55.127-71.377,87.296l-33.344-33.851c30.157-26.838,67.488-60.013,80.979-71.893 c23.999-21.152,45.045-33.735,49.619-28.591C458.029,54.27,450.421,72.743,429.287,98.46L429.287,98.46z M352.082,192.876 c-10.172,12.45-18.928,23.172-24.285,29.748l-39.476-38.468c6.398-5.696,17.05-15.172,29.401-26.153L352.082,192.876z M321.915,229.833v-0.107c-22.914,87.919-124.742,37.375-124.742,37.375s42.723,5.384,42.723-34.465 c0-38.63,39.26-42.118,41.671-42.295l40.427,39.394C321.994,229.744,321.915,229.833,321.915,229.833L321.915,229.833z"/>
	</svg>

	<svg id="tool-lasso" viewBox="0 0 500 500">
		<ellipse fill="none" stroke="#000" stroke-width="30" cx="250" cy="158.732" rx="195.83" ry="120.731"/>
		<ellipse fill="none" stroke="#000" stroke-width="30" cx="148.671" cy="247.844" rx="25.872" ry="18.686"/>
		<ellipse fill="none" stroke="#000" stroke-width="30" cx="138.61" cy="299.587" rx="64.318" ry="44.556"/>
		<path fill="none" stroke="#000" stroke-width="30" d="M166.637,339.699 c47.431-2.156,95.22,43.969,36.291,122.301"/>
	</svg>

	<svg id="tool-lasso-polygon" viewBox="0 0 500 500">
		<ellipse fill="none" stroke="#000" stroke-width="28.9506" cx="140.86" cy="307.146" rx="62.069" ry="42.997"/>
		<path fill="none" stroke="#000" stroke-width="30" d="M202.928,462 C215,392,177.367,327.559,134.5,307.146L50.1,250L107,63l103.5,75.5l156.084-85.399L444,342l-241.072-32.5"/>
	</svg>

	<svg id="tool-lasso-magnetic" viewBox="0 0 500 500">
		<ellipse fill="none" stroke="#000" stroke-width="26.5216" cx="116.586" cy="299.277" rx="56.861" ry="39.389"/>
		<path fill="none" stroke="#000" stroke-width="27.483" d="M173.447,441.139 c11.059-64.127-23.417-123.162-62.687-141.861l-77.319-52.352L53.5,61.5l158,90l49-109l185,108L173.447,301.434"/>
		<path fill="none" stroke="#000" stroke-width="13.0866" d="M281.535,459.624v-49.075h127.771 c4.51,0,8.179-3.668,8.179-8.178v-61.344c0-4.51-3.669-8.178-8.179-8.178H281.535v-49.075h127.771 c31.568,0,57.253,25.684,57.253,57.253v61.344c0,31.568-25.685,57.253-57.253,57.253H281.535z"/>
		<path d="M320.153,459.624v-49.075h89.152c4.51,0,8.179-3.668,8.179-8.178v-61.344c0-4.51-3.669-8.178-8.179-8.178h-89.152v-49.075 h89.152c31.568,0,57.253,25.684,57.253,57.253v61.344c0,31.568-25.685,57.253-57.253,57.253H320.153z"/>
	</svg>

	<svg id="icon-selection-ring" viewBox="0 0 17 17">
		<circle fill="none" stroke="#333" stroke-dasharray="2.25" cx="8.5" cy="8.5" r="6"/>
	</svg>

	<svg id="icon-layer-path-fill" viewBox="0 0 17 17">
		<circle fill="#00000060" stroke="#333" cx="8.5" cy="8.5" r="6"/>
	</svg>

	<svg id="icon-layer-path-brush" viewBox="0 0 17 17">
		<circle fill="none" stroke="#333" cx="8.5" cy="8.5" r="6"/>
	</svg>

	<svg id="icon-layer-path-from-selection" viewBox="0 0 17 17">
		<circle fill="#33333360" stroke="#333" cx="8.5" cy="8.5" r="6"/>
		<rect fill="#333" x="7" y="1" width="3" height="3"/>
		<rect fill="#333" x="13" y="7" width="3" height="3"/>
		<rect fill="#333" x="7" y="13" width="3" height="3"/>
		<rect fill="#333" x="1" y="7" width="3" height="3"/>
	</svg>

	<svg id="icon-line-solid" viewBox="0 0 450 150">
		<line fill="none" stroke="#000" stroke-width="25" x1="0" y1="75" x2="450" y2="75"/>
	</svg>

	<svg id="icon-line-dashed" viewBox="0 0 450 150">
		<line fill="none" stroke="#000" stroke-width="25" stroke-dasharray="60,30" x1="0" y1="75" x2="450" y2="75"/>
	</svg>

	<svg id="icon-line-dotted" viewBox="0 0 450 150">
		<line fill="none" stroke="#000" stroke-width="25" stroke-dasharray="25,25" x1="0" y1="75" x2="450" y2="75"/>
	</svg>

	<svg id="icon-marquee-new" viewBox="0 0 500 500">
		<rect x="70.833" y="70.833" fill="#00000070" stroke="#000000b0" stroke-width="25" width="358.334" height="358.334"/>
	</svg>

	<svg id="icon-marquee-union" viewBox="0 0 500 500">
		<polygon fill="#00000070" stroke="#000000b0" stroke-width="30" points="359.417,179.916 359.417,51.749 51.083,51.749 51.083,340.083 150.583,340.083 150.583,448.25 448.917,448.25 448.917,179.916"/>
	</svg>

	<svg id="icon-marquee-subtract" viewBox="0 0 500 500">
		<rect x="50.833" y="50.833" fill="none" stroke="#00000080" stroke-width="25" width="308.334" height="288.334"/>
		<rect x="150.333" y="179" fill="none" stroke="#00000080" stroke-width="25" width="298.334" height="268.334"/>
		<polygon display="inline" fill="#00000070" stroke="#000000b0" stroke-width="25" points="150.333,179 359.167,179 359.167,50.833 50.833,50.833 50.833,339.167 150.333,339.167"/>
	</svg>

	<svg id="icon-marquee-intersection" viewBox="0 0 500 500">
		<rect x="50.833" y="50.833" fill="none" stroke="#00000080" stroke-width="25" width="308.334" height="288.334"/>
		<rect x="150.333" y="179" fill="none" stroke="#00000080" stroke-width="25" width="298.334" height="268.334"/>
		<rect x="150.333" y="179" display="inline" fill="#00000070" stroke="#000000b0" stroke-width="25" width="208.834" height="160.167"/>
	</svg>

	<svg id="icon-align-top" viewBox="0 0 500 500">
		<rect x="89" y="136.75" fill="#555" stroke="#000" stroke-width="25" width="127.5" height="280.5"/>
		<rect x="283.5" y="136.75" stroke="#000" stroke-width="25" width="127.5" height="200.5"/>
		<line fill="none" stroke="#000" stroke-width="25" x1="47.5" y1="82" x2="451" y2="82"/>
	</svg>

	<svg id="icon-align-middle" viewBox="0 0 500 500">
		<line fill="none" stroke="#000" stroke-width="25" x1="455.999" y1="256" x2="42.499" y2="256"/>
		<rect x="281.999" y="116.75" fill="#555" stroke="#000" stroke-width="25" width="127.5" height="280.5"/>
		<rect x="87.499" y="156.75" stroke="#000" stroke-width="25" width="127.5" height="200.5"/>
	</svg>

	<svg id="icon-align-bottom" viewBox="0 0 500 500">
		<rect x="89" y="86.75" fill="#555" stroke="#000" stroke-width="25" width="127.5" height="280.5"/>
		<rect x="283.5" y="166.75" stroke="#000" stroke-width="25" width="127.5" height="200.5"/>
		<line fill="none" stroke="#000" stroke-width="25" x1="47.5" y1="418" x2="451" y2="418"/>
	</svg>

	<svg id="icon-vertical-centers" viewBox="0 0 500 500">
		<line fill="none" stroke="#000" stroke-width="25" x1="345.25" y1="462.752" x2="345.25" y2="49.251"/>
		<rect x="281.999" y="116.75" fill="#555" stroke="#000" stroke-width="25" width="127.5" height="280.5"/>
		<rect x="87.499" y="156.75" stroke="#000" stroke-width="25" width="127.5" height="200.5"/>
		<line fill="none" stroke="#000" stroke-width="25" x1="151.249" y1="462.752" x2="151.249" y2="49.251"/>
	</svg>

	<svg id="icon-align-left" viewBox="0 0 500 500">
		<rect x="134.375" y="92.125" fill="#555" stroke="#000" stroke-width="25" width="280.5" height="127.5"/>
		<rect x="134.375" y="286.625" stroke="#000" stroke-width="25" width="200.5" height="127.5"/>
		<line fill="none" stroke="#000" stroke-width="25" x1="83.625" y1="50.625" x2="83.625" y2="454.125"/>
	</svg>

	<svg id="icon-align-center" viewBox="0 0 500 500">
		<line fill="none" stroke="#000" stroke-width="25" x1="252" y1="48.25" x2="252" y2="451.75"/>
		<rect x="109.75" y="89.75" fill="#555" stroke="#000" stroke-width="25" width="280.5" height="127.5"/>
		<rect x="149.75" y="284.25" stroke="#000" stroke-width="25" width="200.5" height="127.5"/>
	</svg>

	<svg id="icon-align-right" viewBox="0 0 500 500">
		<line fill="none" stroke="#000" stroke-width="25" x1="415.625" y1="50.625" x2="415.625" y2="454.125"/>
		<rect x="84.375" y="92.125" fill="#555" stroke="#000" stroke-width="25" width="280.5" height="127.5"/>
		<rect x="164.375" y="286.625" stroke="#000" stroke-width="25" width="200.5" height="127.5"/>
	</svg>

	<svg id="icon-horizontal-centers" viewBox="0 0 500 500">
		<line fill="none" stroke="#000" stroke-width="25" x1="455.249" y1="159.251" x2="41.749" y2="159.251"/>
		<rect x="109.247" y="95.002" fill="#555" stroke="#000" stroke-width="25" width="280.5" height="127.5"/>
		<rect x="149.247" y="289.502" stroke="#000" stroke-width="25" width="200.5" height="127.5"/>
		<line fill="none" stroke="#000" stroke-width="25" x1="455.249" y1="353.252" x2="41.749" y2="353.252"/>
	</svg>

	<svg id="icon-rectangle" viewBox="0 0 500 500">
		<rect stroke="#000" stroke-width="30" fill="#00000050" x="66.5" y="66.5" width="367" height="367"/>
	</svg>

	<svg id="icon-triangle" viewBox="0 0 500 500">
		<polygon stroke="#000" stroke-width="30" fill="#00000050" points="58.08,418.735 202.314,81.266 441.92,383.23"/>
	</svg>

	<svg id="icon-cursor-pos" viewBox="0 0 15 15">
		<polygon fill="#333" points="14,7 8,7 8,1 7,1 7,7 1,7 1,8 7,8 7,14 8,14 8,8 14,8 "/>
	</svg>

	<svg id="icon-selection-dim" viewBox="0 0 15 15">
		<rect fill="#333" x="2" y="2" width="1" height="8"/>
		<rect fill="#333" x="2" y="2" width="9" height="1"/>
		<polygon fill="#333" points="0,10 5,10 2.5,14 "/>
		<polygon fill="#333" points="10,5 10,0 14,2.5 "/>
		<rect fill="#333" x="12" y="12" width="1" height="1"/>
		<rect fill="#333" x="12" y="11" width="1" height="1"/>
		<rect fill="#333" x="12" y="8" width="1" height="2"/>
		<rect fill="#333" x="11" y="12" width="1" height="1"/>
		<rect fill="#333" x="8" y="12" width="2" height="1"/>
		<rect fill="#333" x="12" y="5" width="1" height="2"/>
		<rect fill="#333" x="5" y="12" width="2" height="1"/>
	</svg>

	<svg id="icon-quick-mask" viewBox="0 0 500 500">
		<style type="text/css">
			.st0{fill:#00000020;stroke:#000;stroke-width:15;}
			.st1{fill:none;stroke:#000;stroke-width:20;stroke-linecap:round;stroke-dasharray:20,20;}
		</style>
		<path class="st0" d="M19.5,61.3v377.5h461V61.3H19.5z"/>
		<circle class="st1" cx="250" cy="250" r="132.4"/>
	</svg>

	<svg id="icon-arrow" viewBox="0 0 500 500">
		<path fill="#abb" d="M241.494,401.686L38.997,107.301c-4.664-8.506-0.549-15.365,9.055-15.365h403.896c9.604,0,13.721,6.859,9.056,15.365 L258.506,401.686C253.842,410.191,246.159,410.191,241.494,401.686z"/>
	</svg>

	<svg id="icon-cancel" viewBox="0 0 500 500">
		<polygon points="445.196,390.297 304.899,250 445.195,109.704 390.297,54.804 250,195.101 109.704,54.804 54.804,109.702 195.102,250 54.804,390.298 109.703,445.196 250,304.898 390.298,445.196 "/>
	</svg>

	<svg id="icon-mountain" viewBox="0 0 17 17">
		<polygon fill="#333" points="10.5,4.4 7.7,7.2 5.6,5.5 0,11 0.4,12 16.6,12 17,10.9 "/>
	</svg>

	<svg id="icon-mountain-mini" viewBox="0 0 17 17">
		<polygon fill="#333" points="9.8,6 8,7.9 6.6,6.7 2.9,10.3 3.2,11 13.8,11 14.1,10.2 "/>
	</svg>

	<svg id="icon-font-size" viewBox="0 0 17 17">
		<path fill="#333" d="M7,10l-2,0v5H3v-5l-2,0V8h6V10z M6,3h10v2h-4v10h-2V5H6V3z"/>
	</svg>

	<svg id="icon-line-height" viewBox="0 0 17 17">
		<rect x="3.9" y="1" fill="#333" width="9.3" height="2"/>
		<rect x="3.9" y="14" fill="#333" width="9.3" height="2"/>
		<polygon fill="#333" points="9.2,6 10.1,6 8.5,3.3 6.9,6 7.8,6 7.8,11 6.9,11 8.5,13.7 10.1,11 9.2,11 	"/>
	</svg>

	<svg id="icon-scale-vert" viewBox="0 0 17 17">
		<path fill="#333" d="M14.1,12.2H16L13.6,15l-2.3-2.8h1.9V4.8h-1.9L13.6,2L16,4.8h-1.9V12.2z M10.4,2v3.7L9.4,3.8H6.6v10.3h1.9V15
			H2.9v-0.9h1.9V3.8H2L1,5.7V2H10.4z"/>
	</svg>

	<svg id="icon-scale-hori" viewBox="0 0 17 17">
		<path fill="#333" d="M4.5,14v2l-3-2.5l3-2.5v2h8v-2l3,2.5l-3,2.5v-2H4.5z M13.5,1v4l-1-2h-3v7h2v1h-6v-1h2V3h-3l-1,2V1H13.5z"/>
	</svg>

	<svg id="icon-justify-left" viewBox="0 0 17 17">
		<rect x="2" y="2" fill="#333" width="13" height="1"/>
		<rect x="2" y="5" fill="#333" width="8" height="1"/>
		<rect x="2" y="8" fill="#333" width="13" height="1"/>
		<rect x="2" y="11" fill="#333" width="8" height="1"/>
		<rect x="2" y="14" fill="#333" width="13" height="1"/>
	</svg>

	<svg id="icon-justify-center" viewBox="0 0 17 17">
		<rect x="2" y="2" fill="#333" width="13" height="1"/>
		<rect x="4" y="5" fill="#333" width="9" height="1"/>
		<rect x="2" y="8" fill="#333" width="13" height="1"/>
		<rect x="4" y="11" fill="#333" width="9" height="1"/>
		<rect x="2" y="14" fill="#333" width="13" height="1"/>
	</svg>

	<svg id="icon-justify-right" viewBox="0 0 17 17">
		<rect x="2" y="2" fill="#333" width="13" height="1"/>
		<rect x="7" y="5" fill="#333" width="8" height="1"/>
		<rect x="2" y="8" fill="#333" width="13" height="1"/>
		<rect x="7" y="11" fill="#333" width="8" height="1"/>
		<rect x="2" y="14" fill="#333" width="13" height="1"/>
	</svg>

	<svg id="icon-justify-full-left" viewBox="0 0 17 17">
		<rect x="2" y="2" fill="#333" width="13" height="1"/>
		<rect x="2" y="5" fill="#333" width="13" height="1"/>
		<rect x="2" y="8" fill="#333" width="13" height="1"/>
		<rect x="2" y="11" fill="#333" width="13" height="1"/>
		<rect x="2" y="14" fill="#333" width="9" height="1"/>
	</svg>

	<svg id="icon-justify-full-right" viewBox="0 0 17 17">
		<rect x="2" y="2" fill="#333" width="13" height="1"/>
		<rect x="2" y="5" fill="#333" width="13" height="1"/>
		<rect x="2" y="8" fill="#333" width="13" height="1"/>
		<rect x="2" y="11" fill="#333" width="13" height="1"/>
		<rect x="6" y="14" fill="#333" width="9" height="1"/>
	</svg>

	<svg id="icon-justify-full-center" viewBox="0 0 17 17">
		<rect x="2" y="2" fill="#333" width="13" height="1"/>
		<rect x="2" y="5" fill="#333" width="13" height="1"/>
		<rect x="2" y="8" fill="#333" width="13" height="1"/>
		<rect x="2" y="11" fill="#333" width="13" height="1"/>
		<rect x="5" y="14" fill="#333" width="7" height="1"/>
	</svg>

	<svg id="icon-justify-full" viewBox="0 0 17 17">
		<rect x="2" y="2" fill="#333" width="13" height="1"/>
		<rect x="2" y="5" fill="#333" width="13" height="1"/>
		<rect x="2" y="8" fill="#333" width="13" height="1"/>
		<rect x="2" y="11" fill="#333" width="13" height="1"/>
		<rect x="2" y="14" fill="#333" width="13" height="1"/>
	</svg>

	<svg id="icon-indent-left" viewBox="0 0 17 17">
		<rect x="9" y="2" transform="matrix(-1 -4.482515e-11 4.482515e-11 -1 24.9876 5)" fill="#333" width="7" height="1"/>
		<rect x="9" y="5" transform="matrix(-1 -4.492907e-11 4.492907e-11 -1 22.9876 11)" fill="#333" width="5" height="1"/>
		<rect x="9" y="8" transform="matrix(-1 -4.495527e-11 4.495527e-11 -1 24.9876 17)" fill="#333" width="7" height="1"/>
		<rect x="9" y="11" transform="matrix(-1 -4.511115e-11 4.511115e-11 -1 22.9876 23)" fill="#333" width="5" height="1"/>
		<rect x="9" y="14" transform="matrix(-1 -4.495527e-11 4.495527e-11 -1 24.9876 29)" fill="#333" width="7" height="1"/>
		<rect x="7" y="2" transform="matrix(-1 -4.456536e-11 4.456536e-11 -1 14.9876 17)" fill="#333" width="1" height="13"/>
		<polygon fill="#333" points="3.2,10.2 3.2,9 1,9 1,8 3.2,8 3.2,6.9 6,8.5 	"/>
	</svg>

	<svg id="icon-indent-right" viewBox="0 0 17 17">
		<rect x="1" y="2" fill="#333" width="7" height="1"/>
		<rect x="3" y="5" fill="#333" width="5" height="1"/>
		<rect x="1" y="8" fill="#333" width="7" height="1"/>
		<rect x="3" y="11" fill="#333" width="5" height="1"/>
		<rect x="1" y="14" fill="#333" width="7" height="1"/>
		<rect x="9" y="2" fill="#333" width="1" height="13"/>
		<polygon fill="#333" points="11,8.5 13.8,6.9 13.8,8 16,8 16,9 13.8,9 13.8,10.2 	"/>
	</svg>

	<svg id="icon-indent-first-line" viewBox="0 0 17 17">
		<rect x="6" y="12" fill="#333" width="10" height="1"/>
		<rect x="6" y="9" fill="#333" width="7" height="1"/>
		<rect x="8" y="3" fill="#333" width="8" height="1"/>
		<rect x="6" y="6" fill="#333" width="9" height="1"/>
		<polygon fill="#333" points="6.6,3.5 4,2 4,3 1,3 1,4 4,4 4,5 	"/>
	</svg>

	<svg id="icon-padding-top" viewBox="0 0 17 17">
		<path fill="#333" d="M16,6.5H7V2h9V6.5z"/>
		<rect x="6" y="14" fill="#333" width="10" height="1"/>
		<rect x="6" y="12" fill="#333" width="7" height="1"/>
		<rect x="6" y="10" fill="#333" width="8" height="1"/>
		<rect x="6" y="8" fill="#333" width="10" height="1"/>
		<polygon fill="#333" points="6,4.5 3.3,3 3.3,4 1,4 1,5 3.3,5 3.3,6 	"/>
	</svg>

	<svg id="icon-padding-bottom" viewBox="0 0 17 17">
		<path fill="#333" d="M16,15H7v-4.5h9V15z"/>
		<rect x="6" y="8" fill="#333" width="10" height="1"/>
		<rect x="6" y="6" fill="#333" width="7" height="1"/>
		<rect x="6" y="4" fill="#333" width="8" height="1"/>
		<rect x="6" y="2" fill="#333" width="10" height="1"/>
		<polygon fill="#333" points="6,12.5 3.3,11 3.3,12 1,12 1,13 3.3,13 3.3,14 	"/>
	</svg>

	<svg id="icon-font-bold" viewBox="0 0 17 17">
		<path fill="#333" d="M11.5,8.1c0.5-0.6,0.9-1.5,0.9-2.4c0-2.1-1.7-3.7-3.7-3.7H4v13h5.6c2.1,0,3.7-1.7,3.7-3.7
			C13.3,9.9,12.6,8.8,11.5,8.1L11.5,8.1z M6.8,3.8h1.5c0.8,0,1.5,0.8,1.5,1.9S9.1,7.6,8.3,7.6H6.8V3.8z M9.1,13.2H6.8V9.4h2.3
			c0.8,0,1.5,0.8,1.5,1.9C10.7,12.3,10,13.2,9.1,13.2z"/>
	</svg>

	<svg id="icon-font-italic" viewBox="0 0 17 17">
		<path fill="#333" d="M14,2v1h-1.8L7.6,14H9v1H3v-1h1.8L9.4,3H8V2H14z"/>
	</svg>

	<svg id="icon-font-underlined" viewBox="0 0 17 17">
		<path fill="#333" d="M11,2h2v5.9c0,2.3-2,4.2-4.5,4.2S4,10.2,4,7.9V2h2v5.7c0,0.6,0.3,1.3,0.7,1.7c0.5,0.5,1,0.6,1.7,0.6
			s1.2-0.2,1.8-0.6C10.8,8.9,11,8.3,11,7.7L11,2L11,2z M4,13h9v2H4V13z"/>
	</svg>

	<svg id="icon-font-strike-through" viewBox="0 0 17 17">
		<path fill="#333" d="M16,8h-5.1c-0.7-0.3-1.4-0.4-2.1-0.4C7.3,7.6,6,6.7,6,5.7c0-1,1.3-1.9,2.8-1.9c1.5,0,2.8,0.8,2.8,1.9h1.9
			c0-1-0.5-2-1.5-2.7c-0.9-0.6-2-1-3.2-1S6.5,2.4,5.6,3C4.7,3.7,4.2,4.7,4.2,5.7c0,0.8,0.4,1.7,0.9,2.3H1v1h5.7
			c0.5,0.2,1.1,0.4,2.1,0.4c1.6,0.1,2.8,0.8,2.8,1.9c0,1-1.3,1.9-2.8,1.9c-1.5,0-2.8-0.8-2.8-1.9H4.2c0,1,0.5,2,1.5,2.7
			c0.9,0.6,2,1,3.2,1s2.3-0.4,3.2-1c0.9-0.7,1.5-1.7,1.5-2.7c0-1.1-0.5-1.8-1-2.3H16V8z"/>
	</svg>

	<svg id="icon-font-super" viewBox="0 0 17 17">
		<path fill="#333" d="M3.4,15l0.9-3h4.1l0.9,3h1.8l-3-10H4.7l-3,10H3.4z M5.8,7h1.1l0.9,3H4.9L5.8,7z"/>
		<path fill="#333" d="M13.8,4h-1c-0.3,0-0.5-0.2-0.5-0.5S12.6,3,12.8,3h2c0.3,0,0.5-0.2,0.5-0.5S15.1,2,14.8,2h-2
			c-0.8,0-1.5,0.7-1.5,1.5c0,0.4,0.1,0.7,0.4,1C12,4.8,12.4,5,12.8,5h1c0.3,0,0.5,0.2,0.5,0.5c0,0.3-0.2,0.5-0.5,0.5h-2
			c-0.3,0-0.5,0.2-0.5,0.5S11.6,7,11.9,7h2c0.8,0,1.5-0.7,1.5-1.5c0-0.4-0.1-0.7-0.4-1C14.7,4.2,14.3,4,13.8,4z"/>
	</svg>

	<svg id="icon-font-sub" viewBox="0 0 17 17">
		<path fill="#333" d="M3.4,12l0.9-3.1h4.1L9.3,12h1.8l-3-10H4.7l-3,10H3.4z M5.8,4h1.1l0.9,3H4.9L5.8,4z"/>
		<path fill="#333" d="M13.8,12h-1c-0.3,0-0.5-0.2-0.5-0.5c0-0.3,0.2-0.5,0.5-0.5h2c0.3,0,0.5-0.2,0.5-0.5c0-0.3-0.2-0.5-0.5-0.5h-2
			c-0.8,0-1.5,0.7-1.5,1.5c0,0.4,0.1,0.7,0.4,1c0.3,0.3,0.7,0.5,1.1,0.5h1c0.3,0,0.5,0.2,0.5,0.5c0,0.3-0.2,0.5-0.5,0.5h-2
			c-0.3,0-0.5,0.2-0.5,0.5c0,0.3,0.2,0.5,0.5,0.5h2c0.8,0,1.5-0.7,1.5-1.5c0-0.4-0.1-0.7-0.4-1C14.7,12.2,14.3,12,13.8,12z"/>
	</svg>

	<svg id="icon-font-kerning" viewBox="0 0 17 17">
		<path fill="#333" d="M9.8,12.7l0.7-2.4h3.3l0.7,2.4H16l-2.4-8h-2.8l-2.4,8H9.8z M11.7,6.2h0.9l0.7,2.4H11L11.7,6.2z"/>
		<path fill="#333" d="M2.4,4.6H1l2.4,8h1.9l2.4-8H6.3l-1.9,6.4h0L2.4,4.6z"/>
		<rect x="1.5" y="8" transform="matrix(0.2965 -0.955 0.955 0.2965 -2.3842 13.7632)" fill="#333" width="13.3" height="0.9"/>
	</svg>

	<svg id="icon-font-tracking" viewBox="0 0 17 17">
		<path fill="#333" d="M9.2,3H1v11h5.1L9.2,3z M1.3,4.6h1.4l1.9,6.2h0l1.9-6.2h1.4l-2.3,7.7H3.6L1.3,4.6z"/>
		<polygon fill="#333" points="11.6,6.2 10.9,8.5 13.1,8.5 12.5,6.2 	"/>
		<path fill="#333" d="M10.1,3L7.1,14H16V3H10.1z M14.3,12.4L13.6,10h-3.2l-0.7,2.3H8.4l2.3-7.7h2.7l2.3,7.7H14.3z"/>
	</svg>

	<svg id="icon-font-small-caps" viewBox="0 0 17 17">
		<path fill="#333" d="M10,8h6v2l-2,0v5h-2v-5l-2,0V8z M11,5H7v10H5V5H1V3h10V5z"/>
	</svg>

	<svg id="icon-font-all-caps" viewBox="0 0 17 17">
		<path fill="#333" d="M1,3h6l0,2H5l0,9H3l0-9H1L1,3z"/>
		<path fill="#333" d="M10,3h6l0,2h-2l0,9h-2l0-9h-2L10,3z"/>
	</svg>

	<svg id="icon-baseline-shift" viewBox="0 0 17 17">
		<path fill="#333" d="M2.9,16l1-3.2h4.4l1,3.2h1.9L7.9,5.3H4.2L1,16H2.9z M5.5,7.4h1.2l1,3.2H4.5L5.5,7.4z"/>
		<path fill="#333" d="M14.1,3H13c-0.3,0-0.5-0.2-0.5-0.5C12.5,2.2,12.7,2,13,2h2.1c0.3,0,0.5-0.2,0.5-0.5c0-0.3-0.2-0.5-0.5-0.5H13
			c-0.9,0-1.6,0.7-1.6,1.5c0,0.4,0.2,0.7,0.4,1C12.1,3.8,12.5,4,13,4h1.1c0.3,0,0.5,0.2,0.5,0.5c0,0.3-0.2,0.5-0.5,0.5h-2.1
			c-0.3,0-0.5,0.2-0.5,0.5c0,0.3,0.2,0.5,0.5,0.5h2.1c0.9,0,1.6-0.7,1.6-1.5c0-0.4-0.2-0.7-0.4-1C15,3.2,14.5,3,14.1,3z"/>
		<path fill="#333" d="M13,16v-4.8h-2l2.5-3l2.5,3h-2V16"/>
	</svg>

	<svg id="icon-color-preset" viewBox="0 0 17 17">
		<style type="text/css">
			.st0{fill:#fff;}
			.st1{fill:url(#SVGID_1_);}
			.st2{fill:url(#SVGID_2_);}
			.st3{fill:url(#SVGID_3_);}
			.st4{fill:url(#SVGID_4_);}
			.st5{fill:url(#SVGID_5_);}
			.st6{fill:url(#SVGID_6_);stroke:#000;stroke-width:0.25;}
		</style>
		<linearGradient id="SVGID_1_" gradientUnits="userSpaceOnUse" x1="182.5296" y1="177.924" x2="185.6278" y2="183.2903" gradientTransform="matrix(1.2821 0 0 -1.2821 -225.4985 236.577)">
			<stop offset="0" style="stop-color:#fff;stop-opacity:0"/>
			<stop offset="1" style="stop-color:#FF0000;stop-opacity:0.7"/>
		</linearGradient>
		<linearGradient id="SVGID_2_" gradientUnits="userSpaceOnUse" x1="182.5475" y1="177.8933" x2="188.743" y2="177.8933" gradientTransform="matrix(1.2821 0 0 -1.2821 -225.4985 236.577)">
			<stop offset="0" style="stop-color:#fff;stop-opacity:0"/>
			<stop offset="1" style="stop-color:#0000FF;stop-opacity:0.7"/>
		</linearGradient>
		<linearGradient id="SVGID_3_" gradientUnits="userSpaceOnUse" x1="182.5296" y1="177.8627" x2="185.6278" y2="172.4964" gradientTransform="matrix(1.2821 0 0 -1.2821 -225.4985 236.577)">
			<stop offset="0" style="stop-color:#fff;stop-opacity:0"/>
			<stop offset="1" style="stop-color:#00AEEF;stop-opacity:0.7"/>
		</linearGradient>
		<linearGradient id="SVGID_4_" gradientUnits="userSpaceOnUse" x1="182.4945" y1="177.8632" x2="179.3963" y2="172.4969" gradientTransform="matrix(1.2821 0 0 -1.2821 -225.4985 236.577)">
			<stop offset="0" style="stop-color:#fff;stop-opacity:0"/>
			<stop offset="1" style="stop-color:#00FF00;stop-opacity:0.7"/>
		</linearGradient>
		<linearGradient id="SVGID_5_" gradientUnits="userSpaceOnUse" x1="182.4773" y1="177.8933" x2="176.2818" y2="177.8933" gradientTransform="matrix(1.2821 0 0 -1.2821 -225.4985 236.577)">
			<stop offset="0" style="stop-color:#fff;stop-opacity:0"/>
			<stop offset="1" style="stop-color:#FFFF00;stop-opacity:0.7"/>
		</linearGradient>
		<linearGradient id="SVGID_6_" gradientUnits="userSpaceOnUse" x1="182.4945" y1="177.9234" x2="179.3963" y2="183.2897" gradientTransform="matrix(1.2821 0 0 -1.2821 -225.4985 236.577)">
			<stop offset="0" style="stop-color:#fff;stop-opacity:0"/>
			<stop offset="1" style="stop-color:#FF00FF;stop-opacity:0.7"/>
		</linearGradient>
		<circle class="st0" cx="8.5" cy="8.5" r="7.9"/>
		<circle class="st1" cx="8.5" cy="8.5" r="7.9"/>
		<circle class="st2" cx="8.5" cy="8.5" r="7.9"/>
		<circle class="st3" cx="8.5" cy="8.5" r="7.9"/>
		<circle class="st4" cx="8.5" cy="8.5" r="7.9"/>
		<circle class="st5" cx="8.5" cy="8.5" r="7.9"/>
		<circle class="st6" cx="8.5" cy="8.5" r="7.9"/>
	</svg>

	<svg id="icon-trashcan" viewBox="0 0 17 17">
		<polygon fill="#333" points="4.1,4.3 12.9,4.3 12.9,3 9.5,3 9.5,2 7.6,2 7.6,3 4.1,3 "/>
		<path fill="#333" d="M3.6,5v1l1,0l0.3,9h7.2l0.3-9l1,0V5L3.6,5L3.6,5z M6.8,13H6.1L6,7h0.9L6.8,13L6.8,13z M8.9,13H8.2l0-6h0.7L8.9,13z M10.9,13
			h-0.7l0-6h0.9L10.9,13z"/>
	</svg>

	<svg id="icon-new" viewBox="0 0 17 17">
		<polygon fill="#333" points="3,2 3,15 14,15 14,7 8.9,7 8.9,2 "/>
		<polygon fill="#333" points="9.7,6.3 13.9,6.3 9.7,2.1 "/>
	</svg>

	<svg id="icon-folder" viewBox="0 0 17 17">
		<path fill="#333" d="M15,6.5v6.1c0,1-0.5,1.5-1.4,1.5h-10c-1,0-1.6-0.5-1.6-1.5V4.4C2,3.4,2.3,3,3.3,3h3.4C7.6,3,8,3.4,8,4.3V5h5.5
			C14.5,5,15,5.5,15,6.5z"/>
	</svg>

	<svg id="icon-folder-open" viewBox="0 0 17 17">
		<path fill="#333" d="M16,9.5c0,0.2-0.1,0.4-0.2,0.5L13.1,13c-0.5,0.5-1.4,1-2.1,1H2.3c-0.3,0-0.7-0.1-0.7-0.4c0-0.2,0.1-0.4,0.2-0.5L4.5,10
			C5,9.4,5.9,9,6.6,9h8.7C15.6,9,16,9.1,16,9.5z M13.2,6.4V8H6.6c-1,0-2.2,0.6-2.9,1.3L1,12.4c0-0.1,0-0.1,0-0.2l0-7.7
			C1,3.5,1.3,3,2.3,3h3.5c1,0,1.4,0.3,1.4,1.3V5h4.7C12.8,5,13.2,5.4,13.2,6.4z"/>
	</svg>

	<svg id="icon-text" viewBox="0 0 500 500">
		<path d="M400.2,66.2l4.1,86.2h-10.3c-2-15.2-4.7-26-8.1-32.5c-5.6-10.5-13.1-18.2-22.4-23.2c-9.3-5-21.6-7.5-36.7-7.5h-51.8v280.8
		c0,22.6,2.4,36.7,7.3,42.3c6.9,7.6,17.4,11.4,31.7,11.4h12.7v10H170.8v-10h13c15.5,0,26.6-4.7,33.1-14.1c4-5.8,6-19,6-39.6V89.3
		h-44.2c-17.2,0-29.4,1.3-36.6,3.8c-9.4,3.4-17.4,10-24.1,19.8c-6.7,9.8-10.7,23-11.9,39.6H95.8l4.3-86.2H400.2z"/>
	</svg>

	<svg id="icon-eye-on" viewBox="0 0 15 15">
		<path fill="#333" d="M14,7.3c-1.1-2.3-4.4-4.1-6.7-4.1c-2.4,0-4.8,1.5-6.2,4C1,7.3,1,7.5,1.1,7.7c1,2,3.6,4.1,6.4,4.1c2.5,0,4.9-1.5,6.4-4
			C14,7.6,14,7.4,14,7.3z M7.4,4.8c0.2,0,0.4,0.2,0.4,0.4c0,0.2-0.2,0.4-0.4,0.4c-0.6,0-1.2,0.5-1.2,1.2c0,0.2-0.2,0.4-0.4,0.4
			c-0.2,0-0.4-0.2-0.4-0.4C5.3,5.7,6.2,4.8,7.4,4.8z M7.5,10.7c-2.3,0-4.5-1.6-5.4-3.3C2.9,6.3,3.9,5.3,5,4.8
			C4.5,5.3,4.2,6.1,4.2,6.9c0,1.8,1.4,3.2,3.2,3.2c1.8,0,3.2-1.4,3.2-3.2c0-0.8-0.3-1.5-0.7-2c1.2,0.6,2.4,1.5,3,2.6
			C11.5,9.5,9.5,10.7,7.5,10.7z"/>
	</svg>

	<svg id="icon-eye-off" viewBox="0 0 15 15">
		<path fill="#333" d="M10.6,7c0-0.2,0-0.4-0.1-0.6l-2,3.6C9.7,9.5,10.6,8.3,10.6,7z"/>
		<path fill="#333" d="M13.9,7.3c-0.5-1-1.4-1.9-2.5-2.6L11,5.6c0.8,0.5,1.5,1.2,1.9,1.9c-1.2,1.9-3,3-4.8,3.2l-0.6,1.1c2.5,0,4.8-1.5,6.4-4
			C14,7.7,14,7.5,13.9,7.3z"/>
		<path fill="#333" d="M9.9,4.9C9.9,4.9,9.9,4.9,9.9,4.9l1-1.9c0,0,0-0.1,0-0.1c0,0,0-0.1-0.1-0.1L9.7,2.2c-0.1,0-0.1,0-0.2,0L8.8,3.5
			C8.3,3.3,7.8,3.3,7.3,3.3c-2.4,0-4.8,1.5-6.2,4C1,7.4,1,7.6,1,7.7C1.7,9,3,10.3,4.6,11.1l-0.5,0.8c0,0,0,0.1,0,0.1
			c0,0,0,0.1,0.1,0.1l1.2,0.7c0,0,0,0,0.1,0c0,0,0.1,0,0.1-0.1L9.9,4.9C9.9,4.9,9.9,4.9,9.9,4.9z M5.1,10.2c-1.3-0.6-2.4-1.7-3-2.7
			C2.9,6.3,3.9,5.4,5,4.8C4.5,5.4,4.2,6.1,4.2,7c0,1,0.5,2,1.3,2.5L5.1,10.2z M7.4,5.8c-0.6,0-1.2,0.5-1.2,1.2c0,0.2-0.2,0.4-0.4,0.4
			c-0.2,0-0.4-0.2-0.4-0.4c0-1.1,0.9-2,2-2c0.2,0,0.4,0.2,0.4,0.4C7.8,5.6,7.6,5.8,7.4,5.8z"/>
	</svg>

	<svg id="icon-layer-adjustment" viewBox="0 0 17 17">
		<path fill="#333" d="M8.5,2C4.9,2,2,4.9,2,8.5C2,12.1,4.9,15,8.5,15c3.6,0,6.5-2.9,6.5-6.5
			C15,4.9,12.1,2,8.5,2z M8.5,13.8c-1.5,0-2.8-0.6-3.7-1.5l7.5-7.5c1,1,1.5,2.3,1.5,3.7C13.8,11.4,11.4,13.8,8.5,13.8z"/>
	</svg>

	<svg id="icon-layer-mask" viewBox="0 0 17 17">
		<path fill="#333" d="M1,3v11h15V3H1z M8.5,13C6,13,4,11,4,8.5C4,6,6,4,8.5,4S13,6,13,8.5S11,13,8.5,13z"/>
	</svg>

	<svg id="icon-layer-fx" viewBox="0 0 17 17">
		<path fill="#333" d="M3.2,15.4c-0.3,0-0.7-0.2-1-0.4C2.1,14.9,2,14.7,2,14.5c0-0.3,0.2-0.6,0.5-0.8l0,0c0.2-0.2,0.5-0.2,0.7,0
			C3.3,13.9,3.6,14,3.8,14c0.2,0,0.3-0.1,0.4-0.2c0.2-0.2,0.6-1,1-3.4c0.3-1.7,0.5-2.7,0.7-3.9h-1L4.6,5.9l0.6-0.6H6
			c0.2-1.2,0.6-2,1.1-2.6C7.8,2,8.6,1.6,9.3,1.6c0.4,0,0.7,0.2,0.9,0.4c0.1,0.2,0.2,0.3,0.2,0.5c0,0.3-0.2,0.6-0.4,0.8
			c-0.2,0.2-0.5,0.2-0.7,0C9,3,8.8,2.9,8.6,2.9c-0.4,0-0.7,0.8-1,2.5h1.7l-0.6,1L7.4,6.5C7.2,7.6,7.1,8.2,6.9,9.1
			c-0.1,0.3-0.1,0.6-0.2,1l0,0c-0.5,2.2-1,3.5-1.8,4.4C4.4,15.1,3.8,15.4,3.2,15.4z M2.6,14.5L2.6,14.5L2.6,14.5z M2.9,14.2
			C2.9,14.2,2.9,14.2,2.9,14.2S2.9,14.2,2.9,14.2z M2.8,14.2L2.8,14.2L2.8,14.2z M9.6,2.7L9.6,2.7L9.6,2.7z"/>
		<path fill="#333" d="M12.6,12.1c-0.5,0-0.9-0.5-1.2-1.5l-0.3-0.8c-1.1,1.7-1.8,2.2-2.5,2.2c-0.3,0-0.5-0.1-0.7-0.3
			c-0.2-0.2-0.3-0.4-0.3-0.7c0-0.5,0.4-0.9,0.9-0.9c0.2,0,0.4,0.2,0.5,0.3l0,0c0,0,0,0,0.1,0c0,0,0.2,0,0.6-0.5
			c0.3-0.3,0.6-0.8,1.1-1.4l-0.4-1.3c-0.1-0.3-0.2-0.5-0.2-0.6C10,6.7,9.8,6.9,9.4,7.3L9.2,7.6L8.6,6.8l0.1-0.2
			c0.7-1,1.3-1.5,1.8-1.5c0.6,0,0.8,0.7,1.2,1.7l0.1,0.2c0.9-1.3,1.6-2,2.3-2C14.6,5.1,15,5.5,15,6c0,0.2-0.1,0.4-0.3,0.6
			c-0.1,0.1-0.3,0.3-0.6,0.3c-0.2,0-0.3-0.1-0.4-0.2c-0.1,0-0.1,0-0.1,0c0,0-0.2,0-0.6,0.6c-0.1,0.1-0.2,0.2-0.3,0.3
			c-0.2,0.2-0.4,0.5-0.6,0.7l0.4,1.1c0.2,0.8,0.4,1,0.5,1.1c0.1,0,0.3-0.1,0.7-0.7L14,9.6l0.7,0.7l-0.1,0.2
			C14,11.2,13.3,12.1,12.6,12.1z"/>
	</svg>

	<svg id="icon-layer-link" viewBox="0 0 17 17">
		<path fill="#333" d="M7.6,10.2c-0.2,0-0.4-0.1-0.5-0.2C5.8,8.7,5.8,6.7,7,5.4l2.5-2.5C10.1,2.3,10.9,2,11.8,2s1.7,0.3,2.3,0.9
			c1.3,1.3,1.3,3.3,0,4.6l-1.1,1.1c-0.3,0.3-0.8,0.3-1.1,0c-0.1-0.1-0.2-0.3-0.2-0.5c0-0.2,0.1-0.4,0.2-0.5L13,6.4
			c0.7-0.7,0.7-1.8,0-2.4c-0.3-0.3-0.8-0.5-1.2-0.5c-0.5,0-0.9,0.2-1.2,0.5L8.1,6.5C7.8,6.8,7.6,7.2,7.6,7.7c0,0.5,0.2,0.9,0.5,1.2
			c0.3,0.3,0.3,0.8,0,1.1C8,10.1,7.8,10.2,7.6,10.2z"/>
		<path fill="#333" d="M5.2,15c-0.9,0-1.7-0.3-2.3-0.9c-1.3-1.3-1.3-3.3,0-4.6l1.1-1.1c0.1-0.1,0.3-0.2,0.5-0.2S5,8.2,5.1,8.4
			c0.1,0.1,0.2,0.3,0.2,0.5S5.3,9.3,5.1,9.4L4,10.6c-0.3,0.3-0.5,0.8-0.5,1.2S3.7,12.7,4,13c0.3,0.3,0.8,0.5,1.2,0.5
			c0.5,0,0.9-0.2,1.2-0.5l2.5-2.5c0.7-0.7,0.7-1.8,0-2.4C8.8,8,8.7,7.8,8.7,7.6c0-0.2,0.1-0.4,0.2-0.5C9,6.9,9.2,6.8,9.4,6.8
			S9.8,6.9,10,7c1.3,1.3,1.3,3.3,0,4.6l-2.5,2.5C6.9,14.7,6.1,15,5.2,15z"/>
	</svg>

	<svg id="icon-switch" viewBox="0 0 17 17">
		<path fill="#333" d="M13.7,11.5V6.8c0-1.2-0.3-2.1-0.9-2.8c-0.6-0.7-1.6-1-2.9-1H5.8V1.5L1.8,4l4,2.5V4.9h4.1
			c0.7,0,1.2,0.1,1.5,0.4c0.3,0.3,0.4,0.8,0.4,1.5v4.7h-1.5l2.5,4l2.5-4L13.7,11.5L13.7,11.5z"/>
	</svg>

	<svg id="icon-black-white" viewBox="0 0 17 17">
		<style type="text/css">
			.st0{fill:#333333;}
			.st1{fill:#FFFFFF;}
		</style>
		<path class="st1" d="M16,16h-9V7h9V16z"/>
		<rect x="7.9" y="8" class="st0" width="7" height="7"/>
		<path class="st0" d="M10,10H1V1h9V10z"/>
		<rect x="2" y="2" class="st1" width="7" height="7"/>
	</svg>

	<svg id="knob" viewBox="0 0 34 1734">
		<filter id="DS_1" x="-40%" y="-40%" width="180%" height="180%">
			<feDropShadow dx="0" dy="0" stdDeviation="1.5" flood-color="#7af" flood-opacity="1" />
		</filter>
		<style type="text/css">
			.st0{fill:none;stroke:#7af;stroke-width:2.5;stroke-linecap:round;filter:url(#DS_1);}
			.st1{fill:none;stroke:#344;stroke-width:2.5;stroke-linecap:round;}
		</style>
		<path class="st0" d="M7.1,60.9c0.4,0.4,0.7,0.7,1.1,1"/>
		<path class="st0" d="M6.2,94c0.6,0.7,1.2,1.4,2,1.9"/>
		<path class="st0" d="M5.4,126.9c0.8,1.2,1.7,2.2,2.8,3"/>
		<path class="st0" d="M4.7,159.7c0.9,1.6,2.1,3.1,3.5,4.2"/>
		<path class="st0" d="M4.1,192.5c0.9,2.2,2.3,4,4.1,5.5"/>
		<path class="st0" d="M3.6,225.1c0.8,2.7,2.5,5.1,4.6,6.8"/>
		<path class="st0" d="M3.3,257.8c0.7,3.3,2.5,6.1,4.9,8.1"/>
		<path class="st0" d="M3.1,290.5c0.4,3.8,2.4,7.2,5.1,9.4"/>
		<path class="st0" d="M3,323c0,4.4,2.1,8.4,5.2,10.9"/>
		<path class="st0" d="M3.1,355.7c0,0.4-0.1,0.9-0.1,1.3c0,4.4,2.1,8.4,5.2,10.9"/>
		<path class="st0" d="M3.3,388.3C3.1,389.2,3,390.1,3,391c0,4.4,2.1,8.4,5.2,10.9"/>
		<path class="st0" d="M3.6,421c-0.4,1.3-0.6,2.6-0.6,4c0,4.4,2.1,8.4,5.2,10.9"/>
		<path class="st0" d="M4,453.7c-0.7,1.6-1,3.4-1,5.3c0,4.4,2.1,8.4,5.2,10.9"/>
		<path class="st0" d="M4.6,486.5c-1,2-1.6,4.2-1.6,6.5c0,4.4,2.1,8.4,5.2,10.9"/>
		<path class="st0" d="M5.3,519.3C3.9,521.5,3,524.2,3,527c0,4.4,2.1,8.4,5.2,10.9"/>
		<path class="st0" d="M6.3,552.2c-2,2.4-3.2,5.5-3.2,8.8c0,4.4,2.1,8.4,5.2,10.9"/>
		<path class="st0" d="M7.2,585.2c-2.5,2.5-4.1,6-4.1,9.9c0,4.4,2.1,8.4,5.2,10.9"/>
		<path class="st0" d="M8.3,618.2c-3.1,2.6-5.1,6.5-5.1,10.8c0,4.4,2.1,8.4,5.2,10.9"/>
		<path class="st0" d="M9.4,651.4c-3.7,2.5-6.2,6.8-6.2,11.6c0,4.4,2.1,8.4,5.2,10.9"/>
		<path class="st0" d="M10.5,684.7c-4.4,2.4-7.4,7-7.4,12.3c0,4.4,2.1,8.4,5.2,10.9"/>
		<path class="st0" d="M11.8,718.1c-5,2.1-8.6,7.1-8.6,12.9c0,4.4,2.1,8.4,5.2,10.9"/>
		<path class="st0" d="M13.1,751.6c-5.7,1.8-9.9,7.1-9.9,13.4c0,4.4,2.1,8.4,5.2,10.9"/>
		<path class="st0" d="M14.4,785.3c-6.4,1.3-11.2,7-11.2,13.7c0,4.4,2.1,8.4,5.2,10.9"/>
		<path class="st0" d="M15.8,819.1c-7.1,0.7-12.6,6.7-12.6,13.9c0,4.4,2.1,8.4,5.2,10.9"/>
		<path class="st0" d="M17.2,853C17.1,853,17.1,853,17.2,853c-7.7,0-14,6.3-14,14c0,4.4,2.1,8.4,5.2,10.9"/>
		<path class="st0" d="M18.5,887.1c-0.4,0-0.9-0.1-1.4-0.1c-7.7,0-14,6.3-14,14c0,4.4,2.1,8.4,5.2,10.9"/>
		<path class="st0" d="M19.9,921.3c-0.9-0.2-1.8-0.3-2.7-0.3c-7.7,0-14,6.3-14,14c0,4.4,2.1,8.4,5.2,10.9"/>
		<path class="st0" d="M21.2,955.6c-1.3-0.4-2.6-0.6-4.1-0.6c-7.7,0-14,6.3-14,14c0,4.4,2.1,8.4,5.2,10.9"/>
		<path class="st0" d="M22.5,990.1c-1.7-0.7-3.5-1.1-5.3-1.1c-7.7,0-14,6.3-14,14c0,4.4,2.1,8.4,5.2,10.9"/>
		<path class="st0" d="M23.8,1024.7c-2-1.1-4.3-1.7-6.7-1.7c-7.7,0-14,6.3-14,14c0,4.4,2.1,8.4,5.2,10.9"/>
		<path class="st0" d="M24.9,1059.4c-2.2-1.5-4.9-2.4-7.8-2.4c-7.7,0-14,6.3-14,14c0,4.4,2.1,8.4,5.2,10.9"/>
		<path class="st0" d="M25.9,1094.2c-2.4-2-5.5-3.2-8.9-3.2c-7.7,0-14,6.3-14,14c0,4.4,2.1,8.4,5.2,10.9"/>
		<path class="st0" d="M26.9,1129.1c-2.5-2.5-6-4.1-9.9-4.1c-7.7,0-14,6.3-14,14c0,4.4,2.1,8.4,5.2,10.9"/>
		<path class="st0" d="M27.8,1164.2c-2.6-3.1-6.5-5.1-10.8-5.1c-7.7,0-14,6.3-14,14c0,4.4,2.1,8.4,5.2,10.9"/>
		<path class="st0" d="M28.6,1199.2c-2.5-3.8-6.8-6.2-11.6-6.2c-7.7,0-14,6.3-14,14c0,4.4,2.1,8.4,5.2,10.9"/>
		<path class="st0" d="M29.3,1234.4c-2.4-4.4-7-7.4-12.3-7.4c-7.7,0-14,6.3-14,14c0,4.4,2.1,8.4,5.2,10.9"/>
		<path class="st0" d="M30.1,1269.7c-2.1-5.1-7.1-8.7-12.9-8.7c-7.7,0-14,6.3-14,14c0,4.4,2.1,8.4,5.2,10.9"/>
		<path class="st0" d="M30.6,1305c-1.7-5.7-7.1-10-13.4-10c-7.7,0-14,6.3-14,14c0,4.4,2.1,8.4,5.2,10.9"/>
		<path class="st0" d="M30.9,1340.3c-1.3-6.4-7-11.3-13.7-11.3c-7.7,0-14,6.3-14,14c0,4.4,2.1,8.4,5.2,10.9"/>
		<path class="st0" d="M31.1,1375.7c-0.7-7.1-6.7-12.7-13.9-12.7c-7.7,0-14,6.3-14,14c0,4.4,2.1,8.4,5.2,10.9"/>
		<path class="st0" d="M31.2,1411c0-7.7-6.3-14-14-14s-14,6.3-14,14c0,4.4,2.1,8.4,5.2,10.9"/>
		<path class="st0" d="M31.1,1446.4c0-0.5,0.1-0.9,0.1-1.4c0-7.7-6.3-14-14-14s-14,6.3-14,14c0,4.4,2.1,8.4,5.2,10.9"/>
		<path class="st0" d="M30.9,1481.8c0.2-0.9,0.3-1.8,0.3-2.8c0-7.7-6.3-14-14-14s-14,6.3-14,14c0,4.4,2.1,8.4,5.2,10.9"/>
		<path class="st0" d="M30.5,1517.1c0.4-1.3,0.6-2.7,0.6-4.1c0-7.7-6.3-14-14-14s-14,6.3-14,14c0,4.4,2.1,8.4,5.2,10.9"/>
		<path class="st0" d="M30.1,1552.4c0.7-1.7,1.1-3.5,1.1-5.4c0-7.7-6.3-14-14-14s-14,6.3-14,14c0,4.4,2.1,8.4,5.2,10.9"/>
		<path class="st0" d="M29.5,1587.7c1.1-2,1.7-4.3,1.7-6.6c0-7.7-6.3-14-14-14s-14,6.3-14,14c0,4.4,2.1,8.4,5.2,10.9"/>
		<path class="st0" d="M28.8,1622.8c1.5-2.2,2.4-4.9,2.4-7.8c0-7.7-6.3-14-14-14s-14,6.3-14,14c0,4.4,2.1,8.4,5.2,10.9"/>
		<path class="st0" d="M27.9,1657.9c2-2.4,3.2-5.6,3.2-8.9c0-7.7-6.3-14-14-14s-14,6.3-14,14c0,4.4,2.1,8.4,5.2,10.9"/>
		<path class="st0" d="M27,1693c2.5-2.5,4.1-6.1,4.1-10c0-7.7-6.3-14-14-14s-14,6.3-14,14c0,4.4,2.1,8.4,5.2,10.9"/>
		<path class="st0" d="M26,1727.9c3.1-2.5,5.2-6.5,5.2-10.9c0-7.7-6.3-14-14-14s-14,6.3-14,14c0,4.4,2.1,8.4,5.2,10.9"/>
		<path class="st1" d="M25.8,27.9C28.9,25.4,31,21.4,31,17c0-7.7-6.3-14-14-14S3,9.3,3,17c0,4.4,2.1,8.4,5.2,10.9L17,17"/>
		<path class="st1" d="M25.8,61.9c2.8-2.2,4.8-5.6,5.1-9.5c0.8-7.7-4.9-14.6-12.6-15.3S3.8,42,3.1,49.7C2.6,54,4.3,58.2,7.2,61L17,51" />
		<path class="st1" d="M25.8,95.9c2.4-2,4.3-4.8,4.9-8.2c1.5-7.6-3.4-15-11-16.5s-15,3.4-16.5,11c-0.9,4.3,0.4,8.6,3,11.7L17,85"/>
		<path class="st1" d="M25.8,129.9c2.1-1.7,3.8-4,4.6-6.8c2.2-7.4-2-15.2-9.3-17.5c-7.4-2.2-15.2,2-17.5,9.3 c-1.3,4.2-0.4,8.6,1.8,11.9L17,119"/>
		<path class="st1" d="M25.8,163.9c1.8-1.4,3.2-3.3,4.1-5.5c3-7.1-0.4-15.3-7.6-18.3S7,140.5,4.1,147.6c-1.7,4.1-1.3,8.6,0.6,12.1 L17,153"/>
		<path class="st1" d="M25.8,197.9c1.4-1.1,2.6-2.6,3.5-4.3c3.6-6.8,1.1-15.3-5.7-19s-15.3-1.1-19,5.7c-2.1,3.9-2.1,8.4-0.6,12.1 l13-5.4"/>
		<path class="st1" d="M25.8,231.9c1.1-0.9,2-1.9,2.8-3.1c4.3-6.4,2.6-15.1-3.8-19.4s-15.1-2.6-19.4,3.8c-2.5,3.7-2.9,8.1-1.8,11.9 L17,221"/>
		<path class="st1" d="M25.8,265.9c0.7-0.6,1.4-1.2,2-2c4.9-5.9,4-14.8-1.9-19.7s-14.8-4-19.7,1.9c-2.8,3.4-3.7,7.8-2.9,11.7L17,255" />
		<path class="st1" d="M25.8,299.9c0.4-0.3,0.7-0.6,1.1-1c5.5-5.4,5.5-14.3,0-19.8c-5.4-5.5-14.3-5.5-19.8,0 c-3.1,3.1-4.5,7.4-4.1,11.4l14-1.5"/>
		<path class="st1" d="M25.8,334l0.1-0.1c6-4.9,6.9-13.7,2-19.7s-13.7-6.9-19.7-2C4.7,315,3,319.1,3,323.1l14-0.1"/>
		<path class="st1" d="M25.7,367.9c5.5-4.5,6.9-12.6,2.9-18.6c-4.3-6.4-13-8.2-19.4-3.9c-3.7,2.4-5.8,6.4-6.2,10.4l14,1.2"/>
		<path class="st1" d="M25.8,401.9c5.1-4.1,6.8-11.5,3.6-17.5c-3.6-6.8-12.1-9.4-18.9-5.8c-3.9,2.1-6.4,5.8-7.2,9.7L17,391"/>
		<path class="st1" d="M25.8,435.9c4.7-3.8,6.6-10.4,4.2-16.2c-2.9-7.1-11.1-10.6-18.3-7.6c-4.1,1.7-7,5.1-8.1,8.9l13.4,4"/>
		<path class="st1" d="M25.8,469.9c4.3-3.5,6.3-9.3,4.6-14.9c-2.2-7.4-10.1-11.6-17.4-9.4c-4.2,1.3-7.4,4.4-8.9,8.1l13,5.3"/>
		<path class="st1" d="M25.8,503.9c3.9-3.2,6-8.3,5-13.6c-1.5-7.6-8.9-12.5-16.4-11.1c-4.3,0.8-7.8,3.7-9.7,7.2L17,493"/>
		<path class="st1" d="M25.8,537.9c3.5-2.9,5.6-7.4,5.2-12.2c-0.7-7.7-7.6-13.3-15.3-12.6c-4.4,0.4-8.2,2.9-10.4,6.2L17,527"/>
		<path class="st1" d="M25.9,571.9c3.2-2.6,5.2-6.5,5.2-10.8c0-7.7-6.2-14-13.9-14.1c-4.4,0-8.4,2.1-10.9,5.2l10.9,8.8"/>
		<path class="st1" d="M25.9,605.9c2.8-2.3,4.7-5.6,5.1-9.4c0.8-7.7-4.8-14.6-12.5-15.4c-4.4-0.5-8.6,1.2-11.4,4.1l9.9,9.9"/>
		<path class="st1" d="M25.9,639.9c2.5-2,4.3-4.8,4.9-8.1c1.5-7.5-3.4-15-10.9-16.5c-4.3-0.9-8.7,0.4-11.7,2.9l8.9,10.8"/>
		<path class="st1" d="M25.9,673.9c2.1-1.7,3.7-4,4.6-6.8c2.3-7.4-1.9-15.2-9.2-17.5c-4.2-1.3-8.6-0.5-11.9,1.8l7.8,11.6"/>
		<path class="st1" d="M25.9,707.9c1.8-1.4,3.2-3.3,4.1-5.5c3-7.1-0.4-15.3-7.5-18.3c-4.1-1.7-8.6-1.3-12.1,0.6L17,697"/>
		<path class="st1" d="M25.9,742c1.4-1.1,2.6-2.6,3.6-4.3c3.7-6.8,1.1-15.3-5.6-19c-3.9-2.1-8.4-2.2-12.1-0.6l5.4,12.9"/>
		<path class="st1" d="M25.9,775.9c1.1-0.9,2-1.9,2.8-3.1c4.3-6.4,2.6-15.1-3.8-19.4c-3.6-2.5-8.1-3-11.9-1.8l4.1,13.4"/>
		<path class="st1" d="M26,809.9c0.7-0.6,1.4-1.2,2-1.9c4.9-5.9,4.1-14.8-1.8-19.7c-3.4-2.8-7.8-3.8-11.7-3l2.8,13.7"/>
		<path class="st1" d="M25.9,843.9c0.4-0.3,0.7-0.6,1.1-1c5.5-5.4,5.5-14.3,0.1-19.8c-3.1-3.1-7.4-4.5-11.4-4.1l1.4,13.9"/>
		<path class="st1" d="M26,877.9c6-4.8,6.9-13.7,2.1-19.7c-2.8-3.4-6.9-5.2-10.9-5.2v14"/>
		<path class="st1" d="M26,911.9c5.5-4.5,6.9-12.5,2.9-18.6c-2.4-3.7-6.4-5.9-10.3-6.2L17.2,901"/>
		<path class="st1" d="M26,945.9c5.1-4.1,6.7-11.4,3.6-17.4c-2-3.9-5.8-6.5-9.7-7.2L17.2,935"/>
		<path class="st1" d="M26,979.9c4.7-3.8,6.5-10.3,4.2-16.2c-1.7-4.1-5.1-7-8.9-8.1L17.2,969"/>
		<path class="st1" d="M26,1013.9c4.3-3.5,6.3-9.3,4.6-14.9c-1.2-4.2-4.4-7.5-8.1-9l-5.4,12.9"/>
		<path class="st1" d="M26,1047.9c3.9-3.1,6-8.3,5-13.5c-0.8-4.3-3.6-7.9-7.2-9.7l-6.6,12.4"/>
		<path class="st1" d="M26,1081.9c3.5-2.8,5.6-7.3,5.2-12.1c-0.4-4.4-2.8-8.2-6.2-10.4l-7.8,11.6"/>
		<path class="st1" d="M25.8,1115.9c3.1-2.5,5.2-6.4,5.2-10.8s-2-8.4-5.1-10.9L17,1105"/>
		<path class="st1" d="M25.8,1149.9c2.8-2.3,4.7-5.6,5.1-9.4c0.5-4.4-1.2-8.6-4-11.4L17,1139"/>
		<path class="st1" d="M25.8,1183.9c2.5-2,4.3-4.8,5-8.1c0.9-4.3-0.3-8.7-2.9-11.7L17,1173"/>
		<path class="st1" d="M25.8,1217.9c2.1-1.7,3.7-4,4.6-6.7c1.3-4.2,0.5-8.6-1.7-12L17,1207"/>
		<path class="st1" d="M25.8,1251.9c1.7-1.4,3.2-3.2,4.1-5.4c1.7-4,1.4-8.6-0.5-12.1L17,1241"/>
		<path class="st1" d="M26,1285.9c1.4-1.1,2.6-2.5,3.5-4.2c2.1-3.9,2.2-8.4,0.7-12.1l-13,5.3"/>
		<path class="st1" d="M26,1319.9c1-0.8,2-1.8,2.8-3c2.5-3.6,3-8.1,1.9-11.9l-13.4,4"/>
		<path class="st1" d="M26,1353.9c0.7-0.6,1.3-1.2,1.9-1.9c2.8-3.4,3.8-7.8,3-11.7l-13.7,2.7"/>
		<path class="st1" d="M26,1387.9c0.3-0.3,0.7-0.6,1-0.9c3.1-3.1,4.5-7.4,4.1-11.3l-13.9,1.3"/>
		<path class="st1" d="M25.9,1421.9c3.4-2.8,5.2-6.9,5.2-10.9h-14"/>
		<path class="st1" d="M26,1455.9c3-2.4,4.8-5.9,5.1-9.5l-13.9-1.4"/>
		<path class="st1" d="M26,1489.9c2.6-2.1,4.3-5,4.9-8.1l-13.7-2.8"/>
		<path class="st1" d="M26,1523.9c2.2-1.8,3.8-4.2,4.6-6.8l-13.4-4.1"/>
		<path class="st1" d="M26,1557.9c1.8-1.5,3.3-3.4,4.1-5.5l-12.9-5.4"/>
		<path class="st1" d="M26,1591.9c1.5-1.2,2.7-2.6,3.5-4.2l-12.3-6.7"/>
		<path class="st1" d="M26,1625.9c1.1-0.9,2.1-1.9,2.8-3.1l-11.6-7.8"/>
		<path class="st1" d="M26,1659.9c0.7-0.6,1.4-1.2,2-2l-10.8-8.9"/>
		<path class="st1" d="M26,1693.9c0.4-0.3,0.7-0.6,1.1-0.9l-9.9-10"/>
		<path class="st1" d="M26,1727.9l-8.8-10.9"/>
	</svg>

	@import "brush-presets.svg"

</svg>
