<svg xmlns="http://www.w3.org/2000/svg" width="0" height="0">
	<svg id="tool-move" viewBox="0 0 500 500">
		<polygon points="13.649,397.297 108.41,270.95 264.234,270.95 13.649,20.366"/>
		<polygon points="486.351,348.227 430.929,307.107 430.929,334.511 368.658,334.511 368.658,272.243 396.065,272.243 354.944,216.821 313.823,272.243 341.23,272.243 341.23,334.511 278.962,334.511 278.962,307.107 223.539,348.227 278.962,389.349 278.962,361.943 341.23,361.943 341.23,424.211 313.823,424.211 354.944,479.634 396.065,424.211 368.658,424.211 368.658,361.943 430.929,361.943 430.929,389.349"/>
	</svg>

	<svg id="tool-crop" viewBox="0 0 500 500">
		<polyline fill="none" stroke="#000" stroke-width="58" points="30.068,144.614 352.63,144.614 352.63,478.178 "/>
		<polyline fill="none" stroke="#000" stroke-width="58" points="464.43,355.385 141.868,355.385 141.868,21.823 "/>
		<line fill="none" stroke="#000" stroke-width="20" x1="141.868" y1="355.385" x2="469.932" y2="27.325"/>
	</svg>

	<svg id="tool-perspective" viewBox="0 0 500 500">
		<polygon fill="none" stroke="#000" stroke-width="30" points="426.5,360.5 65.5,440.5 65.5,49.5 426.5,99.5 "/>
		<line fill="none" stroke="#000" stroke-width="30" x1="246" y1="400.5" x2="246" y2="74.5"/>
		<line fill="none" stroke="#000" stroke-width="30" x1="66" y1="256.5" x2="426.5" y2="228.5"/>
		<rect x="20.5" y="395" width="91" height="91"/>
		<rect x="20" y="4" width="91" height="91"/>
		<rect x="381" y="55" width="91" height="91"/>
		<rect x="381" y="309.5" width="91" height="91"/>
	</svg>

	<svg id="tool-slice" viewBox="0 0 500 500">
		<polyline fill="#00000050" stroke="#000" stroke-width="32" points="480.156,117.862 312.243,285.775 254.911,228.444 422.824,60.53 "/>
		<polygon points="216.345,242.969 296.794,323.418 258.418,396.933 19.844,439.469 "/>
	</svg>

	<svg id="tool-slice-select" viewBox="0 0 500 500">
		<polyline fill="#00000050" stroke="#000" stroke-width="32" points="480.156,117.862 312.243,285.775 254.911,228.444 422.824,60.53 "/>
		<polygon points="216.345,242.969 296.794,323.418 258.418,396.933 19.844,439.469 "/>
		<polygon points="19.844,282.524 81.082,200.875 181.782,200.875 19.844,38.938 "/>
	</svg>

	<svg id="tool-wand" viewBox="0 0 500 500">
		<path d="M341.176,187.143l77.546-77.545l-28.319-28.318l-77.545,77.545L341.176,187.143z M459.479,109.598 c0,4.499-1.588,8.733-4.765,11.91L114.361,461.861c-3.176,3.176-7.41,4.764-11.91,4.764c-4.499,0-8.733-1.588-11.909-4.764 l-52.403-52.403c-3.176-3.176-4.764-7.41-4.764-11.909c0-4.5,1.588-8.734,4.764-11.91L378.493,45.285 c3.176-3.176,7.41-4.764,11.909-4.764c4.5,0,8.734,1.588,11.91,4.764l52.402,52.402 C457.892,100.863,459.479,105.098,459.479,109.598z M101.922,59.312l25.938,7.939l-25.938,7.939l-7.939,25.938l-7.939-25.938 l-25.938-7.939l25.938-7.939l7.939-25.938L101.922,59.312z M194.554,102.188l51.873,15.879l-51.873,15.88l-15.88,51.874 l-15.879-51.874l-51.874-15.88l51.874-15.879l15.879-51.874L194.554,102.188z M440.688,228.695l25.937,7.939l-25.937,7.939 l-7.94,25.938l-7.939-25.938l-25.937-7.939l25.937-7.939l7.939-25.938L440.688,228.695z M271.306,59.312l25.937,7.939l-25.937,7.939 l-7.94,25.938l-7.939-25.938l-25.938-7.939l25.938-7.939l7.939-25.938L271.306,59.312z"/>
	</svg>

	<svg id="tool-pencil" viewBox="0 0 500 500">
		<rect x="350.313" y="71.461" transform="matrix(0.7071 0.7071 -0.7071 0.7071 187.0552 -255.5077)" width="103.285" height="53.166"/>
		<rect x="201.978" y="83.719" transform="matrix(0.7071 0.7071 -0.7071 0.7071 252.0842 -98.5225)" fill="#474747" stroke="#000" stroke-width="18.0102" width="85.983" height="342.624"/>
		<polygon points="70.959,356.008 143.993,429.042 42.73,457.269 "/>
	</svg>

	<svg id="tool-blur" viewBox="0 0 500 500">
		<path d="M387.248,250.104C359.419,180.107,293.914,96.378,250,35.5c-43.914,60.878-109.419,144.607-137.249,214.604 c-15.828,44.15-17.391,92.074,4.897,134.437C143.278,433.247,194.961,464.5,250,464.5s106.722-31.253,132.351-79.96 C404.64,342.178,403.076,294.254,387.248,250.104z"/>
	</svg>

	<svg id="tool-sharpen" viewBox="0 0 500 500">
		<polygon points="398.446,488.5 101.554,488.5 250,11.5 "/>
	</svg>

	<svg id="tool-smudge" viewBox="0 0 500 500">
		<line stroke="#000000ee" stroke-width="27" stroke-linecap="round" x1="357.185" y1="466.385" x2="106.539" y2="466.385"/>
		<path fill="#000000ee" stroke="#ffffff77" stroke-width="27" stroke-linecap="round" d="M222.447,229.2 C205.062,252.173,97.646,398.706,85.849,416.092c-11.797,17.385-12.288,50.293,28.028,50.293c24.748,0,39.057-27.732,43.996-32.908 C170.013,420.755,312.478,229.2,312.478,229.2s29.805,25.458,13.66,45.326c-16.143,19.869-33.79,24.736-56.015,11.459l-46.128,61.52 c28.704,10.804,56.818,20.778,70.477,20.778c13.66,0,26.389,0.311,80.719-54.02c54.329-54.328,56.502-47.188,57.121-85.063 c0.621-37.875,0-103.07,0-111.141c0-8.072-5.587-27.32-13.038-34.15c-7.45-6.829-32.908-37.254-40.979-43.463 c-8.071-6.209-14.281-6.83-21.109-6.83c-25.458,0-133.496,0-152.123,0c-23.283,0-112.842,96.283-126.664,111.763 c-15.522,17.385-17.695,55.571,14.056,67.679"/>
		<path fill="#000000ee" stroke="#ffffff77" stroke-width="27" stroke-linecap="round" d="M138.625,158.107 c-17.488,16.351-55.242,50.914-51.206,79.785c3.759,26.895,25.665,29.183,33.737,32.287"/>
		<path fill="#000000ee" stroke="#ffffff77" stroke-width="27" stroke-linecap="round" d="M174.638,202.811 c-20.097,19.343-66.437,63.333-57.745,100.276c4.631,19.678,21.749,31.667,26.928,32.908l73.349-99.75"/>
	</svg>

	<svg id="tool-dodge" viewBox="0 0 500 500">
		<path d="M320.5,30.5c-80.633,0-146,65.367-146,146c0,28.18,7.992,54.49,21.821,76.803L25.812,423.812l47.376,47.377l170.51-170.51 C266.01,314.508,292.32,322.5,320.5,322.5c80.634,0,146-65.366,146-146C466.5,95.867,401.134,30.5,320.5,30.5z"/>
	</svg>

	<svg id="tool-burn" viewBox="0 0 500 500">
		<path fill="#000000ee" stroke="#ffffff77" stroke-width="23.1096" stroke-linejoin="round" d="M210.242,97.019 c-7.199-16.881-57.029-21.937-92.416-0.272C72.825,124.303,34.054,147.3,49.67,181.355"/>
		<path fill="#000000ee" stroke="#ffffff77" stroke-width="23.1096" stroke-linejoin="round" d="M405.499,417.642 l80.886-163.686c0,0-130.939-104.016-159.827-125.185s-75.853-32.024-110.515-32.024c-34.666,0-99.435,30.829-132.158,51.997 c-32.724,21.169-86.662,95.553-65.47,120.604c21.191,25.05,38.501,15.391,51.997,0c13.495-15.392,32.723-25.029,28.887-50.056 c26.969-7.696,46.218-30.805,44.302-40.443c23.108,40.443,38.521,3.86,57.773,23.11c19.25,19.25,40.441,65.493,11.555,78.966 c-28.888,13.473-7.719,42.338-44.301,38.501S118.57,286.702,95.46,288.62c-23.108,1.919-51.07,35.838-32.521,51.5 c30.062,25.389,31.394,59.443,88.875,53.373c40.396-4.265,61.113,6.319,93.86,2.483c32.747-3.838,23.064-36.854,67.386-38.028 c24.78-0.654,42.361-1.219,53.917,16.114C378.53,391.395,405.499,417.642,405.499,417.642z"/>
	</svg>

	<svg id="tool-sponge" viewBox="0 0 500 500">
		<path fill="#000" d="M379.162,86.823c-49.13,0-67.786,21.149-133.388,21.149c-65.601,0-94.492-21.149-137.603-21.149 c-43.109,0-81.918,42.96-81.918,95.954v63.292c0,52.994,38.965,95.952,81.918,95.952c24.9,0,88.853-21.148,136.399-21.148 s104.723,21.148,134.592,21.148c47.77,0,81.918-42.958,81.918-95.952v-63.292C461.08,129.783,437.163,86.823,379.162,86.823z M67.021,185.871c-8.806,0-15.946-8.365-15.946-18.679c0-10.318,7.141-18.683,15.946-18.683c8.81,0,15.951,8.364,15.951,18.683 C82.972,177.506,75.831,185.871,67.021,185.871z M98.918,312.766c-8.805,0-15.946-8.364-15.946-18.678 c0-10.319,7.141-18.684,15.946-18.684c8.81,0,15.951,8.364,15.951,18.684C114.869,304.401,107.728,312.766,98.918,312.766z M125.402,245.088c-8.807,0-15.948-8.364-15.948-18.68c0-10.318,7.141-18.682,15.948-18.682c8.809,0,15.95,8.364,15.95,18.682 C141.352,236.724,134.211,245.088,125.402,245.088z M151.282,167.19c-8.807,0-15.948-8.364-15.948-18.681 c0-10.317,7.141-18.682,15.948-18.682c8.809,0,15.95,8.365,15.95,18.682C167.232,158.826,160.091,167.19,151.282,167.19z M200.031,275.402c-8.806,0-15.947-8.364-15.947-18.679c0-10.319,7.141-18.684,15.947-18.684c8.809,0,15.95,8.365,15.95,18.684 C215.981,267.038,208.84,275.402,200.031,275.402z M242.762,197.855c-8.805,0-15.946-8.365-15.946-18.679 c0-10.318,7.141-18.683,15.946-18.683c8.81,0,15.951,8.364,15.951,18.683C258.713,189.491,251.571,197.855,242.762,197.855z M293.318,275.402c-8.806,0-15.946-8.364-15.946-18.678c0-10.319,7.141-18.683,15.946-18.683c8.81,0,15.95,8.364,15.95,18.683 C309.269,267.038,302.128,275.402,293.318,275.402z M325.216,155.558c-8.806,0-15.947-8.365-15.947-18.679 c0-10.318,7.142-18.683,15.947-18.683c8.809,0,15.95,8.364,15.95,18.683C341.166,147.192,334.024,155.558,325.216,155.558z M358.92,235.219c-8.806,0-15.947-8.365-15.947-18.679c0-10.318,7.142-18.683,15.947-18.683c8.809,0,15.95,8.364,15.95,18.683 C374.87,226.854,367.729,235.219,358.92,235.219z M393.226,312.766c-8.806,0-15.947-8.364-15.947-18.678 c0-10.319,7.142-18.684,15.947-18.684c8.809,0,15.95,8.364,15.95,18.684C409.176,304.401,402.034,312.766,393.226,312.766z M401.351,174.239c-8.806,0-15.947-8.365-15.947-18.679c0-10.318,7.142-18.683,15.947-18.683c8.809,0,15.95,8.364,15.95,18.683 C417.301,165.874,410.159,174.239,401.351,174.239z"/>
		<path fill="#000000aa" d="M460.773,300.95c-3.382,49.078-36.381,66.45-81.611,66.45c-29.869,0-87.046-21.148-134.592-21.148 S133.072,367.4,108.171,367.4c-40.429,0-77.312-23.257-81.51-71.917c-0.263,3.046-0.408,6.132-0.408,9.255v48.485 c0,52.994,38.965,95.953,81.919,95.953c24.898,0,88.851-21.148,136.398-21.148c47.546,0,104.723,21.148,134.592,21.148 c47.77,0,81.918-42.959,81.918-95.953v-42.141C461.08,307.658,460.977,304.278,460.773,300.95z M93.504,436.838 c-8.806,0-15.947-8.364-15.947-18.679c0-10.318,7.141-18.682,15.947-18.682c8.809,0,15.95,8.363,15.95,18.682 C109.454,428.474,102.313,436.838,93.504,436.838z M200.032,398.066c-8.806,0-15.947-8.365-15.947-18.68 c0-10.318,7.141-18.683,15.947-18.683c8.809,0,15.95,8.364,15.95,18.683C215.982,389.701,208.841,398.066,200.032,398.066z M309.267,427.675c-8.806,0-15.946-8.364-15.946-18.68c0-10.318,7.141-18.682,15.946-18.682c8.81,0,15.95,8.363,15.95,18.682 C325.217,419.311,318.076,427.675,309.267,427.675z M409.174,412.87c-8.806,0-15.946-8.365-15.946-18.679 c0-10.318,7.141-18.684,15.946-18.684c8.81,0,15.95,8.365,15.95,18.684C425.124,404.505,417.983,412.87,409.174,412.87z"/>
	</svg>

	<svg id="tool-zoom" viewBox="0 0 500 500">
		<path d="M445.951,396.636l-98.963-84.169c-10.231-9.207-21.172-13.434-30.011-13.026c23.361-27.363,37.473-62.866,37.473-101.665 c0-86.529-70.146-156.675-156.676-156.675C111.245,41.1,41.1,111.246,41.1,197.775S111.245,354.45,197.774,354.45 c38.8,0,74.303-14.111,101.666-37.474c-0.408,8.838,3.819,19.778,13.026,30.01l84.169,98.964 c14.412,16.013,37.953,17.362,52.315,3.001C463.312,434.589,461.963,411.048,445.951,396.636L445.951,396.636z M197.774,302.226 c-57.686,0-104.45-46.765-104.45-104.45s46.764-104.45,104.45-104.45c57.687,0,104.45,46.764,104.45,104.45 S255.462,302.226,197.774,302.226z"/>
	</svg>

	<svg id="icon-zoom-plus" viewBox="0 0 500 500">
		<path d="M445.951,396.636l-98.963-84.169c-10.231-9.207-21.172-13.434-30.011-13.026c23.361-27.363,37.473-62.866,37.473-101.665 c0-86.529-70.146-156.675-156.676-156.675C111.245,41.1,41.1,111.246,41.1,197.775S111.245,354.45,197.774,354.45 c38.8,0,74.303-14.111,101.666-37.474c-0.408,8.838,3.819,19.778,13.026,30.01l84.169,98.964 c14.412,16.013,37.953,17.362,52.315,3.001C463.312,434.589,461.963,411.048,445.951,396.636L445.951,396.636z M197.774,302.226 c-57.686,0-104.45-46.765-104.45-104.45s46.764-104.45,104.45-104.45c57.687,0,104.45,46.764,104.45,104.45 S255.462,302.226,197.774,302.226z"/>
		<line stroke="#000" stroke-width="37" x1="196.5" y1="273.216" x2="196.5" y2="127.785"/>
		<line stroke="#000" stroke-width="37" x1="123.783" y1="200.5" x2="269.216" y2="200.5"/>
	</svg>

	<svg id="icon-zoom-minus" viewBox="0 0 500 500">
		<path d="M445.951,396.636l-98.963-84.169c-10.231-9.207-21.172-13.434-30.011-13.026c23.361-27.363,37.473-62.866,37.473-101.665 c0-86.529-70.146-156.675-156.676-156.675C111.245,41.1,41.1,111.246,41.1,197.775S111.245,354.45,197.774,354.45 c38.8,0,74.303-14.111,101.666-37.474c-0.408,8.838,3.819,19.778,13.026,30.01l84.169,98.964 c14.412,16.013,37.953,17.362,52.315,3.001C463.312,434.589,461.963,411.048,445.951,396.636L445.951,396.636z M197.774,302.226 c-57.686,0-104.45-46.765-104.45-104.45s46.764-104.45,104.45-104.45c57.687,0,104.45,46.764,104.45,104.45 S255.462,302.226,197.774,302.226z"/>
		<line stroke="#000" stroke-width="37" x1="123.783" y1="200.5" x2="269.216" y2="200.5"/>
	</svg>

	<svg id="tool-eraser" viewBox="0 0 500 500">
		<polygon fill="#000000aa" points="254.282,421.101 20.424,421.101 58.855,283.912 288.624,283.912 "/>
		<polygon fill="#000" points="65.988,273.509 267.574,78.899 477.691,78.899 292.896,273.509 "/>
		<polygon fill="#00000080" points="267.574,413.877 458.667,191.5 479.576,91.537 300.663,280.05 "/>
	</svg>

	<svg id="tool-eraser-bg" viewBox="0 0 500 500">
		<polygon fill="#000000aa" points="254.282,453.101 20.424,453.101 58.855,315.912 288.624,315.912 "/>
		<polygon fill="#00000080" points="267.574,445.877 458.667,223.5 479.576,123.537 300.663,312.05 "/>
		<path fill="#000" d="M267.574,110.898l-26.572,25.652 c51.075,25.187,104.762,51.659,104.762,51.659l26.153,12.896l-25.7,13.778c-4.61,2.472-28.513,14.802-46.309,14.802 c-0.001,0-0.001,0-0.002,0c-1.284,0-2.546-0.062-3.748-0.185c-3.903-0.4-11.148-1.143-79.953-32.297 c-8.067-3.653-16.755-7.624-25.813-11.795l-124.405,120.1h226.909l184.795-194.61H267.574z"/>
		<path fill-rule="evenodd" clip-rule="evenodd" d="M339.445,59.355c0,0-26.691-15.119-41.29-14.011 c-13.737,1.029-136.422,55.251-150.948,61.687c-1.9-0.95-3.07-1.521-3.315-1.638c-3.561-1.753-21.26-5.33-28.313-2.646 c0.662-1.896,1.269-3.847,1.696-5.925c5.646-26.802-10.629-58.812-36.347-71.5c-25.711-12.676-57.745-4.493-63.395,22.32 c-5.647,26.806,18.306,57.019,44.019,69.698c14.072,6.953,26.921,8.901,38.128,3.196c8.9-4.542,19.893-0.618,27.333,6.832 c-7.526,7.591-18.838,11.58-27.906,6.687c-11.136-6.01-24.007-4.39-38.151,2.167c-25.861,11.989-50.157,41.557-44.817,68.514 c5.334,26.948,37.275,36.003,63.134,24.01c25.854-11.992,42.495-43.562,37.153-70.517c-0.411-2.089-0.979-4.052-1.624-5.963 c7.017,2.883,24.757-0.226,28.337-1.882c0.267-0.125,1.609-0.746,3.82-1.768c11.33,5.34,136.789,64.536,150.718,65.963 c14.592,1.485,41.453-12.915,41.453-12.915s-90.813-44.779-148.582-73.269C248.655,101.456,339.445,59.355,339.445,59.355z M105.639,91.084c-4.238,20.108-21.707,21.108-40.996,11.591c-19.287-9.503-41.36-30.011-37.118-50.117 c4.23-20.101,31.564-24.615,50.854-15.102C97.669,46.966,109.873,70.987,105.639,91.084z M76.856,216.546 c-19.393,8.993-46.674,3.743-50.677-16.472c-4-20.208,18.3-40.11,37.693-49.103c19.395-8.998,36.851-7.529,40.855,12.688 C108.732,183.871,96.253,207.56,76.856,216.546z"/>
	</svg>

	<svg id="tool-eraser-magic" viewBox="0 0 500 500">
		<polygon fill="#000000aa" points="254.282,441.101 20.424,441.101 58.855,303.912 288.624,303.912 "/>
		<polygon fill="#00000080" points="267.574,433.877 458.667,211.5 479.576,111.537 300.663,300.05 "/>
		<path stroke="#000" d="M267.574,98.898l-17.285,16.687c-1.402,2.824-3.477,5.339-6.149,7.281l-5.627,4.088l-42.31,40.846l16.668,51.302 c2.678,8.24-0.255,17.268-7.265,22.36c-3.505,2.546-7.631,3.82-11.756,3.82c-4.126,0-8.25-1.273-11.756-3.82l-35.487-25.783 l-80.62,77.83h226.909l184.795-194.61H267.574z"/>
		<polygon points="120.831,5.388 147.874,88.617 235.384,88.617 164.587,140.054 191.629,223.282 120.831,171.844 50.033,223.282 77.075,140.054 6.278,88.617 93.789,88.617 "/>
	</svg>

	<svg id="tool-shape-rect" viewBox="0 0 500 500">
		<rect x="39" y="97.5" fill="#00000050" stroke="#000" stroke-width="30" width="422" height="305"/>
	</svg>

	<svg id="tool-shape-rounded" viewBox="0 0 500 500">
		<path fill="#00000050" stroke="#000" stroke-width="30" d="M461,352.5 c0,27.614-22.386,50-50,50H89c-27.614,0-50-22.386-50-50v-205c0-27.614,22.386-50,50-50h322c27.614,0,50,22.386,50,50V352.5z"/>
	</svg>

	<svg id="tool-shape-elliptical" viewBox="0 0 500 500">
		<ellipse fill="#00000050" stroke="#000" stroke-width="30" cx="250" cy="250" rx="216.5" ry="157.5"/>
	</svg>

	<svg id="tool-shape-polygon" viewBox="0 0 500 500">
		<polygon fill="#00000050" stroke="#000" stroke-width="30" points="139.901,432.902 34.303,250 139.901,67.098 351.099,67.098 456.697,250 351.099,432.902 "/>
	</svg>

	<svg id="tool-shape-star" viewBox="0 0 500 500">
		<polygon fill="#00000050" stroke="#000" stroke-width="30" stroke-linejoin="round" points=" 250,44.029 301.125,201.377 466.57,201.377 332.723,298.623 383.848,455.971 250,358.725 116.152,455.971 167.277,298.623 33.43,201.377 198.875,201.377 "/>
	</svg>

	<svg id="tool-shape-star" viewBox="0 0 500 500">
		<polygon fill="#00000050" stroke="#000" stroke-width="30" stroke-linejoin="round" points=" 250,44.029 301.125,201.377 466.57,201.377 332.723,298.623 383.848,455.971 250,358.725 116.152,455.971 167.277,298.623 33.43,201.377 198.875,201.377 "/>
	</svg>

	<svg id="tool-shape-line" viewBox="0 0 500 500">
		<line fill="none" stroke="#000" stroke-width="40" stroke-linejoin="round" x1="429.5" y1="70.5" x2="70.5" y2="429.5"/>
	</svg>

	<svg id="tool-pointer" viewBox="0 0 500 500">
		<polygon fill="#000000b0" stroke="#00000" stroke-width="20" points="388.471,305.693 111.53,28.752 111.53,445.318 194.455,334.752 269.02,483.249 326.061,454.61 251.285,305.693 "/>
	</svg>

	<svg id="tool-pointer-object" viewBox="0 0 500 500">
		<polygon fill="#ffffffb0" stroke="#000" stroke-width="20" points="388.471,305.693 111.53,28.752 111.53,445.318 194.455,334.752 269.02,483.249 326.061,454.61 251.285,305.693 "/>
	</svg>

	<svg id="tool-hand" viewBox="0 0 500 500">
		<path d="M267.821,36.151c-17.264,0-31.187,13.923-31.187,31.187V250h-8.911V102.979c0-17.264-13.922-31.186-31.186-31.186 s-31.187,13.922-31.187,31.186v218.303l-42.881-57.081C115.788,255.29,105.207,250,94.069,250c-19.77,0-35.642,16.15-35.642,35.642 c0,7.797,2.506,15.314,7.24,21.44l106.924,142.566c6.684,8.91,17.264,14.2,28.402,14.2h191.574c12.808,0,23.946-9.188,26.452-21.72 l21.161-112.771c0.836-5.29,1.394-10.858,1.394-16.428V174.262c0-17.264-13.923-31.187-31.187-31.187S379.2,156.998,379.2,174.262 V250h-8.91V102.979c0-17.264-13.923-31.186-31.187-31.186s-31.187,13.922-31.187,31.186V250h-8.91V67.337 C299.007,50.074,285.085,36.151,267.821,36.151z M267.821,0.51c25.06,0,48.171,14.201,59.587,36.755 c3.898-0.835,7.797-1.114,11.695-1.114c36.755,0,66.828,30.073,66.828,66.828v4.733c38.704-2.228,71.282,27.567,71.282,66.55V312.93 c0,7.797-0.835,15.593-2.227,23.111l-21.163,112.493c-5.29,29.516-31.187,50.956-61.258,50.956H200.993 c-22.276,0-43.716-10.859-57.082-28.401L36.987,328.522c-9.189-12.252-14.201-27.566-14.201-42.881 c0-39.261,31.744-71.283,71.283-71.283c11.695,0,25.896,2.784,35.641,9.467V102.979c0-36.755,30.073-66.828,66.828-66.828 c3.898,0,7.796,0.279,11.695,1.114C219.649,14.71,242.76,0.51,267.821,0.51z"/>
	</svg>
	
	<svg id="tool-other-tools" viewBox="0 0 500 500">
		<circle cx="250" cy="250" r="46.5"/>
		<circle cx="409" cy="250" r="46.5"/>
		<circle cx="91" cy="250" r="46.5"/>
	</svg>

	<svg id="tool-pipette" viewBox="0 0 500 500">
		<path d="M446.438,53.562c-19.64-19.641-51.483-19.641-71.123,0l-67.626,67.625L260,73.5l-53.342,53.343l41.815,41.815 L62.975,354.155c-3.163,3.163-4.506,7.45-4.047,11.575h-0.096l-20,82.864c0,6.944,5.629,12.573,12.573,12.573l82.865-20 c0,0,1.047,0,1.571,0c3.62,0,7.239-1.382,10.002-4.143l185.498-185.498l41.814,41.815L426.499,240l-47.688-47.688l67.626-67.626 C466.078,105.044,466.078,73.203,446.438,53.562z M146.84,396.022l-22.862-20l-20-22.861l164.499-164.499l42.862,42.862 L146.84,396.022z"/>
	</svg>

	<svg id="tool-ruler" viewBox="0 0 500 500">
		<rect x="40.333" y="160.144" fill="none" stroke="#000" stroke-width="25.223" width="419.333" height="179.714"/>
		<line fill="none" stroke="#000" stroke-width="25.223" x1="100.237" y1="250.001" x2="100.237" y2="339.857"/>
		<line fill="none" stroke="#000" stroke-width="25.223" x1="172.753" y1="294.93" x2="172.753" y2="339.857"/>
		<line fill="none" stroke="#000" stroke-width="25.223" x1="249.999" y1="250.001" x2="249.999" y2="339.857"/>
		<line fill="none" stroke="#000" stroke-width="25.223" x1="322.516" y1="294.93" x2="322.516" y2="339.857"/>
		<line fill="none" stroke="#000" stroke-width="25.223" x1="401.338" y1="250.001" x2="401.338" y2="339.857"/>
	</svg>

	<svg id="tool-stamp-clone" viewBox="0 0 500 500">
		<path d="M417.42,453.71c0,14.279-28.81,13.788-43.089,13.788H125.67c-14.278,0-43.09,0.491-43.09-13.788v-19.767h334.84V453.71z"/>
		<path d="M415.176,313.441h-87.992c-17.947-7.78-43.051-5.441-43.051-75.663c0-57.052,25.329-83.479,25.329-83.479h-0.012 c9.735-12.754,15.527-28.678,15.527-45.962c0-41.884-33.953-75.837-75.837-75.837c-41.885,0-75.838,33.953-75.838,75.837 c0,17.284,5.793,33.208,15.527,45.962h-0.303c0,0,23.256,23.842,23.256,86.288c0,63.413-25.768,60.835-39.286,72.854H84.824 c-14.277,0-25.854,11.575-25.854,25.854v65.496c0,14.28,11.576,12.064,25.854,12.064h330.352c14.279,0,25.854,2.216,25.854-12.064 v-65.496C441.029,325.017,429.455,313.441,415.176,313.441z"/>
	</svg>

	<svg id="tool-stamp-pattern" viewBox="0 0 500 500">
		<path d="M417.42,453.71c0,14.279-28.81,13.788-43.089,13.788H125.67c-14.278,0-43.09,0.491-43.09-13.788v-19.767h334.84V453.71z"/>
		<path d="M415.176,313.441h-87.992c-17.947-7.78-43.051-5.441-43.051-75.663c0-57.052,25.329-83.479,25.329-83.479h-0.012 c9.735-12.754,15.527-28.678,15.527-45.962c0-41.884-33.953-75.837-75.837-75.837c-41.885,0-75.838,33.953-75.838,75.837 c0,17.284,5.793,33.208,15.527,45.962h-0.303c0,0,23.256,23.842,23.256,86.288c0,63.413-25.768,60.835-39.286,72.854H84.824 c-14.277,0-25.854,11.575-25.854,25.854v65.496c0,14.28,11.576,12.064,25.854,12.064h330.352c14.279,0,25.854,2.216,25.854-12.064 v-65.496C441.029,325.017,429.455,313.441,415.176,313.441z"/>
		<rect fill="#ffffff80" width="161" height="161"/>
		<rect fill="#000" width="53.667" height="53.667"/>
		<rect x="53.667" y="53.667" fill="#000" width="53.667" height="53.667"/>
		<rect x="107.333" y="107.333" fill="#000" width="53.667" height="53.667"/>
		<rect x="107.333" fill="#000" width="53.667" height="53.667"/>
		<rect y="107.333" fill="#000" width="53.667" height="53.667"/>
	</svg>

	<svg id="tool-healing-brush" viewBox="0 0 500 500">
		<path fill="#00000020" stroke="#000" stroke-width="20" d="M147.043,471.36 c-21.324,21.324-55.897,21.324-77.22,0L28.64,430.177c-21.323-21.323-21.323-55.894,0-77.218L352.959,28.64 c21.323-21.323,55.896-21.323,77.219,0l41.184,41.183c21.324,21.323,21.324,55.896,0,77.219L147.043,471.36z"/>
		<path fill="#00000080" d="M337.649,208.089l-45.738-45.739c-13.361-13.36-35.025-13.362-48.386,0l-81.174,81.174 c-13.362,13.362-13.361,35.026,0,48.386l45.739,45.738c13.361,13.362,35.024,13.362,48.385,0l81.175-81.173 C351.012,243.114,351.012,221.452,337.649,208.089z M208.712,264.842c-5.067,5.067-13.282,5.067-18.349,0 c-5.067-5.067-5.067-13.284,0-18.35c5.067-5.067,13.282-5.067,18.349,0C213.779,251.558,213.779,259.774,208.712,264.842z  M253.507,309.638c-5.066,5.067-13.282,5.067-18.349,0s-5.067-13.282,0-18.35s13.283-5.067,18.349,0 C258.574,296.355,258.574,304.57,253.507,309.638z M264.841,208.712c-5.067,5.067-13.282,5.067-18.349,0 c-5.067-5.067-5.067-13.282,0-18.349c5.066-5.067,13.281-5.067,18.349,0C269.908,195.431,269.908,203.646,264.841,208.712z  M309.637,253.508c-5.067,5.067-13.282,5.067-18.35,0c-5.067-5.067-5.067-13.283,0-18.35c5.067-5.066,13.282-5.066,18.35,0 C314.704,240.225,314.704,248.441,309.637,253.508z"/>
		<circle cx="121.281" cy="333.924" r="9"/>
		<circle cx="166.077" cy="378.719" r="9"/>
		<circle cx="75.947" cy="379.258" r="9"/>
		<circle cx="120.741" cy="424.053" r="9"/>
		<circle cx="379.259" cy="75.946" r="9"/>
		<circle cx="424.054" cy="120.741" r="9"/>
		<circle cx="333.923" cy="121.281" r="9"/>
		<circle cx="378.719" cy="166.076" r="9"/>
	</svg>

	<svg id="tool-spot-healing-brush" viewBox="0 0 500 500">
		<path fill="#00000020" stroke="#000" stroke-width="20" d="M147.043,471.36 c-21.324,21.324-55.897,21.324-77.22,0L28.64,430.177c-21.323-21.323-21.323-55.894,0-77.218L352.959,28.64 c21.323-21.323,55.896-21.323,77.219,0l41.184,41.183c21.324,21.323,21.324,55.896,0,77.219L147.043,471.36z"/>
		<path fill="#00000080" d="M337.649,208.089l-45.738-45.739c-13.361-13.36-35.025-13.362-48.386,0l-81.174,81.174 c-13.362,13.362-13.361,35.026,0,48.386l45.739,45.738c13.361,13.362,35.024,13.362,48.385,0l81.175-81.173 C351.012,243.114,351.012,221.452,337.649,208.089z M208.712,264.842c-5.067,5.067-13.282,5.067-18.349,0 c-5.067-5.067-5.067-13.284,0-18.35c5.067-5.067,13.282-5.067,18.349,0C213.779,251.558,213.779,259.774,208.712,264.842z  M253.507,309.638c-5.066,5.067-13.282,5.067-18.349,0s-5.067-13.282,0-18.35s13.283-5.067,18.349,0 C258.574,296.355,258.574,304.57,253.507,309.638z M264.841,208.712c-5.067,5.067-13.282,5.067-18.349,0 c-5.067-5.067-5.067-13.282,0-18.349c5.066-5.067,13.281-5.067,18.349,0C269.908,195.431,269.908,203.646,264.841,208.712z  M309.637,253.508c-5.067,5.067-13.282,5.067-18.35,0c-5.067-5.067-5.067-13.283,0-18.35c5.067-5.066,13.282-5.066,18.35,0 C314.704,240.225,314.704,248.441,309.637,253.508z"/>
		<circle cx="121.281" cy="333.924" r="9"/>
		<circle cx="166.077" cy="378.719" r="9"/>
		<circle cx="75.947" cy="379.258" r="9"/>
		<circle cx="120.741" cy="424.053" r="9"/>
		<circle cx="379.259" cy="75.946" r="9"/>
		<circle cx="424.054" cy="120.741" r="9"/>
		<circle cx="333.923" cy="121.281" r="9"/>
		<circle cx="378.719" cy="166.076" r="9"/>
		<path fill="none" stroke="#000" stroke-width="20" stroke-dasharray="30" d="M60.88,320.729 c-21.536-11.794-36.139-34.669-36.139-60.954V93.097c0-38.355,31.094-69.449,69.449-69.449h27.78 c38.355,0,69.449,31.094,69.449,69.449v97.083"/>
	</svg>

	<svg id="tool-content-move" viewBox="0 0 500 500">
		<path d="M373.76,169.664h22.356v69.547L493,141.427L396.092,43.62v58.003h-22.355c-89.765,0-140.358,66.534-185.021,125.195 c-40.143,52.779-74.843,98.391-130.88,98.391H7v68.015h50.86c89.764,0,140.356-66.486,185.02-125.192 C283.023,215.227,317.725,169.664,373.76,169.664L373.76,169.664z M138.464,212.529c3.838-4.933,7.677-10.011,11.59-15.139 c9.476-12.491,19.537-25.637,30.424-38.783c-32.125-29.986-70.835-52.099-122.619-52.099H7v68.015h50.86 C90.106,174.523,115.256,189.663,138.464,212.529z M396.092,330.045h-22.355c-34.191,0-60.436-17.035-84.832-42.235 c-2.431,3.185-4.885,6.416-7.362,9.647c-10.718,14.093-22.235,29.185-34.968,44.179c32.951,32.173,72.9,56.473,127.138,56.473 h22.355v58.272L493,358.572l-96.908-97.809V330.045L396.092,330.045z"/>
	</svg>

	<svg id="tool-patch" viewBox="0 0 500 500">
		<path fill="#00000030" stroke="#000" stroke-width="15" d="M422,373.32c0,26.885-21.795,48.68-48.68,48.68 H126.679C99.795,422,78,400.205,78,373.32V126.679C78,99.795,99.795,78,126.679,78H373.32C400.205,78,422,99.795,422,126.679V373.32 z"/>
		<line fill="none" stroke="#000" stroke-width="15" stroke-linecap="round" x1="124.75" y1="250" x2="31.25" y2="250"/>
		<line fill="none" stroke="#000" stroke-width="15" stroke-linecap="round" x1="468.75" y1="250" x2="375.25" y2="250"/>
		<line fill="none" stroke="#000" stroke-width="15" stroke-linecap="round" x1="250" y1="124.75" x2="250" y2="31.25"/>
		<line fill="none" stroke="#000" stroke-width="15" stroke-linecap="round" x1="250" y1="468.75" x2="250" y2="375.25"/>
		<line fill="none" stroke="#000" stroke-width="15" stroke-linecap="round" x1="332.5" y1="124.75" x2="332.5" y2="31.25"/>
		<line fill="none" stroke="#000" stroke-width="15" stroke-linecap="round" x1="332.5" y1="468.75" x2="332.5" y2="375.25"/>
		<line fill="none" stroke="#000" stroke-width="15" stroke-linecap="round" x1="163" y1="124.75" x2="163" y2="31.25"/>
		<line fill="none" stroke="#000" stroke-width="15" stroke-linecap="round" x1="163" y1="468.75" x2="163" y2="375.25"/>
		<line fill="none" stroke="#000" stroke-width="15" stroke-linecap="round" x1="375.251" y1="334.75" x2="468.751" y2="334.75"/>
		<line fill="none" stroke="#000" stroke-width="15" stroke-linecap="round" x1="31.25" y1="334.75" x2="124.75" y2="334.75"/>
		<line fill="none" stroke="#000" stroke-width="15" stroke-linecap="round" x1="375.251" y1="165.25" x2="468.751" y2="165.25"/>
		<line fill="none" stroke="#000" stroke-width="15" stroke-linecap="round" x1="31.25" y1="165.25" x2="124.75" y2="165.25"/>
	</svg>

	<svg id="tool-red-eye" viewBox="0 0 500 500">
		<path d="M269.8,212.25c-100.405,0-187.435,58.468-230.199,143.875C82.365,441.531,169.395,500,269.8,500 c100.403,0,187.431-58.469,230.2-143.875C457.235,270.718,370.203,212.25,269.8,212.25z M383.304,288.551 c27.05,17.253,49.971,40.363,67.188,67.574c-17.217,27.211-40.139,50.321-67.188,67.574c-33.989,21.68-73.238,33.138-113.504,33.138 c-40.268,0-79.518-11.458-113.504-33.138c-27.049-17.252-49.97-40.363-67.188-67.574c17.217-27.212,40.139-50.322,67.188-67.574 c1.762-1.124,3.541-2.214,5.332-3.282c-4.479,12.287-6.928,25.548-6.928,39.384c0,63.567,51.532,115.101,115.1,115.101 S384.9,388.22,384.9,324.652c0-13.836-2.451-27.097-6.929-39.385C379.762,286.336,381.542,287.427,383.304,288.551L383.304,288.551 L383.304,288.551z M269.8,312.963c0,23.838-19.324,43.162-43.162,43.162c-23.839,0-43.162-19.324-43.162-43.162 c0-23.839,19.323-43.162,43.162-43.162C250.476,269.801,269.8,289.125,269.8,312.963z"/>
		<line fill="none" stroke="#000" stroke-width="20" stroke-linecap="round" x1="8.5" y1="122.5" x2="234.5" y2="122.5"/>
		<line fill="none" stroke="#000" stroke-width="20" stroke-linecap="round" x1="121.5" y1="9.5" x2="121.5" y2="235.5"/>
	</svg>

	<svg id="tool-gradient" viewBox="0 0 500 500">
		<linearGradient id="SVGID_1_" gradientUnits="userSpaceOnUse" x1="14.5" y1="250" x2="485.5" y2="250">
			<stop offset="0" style="stop-color:transparent"/>
			<stop offset="1" style="stop-color:#000"/>
		</linearGradient>
		<rect x="14.5" y="89.526" fill="url(#SVGID_1_)" stroke="#000" stroke-width="20" stroke-linecap="round" width="471" height="320.947"/>
	</svg>

	<svg id="tool-fill" viewBox="0 0 500 500">
		<path d="M490.177,391.073C478.329,358.021,438.067,325,426.64,274.817c-10.14,46.683-51.689,83.204-63.538,116.256
			c-7.325,20.439-8.053,42.623,2.269,62.235c11.862,22.549,35.789,37.016,61.27,37.016c25.482,0,49.405-14.467,61.271-37.016
			C498.229,433.696,497.504,411.513,490.177,391.073L490.177,391.073z"/>
		<path fill="none" stroke="#000" stroke-width="21.6695" d="M236.548,433.107
			c-2.411,3.564-7.255,4.5-10.818,2.088L12.751,291.124c-3.562-2.412-4.498-7.256-2.086-10.821l164.02-237.518
			c2.41-3.564,7.256-4.499,10.82-2.09l249.136,171.882c3.564,2.411,4.5,7.255,2.087,10.821l-75.1,24.808L236.548,433.107z"/>
		<path fill="#000" d="M434.641,212.577l-3.936-2.662H58.28l-47.615,70.388c-2.412,3.565-1.477,8.409,2.086,10.821l212.979,144.071
			c3.563,2.412,8.407,1.477,10.818-2.088l125.08-184.901l75.1-24.808C439.141,219.832,438.205,214.988,434.641,212.577z"/>
	</svg>

	<svg id="tool-brush" viewBox="0 0 500 500">
		<path d="M432.544,130.251c-21.405,26.019-80.093,97.864-126.711,154.972l-59.191-60.093 c53.537-47.646,119.806-106.537,143.755-127.626c42.604-37.551,79.966-59.888,88.086-50.758 C483.568,51.802,470.062,84.598,432.544,130.251L432.544,130.251z M295.485,297.86c-18.056,22.101-33.6,41.136-43.109,52.811 l-70.077-68.292c11.358-10.11,30.268-26.934,52.194-46.429L295.485,297.86z M241.934,363.467v-0.189 c-40.678,156.077-221.446,66.349-221.446,66.349s75.843,9.558,75.843-61.183c0-68.576,69.697-74.769,73.979-75.085l71.767,69.935 C242.075,363.309,241.934,363.467,241.934,363.467L241.934,363.467z"/>
	</svg>

	<svg id="tool-pen" viewBox="0 0 500 500">
		<path d="M486.37,182.286L357.308,53.225c-4.211-4.211-9.764-3.264-12.342,2.105l-17.304,36.051l120.552,120.552l36.051-17.304 C489.634,192.052,490.581,186.498,486.37,182.286L486.37,182.286z"/>
		<path d="M304.645,111.675l-108.832,29.903c-7.896,0.977-14.474,2.661-16.734,12.972c-0.002,0.011-0.005,0.019-0.008,0.03 C146.847,309.364,43.594,457,43.594,457l9.292,9.292l122.712-122.715c-2.705-5.653-4.223-11.984-4.223-18.671 c0-23.921,19.392-43.312,43.312-43.312S258,300.985,258,324.906s-19.392,43.312-43.312,43.312c-6.687,0-13.017-1.518-18.671-4.223 L73.303,486.709L81.594,495c0,0,148.636-102.253,303.42-134.476c0.01-0.004,0.019-0.007,0.029-0.009 c10.312-2.261,11.995-8.839,12.973-16.734l29.902-108.832L304.645,111.675L304.645,111.675z"/>
	</svg>

	<svg id="tool-pen-plus-anchor" viewBox="0 0 500 500">
		<path d="M486.37,182.286L357.308,53.225c-4.211-4.211-9.764-3.264-12.342,2.105l-17.304,36.051l120.552,120.552l36.051-17.304 C489.634,192.052,490.581,186.498,486.37,182.286L486.37,182.286z"/>
		<path d="M304.645,111.675l-108.832,29.903c-7.896,0.977-14.474,2.661-16.734,12.972c-0.002,0.011-0.005,0.019-0.008,0.03 C146.847,309.364,43.594,457,43.594,457l9.292,9.292l122.712-122.715c-2.705-5.653-4.223-11.984-4.223-18.671 c0-23.921,19.392-43.312,43.312-43.312S258,300.985,258,324.906s-19.392,43.312-43.312,43.312c-6.687,0-13.017-1.518-18.671-4.223 L73.303,486.709L81.594,495c0,0,148.636-102.253,303.42-134.476c0.01-0.004,0.019-0.007,0.029-0.009 c10.312-2.261,11.995-8.839,12.973-16.734l29.902-108.832L304.645,111.675L304.645,111.675z"/>
		<line fill="none" stroke="#000" stroke-width="42" x1="18.783" y1="88.5" x2="164.216" y2="88.5"/>
		<line fill="none" stroke="#000" stroke-width="42" x1="91.5" y1="15.783" x2="91.5" y2="161.217"/>
	</svg>

	<svg id="tool-pen-minus-anchor" viewBox="0 0 500 500">
		<path d="M486.37,182.286L357.308,53.225c-4.211-4.211-9.764-3.264-12.342,2.105l-17.304,36.051l120.552,120.552l36.051-17.304 C489.634,192.052,490.581,186.498,486.37,182.286L486.37,182.286z"/>
		<path d="M304.645,111.675l-108.832,29.903c-7.896,0.977-14.474,2.661-16.734,12.972c-0.002,0.011-0.005,0.019-0.008,0.03 C146.847,309.364,43.594,457,43.594,457l9.292,9.292l122.712-122.715c-2.705-5.653-4.223-11.984-4.223-18.671 c0-23.921,19.392-43.312,43.312-43.312S258,300.985,258,324.906s-19.392,43.312-43.312,43.312c-6.687,0-13.017-1.518-18.671-4.223 L73.303,486.709L81.594,495c0,0,148.636-102.253,303.42-134.476c0.01-0.004,0.019-0.007,0.029-0.009 c10.312-2.261,11.995-8.839,12.973-16.734l29.902-108.832L304.645,111.675L304.645,111.675z"/>
		<line fill="none" stroke="#000" stroke-width="42" x1="18.783" y1="88.5" x2="164.216" y2="88.5"/>
	</svg>

	<svg id="tool-pen-free" viewBox="0 0 500 500">
		<path d="M486.37,182.286L357.308,53.225c-4.211-4.211-9.764-3.264-12.342,2.105l-17.304,36.051l120.552,120.552l36.051-17.304 C489.634,192.052,490.581,186.498,486.37,182.286L486.37,182.286z"/>
		<path d="M304.645,111.675l-108.832,29.903c-7.896,0.977-14.474,2.661-16.734,12.972c-0.002,0.011-0.005,0.019-0.008,0.03 C146.847,309.364,43.594,457,43.594,457l9.292,9.292l122.712-122.715c-2.705-5.653-4.223-11.984-4.223-18.671 c0-23.921,19.392-43.312,43.312-43.312S258,300.985,258,324.906s-19.392,43.312-43.312,43.312c-6.687,0-13.017-1.518-18.671-4.223 L73.303,486.709L81.594,495c0,0,148.636-102.253,303.42-134.476c0.01-0.004,0.019-0.007,0.029-0.009 c10.312-2.261,11.995-8.839,12.973-16.734l29.902-108.832L304.645,111.675L304.645,111.675z"/>
		<path fill="none" stroke="#000" stroke-width="42" stroke-dasharray="40" d="M39.5,32.5 c80,0,123,69,53.422,126.436C8.575,228.563,30.5,359.5,49.5,410.5"/>
	</svg>

	<svg id="tool-pen-convert" viewBox="0 0 500 500">
		<polyline fill="none" stroke="#000" stroke-width="40" points="433.234,368.634 164.68,75.661 164.68,473.096"/>
	</svg>

	<svg id="tool-marquee-rect" viewBox="0 0 500 500">
		<rect x="188.114" y="42.5" width="121.354" height="43.685"/>
		<rect x="24.299" y="205.107" width="43.685" height="92.203"/>
		<rect x="188.114" y="413.816" width="121.354" height="43.684"/>
		<rect x="432.019" y="205.107" width="43.684" height="92.203"/>
		<polygon points="360.435,86.185 432.019,86.185 432.019,154.143 475.702,154.143 475.702,42.5 360.435,42.5"/>
		<polygon points="67.983,154.143 67.983,86.185 137.149,86.185 137.149,42.5 24.299,42.5 24.299,154.143"/>
		<polygon points="137.149,413.816 67.983,413.816 67.983,348.275 24.299,348.275 24.299,457.5 137.149,457.5"/>
		<polygon points="432.019,348.275 432.019,413.816 360.435,413.816 360.435,457.5 475.702,457.5 475.702,348.275"/>
	</svg>

	<svg id="tool-marquee-circle" viewBox="0 0 500 500">
		<circle fill="none" stroke="#000" stroke-width="30" stroke-dasharray="96" cx="250" cy="250" r="213.833"/>
	</svg>

	<svg id="tool-type-horizontal" viewBox="0 0 500 500">
		<path d="M411.816,51.966l4.381,92.885h-11.099c-2.146-16.358-5.067-28.042-8.765-35.052 c-6.038-11.29-14.069-19.615-24.099-24.974c-10.028-5.354-23.218-8.033-39.576-8.033h-55.786v302.602 c0,24.346,2.627,39.533,7.884,45.566c7.398,8.178,18.788,12.27,34.174,12.27h13.729v10.805H164.71v-10.805h14.021 c16.744,0,28.624-5.064,35.634-15.191c4.281-6.229,6.428-20.445,6.428-42.645v-302.6H173.18c-18.501,0-31.646,1.363-39.431,4.088 c-10.129,3.702-18.795,10.809-25.996,21.323c-7.207,10.516-11.492,24.733-12.852,42.646h-11.1l4.673-92.885H411.816z"/>
	</svg>

	<svg id="tool-type-vertical" viewBox="0 0 500 500">
		<path display="inline" d="M451.816,51.966l4.381,92.885h-11.099c-2.146-16.358-5.067-28.042-8.765-35.052 c-6.038-11.29-14.069-19.615-24.099-24.974c-10.028-5.354-23.218-8.033-39.576-8.033h-55.786v302.602 c0,24.346,2.627,39.533,7.884,45.566c7.398,8.178,18.788,12.27,34.174,12.27h13.729v10.805H204.71v-10.805h14.021 c16.744,0,28.624-5.064,35.634-15.191c4.281-6.229,6.428-20.445,6.428-42.645v-302.6H213.18c-18.501,0-31.646,1.363-39.431,4.088 c-10.129,3.702-18.795,10.809-25.996,21.323c-7.207,10.516-11.492,24.733-12.852,42.646h-11.1l4.673-92.885H451.816z"/>
		<polygon points="74.834,352.183 74.834,51.966 44.833,51.966 44.833,352.183 4.485,352.183 59.833,448.034 115.182,352.183"/>
	</svg>

	<svg id="tool-type-horizontal-mask" viewBox="0 0 500 500">
		<path fill="#00000020" stroke="#000" stroke-width="20" stroke-dasharray="30" d=" M411.816,51.966l4.381,92.885h-11.099c-2.146-16.358-5.067-28.042-8.765-35.052c-6.038-11.29-14.069-19.615-24.099-24.974 c-10.028-5.354-23.218-8.033-39.576-8.033h-55.786v302.602c0,24.346,2.627,39.533,7.884,45.566 c7.398,8.178,18.788,12.27,34.174,12.27h13.729v10.805H164.71v-10.805h14.021c16.744,0,28.624-5.064,35.634-15.191 c4.281-6.229,6.428-20.445,6.428-42.645v-302.6H173.18c-18.501,0-31.646,1.363-39.431,4.088 c-10.129,3.702-18.795,10.809-25.996,21.323c-7.207,10.516-11.492,24.733-12.852,42.646h-11.1l4.673-92.885H411.816z"/>
	</svg>

	<svg id="tool-type-vertical-mask" viewBox="0 0 500 500">
		<path fill="#00000020" stroke="#000" stroke-width="20" stroke-dasharray="30" d="M451.816,51.966 l4.381,92.885h-11.099c-2.146-16.358-5.067-28.042-8.765-35.052c-6.038-11.29-14.069-19.615-24.099-24.974 c-10.028-5.354-23.218-8.033-39.576-8.033h-55.786v302.602c0,24.346,2.627,39.533,7.884,45.566 c7.398,8.178,18.788,12.27,34.174,12.27h13.729v10.805H204.71v-10.805h14.021c16.744,0,28.624-5.064,35.634-15.191 c4.281-6.229,6.428-20.445,6.428-42.645v-302.6H213.18c-18.501,0-31.646,1.363-39.431,4.088 c-10.129,3.702-18.795,10.809-25.996,21.323c-7.207,10.516-11.492,24.733-12.852,42.646h-11.1l4.673-92.885H451.816z"/>
		<polygon points="74.834,352.183 74.834,51.966 44.833,51.966 44.833,352.183 4.485,352.183 59.833,448.034 115.182,352.183"/>
	</svg>

	<svg id="tool-pressure" viewBox="0 0 500 500">
		<path d="M113.302,250c0,75.375,61.322,136.698,136.698,136.698c75.375,0,136.698-61.323,136.698-136.698 c0-21.798-5.139-42.416-14.251-60.72c-1.404,1.719-2.795,3.422-4.16,5.095c-1.009,1.235-2.222,2.26-3.571,3.043 c-0.489,1.449-1.242,2.833-2.262,4.08c-1.644,2.012-3.245,3.974-4.808,5.885c5.243,13.196,8.128,27.576,8.128,42.617 c0,63.839-51.936,115.774-115.774,115.774c-63.838,0-115.775-51.936-115.775-115.774c0-63.838,51.937-115.775,115.775-115.775 c21.088,0,40.874,5.67,57.921,15.561c0.452-0.402,0.901-0.802,1.359-1.208c1.201-1.067,2.547-1.875,3.966-2.424 c0.723-1.371,1.691-2.615,2.873-3.667c2.632-2.342,5.347-4.757,8.113-7.219c-21.391-13.887-46.885-21.965-74.232-21.965 C174.625,113.302,113.302,174.625,113.302,250z"/>
		<path d="M432.619,115.661c-3.911,4.771-8.611,10.514-13.809,16.867c23.265,33.331,36.934,73.833,36.934,117.472 c0,113.447-92.297,205.744-205.744,205.744S44.256,363.447,44.256,250S136.553,44.256,250,44.256 c47.924,0,92.071,16.472,127.084,44.049c6.259-5.55,11.739-10.405,15.974-14.147C352.744,41.236,302.75,23.333,250,23.333 c-60.544,0-117.466,23.578-160.278,66.389C46.911,132.534,23.333,189.456,23.333,250c0,60.545,23.578,117.466,66.389,160.278 c42.812,42.812,99.733,66.389,160.278,66.389c60.545,0,117.466-23.577,160.278-66.389c42.812-42.812,66.389-99.733,66.389-160.278 C476.667,200.991,461.213,154.359,432.619,115.661z"/>
		<path d="M429.287,98.46c-12.059,14.656-45.117,55.127-71.377,87.296l-33.344-33.851c30.157-26.838,67.488-60.013,80.979-71.893 c23.999-21.152,45.045-33.735,49.619-28.591C458.029,54.27,450.421,72.743,429.287,98.46L429.287,98.46z M352.082,192.876 c-10.172,12.45-18.928,23.172-24.285,29.748l-39.476-38.468c6.398-5.696,17.05-15.172,29.401-26.153L352.082,192.876z M321.915,229.833v-0.107c-22.914,87.919-124.742,37.375-124.742,37.375s42.723,5.384,42.723-34.465 c0-38.63,39.26-42.118,41.671-42.295l40.427,39.394C321.994,229.744,321.915,229.833,321.915,229.833L321.915,229.833z"/>
	</svg>

	<svg id="tool-lasso" viewBox="0 0 500 500">
		<ellipse fill="none" stroke="#000" stroke-width="30" cx="250" cy="158.732" rx="195.83" ry="120.731"/>
		<ellipse fill="none" stroke="#000" stroke-width="30" cx="148.671" cy="247.844" rx="25.872" ry="18.686"/>
		<ellipse fill="none" stroke="#000" stroke-width="30" cx="138.61" cy="299.587" rx="64.318" ry="44.556"/>
		<path fill="none" stroke="#000" stroke-width="30" d="M166.637,339.699 c47.431-2.156,95.22,43.969,36.291,122.301"/>
	</svg>

	<svg id="tool-lasso-polygon" viewBox="0 0 500 500">
		<ellipse fill="none" stroke="#000" stroke-width="28.9506" cx="140.86" cy="307.146" rx="62.069" ry="42.997"/>
		<path fill="none" stroke="#000" stroke-width="30" d="M202.928,462 C215,392,177.367,327.559,134.5,307.146L50.1,250L107,63l103.5,75.5l156.084-85.399L444,342l-241.072-32.5"/>
	</svg>

	<svg id="tool-lasso-magnetic" viewBox="0 0 500 500">
		<ellipse fill="none" stroke="#000" stroke-width="26.5216" cx="116.586" cy="299.277" rx="56.861" ry="39.389"/>
		<path fill="none" stroke="#000" stroke-width="27.483" d="M173.447,441.139 c11.059-64.127-23.417-123.162-62.687-141.861l-77.319-52.352L53.5,61.5l158,90l49-109l185,108L173.447,301.434"/>
		<path fill="none" stroke="#000" stroke-width="13.0866" d="M281.535,459.624v-49.075h127.771 c4.51,0,8.179-3.668,8.179-8.178v-61.344c0-4.51-3.669-8.178-8.179-8.178H281.535v-49.075h127.771 c31.568,0,57.253,25.684,57.253,57.253v61.344c0,31.568-25.685,57.253-57.253,57.253H281.535z"/>
		<path d="M320.153,459.624v-49.075h89.152c4.51,0,8.179-3.668,8.179-8.178v-61.344c0-4.51-3.669-8.178-8.179-8.178h-89.152v-49.075 h89.152c31.568,0,57.253,25.684,57.253,57.253v61.344c0,31.568-25.685,57.253-57.253,57.253H320.153z"/>
	</svg>

	<svg id="icon-selection-ring" viewBox="0 0 500 500">
		<circle fill="none" stroke="#fff" stroke-width="29" cx="250" cy="250" r="190"/>
		<circle fill="none" stroke="#000" stroke-width="29" stroke-dasharray="64" cx="250" cy="250" r="190"/>
	</svg>

	<svg id="icon-layer-path-fill" viewBox="0 0 500 500">
		<circle fill="#00000060" stroke="#000" stroke-width="29" cx="250" cy="250" r="170"/>
	</svg>

	<svg id="icon-layer-path-brush" viewBox="0 0 500 500">
		<circle fill="none" stroke="#000" stroke-width="29" cx="250" cy="250" r="170"/>
	</svg>

	<svg id="icon-layer-path-from-selection" viewBox="0 0 500 500">
		<circle fill="none" stroke="#000" stroke-width="29" cx="250" cy="250" r="175"/>
		<rect x="210" y="10" width="80" height="80"/>
		<rect x="210" y="410" width="80" height="80"/>
		<rect x="410" y="210" width="80" height="80"/>
		<rect x="10" y="210" width="80" height="80"/>
	</svg>

	<svg id="icon-line-solid" viewBox="0 0 450 150">
		<line fill="none" stroke="#000" stroke-width="25" x1="0" y1="75" x2="450" y2="75"/>
	</svg>

	<svg id="icon-line-dashed" viewBox="0 0 450 150">
		<line fill="none" stroke="#000" stroke-width="25" stroke-dasharray="60,30" x1="0" y1="75" x2="450" y2="75"/>
	</svg>

	<svg id="icon-line-dotted" viewBox="0 0 450 150">
		<line fill="none" stroke="#000" stroke-width="25" stroke-dasharray="25,25" x1="0" y1="75" x2="450" y2="75"/>
	</svg>

	<svg id="icon-marquee-new" viewBox="0 0 500 500">
		<rect x="70.833" y="70.833" fill="#00000070" stroke="#000000b0" stroke-width="25" width="358.334" height="358.334"/>
	</svg>

	<svg id="icon-marquee-union" viewBox="0 0 500 500">
		<polygon fill="#00000070" stroke="#000000b0" stroke-width="30" points="359.417,179.916 359.417,51.749 51.083,51.749 51.083,340.083 150.583,340.083 150.583,448.25 448.917,448.25 448.917,179.916"/>
	</svg>

	<svg id="icon-marquee-subtract" viewBox="0 0 500 500">
		<rect x="50.833" y="50.833" fill="none" stroke="#00000080" stroke-width="25" width="308.334" height="288.334"/>
		<rect x="150.333" y="179" fill="none" stroke="#00000080" stroke-width="25" width="298.334" height="268.334"/>
		<polygon display="inline" fill="#00000070" stroke="#000000b0" stroke-width="25" points="150.333,179 359.167,179 359.167,50.833 50.833,50.833 50.833,339.167 150.333,339.167"/>
	</svg>

	<svg id="icon-marquee-intersection" viewBox="0 0 500 500">
		<rect x="50.833" y="50.833" fill="none" stroke="#00000080" stroke-width="25" width="308.334" height="288.334"/>
		<rect x="150.333" y="179" fill="none" stroke="#00000080" stroke-width="25" width="298.334" height="268.334"/>
		<rect x="150.333" y="179" display="inline" fill="#00000070" stroke="#000000b0" stroke-width="25" width="208.834" height="160.167"/>
	</svg>

	<svg id="icon-align-top" viewBox="0 0 500 500">
		<rect x="89" y="136.75" fill="#555" stroke="#000" stroke-width="25" width="127.5" height="280.5"/>
		<rect x="283.5" y="136.75" stroke="#000" stroke-width="25" width="127.5" height="200.5"/>
		<line fill="none" stroke="#000" stroke-width="25" x1="47.5" y1="82" x2="451" y2="82"/>
	</svg>

	<svg id="icon-align-middle" viewBox="0 0 500 500">
		<line fill="none" stroke="#000" stroke-width="25" x1="455.999" y1="256" x2="42.499" y2="256"/>
		<rect x="281.999" y="116.75" fill="#555" stroke="#000" stroke-width="25" width="127.5" height="280.5"/>
		<rect x="87.499" y="156.75" stroke="#000" stroke-width="25" width="127.5" height="200.5"/>
	</svg>

	<svg id="icon-align-bottom" viewBox="0 0 500 500">
		<rect x="89" y="86.75" fill="#555" stroke="#000" stroke-width="25" width="127.5" height="280.5"/>
		<rect x="283.5" y="166.75" stroke="#000" stroke-width="25" width="127.5" height="200.5"/>
		<line fill="none" stroke="#000" stroke-width="25" x1="47.5" y1="418" x2="451" y2="418"/>
	</svg>

	<svg id="icon-vertical-centers" viewBox="0 0 500 500">
		<line fill="none" stroke="#000" stroke-width="25" x1="345.25" y1="462.752" x2="345.25" y2="49.251"/>
		<rect x="281.999" y="116.75" fill="#555" stroke="#000" stroke-width="25" width="127.5" height="280.5"/>
		<rect x="87.499" y="156.75" stroke="#000" stroke-width="25" width="127.5" height="200.5"/>
		<line fill="none" stroke="#000" stroke-width="25" x1="151.249" y1="462.752" x2="151.249" y2="49.251"/>
	</svg>

	<svg id="icon-align-left" viewBox="0 0 500 500">
		<rect x="134.375" y="92.125" fill="#555" stroke="#000" stroke-width="25" width="280.5" height="127.5"/>
		<rect x="134.375" y="286.625" stroke="#000" stroke-width="25" width="200.5" height="127.5"/>
		<line fill="none" stroke="#000" stroke-width="25" x1="83.625" y1="50.625" x2="83.625" y2="454.125"/>
	</svg>

	<svg id="icon-align-center" viewBox="0 0 500 500">
		<line fill="none" stroke="#000" stroke-width="25" x1="252" y1="48.25" x2="252" y2="451.75"/>
		<rect x="109.75" y="89.75" fill="#555" stroke="#000" stroke-width="25" width="280.5" height="127.5"/>
		<rect x="149.75" y="284.25" stroke="#000" stroke-width="25" width="200.5" height="127.5"/>
	</svg>

	<svg id="icon-align-right" viewBox="0 0 500 500">
		<line fill="none" stroke="#000" stroke-width="25" x1="415.625" y1="50.625" x2="415.625" y2="454.125"/>
		<rect x="84.375" y="92.125" fill="#555" stroke="#000" stroke-width="25" width="280.5" height="127.5"/>
		<rect x="164.375" y="286.625" stroke="#000" stroke-width="25" width="200.5" height="127.5"/>
	</svg>

	<svg id="icon-horizontal-centers" viewBox="0 0 500 500">
		<line fill="none" stroke="#000" stroke-width="25" x1="455.249" y1="159.251" x2="41.749" y2="159.251"/>
		<rect x="109.247" y="95.002" fill="#555" stroke="#000" stroke-width="25" width="280.5" height="127.5"/>
		<rect x="149.247" y="289.502" stroke="#000" stroke-width="25" width="200.5" height="127.5"/>
		<line fill="none" stroke="#000" stroke-width="25" x1="455.249" y1="353.252" x2="41.749" y2="353.252"/>
	</svg>

	<svg id="icon-rectangle" viewBox="0 0 500 500">
		<rect stroke="#000" stroke-width="30" fill="#00000050" x="66.5" y="66.5" width="367" height="367"/>
	</svg>

	<svg id="icon-triangle" viewBox="0 0 500 500">
		<polygon stroke="#000" stroke-width="30" fill="#00000050" points="58.08,418.735 202.314,81.266 441.92,383.23"/>
	</svg>

	<svg id="icon-cursor-pos" viewBox="0 0 500 500">
		<line fill="none" stroke="#000" stroke-width="30" x1="21.462" y1="250" x2="478.538" y2="250"/>
		<line fill="none" stroke="#000" stroke-width="30" x1="250.001" y1="21.461" x2="250" y2="478.539"/>
	</svg>

	<svg id="icon-selection-dim" viewBox="0 0 500 500">
		<polygon points="478.325,90.395 359.316,21.675 359.316,75.082 105.708,75.082 75.083,75.082 75.083,105.708 75.083,359.315 21.675,359.315 90.395,478.324 159.116,359.315 105.708,359.315 105.708,105.708 359.316,105.708 359.316,159.115"/>
		<line fill="none" stroke="#000" stroke-width="30" stroke-dasharray="33.6886" x1="149.605" y1="429.833" x2="452.803" y2="429.833"/>
		<line fill="none" stroke="#000" stroke-width="30" stroke-dasharray="33.6886" x1="437.49" y1="141.948" x2="437.49" y2="445.146"/>
	</svg>

	<svg id="icon-quick-mask" viewBox="0 0 500 500">
		<path fill="#00000020" stroke="#000" stroke-width="15" d="M19.5,84.905v330.19h461V84.905H19.5z"/>
		<circle fill="none" stroke="#000" stroke-width="25" stroke-linecap="round" stroke-dasharray="30,30" cx="250" cy="250" r="100"/>
	</svg>

	<svg id="icon-arrow" viewBox="0 0 500 500">
		<path fill="#abb" d="M241.494,401.686L38.997,107.301c-4.664-8.506-0.549-15.365,9.055-15.365h403.896c9.604,0,13.721,6.859,9.056,15.365 L258.506,401.686C253.842,410.191,246.159,410.191,241.494,401.686z"/>
	</svg>

	<svg id="icon-cancel" viewBox="0 0 500 500">
		<polygon points="445.196,390.297 304.899,250 445.195,109.704 390.297,54.804 250,195.101 109.704,54.804 54.804,109.702 195.102,250 54.804,390.298 109.703,445.196 250,304.898 390.298,445.196 "/>
	</svg>

	<svg id="icon-mountain" viewBox="0 0 500 500">
		<polygon points="303.556,149.703 229.1,224.243 172.24,177.698 25.291,324.664 35.32,350.695 464.711,350.695 474.709,320.873 "/>
	</svg>

	<svg id="icon-font-size" viewBox="0 0 500 500">
		<path d="M52.998,221.857h168.859v56.287h-56.286v168.858h-56.287V278.144H52.998V221.857z M447.002,109.284H336.298v337.718h-60.023 V109.284H165.571V52.998h281.431V109.284z"/>
	</svg>

	<svg id="icon-line-height" viewBox="0 0 500 500">
		<rect x="128.498" y="54.299" width="243.004" height="50"/>
		<rect x="128.498" y="395.701" width="243.004" height="50"/>
		<polygon points="267.828,184.162 290.894,184.162 250,113.342 209.105,184.162 232.17,184.162 232.17,318.837 209.105,318.837 250,389.657 290.894,318.837 267.828,318.837 "/>
	</svg>

	<svg id="icon-scale-vert" viewBox="0 0 500 500">
		<path d="M416.872,361.248h55.623l-69.529,83.436l-69.53-83.436h55.624V138.753h-55.624l69.53-83.436l69.529,83.436h-55.623V361.248z M305.624,55.317v111.247l-27.812-55.624h-83.437v305.932h55.623v27.812H83.128v-27.812h55.624V110.94H55.316l-27.812,55.624V55.317 H305.624z"/>
	</svg>

	<svg id="icon-scale-hori" viewBox="0 0 500 500">
		<path d="M146.001,393v51.999l-78-64.999l78-64.999v52h207.998v-52L431.998,380l-77.999,64.999V393H146.001z M379.999,55.002v104 l-26-52h-78V289h52v26.001H172V289h52V107.002h-78l-26,52v-104H379.999z"/>
	</svg>

	<svg id="icon-justify-left" viewBox="0 0 500 500">
		<line stroke="#000" stroke-width="35" x1="38" y1="90" x2="462" y2="90"/>
		<line stroke="#000" stroke-width="35" x1="38" y1="170" x2="302" y2="170"/>
		<line stroke="#000" stroke-width="35" x1="38" y1="250" x2="462" y2="250"/>
		<line stroke="#000" stroke-width="35" x1="38" y1="330" x2="302" y2="330"/>
		<line stroke="#000" stroke-width="35" x1="38" y1="410" x2="462" y2="410"/>
	</svg>

	<svg id="icon-justify-center" viewBox="0 0 500 500">
		<line stroke="#000" stroke-width="35" x1="38" y1="90" x2="462" y2="90"/>
		<line stroke="#000" stroke-width="35" x1="118" y1="170" x2="382" y2="170"/>
		<line stroke="#000" stroke-width="35" x1="38" y1="250" x2="462" y2="250"/>
		<line stroke="#000" stroke-width="35" x1="118" y1="330" x2="382" y2="330"/>
		<line stroke="#000" stroke-width="35" x1="38" y1="410" x2="462" y2="410"/>
	</svg>

	<svg id="icon-justify-right" viewBox="0 0 500 500">
		<line stroke="#000" stroke-width="35" x1="38" y1="90" x2="462" y2="90"/>
		<line stroke="#000" stroke-width="35" x1="198" y1="170" x2="462" y2="170"/>
		<line stroke="#000" stroke-width="35" x1="38" y1="250" x2="462" y2="250"/>
		<line stroke="#000" stroke-width="35" x1="198" y1="330" x2="462" y2="330"/>
		<line stroke="#000" stroke-width="35" x1="38" y1="410" x2="462" y2="410"/>
	</svg>

	<svg id="icon-justify-full-left" viewBox="0 0 500 500">
		<line stroke="#000" stroke-width="35" x1="38" y1="90" x2="462" y2="90"/>
		<line stroke="#000" stroke-width="35" x1="38" y1="170" x2="462" y2="170"/>
		<line stroke="#000" stroke-width="35" x1="38" y1="250" x2="462" y2="250"/>
		<line stroke="#000" stroke-width="35" x1="38" y1="330" x2="462" y2="330"/>
		<line stroke="#000" stroke-width="35" x1="38" y1="410" x2="352" y2="410"/>
	</svg>

	<svg id="icon-justify-full-right" viewBox="0 0 500 500">
		<line stroke="#000" stroke-width="35" x1="38" y1="90" x2="462" y2="90"/>
		<line stroke="#000" stroke-width="35" x1="38" y1="170" x2="462" y2="170"/>
		<line stroke="#000" stroke-width="35" x1="38" y1="250" x2="462" y2="250"/>
		<line stroke="#000" stroke-width="35" x1="38" y1="330" x2="462" y2="330"/>
		<line stroke="#000" stroke-width="35" x1="148" y1="410" x2="462" y2="410"/>
	</svg>

	<svg id="icon-justify-full-center" viewBox="0 0 500 500">
		<line stroke="#000" stroke-width="35" x1="38" y1="90" x2="462" y2="90"/>
		<line stroke="#000" stroke-width="35" x1="38" y1="170" x2="462" y2="170"/>
		<line stroke="#000" stroke-width="35" x1="38" y1="250" x2="462" y2="250"/>
		<line stroke="#000" stroke-width="35" x1="38" y1="330" x2="462" y2="330"/>
		<line stroke="#000" stroke-width="35" x1="138" y1="410" x2="362" y2="410"/>
	</svg>

	<svg id="icon-justify-full" viewBox="0 0 500 500">
		<line stroke="#000" stroke-width="35" x1="38" y1="90" x2="462" y2="90"/>
		<line stroke="#000" stroke-width="35" x1="38" y1="170" x2="462" y2="170"/>
		<line stroke="#000" stroke-width="35" x1="38" y1="250" x2="462" y2="250"/>
		<line stroke="#000" stroke-width="35" x1="38" y1="330" x2="462" y2="330"/>
		<line stroke="#000" stroke-width="35" x1="38" y1="410" x2="462" y2="410"/>
	</svg>

	<svg id="icon-indent-left" viewBox="0 0 500 500">
		<line fill="none" stroke="#000" stroke-width="40" x1="265" y1="90" x2="462" y2="90"/>
		<line fill="none" stroke="#000" stroke-width="40" x1="265" y1="170" x2="392" y2="170"/>
		<line fill="none" stroke="#000" stroke-width="40" x1="265" y1="250" x2="462" y2="250"/>
		<line fill="none" stroke="#000" stroke-width="40" x1="265" y1="330" x2="392" y2="330"/>
		<line fill="none" stroke="#000" stroke-width="40" x1="265" y1="410" x2="462" y2="410"/>
		<line fill="none" stroke="#000" stroke-width="40" x1="217.5" y1="71.332" x2="217.5" y2="429.833"/>
		<polygon points="179.333,250.582 99.889,204.708 99.889,230.582 35.333,230.582 35.333,270.582 99.889,270.582 99.889,296.456"/>
	</svg>

	<svg id="icon-indent-right" viewBox="0 0 500 500">
		<line fill="none" stroke="#000" stroke-width="40" x1="230" y1="90" x2="35.333" y2="90"/>
		<line fill="none" stroke="#000" stroke-width="40" x1="230" y1="170" x2="105.333" y2="170"/>
		<line fill="none" stroke="#000" stroke-width="40" x1="230" y1="250" x2="35.333" y2="250"/>
		<line fill="none" stroke="#000" stroke-width="40" x1="230" y1="330" x2="105.333" y2="330"/>
		<line fill="none" stroke="#000" stroke-width="40" x1="230" y1="410" x2="35.333" y2="410"/>
		<line fill="none" stroke="#000" stroke-width="40" x1="279.833" y1="71.332" x2="279.833" y2="429.833"/>
		<polygon points="318,250.582 397.444,204.708 397.444,230.582 462,230.582 462,270.582 397.444,270.582 397.444,296.456"/>
	</svg>

	<svg id="icon-indent-first-line" viewBox="0 0 500 500">
		<line fill="none" stroke="#000" stroke-width="40" x1="462" y1="90" x2="205" y2="90"/>
		<line fill="none" stroke="#000" stroke-width="40" x1="165" y1="170" x2="392" y2="170"/>
		<line fill="none" stroke="#000" stroke-width="40" x1="165" y1="250" x2="462" y2="250"/>
		<line fill="none" stroke="#000" stroke-width="40" x1="165" y1="330" x2="392" y2="330"/>
		<line fill="none" stroke="#000" stroke-width="40" x1="165" y1="410" x2="462" y2="410"/>
		<polygon points="179.333,90.582 99.889,44.708 99.889,70.582 35.333,70.582 35.333,110.582 99.889,110.582 99.889,136.456"/>
	</svg>

	<svg id="icon-padding-top" viewBox="0 0 500 500">
		<rect x="206" y="80" stroke="#000" fill="#00000070" stroke-width="10" width="257" height="120"/>
		<line fill="none" stroke="#000" stroke-width="40" x1="166" y1="253" x2="463" y2="253"/>
		<line fill="none" stroke="#000" stroke-width="40" x1="166" y1="334" x2="393" y2="334"/>
		<line fill="none" stroke="#000" stroke-width="40" x1="166" y1="412" x2="463" y2="412"/>
		<polygon points="180.667,133.645 101.223,87.771 101.223,113.645 36.667,113.645 36.667,153.645 101.223,153.645 101.223,179.519"/>
	</svg>

	<svg id="icon-padding-bottom" viewBox="0 0 500 500">
		<rect x="206" y="325" stroke="#000" fill="#00000070" stroke-width="10" width="257" height="120"/>
		<line fill="none" stroke="#000" stroke-width="40" x1="166" y1="253" x2="463" y2="253"/>
		<line fill="none" stroke="#000" stroke-width="40" x1="166" y1="172" x2="393" y2="172"/>
		<line fill="none" stroke="#000" stroke-width="40" x1="166" y1="91" x2="463" y2="91"/>
		<polygon points="180.667,368.645 101.223,322.771 101.223,348.645 36.667,348.645 36.667,388.645 101.223,388.645 101.223,414.52"/>
	</svg>

	<svg id="icon-font-bold" viewBox="0 0 500 500">
		<path d="M335.101,238.118c16.291-19.352,26.118-44.316,26.118-71.532c0-61.327-49.893-111.22-111.219-111.22H110.976v389.268 h166.829c61.326,0,111.219-49.893,111.219-111.22C389.023,293.028,367.389,257.605,335.101,238.118L335.101,238.118z M194.39,110.976h44.097c24.316,0,44.097,24.947,44.097,55.61s-19.781,55.608-44.097,55.608H194.39V110.976z M263.469,389.023 H194.39V277.805h69.079c25.392,0,46.051,24.945,46.051,55.609C309.52,364.077,288.86,389.023,263.469,389.023z"/>
	</svg>

	<svg id="icon-font-italic" viewBox="0 0 500 500">
		<path d="M416.828,55.367v27.805h-55.61L222.195,416.828h55.609v27.805H83.172v-27.805h55.61L277.805,83.172h-55.609V55.367H416.828z"/>
	</svg>

	<svg id="icon-font-underlined" viewBox="0 0 500 500">
		<path d="M333.414,55.367h55.609v180.73c0,69.103-62.242,125.121-139.023,125.121S110.977,305.2,110.977,236.098V55.367h55.609 v180.73c0,17.449,7.924,34.192,22.31,47.14c16.029,14.426,37.731,22.372,61.104,22.372s45.074-7.946,61.104-22.372 c14.387-12.947,22.311-29.69,22.311-47.14V55.367z M110.977,389.023h278.047v55.609H110.977V389.023z"/>
	</svg>

	<svg id="icon-font-strike-through" viewBox="0 0 500 500">
		<path d="M467.327,250v27.828h-101.97c11.959,16.746,18.482,35.956,18.482,55.657c0,30.821-15.941,60.452-43.734,81.298 c-25.81,19.356-59.694,30.019-95.409,30.019s-69.599-10.662-95.409-30.019c-27.794-20.846-43.734-50.477-43.734-81.298h55.657 c0,30.17,38.232,55.658,83.486,55.658s83.486-25.488,83.486-55.658c0-30.169-38.232-55.657-83.486-55.657H22.066V250h130.238 c-1.016-0.719-2.024-1.446-3.016-2.19c-27.794-20.846-43.734-50.477-43.734-81.296c0-30.82,15.94-60.452,43.734-81.297 c25.81-19.357,59.694-30.019,95.409-30.019s69.6,10.661,95.409,30.019c27.793,20.845,43.734,50.477,43.734,81.297h-55.657 c0-30.169-38.232-55.658-83.486-55.658s-83.486,25.489-83.486,55.658c0,30.169,38.232,55.657,83.486,55.657 c34.342,0,66.986,9.861,92.393,27.829H467.327z"/>
	</svg>

	<svg id="icon-font-super" viewBox="0 0 500 500">
		<path d="M82.105,445.002l27-90.001h124.11l26.999,90.001h53.267l-90.002-300.003H118.84L28.838,445.002H82.105z M154.106,205h34.109 l27,90h-88.109L154.106,205z"/>
		<path d="M396.162,114.999h-30c-8.271,0-15-6.729-15-15c0-8.271,6.729-15,15-15h60.001c8.284,0,15-6.716,15-15 c0-8.284-6.716-15-15-15h-60.001c-24.813,0-45.001,20.188-45.001,45c0,11.517,4.354,22.032,11.496,30 c8.244,9.198,20.208,15,33.505,15h30c8.271,0,15,6.73,15,15c0,8.271-6.729,15-15,15h-60c-8.285,0-15.001,6.716-15.001,15 c0,8.284,6.716,15,15.001,15h60c24.813,0,45.001-20.188,45.001-45c0-11.517-4.354-22.032-11.495-30 C421.423,120.801,409.46,114.999,396.162,114.999z"/>
	</svg>

	<svg id="icon-font-sub" viewBox="0 0 500 500">
		<path d="M82.105,355.201l27-90.001h124.11l26.999,90.001h53.267L223.479,55.198H118.84L28.838,355.201H82.105z M154.106,115.199 h34.109l27,90h-88.109L154.106,115.199z"/>
		<path d="M396.162,355.002h-30c-8.271,0-15-6.73-15-15c0-8.271,6.729-15,15-15h60.001c8.284,0,15-6.717,15-15c0-8.284-6.716-15-15-15 h-60.001c-24.813,0-45.001,20.188-45.001,45c0,11.517,4.354,22.031,11.496,30c8.244,9.198,20.208,15,33.505,15h30 c8.271,0,15,6.73,15,15c0,8.271-6.729,15-15,15h-60c-8.285,0-15.001,6.717-15.001,15c0,8.284,6.716,15,15.001,15h60 c24.813,0,45.001-20.188,45.001-45c0-11.517-4.354-22.032-11.495-30C421.423,360.804,409.46,355.002,396.162,355.002z"/>
	</svg>

	<svg id="icon-font-kerning" viewBox="0 0 500 500">
		<path d="M286.475,365.001l20.7-69.001h95.15l20.7,69.001h40.839l-69.003-230.003h-80.224l-69.001,230.003H286.475z M341.675,180.999 h26.15l20.7,69h-67.551L341.675,180.999z"/>
		<path d="M76.975,134.998H36.136l69.003,230.003h55.184l69.001-230.003h-40.839L133.284,319h-1.11L76.975,134.998z"/>
		<line fill="none" stroke="#000" stroke-width="27" x1="296.5" y1="63.5" x2="183.5" y2="427.5"/>
	</svg>

	<svg id="icon-font-tracking" viewBox="0 0 500 500">
		<path d="M270.413,102H27v296h151.522L270.413,102z M36.136,134.998h40.839L132.174,319h1.11l55.2-184.002h40.839l-69.001,230.003 h-55.184L36.136,134.998z"/>
		<polygon points="341.675,180.999 320.975,249.999 388.525,249.999 367.825,180.999"/>
		<path d="M298.684,102l-91.89,296H473V102H298.684z M423.025,365.001L402.325,296h-95.15l-20.7,69.001h-40.838l69.001-230.003 h80.224l69.003,230.003H423.025z"/>
	</svg>

	<svg id="icon-font-small-caps" viewBox="0 0 500 500">
		<path d="M279.284,221.857h168.859v56.287h-56.287v168.857H335.57V278.145h-56.286V221.857z M333.288,109.284H222.584v337.718 h-60.022V109.284H51.856V52.998h281.432V109.284z"/>
	</svg>

	<svg id="icon-font-all-caps" viewBox="0 0 500 500">
		<path d="M266.07,129.488H474.93v56.287h-76.287v258.857h-56.286V185.775H266.07V129.488z"/>
		<path d="M25.07,129.488H233.93v56.287h-76.287v258.857h-56.286V185.775H25.07V129.488z"/>
	</svg>

	<svg id="icon-baseline-shift" viewBox="0 0 500 500">
		<path d="M82.105,444.633l27-90.001h124.11l26.999,90.001h53.269L223.479,144.63H118.84L28.838,444.633H82.105z M154.106,204.631 h34.109l27,90h-88.109L154.106,204.631z"/>
		<path d="M396.162,115.198h-30c-8.271,0-15-6.73-15-15c0-8.271,6.729-15,15-15h60.001c8.284,0,15-6.717,15-15c0-8.284-6.716-15-15-15 h-60.001c-24.813,0-45.001,20.188-45.001,45c0,11.518,4.354,22.031,11.496,30c8.244,9.198,20.208,15,33.505,15h30 c8.271,0,15,6.73,15,15c0,8.271-6.729,15-15,15h-60c-8.285,0-15.001,6.717-15.001,15c0,8.284,6.716,15,15.001,15h60 c24.812,0,45.001-20.188,45.001-45c0-11.518-4.354-22.031-11.495-30C421.423,121.001,409.46,115.198,396.162,115.198z"/>
		<path d="M367.257,443.248V309.753h-55.624l69.53-83.436l69.529,83.436h-55.623v133.495"/>
	</svg>

	<svg id="icon-color-preset" viewBox="0 0 500 500">
		<linearGradient id="SVGID_1_" gradientUnits="userSpaceOnUse" x1="378.1631" y1="24.9146" x2="458.0664" y2="163.3112" gradientTransform="matrix(1.2821 0 0 -1.2821 -234.2436 280.9369)">
			<stop offset="0" style="stop-color:#FFFFFF;stop-opacity:0"/>
			<stop offset="1" style="stop-color:#FF0000;stop-opacity:0.7"/>
		</linearGradient>
		<linearGradient id="SVGID_2_" gradientUnits="userSpaceOnUse" x1="378.6152" y1="24.1309" x2="538.3961" y2="24.1309" gradientTransform="matrix(1.2821 0 0 -1.2821 -234.2436 280.9369)">
			<stop offset="0" style="stop-color:#FFFFFF;stop-opacity:0"/>
			<stop offset="1" style="stop-color:#0000FF;stop-opacity:0.7"/>
		</linearGradient>
		<linearGradient id="SVGID_3_" gradientUnits="userSpaceOnUse" x1="378.1621" y1="23.3457" x2="458.0658" y2="-115.0515" gradientTransform="matrix(1.2821 0 0 -1.2821 -234.2436 280.9369)">
			<stop offset="0" style="stop-color:#FFFFFF;stop-opacity:0"/>
			<stop offset="1" style="stop-color:#00AEEF;stop-opacity:0.7"/>
		</linearGradient>
		<linearGradient id="SVGID_4_" gradientUnits="userSpaceOnUse" x1="377.2578" y1="23.3467" x2="297.3542" y2="-115.0504" gradientTransform="matrix(1.2821 0 0 -1.2821 -234.2436 280.9369)">
			<stop offset="0" style="stop-color:#FFFFFF;stop-opacity:0"/>
			<stop offset="1" style="stop-color:#00FF00;stop-opacity:0.7"/>
		</linearGradient>
		<linearGradient id="SVGID_5_" gradientUnits="userSpaceOnUse" x1="376.8047" y1="24.1313" x2="217.0235" y2="24.1313" gradientTransform="matrix(1.2821 0 0 -1.2821 -234.2436 280.9369)">
			<stop offset="0" style="stop-color:#FFFFFF;stop-opacity:0"/>
			<stop offset="1" style="stop-color:#FFFF00;stop-opacity:0.7"/>
		</linearGradient>
		<linearGradient id="SVGID_6_" gradientUnits="userSpaceOnUse" x1="377.2588" y1="24.9131" x2="297.3553" y2="163.31" gradientTransform="matrix(1.2821 0 0 -1.2821 -234.2436 280.9369)">
			<stop offset="0" style="stop-color:#FFFFFF;stop-opacity:0"/>
			<stop offset="1" style="stop-color:#FF00FF;stop-opacity:0.7"/>
		</linearGradient>
		<circle fill="#fff" cx="250" cy="250" r="205.346"/>
		<circle fill="url(#SVGID_1_)" cx="250" cy="250" r="205.346"/>
		<circle fill="url(#SVGID_2_)" cx="250" cy="250" r="205.346"/>
		<circle fill="url(#SVGID_3_)" cx="250" cy="250" r="205.346"/>
		<circle fill="url(#SVGID_4_)" cx="250" cy="250" r="205.346"/>
		<circle fill="url(#SVGID_5_)" cx="250" cy="250" r="205.346"/>
		<circle fill="url(#SVGID_6_)" stroke="#000" stroke-width="20" cx="250" cy="250" r="205.346"/>
	</svg>

	<svg id="icon-trashcan" viewBox="0 0 500 500">
		<polygon points="107.993,96.576 391.989,96.576 391.989,66.13 281.29,66.13 281.29,40.753 219.554,40.753 219.554,65.708 107.993,65.708"/>
		<path d="M91.521,111.934v31.729l31.071,0.659l10.763,316.925h233.258l10.171-316.925h31.696v-32.389H91.521z M195.461,405.492 h-23.451l-4.427-225.673h27.877V405.492z M262.671,405.492h-24.092V179.819h24.092V405.492z M326.705,405.492h-21.559V179.819 h28.52L326.705,405.492z"/>
	</svg>

	<svg id="icon-new" viewBox="0 0 500 500">
		<polygon points="88.912,58.209 88.912,441.791 411.088,441.791 411.088,186.594 281.203,186.594 281.203,58.209"/>
		<polygon points="301.339,167.956 408.053,167.956 301.339,61.207"/>
	</svg>

	<svg id="icon-folder" viewBox="0 0 500 500">
		<path d="M444,185v195c0,30.75-15.25,47-46,47H78c-30.75,0-50-17.25-50-48V118c0-30.75,10.25-43,41-43h108c30.75,0,43,11.25,43,42v22 h176C426.75,139,444,154.25,444,185z"/>
	</svg>

	<svg id="icon-folder-open" viewBox="0 0 500 500">
		<path d="M484.875,280c0,6-3.75,12-7.75,16.5l-84,99c-14.5,17-44,30.5-66,30.5h-272c-9,0-21.75-2.75-21.75-14c0-6,3.75-12,7.75-16.5 l84-99c14.5-17,44-30.5,66-30.5h272C472.125,266,484.875,268.75,484.875,280z M399.125,183v51h-208c-31.25,0-70,17.75-90.25,41.75 l-85.5,100.5c0-2-0.25-4.25-0.25-6.25V122c0-30.75,8.25-48,39-48h110c30.75,0,43,10.25,43,41v23h147 C384.875,138,399.125,152.25,399.125,183z"/>
	</svg>

	<svg id="icon-eye-on" viewBox="0 0 500 500">
		<path d="M455.69,243.129c-34.531-74.157-140.695-129.571-212.456-129.571c-76.251,0-152.169,48.75-198.189,127.207 c-2.762,4.713-2.983,10.489-0.587,15.361c30.912,63.19,113.21,130.316,204.854,130.316c78.473,0,155.247-47.734,205.426-127.81 C457.658,253.951,457.976,248.111,455.69,243.129z M245.741,165.909c7.634,0,13.807,6.174,13.807,13.822 c0,7.633-6.173,13.807-13.807,13.807c-20.677,0-37.514,16.837-37.514,37.467c0,7.648-6.174,13.822-13.775,13.822 c-7.633,0-13.806-6.174-13.806-13.822C180.646,195.124,209.83,165.909,245.741,165.909z M249.312,354.007 c-74.775,0-142.378-52.4-171.593-104.372c24.249-38.262,57.329-68.154,93.274-85.784c-16.13,18.024-25.942,41.817-25.942,67.9 c0,56.271,45.624,101.879,101.896,101.879c56.271,0,101.879-45.607,101.879-101.879c0-24.454-8.621-46.897-22.986-64.459 c39.617,18.544,77.271,47.782,96.365,81.787C378.122,314.968,314.074,354.007,249.312,354.007z"/>
	</svg>

	<svg id="icon-eye-off" viewBox="0 0 500 500">
		<path d="M348.514,233.734c0-6.554-0.729-12.965-1.936-19.17L283.26,328.632C321.378,313.842,348.514,277.057,348.514,233.734z"/>
		<path d="M455.345,245.16c-15.329-32.865-44.973-61.636-79.123-83.964l-15.615,28.057c25.645,17.028,48.052,38.149,61.286,61.778 c-39.546,59.065-95.215,96.326-153.01,103.436l-18.837,33.896c78.124-0.444,154.423-48.084,204.347-127.746 C457.345,255.951,457.662,250.175,455.345,245.16z"/>
		<path d="M324.996,169.401c-0.055-0.068-0.105-0.132-0.159-0.2l33.227-59.747c0.523-0.942,0.651-2.053,0.355-3.089 c-0.295-1.036-0.99-1.912-1.932-2.436l-37.674-20.947c-1.963-1.091-4.434-0.384-5.525,1.576l-21.297,38.296 c-17.232-4.694-33.93-7.281-49.103-7.281c-76.251,0-152.201,48.75-198.189,127.207c-2.761,4.729-2.983,10.442-0.587,15.393 c19.951,40.713,61.369,82.747,112.808,107.567l-14.907,26.806c-0.524,0.941-0.652,2.053-0.356,3.089 c0.296,1.036,0.991,1.913,1.933,2.437l37.673,20.947c0.625,0.348,1.302,0.513,1.971,0.513c1.427,0,2.811-0.754,3.554-2.089 l137.997-248.146C324.854,169.331,324.928,169.367,324.996,169.401z M172.397,337.909c-41.906-19.743-76.312-53.068-94.992-86.274 c24.319-38.397,57.556-68.146,93.648-85.767c-16.206,18.064-26.347,41.691-26.347,67.835c0,33.235,15.928,62.585,40.544,81.093 L172.397,337.909z M245.428,195.521c-20.677,0-37.515,16.837-37.515,37.467c0,7.665-6.173,13.822-13.774,13.822 c-7.633,0-13.806-6.157-13.806-13.854c0-35.88,29.184-65.063,65.095-65.063c7.633,0,13.807,6.173,13.807,13.822 C259.234,189.349,253.061,195.521,245.428,195.521z"/>
	</svg>

	<svg id="icon-layer-adjustment" viewBox="0 0 500 500">
		<circle fill="none" stroke="#000" stroke-width="37.442" cx="250" cy="250" r="181.126"/>
		<path d="M121.925,121.925c-70.734,70.734-70.734,185.416,0,256.15l256.15-256.15C307.341,51.191,192.659,51.191,121.925,121.925z"/>
	</svg>

	<svg id="icon-layer-mask" viewBox="0 0 500 500">
		<path d="M19.5,84.905v330.19h461V84.905H19.5z M250,378.7c-71.08,0-128.7-57.621-128.7-128.7 c0-71.08,57.621-128.7,128.7-128.7c71.079,0,128.7,57.621,128.7,128.7C378.7,321.079,321.079,378.7,250,378.7z"/>
	</svg>

	<svg id="icon-layer-fx" viewBox="0 0 500 500">
		<path stroke="#000" stroke-width="19" d="M179.371,159.989c5.963-30.96,16.054-63.296,35.317-85.311 c19.264-22.016,42.885-34.857,60.543-34.857c14.677,0,26.832,11.008,26.373,17.888c0,6.192-5.505,13.758-10.321,17.428 c-3.668,2.752-8.025,3.212-11.235,0c-8.486-8.485-17.889-13.072-27.29-13.072c-16.971,0-30.73,20.869-42.885,97.924h49.305 l-8.943,14.447l-44.261,4.358c-7.338,49.762-12.384,72.467-20.868,118.103c-15.365,75.907-32.336,111.224-53.433,134.616 c-19.724,21.786-38.07,28.666-48.847,28.666c-12.843,0-28.208-9.861-27.75-19.265c0-4.587,5.045-12.153,11.236-17.656 c4.129-2.982,6.192-2.065,8.945,0.457c6.649,5.963,18.345,9.861,25.455,9.861c7.339,0,14.447-3.44,18.576-7.567 c6.65-6.65,18.348-25.915,33.481-113.288c10.32-56.874,16.284-92.19,22.705-134.846H139.24l-1.376-5.732l13.3-12.154H179.371z"/>
		<path stroke="#000" stroke-width="19" d="M263.993,196.682 c18.348-25.227,36.234-43.574,50.224-43.574c11.695,0,17.888,16.971,28.207,48.848l8.486,23.85 c36.232-52.517,55.955-72.698,75.677-72.698c10.779,0,18.348,9.403,18.348,18.805c0,9.403-10.32,18.805-16.513,18.805 c-2.293,0-4.357-0.916-6.651-3.897c-2.751-2.752-5.961-4.586-9.86-4.586c-6.42,0-15.365,7.568-27.748,22.932 c-9.403,11.925-19.723,23.622-28.665,37.151l13.758,40.362c9.403,29.123,15.365,41.277,22.934,41.277 c7.109,0,17.888-8.713,30.959-25.225l8.486,9.402c-19.264,29.583-38.527,46.096-53.434,46.096 c-10.321,0-20.641-13.302-28.667-40.133l-14.219-42.654c-39.902,61.46-60.541,82.787-81.182,82.787 c-11.237,0-20.639-8.945-20.181-20.87c0-9.86,8.943-20.639,17.429-20.639c2.752,0,5.046,1.834,7.568,4.814 c1.834,2.294,5.504,4.587,9.402,4.587c13.07,0,32.335-23.849,61.919-68.109l-15.595-46.324 c-5.503-18.348-9.402-25.915-13.989-25.915c-4.816,0-12.154,5.046-28.664,25.456L263.993,196.682z"/>
	</svg>

	<svg id="icon-layer-link" viewBox="0 0 500 500">
		<path stroke="#000" stroke-width="5" d="M224.083,299.295c-5.302,0-10.602-2.021-14.646-6.067 c-37.892-37.893-37.892-99.547,0-137.439l76.473-76.474c18.357-18.357,42.762-28.464,68.72-28.464 c25.959,0,50.364,10.107,68.721,28.464c37.892,37.893,37.892,99.547,0,137.44l-34.956,34.958c-8.089,8.089-21.202,8.089-29.292,0 c-8.088-8.088-8.088-21.203,0-29.292l34.957-34.956c21.741-21.742,21.741-57.119,0-78.86c-10.53-10.532-24.535-16.332-39.43-16.332 c-14.896,0-28.897,5.8-39.429,16.333l-76.474,76.473c-21.742,21.741-21.742,57.118,0,78.859c8.089,8.088,8.086,21.201,0,29.29 C234.685,297.272,229.382,299.295,224.083,299.295L224.083,299.295z"/>
		<path stroke="#000" stroke-width="5" d="M150.702,449.148c-25.959,0-50.365-10.109-68.721-28.465 c-37.891-37.892-37.891-99.548,0-137.441l34.958-34.955c8.088-8.088,21.202-8.088,29.289,0c8.089,8.087,8.089,21.202,0,29.291 l-34.957,34.956c-21.741,21.741-21.741,57.119,0,78.859c10.532,10.531,24.536,16.331,39.431,16.331 c14.895,0,28.896-5.8,39.43-16.333l76.473-76.472c21.741-21.742,21.741-57.119,0-78.859c-8.088-8.088-8.088-21.203,0-29.291 c8.088-8.089,21.202-8.089,29.29,0c37.892,37.892,37.892,99.547,0.001,137.44l-76.473,76.474 C201.065,439.04,176.661,449.148,150.702,449.148L150.702,449.148z"/>
	</svg>

	<svg id="icon-switch" viewBox="0 0 500 500">
		<path d="M409.427,342.073V197.118c0-37.737-9.156-65.637-27.992-85.291c-19.781-20.641-48.558-30.675-87.973-30.675H167.35V33.964 l-123.965,76.18l123.965,76.18v-47.188h126.112c22.45,0,37.964,4.31,46.11,12.812c7.876,8.22,11.871,23.418,11.871,45.172v144.955 h-47.189l76.181,123.964l76.18-123.964H409.427z"/>
	</svg>

	<svg id="icon-black-white" viewBox="0 0 500 500">
		<rect x="213.346" y="218.092" fill="#000" stroke="#fff" stroke-width="20" width="228.808" height="228.808"/>
		<rect x="57.847" y="53.101" fill="#fff" stroke="#000" stroke-width="20" width="228.808" height="228.808"/>
	</svg>

	<svg id="brush-preset-circle1" viewBox="0 0 20 20" cache="false">
		<style>
			.st0 { fill: --color; }
		</style>
		<circle class="st0" cx="10" cy="10" r="10"/>
	</svg>

	<svg id="brush-preset-circle" viewBox="0 0 500 500" cache="false">
		<radialGradient id="SVGID_1_" cx="250" cy="250" r="250" gradientUnits="userSpaceOnUse">
			<stop offset="0" stop-color="--color" stop-opacity="1"/>
			<stop offset="1" stop-color="--color" stop-opacity="0"/>
		</radialGradient>
		<circle fill="url(#SVGID_1_)" class="st0" cx="250" cy="250" r="250"/>
	</svg>

</svg>

