<svg xmlns="http://www.w3.org/2000/svg" width="0" height="0">
	<svg id="tool-move" viewBox="0 0 500 500">
		<polygon points="13.649,397.297 108.41,270.95 264.234,270.95 13.649,20.366"/>
		<polygon points="486.351,348.227 430.929,307.107 430.929,334.511 368.658,334.511 368.658,272.243 396.065,272.243 354.944,216.821 313.823,272.243 341.23,272.243 341.23,334.511 278.962,334.511 278.962,307.107 223.539,348.227 278.962,389.349 278.962,361.943 341.23,361.943 341.23,424.211 313.823,424.211 354.944,479.634 396.065,424.211 368.658,424.211 368.658,361.943 430.929,361.943 430.929,389.349"/>
	</svg>

	<svg id="tool-crop" viewBox="0 0 500 500">
		<polyline fill="none" stroke="#000000" stroke-width="58" points="30.068,144.614 352.63,144.614 352.63,478.178 "/>
		<polyline fill="none" stroke="#000000" stroke-width="58" points="464.43,355.385 141.868,355.385 141.868,21.823 "/>
		<line fill="none" stroke="#000000" stroke-width="20" x1="141.868" y1="355.385" x2="469.932" y2="27.325"/>
	</svg>

	<svg id="tool-wand" viewBox="0 0 500 500">
		<path d="M341.176,187.143l77.546-77.545l-28.319-28.318l-77.545,77.545L341.176,187.143z M459.479,109.598 c0,4.499-1.588,8.733-4.765,11.91L114.361,461.861c-3.176,3.176-7.41,4.764-11.91,4.764c-4.499,0-8.733-1.588-11.909-4.764 l-52.403-52.403c-3.176-3.176-4.764-7.41-4.764-11.909c0-4.5,1.588-8.734,4.764-11.91L378.493,45.285 c3.176-3.176,7.41-4.764,11.909-4.764c4.5,0,8.734,1.588,11.91,4.764l52.402,52.402 C457.892,100.863,459.479,105.098,459.479,109.598z M101.922,59.312l25.938,7.939l-25.938,7.939l-7.939,25.938l-7.939-25.938 l-25.938-7.939l25.938-7.939l7.939-25.938L101.922,59.312z M194.554,102.188l51.873,15.879l-51.873,15.88l-15.88,51.874 l-15.879-51.874l-51.874-15.88l51.874-15.879l15.879-51.874L194.554,102.188z M440.688,228.695l25.937,7.939l-25.937,7.939 l-7.94,25.938l-7.939-25.938l-25.937-7.939l25.937-7.939l7.939-25.938L440.688,228.695z M271.306,59.312l25.937,7.939l-25.937,7.939 l-7.94,25.938l-7.939-25.938l-25.938-7.939l25.938-7.939l7.939-25.938L271.306,59.312z"/>
	</svg>

	<svg id="tool-pencil" viewBox="0 0 500 500">
		<path d="M137.834,428.981l25.874-25.873l-66.816-66.816l-25.873,25.874v30.422h36.394v36.394H137.834z M286.535,165.129 c0-3.695-2.559-6.254-6.255-6.254c-1.706,0-3.412,0.568-4.833,1.99L121.344,314.968c-1.422,1.422-1.99,3.128-1.99,4.834 c0,3.696,2.559,6.255,6.255,6.255c1.706,0,3.412-0.568,4.833-1.99l154.104-154.104C285.967,168.541,286.535,166.836,286.535,165.129 z M271.182,110.539l118.279,118.279L152.903,465.375H34.625V347.097L271.182,110.539z M465.375,137.834 c0,9.668-3.98,19.051-10.52,25.59l-47.198,47.197L289.379,92.343l47.197-46.913c6.54-6.824,15.923-10.805,25.59-10.805 s19.049,3.98,25.873,10.805l66.816,66.531C461.395,118.785,465.375,128.168,465.375,137.834z"/>
	</svg>

	<svg id="tool-droplet" viewBox="0 0 500 500">
		<path d="M387.248,250.104C359.419,180.107,293.914,96.378,250,35.5c-43.914,60.878-109.419,144.607-137.249,214.604 c-15.828,44.15-17.391,92.074,4.897,134.437C143.278,433.247,194.961,464.5,250,464.5s106.722-31.253,132.351-79.96 C404.64,342.178,403.076,294.254,387.248,250.104z"/>
	</svg>

	<svg id="tool-eraser" viewBox="0 0 500 500">
		<polygon stroke="#000000" stroke-width="3.2707" stroke-linejoin="round" points="254.282,421.101 20.424,421.101 58.855,283.912 288.624,283.912 "/>
		<polygon stroke="#000000" stroke-width="3.2707" stroke-linejoin="round" points="65.988,273.509 267.574,78.899 477.691,78.899 292.896,273.509 "/>
		<polygon stroke="#000000" stroke-width="3.2707" stroke-linejoin="round" points="267.574,413.877 458.667,191.5 479.576,91.537 300.663,280.05 "/>
	</svg>

	<svg id="tool-shape-rect" viewBox="0 0 500 500">
		<rect x="43.5" y="94.293" width="413.001" height="311.413"/>
	</svg>
	
	<svg id="tool-pointer" viewBox="0 0 500 500">
		<polygon points="388.471,299.693 111.53,22.752 111.53,439.318 194.455,328.752 269.02,477.249 326.061,448.61 251.285,299.693 "/>
	</svg>
	
	<svg id="tool-other-tools" viewBox="0 0 500 500">
		<circle cx="250" cy="250" r="46.5"/>
		<circle cx="409" cy="250" r="46.5"/>
		<circle cx="91" cy="250" r="46.5"/>
	</svg>

	<svg id="tool-pipette" viewBox="0 0 500 500">
		<path d="M456.208,43.792c-21.724-21.723-56.942-21.723-78.666,0l-74.798,74.798L250,65.845l-58.999,58.999l46.25,46.25 L32.082,376.262c-3.497,3.497-4.983,8.238-4.477,12.801H27.5v69.531c0,7.681,6.227,13.906,13.906,13.906h69.531c0,0,1.158,0,1.738,0 c4.004,0,8.008-1.527,11.062-4.582L328.907,262.75l46.249,46.249L434.155,250l-52.744-52.744l74.797-74.798 C477.931,100.734,477.931,65.516,456.208,43.792z M102.72,444.688H55.312V397.28l204.063-204.062l47.406,47.406L102.72,444.688z"/>
	</svg>

	<svg id="tool-brush" viewBox="0 0 500 500">
		<path d="M432.544,130.251c-21.405,26.019-80.093,97.864-126.711,154.972l-59.191-60.093 c53.537-47.646,119.806-106.537,143.755-127.626c42.604-37.551,79.966-59.888,88.086-50.758 C483.568,51.802,470.062,84.598,432.544,130.251L432.544,130.251z M295.485,297.86c-18.056,22.101-33.6,41.136-43.109,52.811 l-70.077-68.292c11.358-10.11,30.268-26.934,52.194-46.429L295.485,297.86z M241.934,363.467v-0.189 c-40.678,156.077-221.446,66.349-221.446,66.349s75.843,9.558,75.843-61.183c0-68.576,69.697-74.769,73.979-75.085l71.767,69.935 C242.075,363.309,241.934,363.467,241.934,363.467L241.934,363.467z"/>
	</svg>

	<svg id="tool-pen" viewBox="0 0 500 500">
		<path d="M475.898,151.768L348.233,24.103c-4.166-4.165-9.659-3.229-12.209,2.083l-17.116,35.66l119.247,119.247l35.66-17.116 C479.127,161.427,480.063,155.933,475.898,151.768z"/>
		<path d="M178.594,91.717c-7.811,0.967-14.316,2.632-16.553,12.831c-0.002,0.011-0.006,0.019-0.008,0.03 C130.158,257.687,21.5,407.094,21.5,407.094l25.605,25.605L168.49,311.312c-2.676-5.592-4.178-11.854-4.178-18.469 c0-23.662,19.182-42.844,42.844-42.844S250,269.182,250,292.844s-19.182,42.844-42.844,42.844c-6.614,0-12.876-1.501-18.469-4.177 L67.302,452.896L92.906,478.5c0,0,149.408-108.657,302.516-140.532c0.011-0.004,0.02-0.006,0.03-0.009 c10.199-2.235,11.865-8.743,12.831-16.553l9.796-117.545L296.14,81.92L178.594,91.717z"/>
	</svg>

	<svg id="tool-marquee-rect" viewBox="0 0 500 500">
		<rect x="188.114" y="42.5" width="121.354" height="43.685"/>
		<rect x="24.299" y="205.107" width="43.685" height="92.203"/>
		<rect x="188.114" y="413.816" width="121.354" height="43.684"/>
		<rect x="432.019" y="205.107" width="43.684" height="92.203"/>
		<polygon points="360.435,86.185 432.019,86.185 432.019,154.143 475.702,154.143 475.702,42.5 360.435,42.5"/>
		<polygon points="67.983,154.143 67.983,86.185 137.149,86.185 137.149,42.5 24.299,42.5 24.299,154.143"/>
		<polygon points="137.149,413.816 67.983,413.816 67.983,348.275 24.299,348.275 24.299,457.5 137.149,457.5"/>
		<polygon points="432.019,348.275 432.019,413.816 360.435,413.816 360.435,457.5 475.702,457.5 475.702,348.275"/>
	</svg>

	<svg id="tool-character" viewBox="0 0 500 500">
		<path d="M415.711,47.198l4.486,95.12h-11.366c-2.197-16.751-5.188-28.716-8.975-35.895c-6.183-11.562-14.408-20.087-24.678-25.575 c-10.271-5.482-23.777-8.226-40.529-8.226h-57.13v309.885c0,24.931,2.691,40.483,8.075,46.663 c7.576,8.375,19.24,12.563,34.996,12.563h14.059v11.066H162.657v-11.066h14.358c17.147,0,29.313-5.185,36.492-15.555 c4.384-6.38,6.582-20.938,6.582-43.672V72.623h-48.758c-18.946,0-32.407,1.397-40.38,4.188 c-10.372,3.791-19.247,11.068-26.622,21.835c-7.38,10.769-11.769,25.328-13.161,43.672H79.802l4.785-95.12H415.711z"/>
	</svg>

	<svg id="tool-pressure" viewBox="0 0 500 500">
		<path d="M415.711,47.198l4.486,95.12h-11.366c-2.197-16.751-5.188-28.716-8.975-35.895c-6.183-11.562-14.408-20.087-24.678-25.575 c-10.271-5.482-23.777-8.226-40.529-8.226h-57.13v309.885c0,24.931,2.691,40.483,8.075,46.663 c7.576,8.375,19.24,12.563,34.996,12.563h14.059v11.066H162.657v-11.066h14.358c17.147,0,29.313-5.185,36.492-15.555 c4.384-6.38,6.582-20.938,6.582-43.672V72.623h-48.758c-18.946,0-32.407,1.397-40.38,4.188 c-10.372,3.791-19.247,11.068-26.622,21.835c-7.38,10.769-11.769,25.328-13.161,43.672H79.802l4.785-95.12H415.711z"/>
	</svg>

	<svg id="icon-arrow" viewBox="0 0 500 500">
		<path fill="#abb" d="M241.494,401.686L38.997,107.301c-4.664-8.506-0.549-15.365,9.055-15.365h403.896c9.604,0,13.721,6.859,9.056,15.365 L258.506,401.686C253.842,410.191,246.159,410.191,241.494,401.686z"/>
	</svg>

	<svg id="icon-mountain" viewBox="0 0 500 500">
		<polygon points="303.556,149.703 229.1,224.243 172.24,177.698 25.291,324.664 35.32,350.695 464.711,350.695 474.709,320.873 "/>
	</svg>

	<svg id="icon-trashcan" viewBox="0 0 500 500">
		<polygon points="107.993,96.576 391.989,96.576 391.989,66.13 281.29,66.13 281.29,40.753 219.554,40.753 219.554,65.708 107.993,65.708"/>
		<path d="M91.521,111.934v31.729l31.071,0.659l10.763,316.925h233.258l10.171-316.925h31.696v-32.389H91.521z M195.461,405.492 h-23.451l-4.427-225.673h27.877V405.492z M262.671,405.492h-24.092V179.819h24.092V405.492z M326.705,405.492h-21.559V179.819 h28.52L326.705,405.492z"/>
	</svg>

	<svg id="icon-new" viewBox="0 0 500 500">
		<polygon points="88.912,58.209 88.912,441.791 411.088,441.791 411.088,186.594 281.203,186.594 281.203,58.209"/>
		<polygon points="301.339,167.956 408.053,167.956 301.339,61.207"/>
	</svg>

	<svg id="icon-folder" viewBox="0 0 500 500">
		<path d="M444,185v195c0,30.75-15.25,47-46,47H78c-30.75,0-50-17.25-50-48V118c0-30.75,10.25-43,41-43h108c30.75,0,43,11.25,43,42v22 h176C426.75,139,444,154.25,444,185z"/>
	</svg>

	<svg id="icon-folder-open" viewBox="0 0 500 500">
		<path d="M484.875,280c0,6-3.75,12-7.75,16.5l-84,99c-14.5,17-44,30.5-66,30.5h-272c-9,0-21.75-2.75-21.75-14c0-6,3.75-12,7.75-16.5 l84-99c14.5-17,44-30.5,66-30.5h272C472.125,266,484.875,268.75,484.875,280z M399.125,183v51h-208c-31.25,0-70,17.75-90.25,41.75 l-85.5,100.5c0-2-0.25-4.25-0.25-6.25V122c0-30.75,8.25-48,39-48h110c30.75,0,43,10.25,43,41v23h147 C384.875,138,399.125,152.25,399.125,183z"/>
	</svg>

	<svg id="icon-eye-on" viewBox="0 0 500 500">
		<path d="M455.69,243.129c-34.531-74.157-140.695-129.571-212.456-129.571c-76.251,0-152.169,48.75-198.189,127.207 c-2.762,4.713-2.983,10.489-0.587,15.361c30.912,63.19,113.21,130.316,204.854,130.316c78.473,0,155.247-47.734,205.426-127.81 C457.658,253.951,457.976,248.111,455.69,243.129z M245.741,165.909c7.634,0,13.807,6.174,13.807,13.822 c0,7.633-6.173,13.807-13.807,13.807c-20.677,0-37.514,16.837-37.514,37.467c0,7.648-6.174,13.822-13.775,13.822 c-7.633,0-13.806-6.174-13.806-13.822C180.646,195.124,209.83,165.909,245.741,165.909z M249.312,354.007 c-74.775,0-142.378-52.4-171.593-104.372c24.249-38.262,57.329-68.154,93.274-85.784c-16.13,18.024-25.942,41.817-25.942,67.9 c0,56.271,45.624,101.879,101.896,101.879c56.271,0,101.879-45.607,101.879-101.879c0-24.454-8.621-46.897-22.986-64.459 c39.617,18.544,77.271,47.782,96.365,81.787C378.122,314.968,314.074,354.007,249.312,354.007z"/>
	</svg>

	<svg id="icon-eye-off" viewBox="0 0 500 500">
		<path d="M348.514,233.734c0-6.554-0.729-12.965-1.936-19.17L283.26,328.632C321.378,313.842,348.514,277.057,348.514,233.734z"/>
		<path d="M455.345,245.16c-15.329-32.865-44.973-61.636-79.123-83.964l-15.615,28.057c25.645,17.028,48.052,38.149,61.286,61.778 c-39.546,59.065-95.215,96.326-153.01,103.436l-18.837,33.896c78.124-0.444,154.423-48.084,204.347-127.746 C457.345,255.951,457.662,250.175,455.345,245.16z"/>
		<path d="M324.996,169.401c-0.055-0.068-0.105-0.132-0.159-0.2l33.227-59.747c0.523-0.942,0.651-2.053,0.355-3.089 c-0.295-1.036-0.99-1.912-1.932-2.436l-37.674-20.947c-1.963-1.091-4.434-0.384-5.525,1.576l-21.297,38.296 c-17.232-4.694-33.93-7.281-49.103-7.281c-76.251,0-152.201,48.75-198.189,127.207c-2.761,4.729-2.983,10.442-0.587,15.393 c19.951,40.713,61.369,82.747,112.808,107.567l-14.907,26.806c-0.524,0.941-0.652,2.053-0.356,3.089 c0.296,1.036,0.991,1.913,1.933,2.437l37.673,20.947c0.625,0.348,1.302,0.513,1.971,0.513c1.427,0,2.811-0.754,3.554-2.089 l137.997-248.146C324.854,169.331,324.928,169.367,324.996,169.401z M172.397,337.909c-41.906-19.743-76.312-53.068-94.992-86.274 c24.319-38.397,57.556-68.146,93.648-85.767c-16.206,18.064-26.347,41.691-26.347,67.835c0,33.235,15.928,62.585,40.544,81.093 L172.397,337.909z M245.428,195.521c-20.677,0-37.515,16.837-37.515,37.467c0,7.665-6.173,13.822-13.774,13.822 c-7.633,0-13.806-6.157-13.806-13.854c0-35.88,29.184-65.063,65.095-65.063c7.633,0,13.807,6.173,13.807,13.822 C259.234,189.349,253.061,195.521,245.428,195.521z"/>
	</svg>

	<svg id="icon-layer-adjustment" viewBox="0 0 500 500">
		<circle fill="none" stroke="#000000" stroke-width="37.442" cx="250" cy="250" r="181.126"/>
		<path d="M121.925,121.925c-70.734,70.734-70.734,185.416,0,256.15l256.15-256.15C307.341,51.191,192.659,51.191,121.925,121.925z"/>
	</svg>

	<svg id="icon-layer-mask" viewBox="0 0 500 500">
		<path d="M19.5,84.905v330.19h461V84.905H19.5z M250,378.7c-71.08,0-128.7-57.621-128.7-128.7 c0-71.08,57.621-128.7,128.7-128.7c71.079,0,128.7,57.621,128.7,128.7C378.7,321.079,321.079,378.7,250,378.7z"/>
	</svg>

	<svg id="icon-layer-fx" viewBox="0 0 500 500">
		<path stroke="#000000" stroke-width="19" d="M179.371,159.989c5.963-30.96,16.054-63.296,35.317-85.311 c19.264-22.016,42.885-34.857,60.543-34.857c14.677,0,26.832,11.008,26.373,17.888c0,6.192-5.505,13.758-10.321,17.428 c-3.668,2.752-8.025,3.212-11.235,0c-8.486-8.485-17.889-13.072-27.29-13.072c-16.971,0-30.73,20.869-42.885,97.924h49.305 l-8.943,14.447l-44.261,4.358c-7.338,49.762-12.384,72.467-20.868,118.103c-15.365,75.907-32.336,111.224-53.433,134.616 c-19.724,21.786-38.07,28.666-48.847,28.666c-12.843,0-28.208-9.861-27.75-19.265c0-4.587,5.045-12.153,11.236-17.656 c4.129-2.982,6.192-2.065,8.945,0.457c6.649,5.963,18.345,9.861,25.455,9.861c7.339,0,14.447-3.44,18.576-7.567 c6.65-6.65,18.348-25.915,33.481-113.288c10.32-56.874,16.284-92.19,22.705-134.846H139.24l-1.376-5.732l13.3-12.154H179.371z"/>
		<path stroke="#000000" stroke-width="19" d="M263.993,196.682 c18.348-25.227,36.234-43.574,50.224-43.574c11.695,0,17.888,16.971,28.207,48.848l8.486,23.85 c36.232-52.517,55.955-72.698,75.677-72.698c10.779,0,18.348,9.403,18.348,18.805c0,9.403-10.32,18.805-16.513,18.805 c-2.293,0-4.357-0.916-6.651-3.897c-2.751-2.752-5.961-4.586-9.86-4.586c-6.42,0-15.365,7.568-27.748,22.932 c-9.403,11.925-19.723,23.622-28.665,37.151l13.758,40.362c9.403,29.123,15.365,41.277,22.934,41.277 c7.109,0,17.888-8.713,30.959-25.225l8.486,9.402c-19.264,29.583-38.527,46.096-53.434,46.096 c-10.321,0-20.641-13.302-28.667-40.133l-14.219-42.654c-39.902,61.46-60.541,82.787-81.182,82.787 c-11.237,0-20.639-8.945-20.181-20.87c0-9.86,8.943-20.639,17.429-20.639c2.752,0,5.046,1.834,7.568,4.814 c1.834,2.294,5.504,4.587,9.402,4.587c13.07,0,32.335-23.849,61.919-68.109l-15.595-46.324 c-5.503-18.348-9.402-25.915-13.989-25.915c-4.816,0-12.154,5.046-28.664,25.456L263.993,196.682z"/>
	</svg>

	<svg id="icon-layer-link" viewBox="0 0 500 500">
		<path stroke="#000000" stroke-width="5" d="M224.083,299.295c-5.302,0-10.602-2.021-14.646-6.067
			c-37.892-37.893-37.892-99.547,0-137.439l76.473-76.474c18.357-18.357,42.762-28.464,68.72-28.464
			c25.959,0,50.364,10.107,68.721,28.464c37.892,37.893,37.892,99.547,0,137.44l-34.956,34.958c-8.089,8.089-21.202,8.089-29.292,0
			c-8.088-8.088-8.088-21.203,0-29.292l34.957-34.956c21.741-21.742,21.741-57.119,0-78.86c-10.53-10.532-24.535-16.332-39.43-16.332
			c-14.896,0-28.897,5.8-39.429,16.333l-76.474,76.473c-21.742,21.741-21.742,57.118,0,78.859c8.089,8.088,8.086,21.201,0,29.29
			C234.685,297.272,229.382,299.295,224.083,299.295L224.083,299.295z"/>
		<path stroke="#000000" stroke-width="5" d="M150.702,449.148c-25.959,0-50.365-10.109-68.721-28.465
			c-37.891-37.892-37.891-99.548,0-137.441l34.958-34.955c8.088-8.088,21.202-8.088,29.289,0c8.089,8.087,8.089,21.202,0,29.291
			l-34.957,34.956c-21.741,21.741-21.741,57.119,0,78.859c10.532,10.531,24.536,16.331,39.431,16.331
			c14.895,0,28.896-5.8,39.43-16.333l76.473-76.472c21.741-21.742,21.741-57.119,0-78.859c-8.088-8.088-8.088-21.203,0-29.291
			c8.088-8.089,21.202-8.089,29.29,0c37.892,37.892,37.892,99.547,0.001,137.44l-76.473,76.474
			C201.065,439.04,176.661,449.148,150.702,449.148L150.702,449.148z"/>
	</svg>

</svg>

